<?xml version="1.0" standalone="no"?>
<!DOCTYPE svg PUBLIC "-//W3C//DTD SVG 1.1//EN" "http://www.w3.org/Graphics/SVG/1.1/DTD/svg11.dtd" >
<svg>
<metadata>
Created by FontForge 20090914 at Mon Aug 31 16:29:09 2020
 By www-data
Copyright &#194;&#169;2016. Cerebri Sans is a trademark of Alfredo Marco Pradil. All rights reserved.
</metadata>
<defs>
<font id="CerebriSans-Regular" horiz-adv-x="0" >
  <font-face 
    font-family="Cerebri Sans"
    font-weight="400"
    font-stretch="normal"
    units-per-em="2048"
    panose-1="0 0 5 0 0 0 0 0 0 0"
    ascent="1536"
    descent="-512"
    x-height="983"
    cap-height="1408"
    bbox="-1638 -559.001 2769 2331"
    underline-thickness="102"
    underline-position="-286"
    unicode-range="U+0020-U+FB02"
  />
<missing-glyph horiz-adv-x="1252" 
d="M204 0v1536h844v-1536h-844zM340 135h573v1266h-573v-1266z" />
    <glyph glyph-name="fi" unicode="fi" horiz-adv-x="1177" 
d="M227 1189c0 42.667 3.5 80.833 10.5 114.5s16.333 62.5 28 86.5s27.167 44.833 46.5 62.5s39.5 31.834 60.5 42.501s45.833 19 74.5 25s56.834 10.167 84.501 12.5s59.5 3.5 95.5 3.5v-145h-37.5c-7.66699 0 -19.667 -0.666992 -36 -2s-28.333 -3 -36 -5
s-18 -5.33301 -31 -10s-22.833 -10.334 -29.5 -17.001s-14.334 -15.167 -23.001 -25.5s-15.167 -22.333 -19.5 -36s-8 -29.667 -11 -48s-4.5 -38.833 -4.5 -61.5v-203h228v-138h-228v-845h-172v845h-190v138h190v206zM915 1214c-32 0 -59.5 11.5 -82.5 34.5
s-34.5 50.5 -34.5 82.5s11.5 59.333 34.5 82s50.5 34 82.5 34c31.333 0 58.5 -11.333 81.5 -34s34.5 -50 34.5 -82s-11.5 -59.5 -34.5 -82.5s-50.167 -34.5 -81.5 -34.5zM827 -0.000976562v983h174v-983h-174z" />
    <glyph glyph-name="fl" unicode="fl" horiz-adv-x="1178" 
d="M227 1189c0 42.667 3.5 80.833 10.5 114.5s16.333 62.5 28 86.5s27.167 44.833 46.5 62.5s39.5 31.834 60.5 42.501s45.833 19 74.5 25s56.834 10.167 84.501 12.5s59.5 3.5 95.5 3.5v-145h-37.5c-7.66699 0 -19.667 -0.666992 -36 -2s-28.333 -3 -36 -5
s-18 -5.33301 -31 -10s-22.833 -10.334 -29.5 -17.001s-14.334 -15.167 -23.001 -25.5s-15.167 -22.333 -19.5 -36s-8 -29.667 -11 -48s-4.5 -38.833 -4.5 -61.5v-203h228v-138h-228v-845h-172v845h-190v138h190v206zM827 1536h175v-1536h-175v1536z" />
    <glyph glyph-name="f_f" unicode="ff" horiz-adv-x="1283" 
d="M227 0v844.998h-190v138h190v206c0 42.667 3.5 80.834 10.5 114.501s16.333 62.5 28 86.5s27.167 44.833 46.5 62.5s39.5 31.834 60.5 42.501s45.833 19 74.5 25s56.834 10.167 84.501 12.5s59.5 3.5 95.5 3.5v-145h-37.5c-7.66699 0 -19.667 -0.666992 -36 -2
s-28.333 -3 -36 -5s-18 -5.33301 -31 -10s-22.833 -10.334 -29.5 -17.001s-14.334 -15.167 -23.001 -25.5s-15.167 -22.333 -19.5 -36s-8 -29.667 -11 -48s-4.5 -38.833 -4.5 -61.5v-203h460v206c0 42.667 3.5 80.834 10.5 114.501s16.333 62.5 28 86.5
s27.167 44.833 46.5 62.5s39.5 31.834 60.5 42.501s45.833 19 74.5 25s56.834 10.167 84.501 12.5s59.5 3.5 95.5 3.5v-145h-37.5c-7.66699 0 -19.667 -0.666992 -36 -2s-28.333 -3 -36 -5s-18 -5.33301 -31 -10s-22.833 -10.334 -29.5 -17.001
s-14.334 -15.167 -23.001 -25.5s-15.167 -22.333 -19.5 -36s-8 -29.667 -11 -48s-4.5 -38.833 -4.5 -61.5v-203h228v-138h-228v-845h-172v845h-460v-845h-172z" />
    <glyph glyph-name=".notdef" horiz-adv-x="1252" 
d="M204 0v1536h844v-1536h-844zM340 135h573v1266h-573v-1266z" />
    <glyph glyph-name="space" unicode=" " horiz-adv-x="532" 
 />
    <glyph glyph-name="exclam" unicode="!" horiz-adv-x="654" 
d="M252 399l-12 1009h173l-12 -1009h-149zM326 -20c-31.333 0 -58.5 11.333 -81.5 34s-34.5 50 -34.5 82s11.333 59.333 34 82s50 34 82 34s59.5 -11.333 82.5 -34s34.5 -50 34.5 -82s-11.5 -59.333 -34.5 -82s-50.5 -34 -82.5 -34z" />
    <glyph glyph-name="quotedbl" unicode="&#x22;" horiz-adv-x="984" 
d="M253 763l-15 645h164l-11 -645h-138zM593 763l-10 645h162l-14 -645h-138z" />
    <glyph glyph-name="numbersign" unicode="#" horiz-adv-x="1507" 
d="M335 0l49 345h-280l18 133h281l65 452h-281l21 132h276l53 350h130l-48 -350h370l49 350h134l-51 -350h282l-21 -132h-278l-64 -452h279l-19 -133h-278l-53 -345h-130l49 345h-372l-50 -345h-131zM535 478h371l65 452h-373z" />
    <glyph glyph-name="dollar" unicode="$" horiz-adv-x="1363" 
d="M1201 382c0 -64.667 -12.0039 -122.164 -36.0039 -172.497s-57.5 -91.5 -100.5 -123.5s-92 -56.667 -147 -74s-115.167 -27.666 -180.5 -30.999v-128h-94v128c-128.667 7.33301 -237.167 44 -325.5 110s-143.5 153.333 -165.5 262l182 44
c14.667 -73.333 50 -132.666 106 -177.999s123.667 -72.333 203 -81v510l-10 3c-38.667 10.667 -70.167 19.667 -94.5 27s-53.666 17.5 -87.999 30.5s-62.166 25.833 -83.499 38.5s-44.166 28.667 -68.499 48s-43.333 40.166 -57 62.499s-25 48.666 -34 78.999
s-13.5 63.5 -13.5 99.5c0 62 12 117.833 36 167.5s56.667 90.167 98 121.5s88.833 55.666 142.5 72.999s111.167 26.666 172.5 27.999v133h94v-136c113.333 -10.667 209.666 -44.334 288.999 -101.001s130.333 -135.667 153 -237l-173 -45
c-15.333 66 -46.666 118 -93.999 156s-105.666 61.667 -174.999 71v-480c30.667 -8 55.667 -14.833 75 -20.5s43.5 -13.167 72.5 -22.5s53 -18.333 72 -27s40.667 -19.5 65 -32.5s44.166 -26.167 59.499 -39.5s31.333 -29.333 48 -48s29.834 -38.5 39.501 -59.5
s17.5 -44.667 23.5 -71s9 -54.5 9 -84.5zM373.996 1038c0 -32 6.66602 -60.334 19.999 -85.001s33.333 -45.667 60 -63s54.334 -31.666 83.001 -42.999s64 -23 106 -35v459c-76 -4 -139.833 -25.333 -191.5 -64s-77.5 -95 -77.5 -169zM736.995 136.002
c84.667 5.33301 153 27.665 205 66.998s77.333 97.333 76 174c-0.666992 34.667 -8 65.334 -22 92.001s-35 49.5 -63 68.5s-57 34.833 -87 47.5s-66.333 25.334 -109 38.001v-487z" />
    <glyph glyph-name="percent" unicode="%" horiz-adv-x="1532" 
d="M410 847c-79.333 0 -147.166 28.332 -203.499 84.999s-84.5 125.334 -84.5 206.001c0 79.333 28.167 147.5 84.5 204.5s124.166 85.5 203.499 85.5c80 0 148 -28.5 204 -85.5s84 -125.167 84 -204.5c0 -80 -28 -148.5 -84 -205.5s-124 -85.5 -204 -85.5zM307 -1.00098
l750 1411h158l-750 -1411h-158zM410 972.999c46.667 0 85.833 16.168 117.5 48.501s47.5 71.166 47.5 116.499c0 46 -16 84.833 -48 116.5s-71 47.5 -117 47.5c-45.333 0 -84.166 -15.833 -116.499 -47.5s-48.5 -70.5 -48.5 -116.5s16.167 -85 48.5 -117
s71.166 -48 116.499 -48zM1124 -18c-80.667 0 -149.167 28.333 -205.5 85s-84.5 125 -84.5 205s28.333 148.167 85 204.5s125 84.5 205 84.5c78.667 0 146 -28.333 202 -85s84 -124.667 84 -204c0 -80 -27.833 -148.333 -83.5 -205s-123.167 -85 -202.5 -85zM1124 107
c45.333 0 84.333 16.332 117 48.999s49 71.334 49 116.001c0 46 -16.333 85 -49 117s-71.667 48 -117 48c-46.667 0 -86 -15.833 -118 -47.5s-48 -70.834 -48 -117.501c0 -45.333 16.167 -84.166 48.5 -116.499s71.5 -48.5 117.5 -48.5z" />
    <glyph glyph-name="ampersand" unicode="&#x26;" horiz-adv-x="1513" 
d="M1367 0l-207 0.000976562l-114 150c-141.333 -113.333 -298.333 -170 -471 -170c-131.333 0 -238.666 33 -321.999 99s-125 159.333 -125 280c0 41.333 5.83301 79.833 17.5 115.5s27 67.667 46 96s46.5 58.166 82.5 89.499s72 59.666 108 84.999s83 56.333 141 93
c-58.667 78.667 -99.5 140.167 -122.5 184.5s-34.5 89.5 -34.5 135.5c0 81.333 32.333 147.333 97 198c60 48 136.667 72 230 72c94 0 172 -24.667 234 -74s93 -115.333 93 -198c0 -65.333 -21.833 -124.5 -65.5 -177.5s-114.167 -110.167 -211.5 -171.5l319 -413
c92 126 138 259 138 399h161c0 -95.333 -17.333 -188.666 -52 -279.999s-83.334 -174.333 -146.001 -249zM575 1257c-28 -28 -42.001 -64.667 -42.001 -110c0 -22 4.83301 -44 14.5 -66s20.334 -41.333 32.001 -58l70.5 -96l12 -15c67.333 43.333 117 84 149 122
s48 78.333 48 121c0 46 -16 82.167 -48 108.5s-70.667 39.5 -116 39.5c-49.333 0 -89.333 -15.333 -120 -46zM580.999 128.001c135.333 0 258.999 48.333 370.999 145l-344 452l-109.5 -70.5c-26.333 -17.667 -54.666 -39 -84.999 -64s-53 -47.833 -68 -68.5
s-27.667 -44.5 -38 -71.5s-15.5 -55.833 -15.5 -86.5c0 -77.333 26.833 -136 80.5 -176s123.167 -60 208.5 -60z" />
    <glyph glyph-name="quotesingle" unicode="'" horiz-adv-x="642" 
d="M251 763l-10 645h162l-14 -645h-138z" />
    <glyph glyph-name="parenleft" unicode="(" horiz-adv-x="674" 
d="M539 -499c-130.667 84 -233.498 219.501 -308.498 406.501s-112.5 406.167 -112.5 657.5c0 250 37.5 469 112.5 657s177.833 324 308.5 408l92 -114c-110.667 -70 -198.334 -188.833 -263.001 -356.5s-97 -365.834 -97 -594.501c0 -230 32.167 -428.167 96.5 -594.5
s152.166 -284.5 263.499 -354.5z" />
    <glyph glyph-name="parenright" unicode=")" horiz-adv-x="674" 
d="M135 -499l-91.998 114.999c111.333 70 199.166 188.167 263.499 354.5s96.5 364.5 96.5 594.5c0 228.667 -32.333 426.834 -97 594.501s-152.334 286.5 -263.001 356.5l92 114c130.667 -84 233.5 -220 308.5 -408s112.5 -407 112.5 -657
c0 -251.333 -37.5 -470.5 -112.5 -657.5s-177.833 -322.5 -308.5 -406.5z" />
    <glyph glyph-name="asterisk" unicode="*" horiz-adv-x="990" 
d="M364 908l-89.0059 54l149 200c10.667 14 13.334 25.833 8.00098 35.5s-16.666 13.167 -33.999 10.5l-253 -23v103l253 -25c16.667 -2.66699 27.834 1 33.501 11s3.16699 21.667 -7.5 35l-149 205l89 49l105 -226c7.33301 -16 16.333 -24 27 -24s19.334 8 26.001 24
l104 226l90 -49l-150 -205c-10.667 -13.333 -13.167 -25 -7.5 -35s16.834 -13.667 33.501 -11l252 25v-103l-252 23c-17.333 2.66699 -28.666 -0.666016 -33.999 -9.99902s-2.66602 -21.333 8.00098 -36l150 -200l-90 -54l-104 227c-6.66699 16 -15.334 24.167 -26.001 24.5
s-19.667 -7.83398 -27 -24.501z" />
    <glyph glyph-name="plus" unicode="+" horiz-adv-x="1207" 
d="M533 206v405h-405v142h405v403h142v-403h403v-142h-403v-405h-142z" />
    <glyph glyph-name="comma" unicode="," horiz-adv-x="649" 
d="M311 -361h-126l122 620h181z" />
    <glyph glyph-name="hyphen" unicode="-" horiz-adv-x="1060" 
d="M171 461v143h717v-143h-717z" />
    <glyph glyph-name="period" unicode="." horiz-adv-x="659" 
d="M328 -20c-31.333 0 -58.499 11.333 -81.499 34s-34.5 50 -34.5 82c0 31.333 11.5 58.5 34.5 81.5s50.167 34.5 81.5 34.5s58.666 -11.5 81.999 -34.5s35 -50.167 35 -81.5c0 -32 -11.5 -59.333 -34.5 -82s-50.5 -34 -82.5 -34z" />
    <glyph glyph-name="slash" unicode="/" horiz-adv-x="1151" 
d="M-4 -372l992 1908h167l-992 -1908h-167z" />
    <glyph glyph-name="zero" unicode="0" horiz-adv-x="1153" 
d="M577 -19c-150 0 -265.667 61.333 -347 184s-122 302.667 -122 540s40.167 417 120.5 539s196.5 183 348.5 183c150.667 0 266.334 -61.167 347.001 -183.5s121 -301.833 121 -538.5s-40.833 -416.5 -122.5 -539.5s-196.834 -184.5 -345.501 -184.5zM577 141
c95.333 0 168.333 47.002 219 141.002s76 235 76 423c0 189.333 -25.833 330.166 -77.5 422.499s-124.167 138.5 -217.5 138.5c-94 0 -166.667 -46 -218 -138s-77 -233 -77 -423c0 -188.667 25.167 -329.834 75.5 -423.501s123.5 -140.5 219.5 -140.5z" />
    <glyph glyph-name="one" unicode="1" horiz-adv-x="1153" 
d="M587 1408h162v-1408h-171v1219l-338 -293v185z" />
    <glyph glyph-name="two" unicode="2" horiz-adv-x="1153" 
d="M349 159l701.001 -0.00292969v-159h-950v131l564 583c61.333 62.667 103.666 118.334 126.999 167.001s35 97 35 145c0 80 -23.667 142.167 -71 186.5s-108.666 66.5 -183.999 66.5c-80.667 0 -144.834 -24.167 -192.501 -72.5s-71.5 -123.833 -71.5 -226.5v-104l-173 16
v87c0 146 39.667 257.5 119 334.5s185.333 115.5 318 115.5c124 0 225.833 -35.667 305.5 -107s119.5 -168.666 119.5 -291.999c0 -73.333 -15.833 -141.166 -47.5 -203.499s-82.5 -129.833 -152.5 -202.5z" />
    <glyph glyph-name="three" unicode="3" horiz-adv-x="1153" 
d="M567 -19c-312.667 0 -468.999 167.001 -468.999 501.001l176 9c0 -118 22 -206.333 66 -265s119.667 -88 227 -88c90 0 162.833 25.333 218.5 76s83.5 117 83.5 199c0 83.333 -26.833 149.333 -80.5 198s-120.834 73 -201.501 73h-70v147h68c60 0 111.333 21.667 154 65
s64 96.666 64 159.999s-22.667 115 -68 155s-102.333 60 -171 60c-44 0 -81.5 -7 -112.5 -21s-54.833 -34.5 -71.5 -61.5s-28.667 -56.833 -36 -89.5s-11 -70.667 -11 -114l-176 6c0 140 35.167 247.667 105.5 323s170.5 113 300.5 113c115.333 0 211.5 -34.333 288.5 -103
s115.5 -154 115.5 -256c0 -69.333 -18.667 -130.333 -56 -183s-84.333 -90.667 -141 -114c80.667 -23.333 146.667 -66.333 198 -129s77 -141.667 77 -237c0 -126.667 -44.833 -229 -134.5 -307s-204.167 -117 -343.5 -117z" />
    <glyph glyph-name="four" unicode="4" horiz-adv-x="1153" 
d="M1110 442v-159h-217v-283h-173v283h-674v160l586 965h261v-966h217zM225 442h495v839z" />
    <glyph glyph-name="five" unicode="5" horiz-adv-x="1153" 
d="M544 906c171.333 0 299.335 -39.5 384.002 -118.5s127 -189.167 127 -330.5c0 -140 -43.5 -254.167 -130.5 -342.5s-200.833 -132.5 -341.5 -132.5c-62 0 -120.833 9.5 -176.5 28.5s-105.334 46.333 -149.001 82s-78.334 81.834 -104.001 138.501s-38.5 120 -38.5 190
c0 19.333 1.66699 43.333 5 72l177 15c-5.33301 -38.667 -8 -65 -8 -79c0 -49.333 8.5 -93 25.5 -131s39.833 -67.833 68.5 -89.5s59.5 -37.834 92.5 -48.501s67.833 -16 104.5 -16c90.667 0 163.5 28.667 218.5 86s82.5 131 82.5 221c0 94 -28.5 168 -85.5 222
s-147.167 81 -270.5 81h-356l87 652h738v-161h-592l-46 -339h188z" />
    <glyph glyph-name="six" unicode="6" horiz-adv-x="1153" 
d="M1063 469c1.33301 -94 -19.999 -178.332 -63.999 -252.999s-103 -132 -177 -172s-155.333 -60 -244 -60c-139.333 0 -256 44.167 -350 132.5s-141 202.166 -141 341.499c0 117.333 40.667 230 122 338l471 612h204l-391 -493c39.333 11.333 80 17 122 17
c77.333 0 149.333 -18 216 -54s121.667 -89.833 165 -161.5s65.666 -154.167 66.999 -247.5zM574.001 145.001c94 0 171.168 29.832 231.501 89.499s89.833 138.834 88.5 237.501c-1.33301 100 -32.333 179.167 -93 237.5s-137.334 87.5 -230.001 87.5
s-169.334 -32.167 -230.001 -96.5s-90.334 -142.833 -89.001 -235.5c0.666992 -100 30.834 -178.333 90.501 -235s136.834 -85 231.501 -85z" />
    <glyph glyph-name="seven" unicode="7" horiz-adv-x="1153" 
d="M98 1408h963v-145l-688 -1263h-198l694 1248h-771v160z" />
    <glyph glyph-name="eight" unicode="8" horiz-adv-x="1153" 
d="M578 -19c-136.667 0 -250.499 38.8291 -341.499 116.496s-136.5 179.834 -136.5 306.501c0 88.667 23.667 165.334 71 230.001s111.666 112 192.999 142c-58 28.667 -104.167 68.834 -138.5 120.501s-51.5 109.5 -51.5 173.5c0 104 38.333 189.5 115 256.5
s173 100.5 289 100.5c114 0 209.167 -33.667 285.5 -101s114.5 -152.666 114.5 -255.999c0 -64 -16.667 -121.833 -50 -173.5s-78.666 -91.834 -135.999 -120.501c80.667 -30.667 144.667 -78.167 192 -142.5s71 -140.833 71 -229.5
c0 -127.333 -45.333 -229.666 -136 -306.999s-204.334 -116 -341.001 -116zM578.001 832.996c67.333 0 124.166 22 170.499 66s69.5 98 69.5 162c0 62.667 -23.167 115.5 -69.5 158.5s-103.166 64.5 -170.499 64.5c-68.667 0 -126 -21.333 -172 -64s-69 -95.667 -69 -159
c0 -64 23.167 -118 69.5 -162s103.5 -66 171.5 -66zM578.001 140.996c86.667 0 158.834 25.667 216.501 77s86.5 119.333 86.5 204c0 83.333 -28.833 150.333 -86.5 201s-129.834 76 -216.501 76c-87.333 0 -160 -25.333 -218 -76s-87 -117.667 -87 -201
c0 -84.667 29 -152.667 87 -204s130.667 -77 218 -77z" />
    <glyph glyph-name="nine" unicode="9" horiz-adv-x="1153" 
d="M574 1424c138.667 0 255.163 -44.1689 349.496 -132.502s141.5 -202.166 141.5 -341.499c0 -116.667 -41 -229.334 -123 -338.001l-471 -612h-207l389 490c-37.333 -10 -76.666 -15 -117.999 -15c-76.667 0 -148.167 18.167 -214.5 54.5s-121.166 90.333 -164.499 162
s-65.666 153.834 -66.999 246.501c-0.666992 71.333 11.5 137.5 36.5 198.5s59.5 112.333 103.5 154s95.833 74.334 155.5 98.001s122.834 35.5 189.501 35.5zM580.996 610.998c92.667 0 169.166 32.1689 229.499 96.502s89.833 142.833 88.5 235.5
c-1.33301 99.333 -31.666 177.333 -90.999 234s-136 85 -230 85c-93.333 0 -170.5 -29.833 -231.5 -89.5s-90.833 -138.834 -89.5 -237.501s32.5 -177.334 93.5 -236.001s137.833 -88 230.5 -88z" />
    <glyph glyph-name="colon" unicode=":" horiz-adv-x="638" 
d="M317 676c-31.333 0 -58.5 11.333 -81.5 34s-34.5 50 -34.5 82c0 31.333 11.5 58.5 34.5 81.5s50.167 34.5 81.5 34.5c32 0 59.5 -11.5 82.5 -34.5s34.5 -50.167 34.5 -81.5c0 -32 -11.5 -59.333 -34.5 -82s-50.5 -34 -82.5 -34zM317 -20c-31.333 0 -58.5 11.333 -81.5 34
s-34.5 50 -34.5 82c0 31.333 11.5 58.5 34.5 81.5s50.167 34.5 81.5 34.5c32 0 59.5 -11.5 82.5 -34.5s34.5 -50.167 34.5 -81.5c0 -32 -11.5 -59.333 -34.5 -82s-50.5 -34 -82.5 -34z" />
    <glyph glyph-name="semicolon" unicode=";" horiz-adv-x="651" 
d="M351 676c-32 0 -59.667 11.333 -83 34s-35 50 -35 82c0 31.333 11.667 58.5 35 81.5s51 34.5 83 34.5c31.333 0 58.666 -11.5 81.999 -34.5s35 -50.167 35 -81.5c0 -32 -11.667 -59.333 -35 -82s-50.666 -34 -81.999 -34zM153 -361l123 620h181l-178 -620h-126z" />
    <glyph glyph-name="less" unicode="&#x3c;" horiz-adv-x="1390" 
d="M1245 1361v-157l-981 -495l981 -496v-160l-1130 572v169z" />
    <glyph glyph-name="equal" unicode="=" horiz-adv-x="1291" 
d="M264 824v142h764v-142h-764zM264 415v142h764v-142h-764z" />
    <glyph glyph-name="greater" unicode="&#x3e;" horiz-adv-x="1390" 
d="M145 1361l1130 -567v-169l-1130 -572v160l981 496l-981 495v157z" />
    <glyph glyph-name="question" unicode="?" horiz-adv-x="1037" 
d="M438 394l-0.00292969 124.998c0 62.667 15.667 111.167 47 145.5s82 68.5 152 102.5c87.333 43.333 131 124.333 131 243c0 82.667 -24 148.834 -72 198.501s-110 74.5 -186 74.5c-74 0 -135.167 -26.333 -183.5 -79s-72.5 -119.334 -72.5 -200.001
c0 -24.667 2.66699 -52 8 -82l-152 15c-4.66699 27.333 -7 56 -7 86c0 118.667 37.833 215.834 113.5 291.501s172.834 113.5 291.501 113.5c120.667 0 219.667 -38.333 297 -115s116 -176.667 116 -300c0 -50.667 -6.16699 -96.667 -18.5 -138
s-29.166 -76.333 -50.499 -105s-44.5 -52.667 -69.5 -72s-52.167 -35 -81.5 -47c-39.333 -16.667 -68.166 -35.667 -86.499 -57s-27.5 -50.666 -27.5 -87.999v-112h-149zM517.997 -20.002c-31.333 0 -58.333 11.333 -81 34s-34 50 -34 82c0 31.333 11.5 58.5 34.5 81.5
s49.833 34.5 80.5 34.5c31.333 0 58.333 -11.5 81 -34.5s34 -50.167 34 -81.5c0 -32 -11.333 -59.333 -34 -82s-49.667 -34 -81 -34z" />
    <glyph glyph-name="at" unicode="@" horiz-adv-x="1792" 
d="M898 -201c-100.667 0 -197.002 19.668 -289.002 59.001s-171.167 92.166 -237.5 158.499s-119.166 145.5 -158.499 237.5s-59 188.667 -59 290c0 100.667 19.167 196.667 57.5 288s90.5 170.333 156.5 237s145.333 119.667 238 159s190.667 59 294 59
c102.667 0 199.667 -19.333 291 -58s170 -91.5 236 -158.5s118.333 -147.5 157 -241.5s58 -194 58 -300c0 -70.667 -8.5 -132.334 -25.5 -185.001s-40.5 -94.167 -70.5 -124.5s-63 -52.833 -99 -67.5s-75.333 -22 -118 -22c-60.667 0 -112.334 12 -155.001 36
s-72.667 57.667 -90 101h-8c-60 -80.667 -145.667 -121 -257 -121c-71.333 0 -129.666 18.167 -174.999 54.5s-68 89.5 -68 159.5c0 70.667 24.333 124.167 73 160.5s118.667 62.833 210 79.5l200 38v51c0 54.667 -15.167 94.334 -45.5 119.001s-70.166 37 -119.499 37
c-100 0 -158.333 -42.333 -175 -127l-126 31c14 62.667 47.167 111.167 99.5 145.5s119.5 51.5 201.5 51.5c41.333 0 79.333 -4.83301 114 -14.5s66.334 -24.5 95.001 -44.5s51.167 -48 67.5 -84s24.5 -78 24.5 -126v-305c0 -43.333 11.833 -77 35.5 -101
s58.167 -36 103.5 -36c59.333 0 106 23.167 140 69.5s51 117.833 51 214.5c0 94 -16.333 181.667 -49 263s-77 150.333 -133 207s-122.167 101 -198.5 133s-157.5 48 -243.5 48c-87.333 0 -170 -16.5 -248 -49.5s-144.833 -77.5 -200.5 -133.5
s-99.834 -122.5 -132.501 -199.5s-49 -157.833 -49 -242.5c0 -114 28 -219.167 84 -315.5s132.333 -172.5 229 -228.5s202.667 -84 318 -84c112.667 0 216.667 28.333 312 85l54 -103c-112 -66.667 -235.333 -100 -370 -100zM851.998 247.001
c24.667 0 48.834 3.50098 72.501 10.501s46.667 18 69 33s40.333 36.833 54 65.5s20.5 62.334 20.5 101.001v90l-185 -37c-60.667 -12.667 -104.334 -29.334 -131.001 -50.001s-40 -50.334 -40 -89.001c0 -40.667 12.667 -71.5 38 -92.5s59.333 -31.5 102 -31.5z" />
    <glyph glyph-name="A" unicode="A" horiz-adv-x="1372" 
d="M1125 0l-121 337h-637l-120 -337h-187l519 1408h214l519 -1408h-187zM424 495h524l-262 733z" />
    <glyph glyph-name="B" unicode="B" horiz-adv-x="1279" 
d="M889 735c86 -22 153.833 -62.832 203.5 -122.499s74.5 -136.5 74.5 -230.5c0 -113.333 -36.167 -205.333 -108.5 -276s-168.833 -106 -289.5 -106h-548v1408h427c124.667 0 225.167 -34.5 301.5 -103.5s114.5 -158.833 114.5 -269.5c0 -68 -15.167 -128.333 -45.5 -181
s-73.5 -92.334 -129.5 -119.001zM896 1024c0 66 -22.499 120.333 -67.499 163s-105.5 64 -181.5 64h-253v-460h286c63.333 0 115.166 22.5 155.499 67.5s60.5 100.167 60.5 165.5zM739.001 159.001c78 0 139.834 23.166 185.501 69.499s68.5 103.5 68.5 171.5
c0 70.667 -23.833 128.834 -71.5 174.501s-112.834 68.5 -195.501 68.5h-332v-484h345z" />
    <glyph glyph-name="C" unicode="C" horiz-adv-x="1532" 
d="M824 -19c-99.333 0 -191.665 16.834 -276.998 50.501s-159.5 81 -222.5 142s-112.333 137.167 -148 228.5s-53.5 192.333 -53.5 303c0 110 18 210.5 54 301.5s85.333 167.167 148 228.5s136.667 108.666 222 141.999s177.666 50 276.999 50
c139.333 0 264.166 -33 374.499 -99s192.833 -157.667 247.5 -275l-165 -68c-42.667 86.667 -104.167 153.5 -184.5 200.5s-171.166 70.5 -272.499 70.5c-73.333 0 -141.666 -12.333 -204.999 -37s-118.666 -60 -165.999 -106s-84.5 -104 -111.5 -174s-40.5 -148 -40.5 -234
s13.5 -164.167 40.5 -234.5s64.167 -128.5 111.5 -174.5s102.666 -81.5 165.999 -106.5s131.666 -37.5 204.999 -37.5c101.333 0 192.166 23.5 272.499 70.5s141.833 113.5 184.5 199.5l165 -67c-54.667 -118 -137 -209.833 -247 -275.5s-235 -98.5 -375 -98.5z" />
    <glyph glyph-name="D" unicode="D" horiz-adv-x="1452" 
d="M221 0v1408h454c140 0 259.5 -30.333 358.5 -91s172.333 -143.167 220 -247.5s71.5 -225.833 71.5 -364.5c0 -104 -13.833 -198.833 -41.5 -284.5s-68.167 -159.834 -121.5 -222.501s-121.5 -111.334 -204.5 -146.001s-177.167 -52 -282.5 -52h-454zM400 163.002h269
c155.333 0 272.5 48 351.5 144s118.5 228.667 118.5 398c0 168 -39.667 300 -119 396s-196.333 144 -351 144h-269v-1082z" />
    <glyph glyph-name="E" unicode="E" horiz-adv-x="1098" 
d="M976 1245h-572v-461h504v-161h-504v-460h572v-163h-755v1408h755v-163z" />
    <glyph glyph-name="F" unicode="F" horiz-adv-x="1063" 
d="M982 1245h-578v-460h504v-162h-504v-623h-183v1408h761v-163z" />
    <glyph glyph-name="G" unicode="G" horiz-adv-x="1630" 
d="M819 -19c-98 0 -189.498 16.499 -274.498 49.499s-158.667 79.667 -221 140s-111.333 136 -147 227s-53.5 191.833 -53.5 302.5c0 148 31 277.667 93 389s145.667 195.5 251 252.5s224.333 85.5 357 85.5c129.333 0 246.333 -28 351 -84s187 -137.333 247 -244l-158 -85
c-44.667 82 -105.334 143.833 -182.001 185.5s-162.667 62.5 -258 62.5c-73.333 0 -141.666 -12.333 -204.999 -37s-118.5 -60.167 -165.5 -106.5s-83.833 -105.166 -110.5 -176.499s-40 -151 -40 -239c0 -87.333 13.167 -166.333 39.5 -237s63 -129.5 110 -176.5
s102.667 -83 167 -108s134.166 -37.5 209.499 -37.5c129.333 0 236.833 36.5 322.5 109.5s136.167 177.167 151.5 312.5h-475v152h650v-718h-147v264c-46.667 -90.667 -113.834 -160.5 -201.501 -209.5s-191.167 -73.5 -310.5 -73.5z" />
    <glyph glyph-name="H" unicode="H" horiz-adv-x="1514" 
d="M1114 1408h179v-1408h-179v625h-713v-625h-180v1408h180v-622h713v622z" />
    <glyph glyph-name="I" unicode="I" horiz-adv-x="621" 
d="M221 0v1408h179v-1408h-179z" />
    <glyph glyph-name="J" unicode="J" horiz-adv-x="967" 
d="M357 -19c-106 0 -208.666 27.667 -307.999 83l78 152c67.333 -46 139.666 -69 216.999 -69c76.667 0 136.5 25.833 179.5 77.5s64.5 123.167 64.5 214.5v969h179v-1000c0 -132 -37.333 -236.167 -112 -312.5s-174 -114.5 -298 -114.5z" />
    <glyph glyph-name="K" unicode="K" horiz-adv-x="1314" 
d="M1030 0l-506 651h-124v-651h-179v1408h179v-595h123l487 595h220l-553 -671l583 -737h-230z" />
    <glyph glyph-name="L" unicode="L" horiz-adv-x="946" 
d="M400 163h489v-163h-668v1408h179v-1245z" />
    <glyph glyph-name="M" unicode="M" horiz-adv-x="1878" 
d="M1710 0h-174l-94 1162l-450 -1162h-107l-447 1158l-95 -1158h-175l107 1408h236l427 -1098l428 1098h238z" />
    <glyph glyph-name="N" unicode="N" horiz-adv-x="1566" 
d="M1167 1408h178v-1408h-189l-759 1139v-1139h-176v1408h187l759 -1134v1134z" />
    <glyph glyph-name="O" unicode="O" horiz-adv-x="1646" 
d="M824 -19c-99.333 0 -191.666 16.834 -276.999 50.501s-159.5 81 -222.5 142s-112.333 137.167 -148 228.5s-53.5 192.333 -53.5 303c0 110 18 210.5 54 301.5s85.333 167.167 148 228.5s136.667 108.666 222 141.999s177.666 50 276.999 50
c98 0 189.667 -16.833 275 -50.5s159.333 -81 222 -142s112 -137 148 -228s54 -191.5 54 -301.5s-18 -210.833 -54 -302.5s-85.333 -168 -148 -229s-136.667 -108.333 -222 -142s-177 -50.5 -275 -50.5zM824 150.001c150 0 274.167 49.501 372.5 148.501
s147.5 234.5 147.5 406.5c0 86 -13.5 164 -40.5 234s-64 128 -111 174s-102 81.333 -165 106s-130.833 37 -203.5 37c-73.333 0 -141.666 -12.333 -204.999 -37s-118.666 -60 -165.999 -106s-84.5 -104 -111.5 -174s-40.5 -148 -40.5 -234
c0 -86.667 13.5 -165.334 40.5 -236.001s64.167 -129 111.5 -175s102.666 -81.5 165.999 -106.5s131.666 -37.5 204.999 -37.5z" />
    <glyph glyph-name="P" unicode="P" horiz-adv-x="1267" 
d="M754 1408c82.667 0 156.169 -19.5 220.502 -58.5s113.666 -91.167 147.999 -156.5s51.5 -137.666 51.5 -216.999c0 -122.667 -38.833 -224.834 -116.5 -306.501s-178.834 -122.5 -303.501 -122.5h-354v-547h-179v1408h533zM728.002 703
c83.333 0 148.666 25.167 195.999 75.5s71 116.833 71 199.5c0 81.333 -23.667 147.5 -71 198.5s-112.666 76.5 -195.999 76.5h-328v-550h328z" />
    <glyph glyph-name="Q" unicode="Q" horiz-adv-x="1666" 
d="M1573 -71l-161 -54.999l-198 212c-114 -70 -243.667 -105 -389 -105c-99.333 0 -192 16.833 -278 50.5s-160.5 81 -223.5 142s-112.5 137.167 -148.5 228.5s-54 192.333 -54 303c0 110 18 210.5 54 301.5s85.5 167 148.5 228s137.5 108.333 223.5 142
s178.667 50.5 278 50.5c98.667 0 191 -16.833 277 -50.5s160.5 -81 223.5 -142s112.667 -137 149 -228s54.5 -191.5 54.5 -301.5c0 -214.667 -64.667 -388.334 -194 -521.001zM299 705.001c0 -88 13.668 -167.833 41.001 -239.5s64.833 -130.667 112.5 -177
s103.334 -82 167.001 -107s132.167 -37.5 205.5 -37.5s141.666 12.5 204.999 37.5s118.833 60.667 166.5 107s85 105.333 112 177s40.5 151.5 40.5 239.5c0 114 -23.5 213.167 -70.5 297.5s-109.667 147.666 -188 189.999s-166.833 63.5 -265.5 63.5
s-187.334 -21.167 -266.001 -63.5s-141.667 -105.666 -189 -189.999s-71 -183.5 -71 -297.5z" />
    <glyph glyph-name="R" unicode="R" horiz-adv-x="1275" 
d="M983 0l-362 635h-221v-635h-179v1408h467c138 0 243.167 -37.167 315.5 -111.5s108.5 -169.833 108.5 -286.5c0 -98 -27.5 -179.667 -82.5 -245s-131.5 -106.333 -229.5 -123l392 -642h-209zM400 1251v-475h264c91.333 0 160 21.167 206 63.5s69 99.833 69 172.5
s-23.167 130.667 -69.5 174s-114.833 65 -205.5 65h-264z" />
    <glyph glyph-name="S" unicode="S" horiz-adv-x="1271" 
d="M656 -19c-146.667 0 -269.161 33.166 -367.494 99.499s-159.5 157.5 -183.5 273.5l181 43c16.667 -81.333 59 -145.333 127 -192s151 -70 249 -70c32.667 0 63.667 2.66699 93 8s57.5 14.166 84.5 26.499s50.167 27.5 69.5 45.5s34.666 41 45.999 69
s16.666 59.333 15.999 94c-0.666992 24 -4.83398 46.167 -12.501 66.5s-17 37.833 -28 52.5s-26.833 28.834 -47.5 42.501s-39.667 25 -57 34s-40.833 18.5 -70.5 28.5s-54.5 17.833 -74.5 23.5l-81 22.5c-6.66699 2 -11.667 3.33301 -15 4
c-38.667 10 -70.167 18.667 -94.5 26s-53.5 17.5 -87.5 30.5s-61.833 25.833 -83.5 38.5s-44.5 28.667 -68.5 48s-42.833 40.166 -56.5 62.499s-25 48.833 -34 79.5s-13.5 64 -13.5 100c0 84 21.833 156 65.5 216s100 104 169 132s146.5 42 232.5 42
c131.333 0 244.166 -28.833 338.499 -86.5s154.166 -142.834 179.499 -255.501l-174 -44c-17.333 76.667 -56.333 134.334 -117 173.001s-134 58 -220 58c-38 0 -74 -4.33301 -108 -13s-65.167 -22 -93.5 -40s-50.833 -42.5 -67.5 -73.5s-25 -66.833 -25 -107.5
c0 -21.333 3.33301 -41.166 10 -59.499s15 -34.166 25 -47.499s24.333 -26.333 43 -39s36.167 -23 52.5 -31s38.166 -16.5 65.499 -25.5s50.666 -16.333 69.999 -22s45 -12.5 77 -20.5c126 -33.333 216.333 -63.333 271 -90c122 -60 191.667 -146.333 209 -259
c2.66699 -19.333 4 -39.666 4 -60.999c0 -68.667 -13.5 -129.334 -40.5 -182.001s-64 -94.667 -111 -126s-99.667 -54.833 -158 -70.5s-121.166 -23.5 -188.499 -23.5z" />
    <glyph glyph-name="T" unicode="T" horiz-adv-x="1013" 
d="M957 1408v-163h-361v-1245h-178v1245h-362v163h901z" />
    <glyph glyph-name="U" unicode="U" horiz-adv-x="1409" 
d="M703 -19c-149.333 0 -271.833 43.3311 -367.5 129.998s-143.5 205.334 -143.5 356.001v941h179v-916c0 -113.333 30.833 -199.666 92.5 -258.999s141.5 -89 239.5 -89s178.333 29.833 241 89.5s94 145.834 94 258.501v916h179v-941
c0 -150.667 -48.167 -269.334 -144.5 -356.001s-219.5 -130 -369.5 -130z" />
    <glyph glyph-name="V" unicode="V" horiz-adv-x="1336" 
d="M1087 1408h189l-516 -1408h-184l-516 1408h188l420 -1184z" />
    <glyph glyph-name="W" unicode="W" horiz-adv-x="2042" 
d="M473 0l-402 1408h186l334 -1161l351 1161h158l351 -1161l336 1161h185l-403 -1408h-210l-338 1083l-338 -1083h-210z" />
    <glyph glyph-name="X" unicode="X" horiz-adv-x="1423" 
d="M57 0l549 735l-524 673h217l413 -546l412 546h217l-523 -673l548 -735h-226l-428 597l-428 -597h-227z" />
    <glyph glyph-name="Y" unicode="Y" horiz-adv-x="1197" 
d="M1152 1408l-463 -737v-671h-180v670l-464 738h204l350 -576l350 576h203z" />
    <glyph glyph-name="Z" unicode="Z" horiz-adv-x="1231" 
d="M320 163h820v-163h-1042v146l800 1099h-797v163h1013v-148z" />
    <glyph glyph-name="bracketleft" unicode="[" horiz-adv-x="646" 
d="M176 -512v2048h416v-128h-263v-1792h263v-128h-416z" />
    <glyph glyph-name="backslash" unicode="\" horiz-adv-x="1151" 
d="M988 -372l-992 1908h167l992 -1908h-167z" />
    <glyph glyph-name="bracketright" unicode="]" horiz-adv-x="643" 
d="M467 -512h-416v128h263v1792h-263v128h416v-2048z" />
    <glyph glyph-name="asciicircum" unicode="^" horiz-adv-x="1393" 
d="M1289 277h-150l-443 976l-442 -976h-150l512 1131h161z" />
    <glyph glyph-name="underscore" unicode="_" horiz-adv-x="1367" 
d="M171 -143v143h1024v-143h-1024z" />
    <glyph glyph-name="grave" unicode="`" horiz-adv-x="482" 
d="M303 1229l-225 259l92 67l252 -326h-119z" />
    <glyph glyph-name="a" unicode="a" horiz-adv-x="1073" 
d="M403 -19c-87.333 0 -159.167 22.5029 -215.5 67.5029s-84.5 112.167 -84.5 201.5c0 49.333 9 92.166 27 128.499s44.667 66.166 80 89.499s73.833 41.833 115.5 55.5s91.5 25.5 149.5 35.5l159 26c58 10.667 87 41 87 91c0 66.667 -20.5 115.5 -61.5 146.5
s-92.833 46.5 -155.5 46.5c-61.333 0 -112.666 -15 -153.999 -45s-65.666 -76 -72.999 -138l-156 33c14.667 93.333 55.667 163.5 123 210.5s156.666 70.5 267.999 70.5c52 0 99.5 -5.83301 142.5 -17.5s82.667 -30 119 -55s64.666 -60.333 84.999 -106
s30.5 -99.5 30.5 -161.5v-406c0 -50.667 7.5 -84.834 22.5 -102.501s40.833 -26.5 77.5 -26.5h16v-125h-86c-106 -0 -168 44.333 -186 133h-8c-74.667 -101.333 -182 -152 -322 -152zM442.999 121.003c87.333 0 157.666 31.667 210.999 95s80 150 80 260l-260 -50
c-68.667 -11.333 -119.5 -29.5 -152.5 -54.5s-49.5 -60.833 -49.5 -107.5c0 -48.667 15.833 -84.667 47.5 -108s72.834 -35 123.501 -35z" />
    <glyph glyph-name="b" unicode="b" horiz-adv-x="1251" 
d="M697 1002c128 0 236.33 -47.333 324.997 -142s133 -217.667 133 -369c0 -152 -44 -275.333 -132 -370s-196.667 -142 -326 -142c-77.333 0 -147.166 19 -209.499 57s-109.166 89.667 -140.499 155l-4 -191h-167v1536h172l1 -741c32 64 78.833 114.5 140.5 151.5
s130.834 55.5 207.501 55.5zM658.997 129c91.333 0 167.999 33.5 229.999 100.5s93 154.167 93 261.5s-31 194.5 -93 261.5s-138.667 100.5 -230 100.5c-90 0 -166 -34.667 -228 -104s-93 -155.333 -93 -258c0 -103.333 30.833 -189.5 92.5 -258.5
s137.834 -103.5 228.501 -103.5z" />
    <glyph glyph-name="c" unicode="c" horiz-adv-x="1113" 
d="M584 -18c-142 0 -259.332 46.999 -351.999 140.999s-139 217 -139 369s46.167 275 138.5 369s209.833 141 352.5 141c109.333 0 204.166 -28.667 284.499 -86s135.5 -137 165.5 -239l-162 -26c-22.667 66 -59.667 117 -111 153s-110.666 54 -177.999 54
c-92 0 -167.833 -33.667 -227.5 -101s-89.5 -155.666 -89.5 -264.999s29.833 -197.5 89.5 -264.5s135.5 -100.5 227.5 -100.5c67.333 0 126.666 18 177.999 54s88.333 87 111 153l162 -27c-30 -101.333 -85.5 -180.833 -166.5 -238.5s-175.5 -86.5 -283.5 -86.5z" />
    <glyph glyph-name="d" unicode="d" horiz-adv-x="1251" 
d="M902 1536l173 -0.000976562v-1536h-167l-4 191c-31.333 -65.333 -78 -117 -140 -155s-131.333 -57 -208 -57c-62.667 0 -122 12.167 -178 36.5s-104.833 58.333 -146.5 102s-74.667 97.834 -99 162.501s-36.5 135 -36.5 211c0 151.333 44.5 274.333 133.5 369
s197.833 142 326.5 142c75.333 0 143.833 -18.5 205.5 -55.5s108.5 -87.167 140.5 -150.5v740zM592 128.999c90.667 0 166.833 34.5 228.5 103.5s92.5 155.167 92.5 258.5c0 102.667 -31 188.667 -93 258s-138 104 -228 104c-91.333 0 -168 -33.5 -230 -100.5
s-93 -154.167 -93 -261.5s31 -194.5 93 -261.5s138.667 -100.5 230 -100.5z" />
    <glyph glyph-name="e" unicode="e" horiz-adv-x="1131" 
d="M1036 511l-2 -47h-768c2.66699 -109.333 34 -193.166 94 -251.499s134.667 -87.5 224 -87.5c60 0 114.333 15.667 163 47s86 74.666 112 129.999l156 -33c-35.333 -89.333 -91.333 -159.666 -168 -210.999s-163.667 -77 -261 -77c-146 0 -264 45.667 -354 137
s-135 216 -135 374c0 157.333 45.167 281.666 135.5 372.999s206.5 137 348.5 137c137.333 0 247.5 -42 330.5 -126s124.5 -205.667 124.5 -365zM581 869c-81.333 0 -149.499 -23.167 -204.499 -69.5s-89.5 -113.833 -103.5 -202.5h589
c-6.66699 88.667 -35.334 156.167 -86.001 202.5s-115.667 69.5 -195 69.5z" />
    <glyph glyph-name="f" unicode="f" horiz-adv-x="651" 
d="M627 1391l-37.5 -0.000976562c-7.66699 0 -19.667 -0.666992 -36 -2s-28.333 -3 -36 -5s-18 -5.33301 -31 -10s-22.833 -10.334 -29.5 -17.001s-14.334 -15.167 -23.001 -25.5s-15.167 -22.333 -19.5 -36s-8 -29.667 -11 -48s-4.5 -38.833 -4.5 -61.5v-203h228v-138h-228
v-845h-172v845h-190v138h190v206c0 42.667 3.5 80.834 10.5 114.501s16.333 62.5 28 86.5s27.167 44.833 46.5 62.5s39.5 31.834 60.5 42.501s45.833 19 74.5 25s56.834 10.167 84.501 12.5s59.5 3.5 95.5 3.5v-145z" />
    <glyph glyph-name="g" unicode="g" horiz-adv-x="1232" 
d="M888 983h168.001v-933c0 -166 -42.333 -293.667 -127 -383s-202 -134 -352 -134c-238 0 -397 100.333 -477 301l143 70c58 -151.333 167.667 -227 329 -227c100.667 0 177.5 32 230.5 96s79.5 153.333 79.5 268v182c-30.667 -58.667 -77.334 -105.834 -140.001 -141.501
s-131 -53.5 -205 -53.5c-124.667 0 -230.667 46.167 -318 138.5s-131 208.833 -131 349.5s43.833 256.834 131.5 348.501s194.167 137.5 319.5 137.5c75.333 0 144 -18.333 206 -55s108.333 -85 139 -145zM576.001 175c88.667 0 164.167 33.667 226.5 101
s93.5 147.333 93.5 240c0 93.333 -31 173.666 -93 240.999s-137.667 101 -227 101s-164.833 -32.667 -226.5 -98s-92.5 -146.666 -92.5 -243.999c0 -96 31.167 -176.833 93.5 -242.5s137.5 -98.5 225.5 -98.5z" />
    <glyph glyph-name="h" unicode="h" horiz-adv-x="1137" 
d="M646 1002c101.333 0 182.334 -30.333 243.001 -91s91 -147.667 91 -261v-650h-173v617c0 82 -20 142.333 -60 181s-91.667 58 -155 58c-70 0 -127.833 -22.333 -173.5 -67s-68.834 -111.667 -69.501 -201v-588h-173v1536h173v-683c31.333 47.333 72.5 84 123.5 110
s108.833 39 173.5 39z" />
    <glyph glyph-name="i" unicode="i" horiz-adv-x="526" 
d="M264 1214c-32 0 -59.5 11.5 -82.5 34.5s-34.5 50.5 -34.5 82.5s11.5 59.333 34.5 82s50.5 34 82.5 34c31.333 0 58.5 -11.333 81.5 -34s34.5 -50 34.5 -82s-11.5 -59.5 -34.5 -82.5s-50.167 -34.5 -81.5 -34.5zM176 0v983h174v-983h-174z" />
    <glyph glyph-name="j" unicode="j" horiz-adv-x="528" 
d="M265 1214c-32 0 -59.5 11.5 -82.5 34.5s-34.5 50.5 -34.5 82.5s11.5 59.333 34.5 82s50.5 34 82.5 34c31.333 0 58.5 -11.333 81.5 -34s34.5 -50 34.5 -82s-11.5 -59.5 -34.5 -82.5s-50.167 -34.5 -81.5 -34.5zM-50 -460v146.999c62.667 0 109.667 9.33301 141 28
s53.333 50.667 66 96s19 113 19 203v969h175v-969c0 -173.333 -30.333 -295.666 -91 -366.999s-164 -107 -310 -107z" />
    <glyph glyph-name="k" unicode="k" horiz-adv-x="1041" 
d="M802 0l-372 455h-79v-455h-175v1536h175v-949h74l341 396h205l-397 -449l449 -534h-221z" />
    <glyph glyph-name="l" unicode="l" horiz-adv-x="527" 
d="M176 0v1536h175v-1536h-175z" />
    <glyph glyph-name="m" unicode="m" horiz-adv-x="1656" 
d="M1181 1002c94.667 0 171 -27.832 229 -83.499s87 -133.834 87 -234.501v-684h-173v639c0 71.333 -18 125.333 -54 162s-81.667 55 -137 55c-62 0 -112 -20.667 -150 -62s-57 -103.333 -57 -186v-608h-176v632c0 74 -18.167 129.833 -54.5 167.5s-82.833 56.5 -139.5 56.5
c-61.333 0 -111.166 -21.167 -149.499 -63.5s-57.5 -105.833 -57.5 -190.5v-602h-173v983h173v-127c28.667 46.667 66.167 82.667 112.5 108s98.5 38 156.5 38c63.333 0 119.333 -13.833 168 -41.5s85 -67.5 109 -119.5c29.333 52 68.666 91.833 117.999 119.5
s105.333 41.5 168 41.5z" />
    <glyph glyph-name="n" unicode="n" horiz-adv-x="1138" 
d="M640 1002c103.333 0 185.832 -29.667 247.499 -89s92.5 -143 92.5 -251v-662h-173v623c0 79.333 -20 138 -60 176s-91.333 57 -154 57c-71.333 0 -129.666 -22.5 -174.999 -67.5s-68.333 -111.833 -69 -200.5v-588h-173v983h173v-126c65.333 96.667 162.333 145 291 145z
" />
    <glyph glyph-name="o" unicode="o" horiz-adv-x="1180" 
d="M590 -19c-93.333 0 -177.333 20.333 -252 61s-133.834 100.167 -177.501 178.5s-65.5 168.833 -65.5 271.5c0 154 46.5 277.5 139.5 370.5s211.5 139.5 355.5 139.5c144.667 0 263.334 -46.5 356.001 -139.5s139 -216.5 139 -370.5
c0 -154.667 -46.5 -278.5 -139.5 -371.5s-211.5 -139.5 -355.5 -139.5zM589 125c93.333 0 170.833 33.667 232.5 101s92.5 156 92.5 266c0 109.333 -30.833 197.666 -92.5 264.999s-139.167 101 -232.5 101c-92.667 0 -169.5 -33.667 -230.5 -101
s-91.5 -155.666 -91.5 -264.999c0 -110 30.5 -198.667 91.5 -266s137.833 -101 230.5 -101z" />
    <glyph glyph-name="p" unicode="p" horiz-adv-x="1251" 
d="M695 1002c62.667 0 122 -11.999 178 -35.999s104.667 -57.667 146 -101s74.166 -97.333 98.499 -162s36.5 -135.334 36.5 -212.001c0 -153.333 -44.167 -277 -132.5 -371s-197.166 -141 -326.499 -141c-75.333 0 -143.833 18.667 -205.5 56s-108.5 87.666 -140.5 150.999
v-681h-173v1478h167l4 -191c31.333 64.667 78 115.834 140 153.501s131.333 56.5 208 56.5zM661 129.001c90 0 165.833 33.167 227.5 99.5s92.5 153.833 92.5 262.5s-30.833 196 -92.5 262s-137.5 99 -227.5 99c-91.333 0 -168.333 -34.5 -231 -103.5
s-94 -154.833 -94 -257.5c0 -103.333 31.333 -189.5 94 -258.5s139.667 -103.5 231 -103.5z" />
    <glyph glyph-name="q" unicode="q" horiz-adv-x="1250" 
d="M906 983l167 -0.00195312v-1478h-173v678c-31.333 -62 -78 -111.5 -140 -148.5s-130 -55.5 -204 -55.5c-130 0 -239.167 47 -327.5 141s-132.5 217.667 -132.5 371c0 76.667 12.167 147.334 36.5 212.001s57.333 118.667 99 162s90.5 77 146.5 101s115.333 36 178 36
c75.333 0 144 -18.667 206 -56s108.667 -87.666 140 -150.999zM589 128.998c92 0 168.999 34.5 230.999 103.5s93 155.167 93 258.5c0 102.667 -31.167 188.5 -93.5 257.5s-139.166 103.5 -230.499 103.5c-90 0 -165.833 -33 -227.5 -99s-92.5 -153.333 -92.5 -262
c0 -109.333 30.833 -197 92.5 -263s137.5 -99 227.5 -99z" />
    <glyph glyph-name="r" unicode="r" horiz-adv-x="683" 
d="M345 810c24.667 54 65.333 98.001 122 132.001s119.667 51.333 189 52v-163c-100 0 -176.167 -24.333 -228.5 -73s-78.5 -126.334 -78.5 -233.001v-525h-173v983h169v-173z" />
    <glyph glyph-name="s" unicode="s" horiz-adv-x="945" 
d="M487 -19c-106 0 -194.331 23.666 -264.998 70.999s-113.667 114.666 -129 201.999l151 43c10.667 -58.667 37.5 -104.167 80.5 -136.5s96.833 -48.5 161.5 -48.5c34.667 0 66.167 4.33301 94.5 13s52.5 24.834 72.5 48.501s29.667 53.5 29 89.5
c-0.666992 14.667 -3.33398 28.167 -8.00098 40.5s-10 23.166 -16 32.499s-15.333 18.333 -28 27s-24 15.667 -34 21s-24.833 11.5 -44.5 18.5s-35.5 12.333 -47.5 16s-30.333 9 -55 16l-57 16.5c-41.333 12.667 -75.333 24.667 -102 36s-54.334 27.166 -83.001 47.499
s-50.167 46.166 -64.5 77.499s-21.5 68 -21.5 110c0 62 16 114.333 48 157s73.5 73.5 124.5 92.5s109.167 28.5 174.5 28.5c94.667 0 174.5 -21.333 239.5 -64s104.833 -106.667 119.5 -192l-142 -36c-10.667 55.333 -35.667 96.833 -75 124.5s-86.333 41.5 -141 41.5
c-51.333 0 -95.333 -11.5 -132 -34.5s-55 -58.167 -55 -105.5c0 -20 4.83301 -38.167 14.5 -54.5s19.5 -29.166 29.5 -38.499s28 -19.166 54 -29.499s45.333 -17.333 58 -21s36.667 -9.83398 72 -18.501c6.66699 -2 11.667 -3.33301 15 -4
c38.667 -10 70.167 -18.833 94.5 -26.5s52.666 -19.667 84.999 -36s57.833 -34.166 76.5 -53.499s34.667 -44.666 48 -75.999s20 -66.666 20 -105.999c0 -50 -9.83301 -94.167 -29.5 -132.5s-46.5 -68.5 -80.5 -90.5s-72.167 -38.5 -114.5 -49.5
s-88.166 -16.5 -137.499 -16.5z" />
    <glyph glyph-name="t" unicode="t" horiz-adv-x="702" 
d="M490 0c-81.333 0 -145.333 23.501 -192 70.501s-70 112.5 -70 196.5v578h-201v138h74c51.333 0 87.5 11.5 108.5 34.5s31.5 61.5 31.5 115.5v178h161v-328h226v-138h-226v-560c0 -46.667 12.5 -82.834 37.5 -108.501s57.833 -38.5 98.5 -38.5h90v-138h-138z" />
    <glyph glyph-name="u" unicode="u" horiz-adv-x="1137" 
d="M788 983l173.001 0.000976562v-983h-166l-4 130c-30.667 -48 -71.334 -84.833 -122.001 -110.5s-108 -38.5 -172 -38.5c-103.333 0 -185.833 29.667 -247.5 89s-92.5 143 -92.5 251v662h173v-623c0 -78.667 20.167 -137.334 60.5 -176.001s91.833 -58 154.5 -58
c71.333 0 129.5 22.667 174.5 68s67.833 112.333 68.5 201v588z" />
    <glyph glyph-name="v" unicode="v" horiz-adv-x="1003" 
d="M789 983h185l-400 -983h-147l-398 983h184l288 -782z" />
    <glyph glyph-name="w" unicode="w" horiz-adv-x="1597" 
d="M1377 983h182l-339 -984h-157l-266 758l-267 -758h-158l-333 984h180l243 -753l267 753h133l267 -755z" />
    <glyph glyph-name="x" unicode="x" horiz-adv-x="1041" 
d="M37 0l378 492l-378 491h213l272 -376l272 376h210l-379 -491l379 -492h-211l-270 374l-273 -374h-213z" />
    <glyph glyph-name="y" unicode="y" horiz-adv-x="997" 
d="M782 983h183l-569 -1446h-179l197 487l-382 959h192l277 -765z" />
    <glyph glyph-name="z" unicode="z" horiz-adv-x="900" 
d="M312 140h524v-140h-784l518 842h-488v141h753z" />
    <glyph glyph-name="braceleft" unicode="{" horiz-adv-x="623" 
d="M460 -507c-70.667 0 -127.667 22.168 -171 66.501s-65 101.166 -65 170.499v434c0 91.333 -9.33301 156.666 -28 195.999s-60.334 72.666 -125.001 99.999v108c64.667 27.333 106.334 61 125.001 101s28 106 28 198v431c0 70 21.667 127.167 65 171.5
s100.333 66.5 171 66.5h89v-119h-59c-35.333 0 -62.333 -13 -81 -39s-28 -63 -28 -111v-418c0 -41.333 -2.16699 -76.333 -6.5 -105s-12.666 -58 -24.999 -88s-31.666 -56.667 -57.999 -80s-60.166 -43.666 -101.499 -60.999c41.333 -17.333 75.166 -37.666 101.499 -60.999
s45.666 -50.166 57.999 -80.499s20.666 -59.833 24.999 -88.5s6.5 -63.667 6.5 -105v-421c0 -48.667 8.66699 -84.834 26 -108.501s45 -35.5 83 -35.5h59v-122h-89z" />
    <glyph glyph-name="bar" unicode="|" horiz-adv-x="643" 
d="M264 -307v1843h115v-1843h-115z" />
    <glyph glyph-name="braceright" unicode="}" horiz-adv-x="620" 
d="M160 -507l-89 -0.000976562v122h59c38 0 65.667 11.833 83 35.5s26 59.834 26 108.501v421c0 41.333 2.16699 76.333 6.5 105s12.666 58.167 24.999 88.5s31.666 57.166 57.999 80.499s60.166 43.666 101.499 60.999c-41.333 17.333 -75.166 37.666 -101.499 60.999
s-45.666 50 -57.999 80s-20.666 59.333 -24.999 88s-6.5 63.667 -6.5 105v418c0 48 -9.33301 85 -28 111s-45.667 39 -81 39h-59v119h89c70.667 0 127.667 -22.167 171 -66.5s65 -101.5 65 -171.5v-431c0 -92 9.33301 -158 28 -198s60.334 -73.667 125.001 -101v-108
c-64.667 -27.333 -106.334 -60.666 -125.001 -99.999s-28 -104.666 -28 -195.999v-434c0 -69.333 -21.667 -126.166 -65 -170.499s-100.333 -66.5 -171 -66.5z" />
    <glyph glyph-name="asciitilde" unicode="~" horiz-adv-x="1432" 
d="M932 351c-82.667 0 -159.334 35.666 -230.001 106.999c-7.33301 7.33301 -21.666 22.666 -42.999 45.999c-26.667 30 -51.167 52.167 -73.5 66.5s-46.833 21.5 -73.5 21.5c-51.333 0 -92.333 -21.167 -123 -63.5s-46.667 -94.5 -48 -156.5h-133
c-3.33301 104.667 23.334 189.834 80.001 255.501s132.334 98.5 227.001 98.5c54 0 100.167 -12.333 138.5 -37s77.166 -62 116.499 -112c17.333 -21.333 31.833 -37.666 43.5 -48.999s27 -21.833 46 -31.5s39.5 -14.5 61.5 -14.5c49.333 0 90.166 20.167 122.499 60.5
s47.5 92.833 45.5 157.5h132c6 -99.333 -18.667 -182.333 -74 -249s-127 -100 -215 -100z" />
    <glyph glyph-name="exclamdown" unicode="&#xa1;" horiz-adv-x="654" 
d="M326 1003c32 0 59.5 -11.333 82.5 -34s34.5 -50 34.5 -82s-11.5 -59.333 -34.5 -82s-50.5 -34 -82.5 -34s-59.333 11.333 -82 34s-34 50 -34 82s11.5 59.333 34.5 82s50.167 34 81.5 34zM252 584h149l12 -1009h-173z" />
    <glyph glyph-name="cent" unicode="&#xa2;" horiz-adv-x="1202" 
d="M669 371c56 0 108.167 14.4941 156.5 43.4941s88.5 68.833 120.5 119.5l122 -102c-42.667 -59.333 -94 -107.166 -154 -143.499s-125.333 -58.166 -196 -65.499v-223h-110v225c-130 15.333 -237.333 73.333 -322 174s-127 224.334 -127 371.001
s42.333 270.334 127 371.001s192 158.667 322 174v221h110v-219c70.667 -7.33301 136 -29.166 196 -65.499s111.333 -84.166 154 -143.499l-122 -102c-32 50.667 -72.167 90.5 -120.5 119.5s-100.5 43.5 -156.5 43.5c-96.667 0 -178.167 -37.5 -244.5 -112.5
s-99.5 -170.5 -99.5 -286.5s33.167 -211.5 99.5 -286.5s147.833 -112.5 244.5 -112.5z" />
    <glyph glyph-name="sterling" unicode="&#xa3;" horiz-adv-x="1342" 
d="M168 0v116l60 6c63.333 7.33301 95 42.333 95 105v391h-155v137h155v222c0 132 41.667 240.333 125 325s191.333 127 324 127c70.667 0 135 -13.833 193 -41.5s105 -69.5 141 -125.5s54 -121.667 54 -197c0 -23.333 -2 -47.333 -6 -72l-152 -32
c6.66699 34.667 10 62 10 82c0 71.333 -23.5 127.5 -70.5 168.5s-104.5 61.5 -172.5 61.5c-86.667 0 -155.5 -26.5 -206.5 -79.5s-76.5 -125.167 -76.5 -216.5v-222h332v-137h-332v-463h684v-155h-1002z" />
    <glyph glyph-name="currency" unicode="&#xa4;" horiz-adv-x="1397" 
d="M328 277l-94 100.001l103 102c-58.667 78 -88 166 -88 264c0 99.333 30 187.333 90 264l-103 101l94 100l104 -106c80 60.667 169 91 267 91c99.333 0 187 -30 263 -90l104 104l95 -95l-102 -103c59.333 -78.667 89 -167.334 89 -266.001
c0 -96.667 -29.667 -185 -89 -265l101 -101l-94 -100l-104 106c-76.667 -59.333 -165 -89 -265 -89c-98.667 0 -187.667 29.667 -267 89zM699 427.001c88 0 162.667 31.334 224 94.001s92 137 92 223c0 86.667 -30.667 160.667 -92 222s-135.333 92 -222 92
c-88 0 -163 -31.167 -225 -93.5s-93 -137.5 -93 -225.5c0 -86.667 31.167 -160.334 93.5 -221.001s136.5 -91 222.5 -91z" />
    <glyph glyph-name="yen" unicode="&#xa5;" horiz-adv-x="1433" 
d="M629 0v250h-404v118h404v213h-404v118h384l-462 709h203l368 -579l367 579h202l-461 -709h382v-118h-401v-213h401v-118h-401v-250h-178z" />
    <glyph glyph-name="brokenbar" unicode="&#xa6;" horiz-adv-x="643" 
d="M264 799v737h115v-737h-115zM264 -307v737h115v-737h-115z" />
    <glyph glyph-name="section" unicode="&#xa7;" horiz-adv-x="1347" 
d="M1169 406c0 -98 -29.001 -178.671 -87.001 -242.004c58 -59.333 87 -135 87 -227c0 -66 -13 -124.167 -39 -174.5s-62 -90.666 -108 -120.999s-98 -53 -156 -68s-121.333 -22.5 -190 -22.5c-134.667 0 -248.5 31.833 -341.5 95.5s-151.167 150.5 -174.5 260.5l158 38
c18 -79.333 60.167 -142 126.5 -188s145.166 -69 236.499 -69c45.333 0 87.166 4.33301 125.499 13s73.166 22.334 104.499 41.001s55.833 44.334 73.5 77.001s26.167 71 25.5 115c0 19.333 -2.66699 37.333 -8 54s-11.5 31.667 -18.5 45s-17.667 26.166 -32 38.499
l-38 31.5c-11 8.66699 -27.333 17.667 -49 27l-52 22c-13 5.33301 -33.167 12 -60.5 20l-61 17.5l-65 17.5c-37.333 10 -68 18.5 -92 25.5s-52.5 16.5 -85.5 28.5s-60 24.167 -81 36.5s-43.167 27.833 -66.5 46.5s-41.666 38.834 -54.999 60.501s-24.333 47.334 -33 77.001
s-13 61.834 -13 96.501c0 98.667 31.667 178.667 95 240c-63.333 56.667 -95 133 -95 229c0 81.333 21.167 151 63.5 209s96.666 100.167 162.999 126.5s140.5 39.5 222.5 39.5c126.667 0 235.334 -27.667 326.001 -83s147.667 -136.333 171 -243l-152 -40
c-18 76 -57.667 133.167 -119 171.5s-135 57.5 -221 57.5c-38 0 -74 -4.33301 -108 -13s-65.333 -22 -94 -40s-51.5 -42.833 -68.5 -74.5s-25.5 -68.167 -25.5 -109.5c0 -22 3.33301 -42.167 10 -60.5s14.834 -34.333 24.501 -48s23.834 -26.834 42.501 -39.501
s35.834 -23 51.501 -31s37.167 -16.667 64.5 -26s50.333 -16.5 69 -21.5l77 -20.5c124 -32 212.333 -60.667 265 -86c118 -56 185.333 -138 202 -246c3.33301 -20 5 -41 5 -63zM357.999 578.996c0 -22 3.3291 -42.165 9.99609 -60.498s14.834 -34.333 24.501 -48
s23.834 -26.834 42.501 -39.501s35.834 -23 51.501 -31s37.167 -16.667 64.5 -26s50.333 -16.5 69 -21.5l77 -20.5c122.667 -32.667 208.334 -60 257.001 -82c38 38 56.667 89 56 153c0 19.333 -2.66699 37.333 -8 54s-11.5 31.667 -18.5 45s-17.667 26.166 -32 38.499
l-38 31.5c-11 8.66699 -27.333 17.667 -49 27l-52 22c-13 5.33301 -33.167 12 -60.5 20l-61 17.5l-65 17.5c-84 22 -149.333 42.667 -196 62c-48 -39.333 -72 -92.333 -72 -159z" />
    <glyph glyph-name="dieresis" unicode="&#xa8;" horiz-adv-x="894" 
d="M260 1214c-32 0 -59.5 11.5 -82.5 34.5s-34.5 50.5 -34.5 82.5s11.5 59.333 34.5 82s50.5 34 82.5 34c31.333 0 58.5 -11.333 81.5 -34s34.5 -50 34.5 -82s-11.5 -59.5 -34.5 -82.5s-50.167 -34.5 -81.5 -34.5zM634 1214c-32 0 -59.5 11.5 -82.5 34.5
s-34.5 50.5 -34.5 82.5s11.5 59.333 34.5 82s50.5 34 82.5 34c31.333 0 58.5 -11.333 81.5 -34s34.5 -50 34.5 -82s-11.5 -59.5 -34.5 -82.5s-50.167 -34.5 -81.5 -34.5z" />
    <glyph glyph-name="copyright" unicode="&#xa9;" horiz-adv-x="1768" 
d="M882 -20c-98.667 0 -192.834 19.333 -282.501 58s-167 90.5 -232 155.5s-116.833 142.5 -155.5 232.5s-58 184.333 -58 283s19.333 193 58 283s90.5 167.5 155.5 232.5s142.333 116.833 232 155.5s183.834 58 282.501 58c132 0 254.167 -32.667 366.5 -98
s201.166 -154 266.499 -266s98 -233.667 98 -365s-32.667 -253 -98 -365s-154.166 -200.667 -266.499 -266s-234.5 -98 -366.5 -98zM882 87c85.333 0 166.5 16.333 243.5 49s143 76.5 198 131.5s98.833 121 131.5 198s49 158.167 49 243.5
c0 113.333 -27.5 217.666 -82.5 312.999s-130.167 170.666 -225.5 225.999s-200 83 -314 83c-113.333 0 -217.5 -27.667 -312.5 -83s-170 -130.666 -225 -225.999s-82.5 -199.666 -82.5 -312.999c0 -114 27.5 -218.667 82.5 -314s130 -170.5 225 -225.5
s199.167 -82.5 312.5 -82.5zM883 289c-114 0 -211.501 40.666 -292.501 121.999s-121.5 179.333 -121.5 294s40.333 212.334 121 293.001s178.334 121 293.001 121c60 0 117.833 -12.667 173.5 -38s102.5 -60.333 140.5 -105l-88 -76c-27.333 32.667 -61 58.334 -101 77.001
s-81.667 28 -125 28c-82.667 0 -152.834 -29 -210.501 -87s-86.5 -129 -86.5 -213c0 -84.667 28.833 -155.834 86.5 -213.501s127.834 -86.5 210.501 -86.5c44 0 85.833 9 125.5 27s73.167 43.333 100.5 76l88 -76c-38 -44.667 -84.833 -79.667 -140.5 -105
s-113.5 -38 -173.5 -38z" />
    <glyph glyph-name="ordfeminine" unicode="&#xaa;" horiz-adv-x="962" 
d="M669 1408l110 0.000976562v-615h-110v120c-26.667 -40.667 -61.167 -72.834 -103.5 -96.501s-89.166 -35.5 -140.499 -35.5c-86 0 -159.167 31 -219.5 93s-90.5 137.333 -90.5 226s30.333 164.167 91 226.5s133.667 93.5 219 93.5c51.333 0 98.166 -12 140.499 -36
s76.833 -56.667 103.5 -98v122zM446 877.001c61.333 0 113.833 21.833 157.5 65.5s65.5 96.167 65.5 157.5c0 60.667 -21.833 112.5 -65.5 155.5s-96.167 64.5 -157.5 64.5s-113.666 -21.5 -156.999 -64.5s-65 -94.833 -65 -155.5c0 -61.333 21.667 -113.833 65 -157.5
s95.666 -65.5 156.999 -65.5z" />
    <glyph glyph-name="guillemotleft" unicode="&#xab;" horiz-adv-x="996" 
d="M384 229l-312 377l312 377h147l-311 -377l311 -377h-147zM765 229l-312 377l312 377h148l-311 -377l311 -377h-148z" />
    <glyph glyph-name="logicalnot" unicode="&#xac;" horiz-adv-x="1654" 
d="M1246 313v525h-1112v145h1256v-670h-144z" />
    <glyph glyph-name="uni00AD" unicode="&#xad;" horiz-adv-x="1060" 
d="M171 479v153h717v-153h-717z" />
    <glyph glyph-name="registered" unicode="&#xae;" horiz-adv-x="1785" 
d="M891 1438c132 0 254.167 -32.667 366.5 -98s201.166 -154 266.499 -266s98 -233.667 98 -365s-32.667 -253 -98 -365s-154.166 -200.667 -266.499 -266s-234.5 -98 -366.5 -98c-98.667 0 -192.834 19.333 -282.501 58s-167 90.5 -232 155.5s-116.833 142.5 -155.5 232.5
s-58 184.333 -58 283s19.333 193 58 283s90.5 167.5 155.5 232.5s142.333 116.833 232 155.5s183.834 58 282.501 58zM891 87c85.333 0 166.5 16.333 243.5 49s143 76.5 198 131.5s98.833 121 131.5 198s49 158.167 49 243.5c0 113.333 -27.5 217.666 -82.5 312.999
s-130.167 170.666 -225.5 225.999s-200 83 -314 83c-113.333 0 -217.5 -27.667 -312.5 -83s-170 -130.666 -225 -225.999s-82.5 -199.666 -82.5 -312.999c0 -114 27.5 -218.667 82.5 -314s130 -170.5 225 -225.5s199.167 -82.5 312.5 -82.5zM1209 894
c0 -49.333 -13.334 -93.832 -40.001 -133.499s-62 -68.834 -106 -87.501l176 -396h-126l-163 376h-191v-376h-116v864h320c68.667 0 126.834 -24 174.501 -72s71.5 -106.333 71.5 -175zM758.999 1033v-280h190c41.333 0 76 13.5 104 40.5s42 60.167 42 99.5
c0 40.667 -13.833 74.167 -41.5 100.5s-62.5 39.5 -104.5 39.5h-190z" />
    <glyph glyph-name="macron" unicode="&#xaf;" horiz-adv-x="991" 
d="M172 1254v111h647v-111h-647z" />
    <glyph glyph-name="degree" unicode="&#xb0;" horiz-adv-x="972" 
d="M485 853c-79.333 0 -147 28.167 -203 84.5s-84 124.166 -84 203.499s28 147 84 203s123.667 84 203 84c80 0 148 -28 204 -84s84 -123.667 84 -203s-28 -147.166 -84 -203.499s-124 -84.5 -204 -84.5zM485 956c51.333 0 94.833 17.833 130.5 53.5s53.5 79.5 53.5 131.5
c0 51.333 -18 95 -54 131s-79.333 54 -130 54s-93.834 -18 -129.501 -54s-53.5 -79.667 -53.5 -131c0 -52 17.833 -95.833 53.5 -131.5s78.834 -53.5 129.501 -53.5z" />
    <glyph glyph-name="plusminus" unicode="&#xb1;" horiz-adv-x="1258" 
d="M561 339v405h-403v141h403v405h144v-405h403v-141h-403v-405h-144zM149 2v143h944v-143h-944z" />
    <glyph glyph-name="acute" unicode="&#xb4;" horiz-adv-x="482" 
d="M61 1229l251 326l92 -67l-224 -259h-119z" />
    <glyph glyph-name="uni00B5" unicode="&#xb5;" horiz-adv-x="1358" 
d="M994 983l155 0.000976562v-983h-155v157c-37.333 -54.667 -85 -97.834 -143 -129.501s-120.333 -47.5 -187 -47.5c-100 0 -187.333 32.667 -262 98v-590h-138v1495h156v-582c0 -78 27.667 -144.5 83 -199.5s122 -82.5 200 -82.5c80 0 148.5 27.5 205.5 82.5
s85.5 121.5 85.5 199.5v582z" />
    <glyph glyph-name="paragraph" unicode="&#xb6;" horiz-adv-x="1192" 
d="M543 -307v1028h-65c-114 0 -203.167 29.833 -267.5 89.5s-96.5 144.834 -96.5 255.501c0 110 32.167 194.5 96.5 253.5s153.5 88.5 267.5 88.5h161v-1715h-96zM831 -307.001v1715h97v-1715h-97z" />
    <glyph glyph-name="periodcentered" unicode="&#xb7;" horiz-adv-x="623" 
d="M312 643c-25.333 0 -47.333 9.16699 -66 27.5s-28 40.5 -28 66.5c0 25.333 9.33301 47.166 28 65.499s40.667 27.5 66 27.5c24.667 0 46.5 -9.16699 65.5 -27.5s28.5 -40.166 28.5 -65.499c0 -26 -9.5 -48.167 -28.5 -66.5s-40.833 -27.5 -65.5 -27.5z" />
    <glyph glyph-name="cedilla" unicode="&#xb8;" horiz-adv-x="615" 
d="M312 -532c-48.667 0 -95.1689 12.334 -139.502 37.001s-76.5 55.667 -96.5 93l86 36c14.667 -21.333 36.334 -39.166 65.001 -53.499s56.334 -21.5 83.001 -21.5c32.667 0 60.667 11.333 84 34s35 51 35 85c0 36 -11.667 64 -35 84s-53.333 30 -90 30
c-28.667 0 -55.334 -6.66699 -80.001 -20l-75 49l110 219h94l-86 -178c24 5.33301 42.333 8 55 8c58 0 105.833 -17.833 143.5 -53.5s56.5 -81.834 56.5 -138.501c0 -58.667 -20.167 -108.334 -60.5 -149.001s-90.166 -61 -149.499 -61z" />
    <glyph glyph-name="ordmasculine" unicode="&#xba;" horiz-adv-x="888" 
d="M442 789c-91.333 0 -169.333 31 -234 93s-97 137.667 -97 227c0 88 32.333 163.167 97 225.5s142.667 93.5 234 93.5c93.333 0 172.166 -31 236.499 -93s96.5 -137.333 96.5 -226c0 -89.333 -32.167 -165 -96.5 -227s-143.166 -93 -236.499 -93zM442 886
c61.333 0 113.833 21.667 157.5 65s65.5 96 65.5 158c0 60.667 -21.833 112.5 -65.5 155.5s-96.167 64.5 -157.5 64.5c-60.667 0 -112.667 -21.5 -156 -64.5s-65 -94.833 -65 -155.5c0 -62 21.5 -114.667 64.5 -158s95.167 -65 156.5 -65z" />
    <glyph glyph-name="guillemotright" unicode="&#xbb;" horiz-adv-x="996" 
d="M83 229l311 377l-311 377h148l311 -377l-311 -377h-148zM464 229l312 377l-312 377h149l311 -377l-311 -377h-149z" />
    <glyph glyph-name="onequarter" unicode="&#xbc;" horiz-adv-x="1541" 
d="M224 486l1 804l-219 -169v117l226 170h108v-922h-116zM1018 1408h127l-794 -1408h-127zM1482 288v-93h-102v-195h-112v195h-437v90l400 637h149v-634h102zM940 288h328v534z" />
    <glyph glyph-name="onehalf" unicode="&#xbd;" horiz-adv-x="1606" 
d="M224 486l1 804l-219 -169v117l226 170h108v-922h-116zM1018 1408h127l-794 -1408h-127zM1048 95l502.999 -0.00195312v-95h-626v110c138.667 114 243.167 205.167 313.5 273.5s116.5 121.333 138.5 159s33 75.5 33 113.5c0 59.333 -16 104 -48 134s-72 44.667 -120 44
c-52.667 -1.33301 -94 -18.5 -124 -51.5s-45.667 -75.5 -47 -127.5h-120c0.666992 82.667 29 150.167 85 202.5s126.667 78.5 212 78.5c78.667 0 143.667 -24.167 195 -72.5s78 -112.166 80 -191.499c2.66699 -81.333 -29.666 -162.666 -96.999 -243.999
s-193.333 -192.333 -378 -333z" />
    <glyph glyph-name="threequarters" unicode="&#xbe;" horiz-adv-x="1759" 
d="M632 767c0 -80 -28.5029 -147.501 -85.5029 -202.501s-127.167 -82.5 -210.5 -82.5c-82 0 -151.333 25.833 -208 77.5s-85 115.834 -85 192.501h119c0 -48.667 16.833 -88.834 50.5 -120.501s75.167 -47.5 124.5 -47.5c50.667 0 92.667 17 126 51s50 77.667 50 131
c0 52 -17.167 94.167 -51.5 126.5s-79.166 48.5 -134.499 48.5h-60v96h55c44.667 0 80.834 13.833 108.501 41.5s41.5 63.5 41.5 107.5c0 42 -13.333 76.167 -40 102.5s-60 39.5 -100 39.5c-40.667 0 -74 -13 -100 -39s-39 -61 -39 -105l-117 1
c0 70.667 24.333 128.834 73 174.501s109.667 68.5 183 68.5c70.667 0 129.834 -22.667 177.501 -68s71.5 -102 71.5 -170c0 -40 -9.16699 -76 -27.5 -108s-43.833 -58 -76.5 -78c48 -22.667 85.833 -54.5 113.5 -95.5s41.5 -88.167 41.5 -141.5zM1236 1408h127l-794 -1408
h-127zM1700 287.999v-93h-102v-195h-112v195h-437v90l400 637h149v-634h102zM1158 287.999h328v534z" />
    <glyph glyph-name="questiondown" unicode="&#xbf;" horiz-adv-x="1037" 
d="M506 1003c31.333 0 58.333 -11.333 81 -34s34 -50 34 -82c0 -31.333 -11.5 -58.5 -34.5 -81.5s-49.833 -34.5 -80.5 -34.5c-31.333 0 -58.333 11.5 -81 34.5s-34 50.167 -34 81.5c0 32 11.333 59.333 34 82s49.667 34 81 34zM586 589l0.00292969 -124.998
c0 -62.667 -15.667 -111.167 -47 -145.5s-82 -68.5 -152 -102.5c-87.333 -43.333 -131 -124.333 -131 -243c0 -82.667 24 -148.834 72 -198.501s110 -74.5 186 -74.5c74 0 135.167 26.333 183.5 79s72.5 119.334 72.5 200.001c0 24.667 -2.66699 52 -8 82l152 -15
c4.66699 -27.333 7 -56 7 -86c0 -118.667 -37.833 -215.834 -113.5 -291.501s-172.834 -113.5 -291.501 -113.5c-120.667 0 -219.667 38.333 -297 115s-116 176.667 -116 300c0 50.667 6.16699 96.667 18.5 138s29.166 76.333 50.499 105s44.5 52.667 69.5 72
s52.167 35 81.5 47c39.333 16.667 68.166 35.667 86.499 57s27.5 50.666 27.5 87.999v112h149z" />
    <glyph glyph-name="Agrave" unicode="&#xc0;" horiz-adv-x="1372" 
d="M746 1554h-119l-225 259l92 67zM1125 0l-121 337h-637l-120 -337h-187l519 1408h214l519 -1408h-187zM424 495h524l-262 733z" />
    <glyph glyph-name="Aacute" unicode="&#xc1;" horiz-adv-x="1372" 
d="M962 1813l-224 -259h-119l251 326zM1125 0l-121 337h-637l-120 -337h-187l519 1408h214l519 -1408h-187zM424 495h524l-262 733z" />
    <glyph glyph-name="Acircumflex" unicode="&#xc2;" horiz-adv-x="1372" 
d="M683 1766l-156 -212h-118l211 295h128l211 -295h-119zM1125 0l-121 337h-637l-120 -337h-187l519 1408h214l519 -1408h-187zM424 495h524l-262 733z" />
    <glyph glyph-name="Atilde" unicode="&#xc3;" horiz-adv-x="1372" 
d="M554 1717c-34 0 -60.665 -14.1641 -79.998 -42.4971s-29 -65.5 -29 -111.5h-94c0 71.333 18.167 129.666 54.5 174.999s85.5 68 147.5 68c38.667 0 70.667 -8.33301 96 -25s48.666 -39.334 69.999 -68.001c24 -31.333 42.667 -51 56 -59c16 -10.667 33.333 -16 52 -16
c34 0 60.167 13.5 78.5 40.5s27.5 63.833 27.5 110.5h97c0 -70.667 -18.167 -128.5 -54.5 -173.5s-85.833 -67.5 -148.5 -67.5c-40.667 0 -73.834 8.66699 -99.501 26s-49.167 40.666 -70.5 69.999c-11.333 16 -20.5 28.167 -27.5 36.5s-17.333 16.5 -31 24.5
s-28.5 12 -44.5 12zM1125 0.00292969l-121 337h-637l-120 -337h-187l519 1408h214l519 -1408h-187zM424.002 495.003h524l-262 733z" />
    <glyph glyph-name="Adieresis" unicode="&#xc4;" horiz-adv-x="1372" 
d="M498 1536c-32 0 -59.5 11.5 -82.5 34.5s-34.5 50.5 -34.5 82.5s11.5 59.333 34.5 82s50.5 34 82.5 34c31.333 0 58.5 -11.333 81.5 -34s34.5 -50 34.5 -82s-11.5 -59.5 -34.5 -82.5s-50.167 -34.5 -81.5 -34.5zM872 1536c-32 0 -59.5 11.5 -82.5 34.5
s-34.5 50.5 -34.5 82.5s11.5 59.333 34.5 82s50.5 34 82.5 34c31.333 0 58.5 -11.333 81.5 -34s34.5 -50 34.5 -82s-11.5 -59.5 -34.5 -82.5s-50.167 -34.5 -81.5 -34.5zM1125 0l-121 337h-637l-120 -337h-187l519 1408h214l519 -1408h-187zM424 495h524l-262 733z" />
    <glyph glyph-name="Aring" unicode="&#xc5;" horiz-adv-x="1372" 
d="M685 1554c-58 0 -107.667 20.667 -149 62s-62 90.666 -62 147.999c0 58 20.5 107.333 61.5 148s90.833 61 149.5 61c57.333 0 106.333 -20.333 147 -61s61 -90 61 -148c0 -57.333 -20.5 -106.666 -61.5 -147.999s-89.833 -62 -146.5 -62zM685 1892
c-34.667 0 -64.167 -12.5 -88.5 -37.5s-36.5 -55.167 -36.5 -90.5c0 -36 12 -65.833 36 -89.5s53.667 -35.5 89 -35.5s65 11.833 89 35.5s36 53.5 36 89.5c0 35.333 -12.167 65.5 -36.5 90.5s-53.833 37.5 -88.5 37.5zM1125 0l-121 337h-637l-120 -337h-187l519 1408h214
l519 -1408h-187zM424 495h524l-262 733z" />
    <glyph glyph-name="AE" unicode="&#xc6;" horiz-adv-x="1768" 
d="M60 0l518 1408h1069v-162h-607v-462h531v-162h-531v-459h607v-163h-786v337h-494l-120 -337h-187zM422 495h439v750h-169z" />
    <glyph glyph-name="Ccedilla" unicode="&#xc7;" horiz-adv-x="1532" 
d="M824 152c101.333 0 192.167 23.502 272.5 70.502s141.833 113.5 184.5 199.5l165 -67c-52 -112 -129.5 -200.667 -232.5 -266s-220.167 -101 -351.5 -107l-58 -120c24 5.33301 42.333 8 55 8c58 0 105.833 -17.833 143.5 -53.5s56.5 -81.834 56.5 -138.501
c0 -58.667 -20.167 -108.334 -60.5 -149.001s-90.166 -61 -149.499 -61c-48.667 0 -95.167 12.333 -139.5 37s-76.5 55.667 -96.5 93l86 36c14.667 -21.333 36.334 -39.166 65.001 -53.499s56.334 -21.5 83.001 -21.5c32.667 0 60.667 11.333 84 34s35 51 35 85
c0 36 -11.667 64 -35 84s-53.333 30 -90 30c-28.667 0 -55.334 -6.66699 -80.001 -20l-75 49l81 162c-92 6 -177.333 27.167 -256 63.5s-146.834 84.833 -204.501 145.5s-102.667 135 -135 223s-48.5 184.667 -48.5 290c0 110 18 210.5 54 301.5s85.333 167.167 148 228.5
s136.667 108.666 222 141.999s177.666 50 276.999 50c139.333 0 264.166 -33 374.499 -99s192.833 -157.667 247.5 -275l-165 -68c-42.667 86.667 -104.167 153.5 -184.5 200.5s-171.166 70.5 -272.499 70.5c-73.333 0 -141.666 -12.333 -204.999 -37
s-118.666 -60 -165.999 -106s-84.5 -104 -111.5 -174s-40.5 -148 -40.5 -234s13.5 -164.167 40.5 -234.5s64.167 -128.5 111.5 -174.5s102.666 -81.5 165.999 -106.5s131.666 -37.5 204.999 -37.5z" />
    <glyph glyph-name="Egrave" unicode="&#xc8;" horiz-adv-x="1098" 
d="M663 1554h-119l-225 259l92 67zM976 1245h-572v-461h504v-161h-504v-460h572v-163h-755v1408h755v-163z" />
    <glyph glyph-name="Eacute" unicode="&#xc9;" horiz-adv-x="1098" 
d="M879 1813l-224 -259h-119l251 326zM976 1245h-572v-461h504v-161h-504v-460h572v-163h-755v1408h755v-163z" />
    <glyph glyph-name="Ecircumflex" unicode="&#xca;" horiz-adv-x="1098" 
d="M600 1766l-156 -212h-118l211 295h128l211 -295h-119zM976 1245h-572v-461h504v-161h-504v-460h572v-163h-755v1408h755v-163z" />
    <glyph glyph-name="Edieresis" unicode="&#xcb;" horiz-adv-x="1098" 
d="M415 1536c-32 0 -59.5 11.5 -82.5 34.5s-34.5 50.5 -34.5 82.5s11.5 59.333 34.5 82s50.5 34 82.5 34c31.333 0 58.5 -11.333 81.5 -34s34.5 -50 34.5 -82s-11.5 -59.5 -34.5 -82.5s-50.167 -34.5 -81.5 -34.5zM789 1536c-32 0 -59.5 11.5 -82.5 34.5
s-34.5 50.5 -34.5 82.5s11.5 59.333 34.5 82s50.5 34 82.5 34c31.333 0 58.5 -11.333 81.5 -34s34.5 -50 34.5 -82s-11.5 -59.5 -34.5 -82.5s-50.167 -34.5 -81.5 -34.5zM976 1245h-572v-461h504v-161h-504v-460h572v-163h-755v1408h755v-163z" />
    <glyph glyph-name="Igrave" unicode="&#xcc;" horiz-adv-x="621" 
d="M252 1554l-225 259l92 67l252 -326h-119zM221 0v1408h179v-1408h-179z" />
    <glyph glyph-name="Iacute" unicode="&#xcd;" horiz-adv-x="621" 
d="M244 1554l251 326l92 -67l-224 -259h-119zM221 0v1408h179v-1408h-179z" />
    <glyph glyph-name="Icircumflex" unicode="&#xce;" horiz-adv-x="621" 
d="M152 1554h-118l211 295h128l211 -295h-119l-157 212zM221 0v1408h179v-1408h-179z" />
    <glyph glyph-name="Idieresis" unicode="&#xcf;" horiz-adv-x="621" 
d="M123 1536c-32 0 -59.5 11.5 -82.5 34.5s-34.5 50.5 -34.5 82.5s11.5 59.333 34.5 82s50.5 34 82.5 34c31.333 0 58.5 -11.333 81.5 -34s34.5 -50 34.5 -82s-11.5 -59.5 -34.5 -82.5s-50.167 -34.5 -81.5 -34.5zM497 1536c-32 0 -59.5 11.5 -82.5 34.5
s-34.5 50.5 -34.5 82.5s11.5 59.333 34.5 82s50.5 34 82.5 34c31.333 0 58.5 -11.333 81.5 -34s34.5 -50 34.5 -82s-11.5 -59.5 -34.5 -82.5s-50.167 -34.5 -81.5 -34.5zM221 0v1408h179v-1408h-179z" />
    <glyph glyph-name="Eth" unicode="&#xd0;" horiz-adv-x="1452" 
d="M675 1408c140 0 259.5 -30.3311 358.5 -90.998s172.333 -143.167 220 -247.5s71.5 -225.833 71.5 -364.5c0 -104 -13.833 -198.833 -41.5 -284.5s-68.167 -159.834 -121.5 -222.501s-121.5 -111.334 -204.5 -146.001s-177.167 -52 -282.5 -52h-454v647h-162v115h162v646
h454zM669 163.002c155.333 0 272.5 48 351.5 144s118.5 228.667 118.5 398c0 168 -39.667 300 -119 396s-196.333 144 -351 144h-269v-483h265v-115h-265v-484h269z" />
    <glyph glyph-name="Ntilde" unicode="&#xd1;" horiz-adv-x="1566" 
d="M652 1717c-34 0 -60.665 -14.1641 -79.998 -42.4971s-29 -65.5 -29 -111.5h-94c0 71.333 18.167 129.666 54.5 174.999s85.5 68 147.5 68c38.667 0 70.667 -8.33301 96 -25s48.666 -39.334 69.999 -68.001c24 -31.333 42.667 -51 56 -59c16 -10.667 33.333 -16 52 -16
c34 0 60.167 13.5 78.5 40.5s27.5 63.833 27.5 110.5h97c0 -70.667 -18.167 -128.5 -54.5 -173.5s-85.833 -67.5 -148.5 -67.5c-40.667 0 -73.834 8.66699 -99.501 26s-49.167 40.666 -70.5 69.999c-11.333 16 -20.5 28.167 -27.5 36.5s-17.333 16.5 -31 24.5
s-28.5 12 -44.5 12zM1167 1408h178v-1408h-189l-759 1139v-1139h-176v1408h187l759 -1134v1134z" />
    <glyph glyph-name="Ograve" unicode="&#xd2;" horiz-adv-x="1646" 
d="M766 1554l-225 259l92 67l252 -326h-119zM824 -19c-99.333 0 -191.666 16.834 -276.999 50.501s-159.5 81 -222.5 142s-112.333 137.167 -148 228.5s-53.5 192.333 -53.5 303c0 110 18 210.5 54 301.5s85.333 167.167 148 228.5s136.667 108.666 222 141.999
s177.666 50 276.999 50c98 0 189.667 -16.833 275 -50.5s159.333 -81 222 -142s112 -137 148 -228s54 -191.5 54 -301.5s-18 -210.833 -54 -302.5s-85.333 -168 -148 -229s-136.667 -108.333 -222 -142s-177 -50.5 -275 -50.5zM824 150.001
c150 0 274.167 49.501 372.5 148.501s147.5 234.5 147.5 406.5c0 86 -13.5 164 -40.5 234s-64 128 -111 174s-102 81.333 -165 106s-130.833 37 -203.5 37c-73.333 0 -141.666 -12.333 -204.999 -37s-118.666 -60 -165.999 -106s-84.5 -104 -111.5 -174
s-40.5 -148 -40.5 -234c0 -86.667 13.5 -165.334 40.5 -236.001s64.167 -129 111.5 -175s102.666 -81.5 165.999 -106.5s131.666 -37.5 204.999 -37.5z" />
    <glyph glyph-name="Oacute" unicode="&#xd3;" horiz-adv-x="1646" 
d="M758 1554l251 326l92 -67l-224 -259h-119zM824 -19c-99.333 0 -191.666 16.834 -276.999 50.501s-159.5 81 -222.5 142s-112.333 137.167 -148 228.5s-53.5 192.333 -53.5 303c0 110 18 210.5 54 301.5s85.333 167.167 148 228.5s136.667 108.666 222 141.999
s177.666 50 276.999 50c98 0 189.667 -16.833 275 -50.5s159.333 -81 222 -142s112 -137 148 -228s54 -191.5 54 -301.5s-18 -210.833 -54 -302.5s-85.333 -168 -148 -229s-136.667 -108.333 -222 -142s-177 -50.5 -275 -50.5zM824 150.001
c150 0 274.167 49.501 372.5 148.501s147.5 234.5 147.5 406.5c0 86 -13.5 164 -40.5 234s-64 128 -111 174s-102 81.333 -165 106s-130.833 37 -203.5 37c-73.333 0 -141.666 -12.333 -204.999 -37s-118.666 -60 -165.999 -106s-84.5 -104 -111.5 -174
s-40.5 -148 -40.5 -234c0 -86.667 13.5 -165.334 40.5 -236.001s64.167 -129 111.5 -175s102.666 -81.5 165.999 -106.5s131.666 -37.5 204.999 -37.5z" />
    <glyph glyph-name="Ocircumflex" unicode="&#xd4;" horiz-adv-x="1646" 
d="M666 1554h-118l211 295h128l211 -295h-119l-157 212zM824 -19c-99.333 0 -191.666 16.834 -276.999 50.501s-159.5 81 -222.5 142s-112.333 137.167 -148 228.5s-53.5 192.333 -53.5 303c0 110 18 210.5 54 301.5s85.333 167.167 148 228.5s136.667 108.666 222 141.999
s177.666 50 276.999 50c98 0 189.667 -16.833 275 -50.5s159.333 -81 222 -142s112 -137 148 -228s54 -191.5 54 -301.5s-18 -210.833 -54 -302.5s-85.333 -168 -148 -229s-136.667 -108.333 -222 -142s-177 -50.5 -275 -50.5zM824 150.001
c150 0 274.167 49.501 372.5 148.501s147.5 234.5 147.5 406.5c0 86 -13.5 164 -40.5 234s-64 128 -111 174s-102 81.333 -165 106s-130.833 37 -203.5 37c-73.333 0 -141.666 -12.333 -204.999 -37s-118.666 -60 -165.999 -106s-84.5 -104 -111.5 -174
s-40.5 -148 -40.5 -234c0 -86.667 13.5 -165.334 40.5 -236.001s64.167 -129 111.5 -175s102.666 -81.5 165.999 -106.5s131.666 -37.5 204.999 -37.5z" />
    <glyph glyph-name="Otilde" unicode="&#xd5;" horiz-adv-x="1646" 
d="M966 1548c-40.667 0 -73.832 8.66992 -99.499 26.0029s-49.167 40.666 -70.5 69.999c-11.333 16 -20.5 28.167 -27.5 36.5s-17.333 16.5 -31 24.5s-28.5 12 -44.5 12c-34 0 -60.667 -14.167 -80 -42.5s-29 -65.5 -29 -111.5h-94c0 71.333 18.167 129.666 54.5 174.999
s85.5 68 147.5 68c38.667 0 70.667 -8.33301 96 -25s48.666 -39.334 69.999 -68.001c24 -31.333 42.667 -51 56 -59c16 -10.667 33.333 -16 52 -16c34 0 60.167 13.5 78.5 40.5s27.5 63.833 27.5 110.5h97c0 -70.667 -18.167 -128.5 -54.5 -173.5
s-85.833 -67.5 -148.5 -67.5zM824.002 -18.9971c-99.333 0 -191.666 16.834 -276.999 50.501s-159.5 81 -222.5 142s-112.333 137.167 -148 228.5s-53.5 192.333 -53.5 303c0 110 18 210.5 54 301.5s85.333 167.167 148 228.5s136.667 108.666 222 141.999
s177.666 50 276.999 50c98 0 189.667 -16.833 275 -50.5s159.333 -81 222 -142s112 -137 148 -228s54 -191.5 54 -301.5s-18 -210.833 -54 -302.5s-85.333 -168 -148 -229s-136.667 -108.333 -222 -142s-177 -50.5 -275 -50.5zM824.002 150.004
c150 0 274.167 49.501 372.5 148.501s147.5 234.5 147.5 406.5c0 86 -13.5 164 -40.5 234s-64 128 -111 174s-102 81.333 -165 106s-130.833 37 -203.5 37c-73.333 0 -141.666 -12.333 -204.999 -37s-118.666 -60 -165.999 -106s-84.5 -104 -111.5 -174
s-40.5 -148 -40.5 -234c0 -86.667 13.5 -165.334 40.5 -236.001s64.167 -129 111.5 -175s102.666 -81.5 165.999 -106.5s131.666 -37.5 204.999 -37.5z" />
    <glyph glyph-name="Odieresis" unicode="&#xd6;" horiz-adv-x="1646" 
d="M637 1536c-32 0 -59.5 11.5 -82.5 34.5s-34.5 50.5 -34.5 82.5s11.5 59.333 34.5 82s50.5 34 82.5 34c31.333 0 58.5 -11.333 81.5 -34s34.5 -50 34.5 -82s-11.5 -59.5 -34.5 -82.5s-50.167 -34.5 -81.5 -34.5zM1011 1536c-32 0 -59.5 11.5 -82.5 34.5
s-34.5 50.5 -34.5 82.5s11.5 59.333 34.5 82s50.5 34 82.5 34c31.333 0 58.5 -11.333 81.5 -34s34.5 -50 34.5 -82s-11.5 -59.5 -34.5 -82.5s-50.167 -34.5 -81.5 -34.5zM824 -19c-99.333 0 -191.666 16.834 -276.999 50.501s-159.5 81 -222.5 142
s-112.333 137.167 -148 228.5s-53.5 192.333 -53.5 303c0 110 18 210.5 54 301.5s85.333 167.167 148 228.5s136.667 108.666 222 141.999s177.666 50 276.999 50c98 0 189.667 -16.833 275 -50.5s159.333 -81 222 -142s112 -137 148 -228s54 -191.5 54 -301.5
s-18 -210.833 -54 -302.5s-85.333 -168 -148 -229s-136.667 -108.333 -222 -142s-177 -50.5 -275 -50.5zM824 150.001c150 0 274.167 49.501 372.5 148.501s147.5 234.5 147.5 406.5c0 86 -13.5 164 -40.5 234s-64 128 -111 174s-102 81.333 -165 106s-130.833 37 -203.5 37
c-73.333 0 -141.666 -12.333 -204.999 -37s-118.666 -60 -165.999 -106s-84.5 -104 -111.5 -174s-40.5 -148 -40.5 -234c0 -86.667 13.5 -165.334 40.5 -236.001s64.167 -129 111.5 -175s102.666 -81.5 165.999 -106.5s131.666 -37.5 204.999 -37.5z" />
    <glyph glyph-name="multiply" unicode="&#xd7;" horiz-adv-x="1072" 
d="M255 281l-100 102l280 280l-280 280l100 101l282 -279l278 277l102 -99l-280 -280l280 -280l-102 -101l-278 281z" />
    <glyph glyph-name="Oslash" unicode="&#xd8;" horiz-adv-x="1646" 
d="M1282 1270c76 -64 135.167 -143.999 177.5 -239.999s63.5 -204.333 63.5 -325c0 -110 -18 -210.833 -54 -302.5s-85.333 -168 -148 -229s-136.667 -108.333 -222 -142s-177 -50.5 -275 -50.5c-140 0 -264.333 32 -373 96l-133 -190l-91 53l137 198
c-76 63.333 -135.167 143.333 -177.5 240s-63.5 205.667 -63.5 327c0 110 18 210.5 54 301.5s85.333 167.167 148 228.5s136.667 108.666 222 141.999s177.666 50 276.999 50c138.667 0 262.334 -32 371.001 -96l134 193l90 -57zM301 705.001
c0 -179.333 54.665 -320 163.998 -422l630 904c-80.667 46 -171 69 -271 69c-73.333 0 -141.666 -12.333 -204.999 -37s-118.666 -60 -165.999 -106s-84.5 -104 -111.5 -174s-40.5 -148 -40.5 -234zM823.998 150.001c150 0 274.167 49.5 372.5 148.5
s147.5 234.5 147.5 406.5c0 177.333 -54.667 317 -164 419l-630 -904c80 -46.667 171.333 -70 274 -70z" />
    <glyph glyph-name="Ugrave" unicode="&#xd9;" horiz-adv-x="1409" 
d="M645 1554l-225 259l92 67l252 -326h-119zM703 -19c-149.333 0 -271.833 43.3311 -367.5 129.998s-143.5 205.334 -143.5 356.001v941h179v-916c0 -113.333 30.833 -199.666 92.5 -258.999s141.5 -89 239.5 -89s178.333 29.833 241 89.5s94 145.834 94 258.501v916h179
v-941c0 -150.667 -48.167 -269.334 -144.5 -356.001s-219.5 -130 -369.5 -130z" />
    <glyph glyph-name="Uacute" unicode="&#xda;" horiz-adv-x="1409" 
d="M637 1554l251 326l92 -67l-224 -259h-119zM703 -19c-149.333 0 -271.833 43.3311 -367.5 129.998s-143.5 205.334 -143.5 356.001v941h179v-916c0 -113.333 30.833 -199.666 92.5 -258.999s141.5 -89 239.5 -89s178.333 29.833 241 89.5s94 145.834 94 258.501v916h179
v-941c0 -150.667 -48.167 -269.334 -144.5 -356.001s-219.5 -130 -369.5 -130z" />
    <glyph glyph-name="Ucircumflex" unicode="&#xdb;" horiz-adv-x="1409" 
d="M545 1554h-118l211 295h128l211 -295h-119l-157 212zM703 -19c-149.333 0 -271.833 43.3311 -367.5 129.998s-143.5 205.334 -143.5 356.001v941h179v-916c0 -113.333 30.833 -199.666 92.5 -258.999s141.5 -89 239.5 -89s178.333 29.833 241 89.5s94 145.834 94 258.501
v916h179v-941c0 -150.667 -48.167 -269.334 -144.5 -356.001s-219.5 -130 -369.5 -130z" />
    <glyph glyph-name="Udieresis" unicode="&#xdc;" horiz-adv-x="1409" 
d="M516 1536c-32 0 -59.5 11.5 -82.5 34.5s-34.5 50.5 -34.5 82.5s11.5 59.333 34.5 82s50.5 34 82.5 34c31.333 0 58.5 -11.333 81.5 -34s34.5 -50 34.5 -82s-11.5 -59.5 -34.5 -82.5s-50.167 -34.5 -81.5 -34.5zM890 1536c-32 0 -59.5 11.5 -82.5 34.5
s-34.5 50.5 -34.5 82.5s11.5 59.333 34.5 82s50.5 34 82.5 34c31.333 0 58.5 -11.333 81.5 -34s34.5 -50 34.5 -82s-11.5 -59.5 -34.5 -82.5s-50.167 -34.5 -81.5 -34.5zM703 -19c-149.333 0 -271.833 43.3311 -367.5 129.998s-143.5 205.334 -143.5 356.001v941h179v-916
c0 -113.333 30.833 -199.666 92.5 -258.999s141.5 -89 239.5 -89s178.333 29.833 241 89.5s94 145.834 94 258.501v916h179v-941c0 -150.667 -48.167 -269.334 -144.5 -356.001s-219.5 -130 -369.5 -130z" />
    <glyph glyph-name="Yacute" unicode="&#xdd;" horiz-adv-x="1197" 
d="M876 1813l-224 -259h-119l251 326zM1152 1408l-463 -737v-671h-180v670l-464 738h204l350 -576l350 576h203z" />
    <glyph glyph-name="Thorn" unicode="&#xde;" horiz-adv-x="1211" 
d="M732 1322c107.333 0 198.5 -42.001 273.5 -126.001s112.5 -186.333 112.5 -307c0 -117.333 -37.5 -217.166 -112.5 -299.499s-166.167 -123.5 -273.5 -123.5h-338v-466h-173v1528h173v-206h338zM723 623.999c65.333 0 120.5 26.167 165.5 78.5s67.5 116.166 67.5 191.499
c0 76.667 -22.5 140.834 -67.5 192.501s-100.167 77.5 -165.5 77.5h-329v-540h329z" />
    <glyph glyph-name="germandbls" unicode="&#xdf;" horiz-adv-x="1210" 
d="M176 0l0.00195312 1031c0 93.333 11.333 174.5 34 243.5s54.667 123.667 96 164s88.333 70 141 89s111.667 28.5 177 28.5c126.667 0 230 -34.833 310 -104.5s120 -157.167 120 -262.5c0 -39.333 -5.5 -74.666 -16.5 -105.999s-24.333 -56.833 -40 -76.5
s-31.334 -38.334 -47.001 -56.001s-29 -37.167 -40 -58.5s-16.5 -44.666 -16.5 -69.999c0 -19.333 4.33301 -37.666 13 -54.999s20.167 -33.333 34.5 -48s29.833 -29.667 46.5 -45s33.5 -32.666 50.5 -51.999s32.667 -40.333 47 -63s25.833 -50.834 34.5 -84.501
s13 -70.834 13 -111.501c0 -64.667 -14.167 -124.167 -42.5 -178.5s-70.833 -98.666 -127.5 -132.999s-122 -51.5 -196 -51.5h-192v138h149c69.333 0 126.333 22.167 171 66.5s67 99.166 67 164.499c0 46 -8 86.167 -24 120.5s-35.5 62.166 -58.5 83.499l-68.5 62
c-22.667 20 -42 44.5 -58 73.5s-24 62.833 -24 101.5c0 36 5.5 68 16.5 96s24.5 51.333 40.5 70l48 55.5c16 18.333 29.5 40.333 40.5 66s16.5 54.5 16.5 86.5c0 66.667 -24.333 121.834 -73 165.501s-112.334 65.5 -191.001 65.5c-188 0 -282 -120.333 -282 -361v-1054
h-169z" />
    <glyph glyph-name="agrave" unicode="&#xe0;" horiz-adv-x="1073" 
d="M482 1153l-225 259l92 67l252 -326h-119zM403 -19c-87.333 0 -159.167 22.5029 -215.5 67.5029s-84.5 112.167 -84.5 201.5c0 49.333 9 92.166 27 128.499s44.667 66.166 80 89.499s73.833 41.833 115.5 55.5s91.5 25.5 149.5 35.5l159 26c58 10.667 87 41 87 91
c0 66.667 -20.5 115.5 -61.5 146.5s-92.833 46.5 -155.5 46.5c-61.333 0 -112.666 -15 -153.999 -45s-65.666 -76 -72.999 -138l-156 33c14.667 93.333 55.667 163.5 123 210.5s156.666 70.5 267.999 70.5c52 0 99.5 -5.83301 142.5 -17.5s82.667 -30 119 -55
s64.666 -60.333 84.999 -106s30.5 -99.5 30.5 -161.5v-406c0 -50.667 7.5 -84.834 22.5 -102.501s40.833 -26.5 77.5 -26.5h16v-125h-86c-106 -0 -168 44.333 -186 133h-8c-74.667 -101.333 -182 -152 -322 -152zM442.999 121.003c87.333 0 157.666 31.667 210.999 95
s80 150 80 260l-260 -50c-68.667 -11.333 -119.5 -29.5 -152.5 -54.5s-49.5 -60.833 -49.5 -107.5c0 -48.667 15.833 -84.667 47.5 -108s72.834 -35 123.501 -35z" />
    <glyph glyph-name="aacute" unicode="&#xe1;" horiz-adv-x="1073" 
d="M474 1153l251 326l92 -67l-224 -259h-119zM403 -19c-87.333 0 -159.167 22.5029 -215.5 67.5029s-84.5 112.167 -84.5 201.5c0 49.333 9 92.166 27 128.499s44.667 66.166 80 89.499s73.833 41.833 115.5 55.5s91.5 25.5 149.5 35.5l159 26c58 10.667 87 41 87 91
c0 66.667 -20.5 115.5 -61.5 146.5s-92.833 46.5 -155.5 46.5c-61.333 0 -112.666 -15 -153.999 -45s-65.666 -76 -72.999 -138l-156 33c14.667 93.333 55.667 163.5 123 210.5s156.666 70.5 267.999 70.5c52 0 99.5 -5.83301 142.5 -17.5s82.667 -30 119 -55
s64.666 -60.333 84.999 -106s30.5 -99.5 30.5 -161.5v-406c0 -50.667 7.5 -84.834 22.5 -102.501s40.833 -26.5 77.5 -26.5h16v-125h-86c-106 -0 -168 44.333 -186 133h-8c-74.667 -101.333 -182 -152 -322 -152zM442.999 121.003c87.333 0 157.666 31.667 210.999 95
s80 150 80 260l-260 -50c-68.667 -11.333 -119.5 -29.5 -152.5 -54.5s-49.5 -60.833 -49.5 -107.5c0 -48.667 15.833 -84.667 47.5 -108s72.834 -35 123.501 -35z" />
    <glyph glyph-name="acircumflex" unicode="&#xe2;" horiz-adv-x="1073" 
d="M382 1165h-118l211 295h128l211 -295h-119l-157 212zM403 -19c-87.333 0 -159.167 22.5029 -215.5 67.5029s-84.5 112.167 -84.5 201.5c0 49.333 9 92.166 27 128.499s44.667 66.166 80 89.499s73.833 41.833 115.5 55.5s91.5 25.5 149.5 35.5l159 26
c58 10.667 87 41 87 91c0 66.667 -20.5 115.5 -61.5 146.5s-92.833 46.5 -155.5 46.5c-61.333 0 -112.666 -15 -153.999 -45s-65.666 -76 -72.999 -138l-156 33c14.667 93.333 55.667 163.5 123 210.5s156.666 70.5 267.999 70.5c52 0 99.5 -5.83301 142.5 -17.5
s82.667 -30 119 -55s64.666 -60.333 84.999 -106s30.5 -99.5 30.5 -161.5v-406c0 -50.667 7.5 -84.834 22.5 -102.501s40.833 -26.5 77.5 -26.5h16v-125h-86c-106 -0 -168 44.333 -186 133h-8c-74.667 -101.333 -182 -152 -322 -152zM442.999 121.003
c87.333 0 157.666 31.667 210.999 95s80 150 80 260l-260 -50c-68.667 -11.333 -119.5 -29.5 -152.5 -54.5s-49.5 -60.833 -49.5 -107.5c0 -48.667 15.833 -84.667 47.5 -108s72.834 -35 123.501 -35z" />
    <glyph glyph-name="atilde" unicode="&#xe3;" horiz-adv-x="1073" 
d="M669 1144c-68.667 0 -123.331 32.332 -163.998 96.999c-22.667 34 -49.334 51 -80.001 51c-27.333 0 -48.833 -12.333 -64.5 -37s-23.5 -57 -23.5 -97h-96c0 67.333 16.333 122.333 49 165s76.667 64 132 64c68.667 0 122.667 -32.667 162 -98
c20 -32.667 47.333 -49 82 -49c27.333 0 48.666 11.833 63.999 35.5s23 55.834 23 96.501h97c0 -66 -16.333 -120.5 -49 -163.5s-76.667 -64.5 -132 -64.5zM403.003 -19.001c-87.333 0 -159.167 22.5029 -215.5 67.5029s-84.5 112.167 -84.5 201.5
c0 49.333 9 92.166 27 128.499s44.667 66.166 80 89.499s73.833 41.833 115.5 55.5s91.5 25.5 149.5 35.5l159 26c58 10.667 87 41 87 91c0 66.667 -20.5 115.5 -61.5 146.5s-92.833 46.5 -155.5 46.5c-61.333 0 -112.666 -15 -153.999 -45s-65.666 -76 -72.999 -138
l-156 33c14.667 93.333 55.667 163.5 123 210.5s156.666 70.5 267.999 70.5c52 0 99.5 -5.83301 142.5 -17.5s82.667 -30 119 -55s64.666 -60.333 84.999 -106s30.5 -99.5 30.5 -161.5v-406c0 -50.667 7.5 -84.834 22.5 -102.501s40.833 -26.5 77.5 -26.5h16v-125h-86
c-106 0 -168 44.333 -186 133h-8c-74.667 -101.333 -182 -152 -322 -152zM443.002 121.002c87.333 0 157.666 31.667 210.999 95s80 150 80 260l-260 -50c-68.667 -11.333 -119.5 -29.5 -152.5 -54.5s-49.5 -60.833 -49.5 -107.5c0 -48.667 15.833 -84.667 47.5 -108
s72.834 -35 123.501 -35z" />
    <glyph glyph-name="adieresis" unicode="&#xe4;" horiz-adv-x="1073" 
d="M353 1214c-32 0 -59.5 11.5 -82.5 34.5s-34.5 50.5 -34.5 82.5s11.5 59.333 34.5 82s50.5 34 82.5 34c31.333 0 58.5 -11.333 81.5 -34s34.5 -50 34.5 -82s-11.5 -59.5 -34.5 -82.5s-50.167 -34.5 -81.5 -34.5zM727 1214c-32 0 -59.5 11.5 -82.5 34.5
s-34.5 50.5 -34.5 82.5s11.5 59.333 34.5 82s50.5 34 82.5 34c31.333 0 58.5 -11.333 81.5 -34s34.5 -50 34.5 -82s-11.5 -59.5 -34.5 -82.5s-50.167 -34.5 -81.5 -34.5zM403 -19c-87.333 0 -159.167 22.5029 -215.5 67.5029s-84.5 112.167 -84.5 201.5
c0 49.333 9 92.166 27 128.499s44.667 66.166 80 89.499s73.833 41.833 115.5 55.5s91.5 25.5 149.5 35.5l159 26c58 10.667 87 41 87 91c0 66.667 -20.5 115.5 -61.5 146.5s-92.833 46.5 -155.5 46.5c-61.333 0 -112.666 -15 -153.999 -45s-65.666 -76 -72.999 -138
l-156 33c14.667 93.333 55.667 163.5 123 210.5s156.666 70.5 267.999 70.5c52 0 99.5 -5.83301 142.5 -17.5s82.667 -30 119 -55s64.666 -60.333 84.999 -106s30.5 -99.5 30.5 -161.5v-406c0 -50.667 7.5 -84.834 22.5 -102.501s40.833 -26.5 77.5 -26.5h16v-125h-86
c-106 -0 -168 44.333 -186 133h-8c-74.667 -101.333 -182 -152 -322 -152zM442.999 121.003c87.333 0 157.666 31.667 210.999 95s80 150 80 260l-260 -50c-68.667 -11.333 -119.5 -29.5 -152.5 -54.5s-49.5 -60.833 -49.5 -107.5c0 -48.667 15.833 -84.667 47.5 -108
s72.834 -35 123.501 -35z" />
    <glyph glyph-name="aring" unicode="&#xe5;" horiz-adv-x="1073" 
d="M540 1116c-58 0 -107.667 20.833 -149 62.5s-62 91.167 -62 148.5c0 58 20.5 107.333 61.5 148s90.833 61 149.5 61c57.333 0 106.333 -20.333 147 -61s61 -90 61 -148c0 -57.333 -20.5 -106.833 -61.5 -148.5s-89.833 -62.5 -146.5 -62.5zM540 1202
c35.333 0 65 11.833 89 35.5s36 53.5 36 89.5c0 34.667 -12.167 64.667 -36.5 90s-53.833 38 -88.5 38s-64.167 -12.667 -88.5 -38s-36.5 -55.333 -36.5 -90c0 -36 12 -65.833 36 -89.5s53.667 -35.5 89 -35.5zM403 -19c-87.333 0 -159.167 22.5029 -215.5 67.5029
s-84.5 112.167 -84.5 201.5c0 49.333 9 92.166 27 128.499s44.667 66.166 80 89.499s73.833 41.833 115.5 55.5s91.5 25.5 149.5 35.5l159 26c58 10.667 87 41 87 91c0 66.667 -20.5 115.5 -61.5 146.5s-92.833 46.5 -155.5 46.5c-61.333 0 -112.666 -15 -153.999 -45
s-65.666 -76 -72.999 -138l-156 33c14.667 93.333 55.667 163.5 123 210.5s156.666 70.5 267.999 70.5c52 0 99.5 -5.83301 142.5 -17.5s82.667 -30 119 -55s64.666 -60.333 84.999 -106s30.5 -99.5 30.5 -161.5v-406c0 -50.667 7.5 -84.834 22.5 -102.501
s40.833 -26.5 77.5 -26.5h16v-125h-86c-106 -0 -168 44.333 -186 133h-8c-74.667 -101.333 -182 -152 -322 -152zM442.999 121.003c87.333 0 157.666 31.667 210.999 95s80 150 80 260l-260 -50c-68.667 -11.333 -119.5 -29.5 -152.5 -54.5s-49.5 -60.833 -49.5 -107.5
c0 -48.667 15.833 -84.667 47.5 -108s72.834 -35 123.501 -35z" />
    <glyph glyph-name="ae" unicode="&#xe6;" horiz-adv-x="1738" 
d="M1643 511l-3.00098 -49.9961h-768c3.33301 -108 35.166 -191 95.499 -249s134.833 -87 223.5 -87c60 0 114.167 15.667 162.5 47s85.833 74.666 112.5 129.999l156 -33c-36.667 -90.667 -93 -161.334 -169 -212.001s-163.667 -76 -263 -76
c-84.667 0 -161.167 16.5 -229.5 49.5s-123.833 80.5 -166.5 142.5h-12c-55.333 -72 -113.166 -122 -173.499 -150s-127.5 -42 -201.5 -42c-90 0 -163.167 22.5 -219.5 67.5s-84.5 112.167 -84.5 201.5c0 49.333 9 92.166 27 128.499s44.667 66.166 80 89.499
s73.833 41.833 115.5 55.5s91.5 25.5 149.5 35.5l159 26c58 10.667 87 41 87 91c0 66.667 -20.5 115.5 -61.5 146.5s-92.833 46.5 -155.5 46.5c-61.333 0 -112.666 -15 -153.999 -45s-65.666 -76 -72.999 -138l-156 33c14.667 93.333 55.667 163.5 123 210.5
s156.666 70.5 267.999 70.5c154.667 0 261.667 -47.333 321 -142c90 96 208.333 144 355 144c136.667 0 246.5 -42 329.5 -126s124.833 -205.667 125.5 -365zM1185 872.004c-76 0 -141.002 -21.667 -195.002 -65s-89.667 -106 -107 -188v-31h586
c-5.33301 92 -33.166 162.333 -83.499 211s-117.166 73 -200.499 73zM452.997 121.004c57.333 0 109.5 17.001 156.5 51.001s86.833 80.333 119.5 139c-16 52 -24.333 107.667 -25 167l-218 -40c-72 -12 -125.333 -30.833 -160 -56.5s-52 -62.834 -52 -111.501
c0 -50 16.5 -87.333 49.5 -112s76.167 -37 129.5 -37z" />
    <glyph glyph-name="ccedilla" unicode="&#xe7;" horiz-adv-x="1113" 
d="M583 127c67.333 0 126.664 18 177.997 54s88.333 87 111 153l162 -27c-28.667 -96.667 -80.667 -173.5 -156 -230.5s-163.666 -88.167 -264.999 -93.5l-58 -121c24 5.33301 42.333 8 55 8c58 0 105.833 -17.833 143.5 -53.5s56.5 -81.834 56.5 -138.501
c0 -58.667 -20.167 -108.334 -60.5 -149.001s-90.166 -61 -149.499 -61c-48.667 0 -95.167 12.333 -139.5 37s-76.5 55.667 -96.5 93l86 36c14.667 -21.333 36.334 -39.166 65.001 -53.499s56.334 -21.5 83.001 -21.5c32.667 0 60.667 11.333 84 34s35 51 35 85
c0 36 -11.667 64 -35 84s-53.333 30 -90 30c-28.667 0 -55.334 -6.66699 -80.001 -20l-75 49l83 165c-126 14 -228.667 67 -308 159s-119 207.667 -119 347c0 152 46.167 275 138.5 369s209.833 141 352.5 141c109.333 0 204.166 -28.667 284.499 -86s135.5 -137 165.5 -239
l-162 -26c-22.667 66 -59.667 117 -111 153s-110.666 54 -177.999 54c-92 0 -167.833 -33.667 -227.5 -101s-89.5 -155.666 -89.5 -264.999s29.833 -197.5 89.5 -264.5s135.5 -100.5 227.5 -100.5z" />
    <glyph glyph-name="egrave" unicode="&#xe8;" horiz-adv-x="1131" 
d="M648 1156h-119l-225 259l92 67zM1036 511l-2 -47h-768c2.66699 -109.333 34 -193.166 94 -251.499s134.667 -87.5 224 -87.5c60 0 114.333 15.667 163 47s86 74.666 112 129.999l156 -33c-35.333 -89.333 -91.333 -159.666 -168 -210.999s-163.667 -77 -261 -77
c-146 0 -264 45.667 -354 137s-135 216 -135 374c0 157.333 45.167 281.666 135.5 372.999s206.5 137 348.5 137c137.333 0 247.5 -42 330.5 -126s124.5 -205.667 124.5 -365zM581 869c-81.333 0 -149.499 -23.167 -204.499 -69.5s-89.5 -113.833 -103.5 -202.5h589
c-6.66699 88.667 -35.334 156.167 -86.001 202.5s-115.667 69.5 -195 69.5z" />
    <glyph glyph-name="eacute" unicode="&#xe9;" horiz-adv-x="1131" 
d="M864 1415l-224 -259h-119l251 326zM1036 511l-2 -47h-768c2.66699 -109.333 34 -193.166 94 -251.499s134.667 -87.5 224 -87.5c60 0 114.333 15.667 163 47s86 74.666 112 129.999l156 -33c-35.333 -89.333 -91.333 -159.666 -168 -210.999s-163.667 -77 -261 -77
c-146 0 -264 45.667 -354 137s-135 216 -135 374c0 157.333 45.167 281.666 135.5 372.999s206.5 137 348.5 137c137.333 0 247.5 -42 330.5 -126s124.5 -205.667 124.5 -365zM581 869c-81.333 0 -149.499 -23.167 -204.499 -69.5s-89.5 -113.833 -103.5 -202.5h589
c-6.66699 88.667 -35.334 156.167 -86.001 202.5s-115.667 69.5 -195 69.5z" />
    <glyph glyph-name="ecircumflex" unicode="&#xea;" horiz-adv-x="1131" 
d="M585 1380l-156 -212h-118l211 295h128l211 -295h-119zM1036 511l-2 -47h-768c2.66699 -109.333 34 -193.166 94 -251.499s134.667 -87.5 224 -87.5c60 0 114.333 15.667 163 47s86 74.666 112 129.999l156 -33c-35.333 -89.333 -91.333 -159.666 -168 -210.999
s-163.667 -77 -261 -77c-146 0 -264 45.667 -354 137s-135 216 -135 374c0 157.333 45.167 281.666 135.5 372.999s206.5 137 348.5 137c137.333 0 247.5 -42 330.5 -126s124.5 -205.667 124.5 -365zM581 869c-81.333 0 -149.499 -23.167 -204.499 -69.5
s-89.5 -113.833 -103.5 -202.5h589c-6.66699 88.667 -35.334 156.167 -86.001 202.5s-115.667 69.5 -195 69.5z" />
    <glyph glyph-name="edieresis" unicode="&#xeb;" horiz-adv-x="1131" 
d="M400 1217c-32 0 -59.5 11.5 -82.5 34.5s-34.5 50.5 -34.5 82.5s11.5 59.333 34.5 82s50.5 34 82.5 34c31.333 0 58.5 -11.333 81.5 -34s34.5 -50 34.5 -82s-11.5 -59.5 -34.5 -82.5s-50.167 -34.5 -81.5 -34.5zM774 1217c-32 0 -59.5 11.5 -82.5 34.5
s-34.5 50.5 -34.5 82.5s11.5 59.333 34.5 82s50.5 34 82.5 34c31.333 0 58.5 -11.333 81.5 -34s34.5 -50 34.5 -82s-11.5 -59.5 -34.5 -82.5s-50.167 -34.5 -81.5 -34.5zM1036 511l-2 -47h-768c2.66699 -109.333 34 -193.166 94 -251.499s134.667 -87.5 224 -87.5
c60 0 114.333 15.667 163 47s86 74.666 112 129.999l156 -33c-35.333 -89.333 -91.333 -159.666 -168 -210.999s-163.667 -77 -261 -77c-146 0 -264 45.667 -354 137s-135 216 -135 374c0 157.333 45.167 281.666 135.5 372.999s206.5 137 348.5 137
c137.333 0 247.5 -42 330.5 -126s124.5 -205.667 124.5 -365zM581 869c-81.333 0 -149.499 -23.167 -204.499 -69.5s-89.5 -113.833 -103.5 -202.5h589c-6.66699 88.667 -35.334 156.167 -86.001 202.5s-115.667 69.5 -195 69.5z" />
    <glyph glyph-name="igrave" unicode="&#xec;" horiz-adv-x="526" 
d="M206 1153l-225 259l92 67l252 -326h-119zM176 0v983h174v-983h-174z" />
    <glyph glyph-name="iacute" unicode="&#xed;" horiz-adv-x="526" 
d="M198 1153l251 326l92 -67l-224 -259h-119zM176 0v983h174v-983h-174z" />
    <glyph glyph-name="icircumflex" unicode="&#xee;" horiz-adv-x="526" 
d="M106 1165h-118l211 295h128l211 -295h-119l-157 212zM176 0v983h174v-983h-174z" />
    <glyph glyph-name="idieresis" unicode="&#xef;" horiz-adv-x="526" 
d="M77 1214c-32 0 -59.5 11.5 -82.5 34.5s-34.5 50.5 -34.5 82.5s11.5 59.333 34.5 82s50.5 34 82.5 34c31.333 0 58.5 -11.333 81.5 -34s34.5 -50 34.5 -82s-11.5 -59.5 -34.5 -82.5s-50.167 -34.5 -81.5 -34.5zM451 1214c-32 0 -59.5 11.5 -82.5 34.5
s-34.5 50.5 -34.5 82.5s11.5 59.333 34.5 82s50.5 34 82.5 34c31.333 0 58.5 -11.333 81.5 -34s34.5 -50 34.5 -82s-11.5 -59.5 -34.5 -82.5s-50.167 -34.5 -81.5 -34.5zM176 0v983h174v-983h-174z" />
    <glyph glyph-name="eth" unicode="&#xf0;" horiz-adv-x="1164" 
d="M951 840c81.333 -112.667 121.663 -231.335 120.996 -356.002c-0.666992 -98 -23 -185.5 -67 -262.5s-103.167 -136.167 -177.5 -177.5s-157.166 -62 -248.499 -62c-66 0 -128.833 12.5 -188.5 37.5s-111.667 59.5 -156 103.5s-79.166 98.5 -104.499 163.5
s-37.666 135.167 -36.999 210.5c2 148.667 45.5 267.834 130.5 357.501s188.167 137.834 309.5 144.501c50.667 1.33301 98.334 -6.66699 143.001 -24l-198 263l-274 -71l-18 68l246 64l-178 237h189l144 -197l266 69l19 -69l-240 -62zM907.997 490.999
c1.33301 100.667 -28.501 185.999 -89.501 255.999s-138.5 105 -232.5 105c-93.333 0 -170.166 -31.5 -230.499 -94.5s-91.5 -149.167 -93.5 -258.5c-1.33301 -108.667 28.5 -195.167 89.5 -259.5s138.5 -96.5 232.5 -96.5c95.333 0 172.833 30.833 232.5 92.5
s90.167 146.834 91.5 255.501z" />
    <glyph glyph-name="ntilde" unicode="&#xf1;" horiz-adv-x="1138" 
d="M452 1292c-27.333 0 -48.8301 -12.334 -64.4971 -37.001s-23.5 -57 -23.5 -97h-96c0 67.333 16.333 122.333 49 165s76.667 64 132 64c68.667 0 122.667 -32.667 162 -98c20 -32.667 47.333 -49 82 -49c27.333 0 48.666 11.833 63.999 35.5s23 55.834 23 96.501h97
c0 -66 -16.333 -120.5 -49 -163.5s-76.667 -64.5 -132 -64.5c-68.667 0 -123.334 32.333 -164.001 97c-22.667 34 -49.334 51 -80.001 51zM640.003 1002c103.333 0 185.832 -29.667 247.499 -89s92.5 -143 92.5 -251v-662h-173v623c0 79.333 -20 138 -60 176
s-91.333 57 -154 57c-71.333 0 -129.666 -22.5 -174.999 -67.5s-68.333 -111.833 -69 -200.5v-588h-173v983h173v-126c65.333 96.667 162.333 145 291 145z" />
    <glyph glyph-name="ograve" unicode="&#xf2;" horiz-adv-x="1180" 
d="M532 1152l-225 259l92 67l252 -326h-119zM590 -19c-93.333 0 -177.333 20.333 -252 61s-133.834 100.167 -177.501 178.5s-65.5 168.833 -65.5 271.5c0 154 46.5 277.5 139.5 370.5s211.5 139.5 355.5 139.5c144.667 0 263.334 -46.5 356.001 -139.5
s139 -216.5 139 -370.5c0 -154.667 -46.5 -278.5 -139.5 -371.5s-211.5 -139.5 -355.5 -139.5zM589 125c93.333 0 170.833 33.667 232.5 101s92.5 156 92.5 266c0 109.333 -30.833 197.666 -92.5 264.999s-139.167 101 -232.5 101c-92.667 0 -169.5 -33.667 -230.5 -101
s-91.5 -155.666 -91.5 -264.999c0 -110 30.5 -198.667 91.5 -266s137.833 -101 230.5 -101z" />
    <glyph glyph-name="oacute" unicode="&#xf3;" horiz-adv-x="1180" 
d="M524 1152l251 326l92 -67l-224 -259h-119zM590 -19c-93.333 0 -177.333 20.333 -252 61s-133.834 100.167 -177.501 178.5s-65.5 168.833 -65.5 271.5c0 154 46.5 277.5 139.5 370.5s211.5 139.5 355.5 139.5c144.667 0 263.334 -46.5 356.001 -139.5
s139 -216.5 139 -370.5c0 -154.667 -46.5 -278.5 -139.5 -371.5s-211.5 -139.5 -355.5 -139.5zM589 125c93.333 0 170.833 33.667 232.5 101s92.5 156 92.5 266c0 109.333 -30.833 197.666 -92.5 264.999s-139.167 101 -232.5 101c-92.667 0 -169.5 -33.667 -230.5 -101
s-91.5 -155.666 -91.5 -264.999c0 -110 30.5 -198.667 91.5 -266s137.833 -101 230.5 -101z" />
    <glyph glyph-name="ocircumflex" unicode="&#xf4;" horiz-adv-x="1180" 
d="M432 1164h-118l211 295h128l211 -295h-119l-157 212zM590 -19c-93.333 0 -177.333 20.333 -252 61s-133.834 100.167 -177.501 178.5s-65.5 168.833 -65.5 271.5c0 154 46.5 277.5 139.5 370.5s211.5 139.5 355.5 139.5c144.667 0 263.334 -46.5 356.001 -139.5
s139 -216.5 139 -370.5c0 -154.667 -46.5 -278.5 -139.5 -371.5s-211.5 -139.5 -355.5 -139.5zM589 125c93.333 0 170.833 33.667 232.5 101s92.5 156 92.5 266c0 109.333 -30.833 197.666 -92.5 264.999s-139.167 101 -232.5 101c-92.667 0 -169.5 -33.667 -230.5 -101
s-91.5 -155.666 -91.5 -264.999c0 -110 30.5 -198.667 91.5 -266s137.833 -101 230.5 -101z" />
    <glyph glyph-name="otilde" unicode="&#xf5;" horiz-adv-x="1180" 
d="M719 1143c-68.667 0 -123.331 32.332 -163.998 96.999c-22.667 34 -49.334 51 -80.001 51c-27.333 0 -48.833 -12.333 -64.5 -37s-23.5 -57 -23.5 -97h-96c0 67.333 16.333 122.333 49 165s76.667 64 132 64c68.667 0 122.667 -32.667 162 -98
c20 -32.667 47.333 -49 82 -49c27.333 0 48.666 11.833 63.999 35.5s23 55.834 23 96.501h97c0 -66 -16.333 -120.5 -49 -163.5s-76.667 -64.5 -132 -64.5zM590.003 -19.001c-93.333 0 -177.333 20.333 -252 61s-133.834 100.167 -177.501 178.5s-65.5 168.833 -65.5 271.5
c0 154 46.5 277.5 139.5 370.5s211.5 139.5 355.5 139.5c144.667 0 263.334 -46.5 356.001 -139.5s139 -216.5 139 -370.5c0 -154.667 -46.5 -278.5 -139.5 -371.5s-211.5 -139.5 -355.5 -139.5zM589.003 124.999c93.333 0 170.833 33.667 232.5 101s92.5 156 92.5 266
c0 109.333 -30.833 197.666 -92.5 264.999s-139.167 101 -232.5 101c-92.667 0 -169.5 -33.667 -230.5 -101s-91.5 -155.666 -91.5 -264.999c0 -110 30.5 -198.667 91.5 -266s137.833 -101 230.5 -101z" />
    <glyph glyph-name="odieresis" unicode="&#xf6;" horiz-adv-x="1180" 
d="M403 1213c-32 0 -59.5 11.5 -82.5 34.5s-34.5 50.5 -34.5 82.5s11.5 59.333 34.5 82s50.5 34 82.5 34c31.333 0 58.5 -11.333 81.5 -34s34.5 -50 34.5 -82s-11.5 -59.5 -34.5 -82.5s-50.167 -34.5 -81.5 -34.5zM777 1213c-32 0 -59.5 11.5 -82.5 34.5
s-34.5 50.5 -34.5 82.5s11.5 59.333 34.5 82s50.5 34 82.5 34c31.333 0 58.5 -11.333 81.5 -34s34.5 -50 34.5 -82s-11.5 -59.5 -34.5 -82.5s-50.167 -34.5 -81.5 -34.5zM590 -19c-93.333 0 -177.333 20.333 -252 61s-133.834 100.167 -177.501 178.5
s-65.5 168.833 -65.5 271.5c0 154 46.5 277.5 139.5 370.5s211.5 139.5 355.5 139.5c144.667 0 263.334 -46.5 356.001 -139.5s139 -216.5 139 -370.5c0 -154.667 -46.5 -278.5 -139.5 -371.5s-211.5 -139.5 -355.5 -139.5zM589 125c93.333 0 170.833 33.667 232.5 101
s92.5 156 92.5 266c0 109.333 -30.833 197.666 -92.5 264.999s-139.167 101 -232.5 101c-92.667 0 -169.5 -33.667 -230.5 -101s-91.5 -155.666 -91.5 -264.999c0 -110 30.5 -198.667 91.5 -266s137.833 -101 230.5 -101z" />
    <glyph glyph-name="divide" unicode="&#xf7;" horiz-adv-x="1026" 
d="M507 934c-29.333 0 -55 10.8311 -77 32.498s-33 47.834 -33 78.501c0 29.333 11.167 55.166 33.5 77.499s47.833 33.5 76.5 33.5c30 0 56.333 -11.167 79 -33.5s34 -48.166 34 -77.499c0 -31.333 -11.167 -57.666 -33.5 -78.999s-48.833 -32 -79.5 -32zM130 610.998v142
h763v-142h-763zM507 207.998c-29.333 0 -55 10.833 -77 32.5s-33 48.5 -33 80.5c0 28.667 11 54 33 76s47.667 33 77 33c30 0 56.333 -11 79 -33s34 -47.333 34 -76c0 -32 -11.167 -58.833 -33.5 -80.5s-48.833 -32.5 -79.5 -32.5z" />
    <glyph glyph-name="oslash" unicode="&#xf8;" horiz-adv-x="1180" 
d="M924 883c107.333 -94.667 161 -225 161 -391c0 -154.667 -46.5 -278.5 -139.5 -371.5s-211.5 -139.5 -355.5 -139.5c-92 0 -176.333 20.667 -253 62l-111 -159l-85 52l115 165c-107.333 94.667 -161 225 -161 391c0 154 46.5 277.5 139.5 370.5s211.5 139.5 355.5 139.5
c94.667 0 178.667 -20.333 252 -61l111 158l85 -52zM267 492c0 -103.333 27.667 -188.668 83 -256.001l404 577c-49.333 30 -104.333 45 -165 45c-92.667 0 -169.5 -33.667 -230.5 -101s-91.5 -155.666 -91.5 -264.999zM589 124.998c93.333 0 170.833 33.668 232.5 101.001
s92.5 156 92.5 266c0 103.333 -28.333 188.666 -85 255.999l-403 -578c48.667 -30 103 -45 163 -45z" />
    <glyph glyph-name="ugrave" unicode="&#xf9;" horiz-adv-x="1137" 
d="M632 1153h-119l-225 259l92 67zM788 983l173.001 0.000976562v-983h-166l-4 130c-30.667 -48 -71.334 -84.833 -122.001 -110.5s-108 -38.5 -172 -38.5c-103.333 0 -185.833 29.667 -247.5 89s-92.5 143 -92.5 251v662h173v-623c0 -78.667 20.167 -137.334 60.5 -176.001
s91.833 -58 154.5 -58c71.333 0 129.5 22.667 174.5 68s67.833 112.333 68.5 201v588z" />
    <glyph glyph-name="uacute" unicode="&#xfa;" horiz-adv-x="1137" 
d="M848 1412l-224 -259h-119l251 326zM788 983l173.001 0.000976562v-983h-166l-4 130c-30.667 -48 -71.334 -84.833 -122.001 -110.5s-108 -38.5 -172 -38.5c-103.333 0 -185.833 29.667 -247.5 89s-92.5 143 -92.5 251v662h173v-623
c0 -78.667 20.167 -137.334 60.5 -176.001s91.833 -58 154.5 -58c71.333 0 129.5 22.667 174.5 68s67.833 112.333 68.5 201v588z" />
    <glyph glyph-name="ucircumflex" unicode="&#xfb;" horiz-adv-x="1137" 
d="M569 1377l-156 -212h-118l211 295h128l211 -295h-119zM788 983l173.001 0.000976562v-983h-166l-4 130c-30.667 -48 -71.334 -84.833 -122.001 -110.5s-108 -38.5 -172 -38.5c-103.333 0 -185.833 29.667 -247.5 89s-92.5 143 -92.5 251v662h173v-623
c0 -78.667 20.167 -137.334 60.5 -176.001s91.833 -58 154.5 -58c71.333 0 129.5 22.667 174.5 68s67.833 112.333 68.5 201v588z" />
    <glyph glyph-name="udieresis" unicode="&#xfc;" horiz-adv-x="1137" 
d="M384 1214c-32 0 -59.5 11.5 -82.5 34.5s-34.5 50.5 -34.5 82.5s11.5 59.333 34.5 82s50.5 34 82.5 34c31.333 0 58.5 -11.333 81.5 -34s34.5 -50 34.5 -82s-11.5 -59.5 -34.5 -82.5s-50.167 -34.5 -81.5 -34.5zM758 1214c-32 0 -59.5 11.5 -82.5 34.5
s-34.5 50.5 -34.5 82.5s11.5 59.333 34.5 82s50.5 34 82.5 34c31.333 0 58.5 -11.333 81.5 -34s34.5 -50 34.5 -82s-11.5 -59.5 -34.5 -82.5s-50.167 -34.5 -81.5 -34.5zM788 983l173.001 0.000976562v-983h-166l-4 130c-30.667 -48 -71.334 -84.833 -122.001 -110.5
s-108 -38.5 -172 -38.5c-103.333 0 -185.833 29.667 -247.5 89s-92.5 143 -92.5 251v662h173v-623c0 -78.667 20.167 -137.334 60.5 -176.001s91.833 -58 154.5 -58c71.333 0 129.5 22.667 174.5 68s67.833 112.333 68.5 201v588z" />
    <glyph glyph-name="yacute" unicode="&#xfd;" horiz-adv-x="997" 
d="M777 1412l-224 -259h-119l251 326zM782 983h183l-569 -1446h-179l197 487l-382 959h192l277 -765z" />
    <glyph glyph-name="thorn" unicode="&#xfe;" horiz-adv-x="1251" 
d="M695 1002c62.667 0 122 -11.998 178 -35.998s104.667 -57.667 146 -101s74.166 -97.333 98.499 -162s36.5 -135.334 36.5 -212.001c0 -153.333 -44.167 -277 -132.5 -371s-197.166 -141 -326.499 -141c-75.333 0 -143.833 18.667 -205.5 56s-108.5 87.666 -140.5 150.999
v-681h-173v2031h173v-740c32 63.333 78.833 113.5 140.5 150.5s130.167 55.5 205.5 55.5zM661 129.002c90 0 165.833 33.167 227.5 99.5s92.5 153.833 92.5 262.5s-30.833 196 -92.5 262s-137.5 99 -227.5 99c-91.333 0 -168.333 -34.5 -231 -103.5s-94 -154.833 -94 -257.5
c0 -103.333 31.333 -189.5 94 -258.5s139.667 -103.5 231 -103.5z" />
    <glyph glyph-name="ydieresis" unicode="&#xff;" horiz-adv-x="997" 
d="M313 1214c-32 0 -59.5 11.5 -82.5 34.5s-34.5 50.5 -34.5 82.5s11.5 59.333 34.5 82s50.5 34 82.5 34c31.333 0 58.5 -11.333 81.5 -34s34.5 -50 34.5 -82s-11.5 -59.5 -34.5 -82.5s-50.167 -34.5 -81.5 -34.5zM687 1214c-32 0 -59.5 11.5 -82.5 34.5
s-34.5 50.5 -34.5 82.5s11.5 59.333 34.5 82s50.5 34 82.5 34c31.333 0 58.5 -11.333 81.5 -34s34.5 -50 34.5 -82s-11.5 -59.5 -34.5 -82.5s-50.167 -34.5 -81.5 -34.5zM782 983h183l-569 -1446h-179l197 487l-382 959h192l277 -765z" />
    <glyph glyph-name="Amacron" unicode="&#x100;" horiz-adv-x="1372" 
d="M1008 1664v-110h-647v110h647zM1125 0l-121 337h-637l-120 -337h-187l519 1408h214l519 -1408h-187zM424 495h524l-262 733z" />
    <glyph glyph-name="amacron" unicode="&#x101;" horiz-adv-x="1073" 
d="M216 1178v111h647v-111h-647zM403 -19c-87.333 0 -159.167 22.5029 -215.5 67.5029s-84.5 112.167 -84.5 201.5c0 49.333 9 92.166 27 128.499s44.667 66.166 80 89.499s73.833 41.833 115.5 55.5s91.5 25.5 149.5 35.5l159 26c58 10.667 87 41 87 91
c0 66.667 -20.5 115.5 -61.5 146.5s-92.833 46.5 -155.5 46.5c-61.333 0 -112.666 -15 -153.999 -45s-65.666 -76 -72.999 -138l-156 33c14.667 93.333 55.667 163.5 123 210.5s156.666 70.5 267.999 70.5c52 0 99.5 -5.83301 142.5 -17.5s82.667 -30 119 -55
s64.666 -60.333 84.999 -106s30.5 -99.5 30.5 -161.5v-406c0 -50.667 7.5 -84.834 22.5 -102.501s40.833 -26.5 77.5 -26.5h16v-125h-86c-106 -0 -168 44.333 -186 133h-8c-74.667 -101.333 -182 -152 -322 -152zM442.999 121.003c87.333 0 157.666 31.667 210.999 95
s80 150 80 260l-260 -50c-68.667 -11.333 -119.5 -29.5 -152.5 -54.5s-49.5 -60.833 -49.5 -107.5c0 -48.667 15.833 -84.667 47.5 -108s72.834 -35 123.501 -35z" />
    <glyph glyph-name="Abreve" unicode="&#x102;" horiz-adv-x="1372" 
d="M683 1554c-103.333 0 -185.501 22.3311 -246.501 66.998s-91.5 112.334 -91.5 203.001h107c0 -60.667 20.833 -105.834 62.5 -135.501s97.834 -44.5 168.501 -44.5c72 0 129 14.833 171 44.5s63 74.834 63 135.501h107c0 -91.333 -30.667 -159.166 -92 -203.499
s-144.333 -66.5 -249 -66.5zM1125 -0.00195312l-121 337h-637l-120 -337h-187l519 1408h214l519 -1408h-187zM423.999 494.998h524l-262 733z" />
    <glyph glyph-name="abreve" unicode="&#x103;" horiz-adv-x="1073" 
d="M538 1143c-99.333 0 -180.501 28.667 -243.501 86s-94.5 134.333 -94.5 231h113c0 -66 20.833 -120.167 62.5 -162.5s95.834 -63.5 162.501 -63.5c68 0 123 21 165 63s63 96.333 63 163h113c0 -96.667 -31.667 -173.667 -95 -231s-145.333 -86 -246 -86zM402.999 -19
c-87.333 0 -159.167 22.5029 -215.5 67.5029s-84.5 112.167 -84.5 201.5c0 49.333 9 92.166 27 128.499s44.667 66.166 80 89.499s73.833 41.833 115.5 55.5s91.5 25.5 149.5 35.5l159 26c58 10.667 87 41 87 91c0 66.667 -20.5 115.5 -61.5 146.5s-92.833 46.5 -155.5 46.5
c-61.333 0 -112.666 -15 -153.999 -45s-65.666 -76 -72.999 -138l-156 33c14.667 93.333 55.667 163.5 123 210.5s156.666 70.5 267.999 70.5c52 0 99.5 -5.83301 142.5 -17.5s82.667 -30 119 -55s64.666 -60.333 84.999 -106s30.5 -99.5 30.5 -161.5v-406
c0 -50.667 7.5 -84.834 22.5 -102.501s40.833 -26.5 77.5 -26.5h16v-125h-86c-106 -0 -168 44.333 -186 133h-8c-74.667 -101.333 -182 -152 -322 -152zM442.998 121.003c87.333 0 157.666 31.667 210.999 95s80 150 80 260l-260 -50
c-68.667 -11.333 -119.5 -29.5 -152.5 -54.5s-49.5 -60.833 -49.5 -107.5c0 -48.667 15.833 -84.667 47.5 -108s72.834 -35 123.501 -35z" />
    <glyph glyph-name="Aogonek" unicode="&#x104;" horiz-adv-x="1372" 
d="M1144 -228c0 -28.667 25 -43 75 -43c34.667 0 65.667 10 93 30v-127c-30.667 -12 -66.667 -18 -108 -18c-57.333 0 -100.833 8.16699 -130.5 24.5s-44.5 39.5 -44.5 69.5c0 62.667 64.667 160 194 292h-98l-121 337h-637l-120 -337h-187l519 1408h214l519 -1408
l-24.5 -25l-31 -32l-31 -33.5c-13 -14.333 -23.5 -26.833 -31.5 -37.5l-25 -35c-8.66699 -12.667 -15 -24.5 -19 -35.5s-6 -20.833 -6 -29.5zM424 495h524l-262 733z" />
    <glyph glyph-name="aogonek" unicode="&#x105;" horiz-adv-x="1073" 
d="M1005 125l-0.000976562 -124.996l-24.5 -25l-31 -32l-31 -33.5c-13 -14.333 -23.5 -26.833 -31.5 -37.5l-25 -35c-8.66699 -12.667 -15 -24.5 -19 -35.5s-6 -20.833 -6 -29.5c0 -28.667 25 -43 75 -43c34.667 0 65.667 10 93 30v-127c-31.333 -12 -67.333 -18 -108 -18
c-57.333 0 -100.833 8.16699 -130.5 24.5s-44.5 39.5 -44.5 69.5c0 62.667 64.667 160 194 292c-104 1.33301 -165 45.666 -183 132.999h-8c-74.667 -101.333 -182 -152 -322 -152c-87.333 0 -159.166 22.5 -215.499 67.5s-84.5 112.167 -84.5 201.5
c0 49.333 9 92.166 27 128.499s44.667 66.166 80 89.499s73.833 41.833 115.5 55.5s91.5 25.5 149.5 35.5l159 26c58 10.667 87 41 87 91c0 66.667 -20.5 115.5 -61.5 146.5s-92.833 46.5 -155.5 46.5c-61.333 0 -112.666 -15 -153.999 -45s-65.666 -76 -72.999 -138
l-156 33c14.667 93.333 55.667 163.5 123 210.5s156.666 70.5 267.999 70.5c52 0 99.5 -5.83301 142.5 -17.5s82.667 -30 119 -55s64.666 -60.333 84.999 -106s30.5 -99.5 30.5 -161.5v-406c0 -50.667 7.5 -84.834 22.5 -102.501s40.833 -26.5 77.5 -26.5h16z
M442.999 121.004c87.333 0 157.666 31.667 210.999 95s80 150 80 260l-260 -50c-68.667 -11.333 -119.5 -29.5 -152.5 -54.5s-49.5 -60.833 -49.5 -107.5c0 -48.667 15.833 -84.667 47.5 -108s72.834 -35 123.501 -35z" />
    <glyph glyph-name="Cacute" unicode="&#x106;" horiz-adv-x="1532" 
d="M758 1554l251 326l92 -67l-224 -259h-119zM824 -19c-99.333 0 -191.665 16.834 -276.998 50.501s-159.5 81 -222.5 142s-112.333 137.167 -148 228.5s-53.5 192.333 -53.5 303c0 110 18 210.5 54 301.5s85.333 167.167 148 228.5s136.667 108.666 222 141.999
s177.666 50 276.999 50c139.333 0 264.166 -33 374.499 -99s192.833 -157.667 247.5 -275l-165 -68c-42.667 86.667 -104.167 153.5 -184.5 200.5s-171.166 70.5 -272.499 70.5c-73.333 0 -141.666 -12.333 -204.999 -37s-118.666 -60 -165.999 -106s-84.5 -104 -111.5 -174
s-40.5 -148 -40.5 -234s13.5 -164.167 40.5 -234.5s64.167 -128.5 111.5 -174.5s102.666 -81.5 165.999 -106.5s131.666 -37.5 204.999 -37.5c101.333 0 192.166 23.5 272.499 70.5s141.833 113.5 184.5 199.5l165 -67c-54.667 -118 -137 -209.833 -247 -275.5
s-235 -98.5 -375 -98.5z" />
    <glyph glyph-name="cacute" unicode="&#x107;" horiz-adv-x="1113" 
d="M509 1153l251 326l92 -67l-224 -259h-119zM584 -18c-142 0 -259.332 46.999 -351.999 140.999s-139 217 -139 369s46.167 275 138.5 369s209.833 141 352.5 141c109.333 0 204.166 -28.667 284.499 -86s135.5 -137 165.5 -239l-162 -26c-22.667 66 -59.667 117 -111 153
s-110.666 54 -177.999 54c-92 0 -167.833 -33.667 -227.5 -101s-89.5 -155.666 -89.5 -264.999s29.833 -197.5 89.5 -264.5s135.5 -100.5 227.5 -100.5c67.333 0 126.666 18 177.999 54s88.333 87 111 153l162 -27c-30 -101.333 -85.5 -180.833 -166.5 -238.5
s-175.5 -86.5 -283.5 -86.5z" />
    <glyph glyph-name="Cdotaccent" unicode="&#x10a;" horiz-adv-x="1532" 
d="M824 1536c-32 0 -59.5 11.5 -82.5 34.5s-34.5 50.5 -34.5 82.5s11.5 59.333 34.5 82s50.5 34 82.5 34c31.333 0 58.5 -11.333 81.5 -34s34.5 -50 34.5 -82s-11.5 -59.5 -34.5 -82.5s-50.167 -34.5 -81.5 -34.5zM824 -19c-99.333 0 -191.665 16.834 -276.998 50.501
s-159.5 81 -222.5 142s-112.333 137.167 -148 228.5s-53.5 192.333 -53.5 303c0 110 18 210.5 54 301.5s85.333 167.167 148 228.5s136.667 108.666 222 141.999s177.666 50 276.999 50c139.333 0 264.166 -33 374.499 -99s192.833 -157.667 247.5 -275l-165 -68
c-42.667 86.667 -104.167 153.5 -184.5 200.5s-171.166 70.5 -272.499 70.5c-73.333 0 -141.666 -12.333 -204.999 -37s-118.666 -60 -165.999 -106s-84.5 -104 -111.5 -174s-40.5 -148 -40.5 -234s13.5 -164.167 40.5 -234.5s64.167 -128.5 111.5 -174.5
s102.666 -81.5 165.999 -106.5s131.666 -37.5 204.999 -37.5c101.333 0 192.166 23.5 272.499 70.5s141.833 113.5 184.5 199.5l165 -67c-54.667 -118 -137 -209.833 -247 -275.5s-235 -98.5 -375 -98.5z" />
    <glyph glyph-name="cdotaccent" unicode="&#x10b;" horiz-adv-x="1113" 
d="M575 1214c-32 0 -59.5 11.5 -82.5 34.5s-34.5 50.5 -34.5 82.5s11.5 59.333 34.5 82s50.5 34 82.5 34c31.333 0 58.5 -11.333 81.5 -34s34.5 -50 34.5 -82s-11.5 -59.5 -34.5 -82.5s-50.167 -34.5 -81.5 -34.5zM584 -18c-142 0 -259.332 46.999 -351.999 140.999
s-139 217 -139 369s46.167 275 138.5 369s209.833 141 352.5 141c109.333 0 204.166 -28.667 284.499 -86s135.5 -137 165.5 -239l-162 -26c-22.667 66 -59.667 117 -111 153s-110.666 54 -177.999 54c-92 0 -167.833 -33.667 -227.5 -101s-89.5 -155.666 -89.5 -264.999
s29.833 -197.5 89.5 -264.5s135.5 -100.5 227.5 -100.5c67.333 0 126.666 18 177.999 54s88.333 87 111 153l162 -27c-30 -101.333 -85.5 -180.833 -166.5 -238.5s-175.5 -86.5 -283.5 -86.5z" />
    <glyph glyph-name="Ccaron" unicode="&#x10c;" horiz-adv-x="1532" 
d="M760 1554l-211 295h117l157 -214l156 214h119l-211 -295h-127zM824 -19c-99.333 0 -191.665 16.834 -276.998 50.501s-159.5 81 -222.5 142s-112.333 137.167 -148 228.5s-53.5 192.333 -53.5 303c0 110 18 210.5 54 301.5s85.333 167.167 148 228.5
s136.667 108.666 222 141.999s177.666 50 276.999 50c139.333 0 264.166 -33 374.499 -99s192.833 -157.667 247.5 -275l-165 -68c-42.667 86.667 -104.167 153.5 -184.5 200.5s-171.166 70.5 -272.499 70.5c-73.333 0 -141.666 -12.333 -204.999 -37
s-118.666 -60 -165.999 -106s-84.5 -104 -111.5 -174s-40.5 -148 -40.5 -234s13.5 -164.167 40.5 -234.5s64.167 -128.5 111.5 -174.5s102.666 -81.5 165.999 -106.5s131.666 -37.5 204.999 -37.5c101.333 0 192.166 23.5 272.499 70.5s141.833 113.5 184.5 199.5l165 -67
c-54.667 -118 -137 -209.833 -247 -275.5s-235 -98.5 -375 -98.5z" />
    <glyph glyph-name="ccaron" unicode="&#x10d;" horiz-adv-x="1113" 
d="M511 1165l-211 295h117l157 -214l156 214h119l-211 -295h-127zM584 -18c-142 0 -259.332 46.999 -351.999 140.999s-139 217 -139 369s46.167 275 138.5 369s209.833 141 352.5 141c109.333 0 204.166 -28.667 284.499 -86s135.5 -137 165.5 -239l-162 -26
c-22.667 66 -59.667 117 -111 153s-110.666 54 -177.999 54c-92 0 -167.833 -33.667 -227.5 -101s-89.5 -155.666 -89.5 -264.999s29.833 -197.5 89.5 -264.5s135.5 -100.5 227.5 -100.5c67.333 0 126.666 18 177.999 54s88.333 87 111 153l162 -27
c-30 -101.333 -85.5 -180.833 -166.5 -238.5s-175.5 -86.5 -283.5 -86.5z" />
    <glyph glyph-name="Dcaron" unicode="&#x10e;" horiz-adv-x="1452" 
d="M540 1554l-211 295h117l157 -214l156 214h119l-211 -295h-127zM221 0v1408h454c140 0 259.5 -30.333 358.5 -91s172.333 -143.167 220 -247.5s71.5 -225.833 71.5 -364.5c0 -104 -13.833 -198.833 -41.5 -284.5s-68.167 -159.834 -121.5 -222.501
s-121.5 -111.334 -204.5 -146.001s-177.167 -52 -282.5 -52h-454zM400 163.002h269c155.333 0 272.5 48 351.5 144s118.5 228.667 118.5 398c0 168 -39.667 300 -119 396s-196.333 144 -351 144h-269v-1082z" />
    <glyph glyph-name="dcaron" unicode="&#x10f;" horiz-adv-x="1389" 
d="M541 -19c-126 0 -231.333 47.167 -316 141.5s-127 217.833 -127 370.5c0 152 42.5 275.167 127.5 369.5s190.167 141.5 315.5 141.5c74 0 141.833 -18.833 203.5 -56.5s111.167 -89.167 148.5 -154.5l1 743h172v-1536h-173v193c-37.333 -65.333 -86.833 -117 -148.5 -155
s-129.5 -57 -203.5 -57zM1227 916l124 620h181l-177 -620h-128zM592 131c90 0 165.499 34.5 226.499 103.5s91.5 155.167 91.5 258.5c0 102.667 -30.667 188.667 -92 258s-136.666 104 -225.999 104c-91.333 0 -167.666 -33.5 -228.999 -100.5s-92 -154.167 -92 -261.5
s30.667 -194.5 92 -261.5s137.666 -100.5 228.999 -100.5z" />
    <glyph glyph-name="Dcroat" unicode="&#x110;" horiz-adv-x="1452" 
d="M675 1408c140 0 259.5 -30.3311 358.5 -90.998s172.333 -143.167 220 -247.5s71.5 -225.833 71.5 -364.5c0 -104 -13.833 -198.833 -41.5 -284.5s-68.167 -159.834 -121.5 -222.501s-121.5 -111.334 -204.5 -146.001s-177.167 -52 -282.5 -52h-454v647h-162v115h162v646
h454zM669 163.002c155.333 0 272.5 48 351.5 144s118.5 228.667 118.5 398c0 168 -39.667 300 -119 396s-196.333 144 -351 144h-269v-483h265v-115h-265v-484h269z" />
    <glyph glyph-name="dcroat" unicode="&#x111;" horiz-adv-x="1251" 
d="M1236 1304v-115.001h-161v-1189h-167l-4 191c-31.333 -65.333 -78 -117 -140 -155s-131.333 -57 -208 -57c-62.667 0 -122 12.167 -178 36.5s-104.833 58.333 -146.5 102s-74.667 97.834 -99 162.501s-36.5 135 -36.5 211c0 151.333 44.5 274.333 133.5 369
s197.833 142 326.5 142c75.333 0 143.833 -18.5 205.5 -55.5s108.5 -87.167 140.5 -150.5v393h-272v115h272v232h173v-232h161zM592 128.999c90.667 0 166.833 34.5 228.5 103.5s92.5 155.167 92.5 258.5c0 102.667 -31 188.667 -93 258s-138 104 -228 104
c-91.333 0 -168 -33.5 -230 -100.5s-93 -154.167 -93 -261.5s31 -194.5 93 -261.5s138.667 -100.5 230 -100.5z" />
    <glyph glyph-name="Emacron" unicode="&#x112;" horiz-adv-x="1098" 
d="M925 1664v-110h-647v110h647zM976 1245h-572v-461h504v-161h-504v-460h572v-163h-755v1408h755v-163z" />
    <glyph glyph-name="emacron" unicode="&#x113;" horiz-adv-x="1131" 
d="M910 1292v-111h-647v111h647zM1036 511l-2 -47h-768c2.66699 -109.333 34 -193.166 94 -251.499s134.667 -87.5 224 -87.5c60 0 114.333 15.667 163 47s86 74.666 112 129.999l156 -33c-35.333 -89.333 -91.333 -159.666 -168 -210.999s-163.667 -77 -261 -77
c-146 0 -264 45.667 -354 137s-135 216 -135 374c0 157.333 45.167 281.666 135.5 372.999s206.5 137 348.5 137c137.333 0 247.5 -42 330.5 -126s124.5 -205.667 124.5 -365zM581 869c-81.333 0 -149.499 -23.167 -204.499 -69.5s-89.5 -113.833 -103.5 -202.5h589
c-6.66699 88.667 -35.334 156.167 -86.001 202.5s-115.667 69.5 -195 69.5z" />
    <glyph glyph-name="Edotaccent" unicode="&#x116;" horiz-adv-x="1098" 
d="M602 1536c-32 0 -59.5 11.5 -82.5 34.5s-34.5 50.5 -34.5 82.5s11.5 59.333 34.5 82s50.5 34 82.5 34c31.333 0 58.5 -11.333 81.5 -34s34.5 -50 34.5 -82s-11.5 -59.5 -34.5 -82.5s-50.167 -34.5 -81.5 -34.5zM976 1245h-572v-461h504v-161h-504v-460h572v-163h-755
v1408h755v-163z" />
    <glyph glyph-name="edotaccent" unicode="&#x117;" horiz-adv-x="1131" 
d="M587 1217c-32 0 -59.5 11.5 -82.5 34.5s-34.5 50.5 -34.5 82.5s11.5 59.333 34.5 82s50.5 34 82.5 34c31.333 0 58.5 -11.333 81.5 -34s34.5 -50 34.5 -82s-11.5 -59.5 -34.5 -82.5s-50.167 -34.5 -81.5 -34.5zM1036 511l-2 -47h-768
c2.66699 -109.333 34 -193.166 94 -251.499s134.667 -87.5 224 -87.5c60 0 114.333 15.667 163 47s86 74.666 112 129.999l156 -33c-35.333 -89.333 -91.333 -159.666 -168 -210.999s-163.667 -77 -261 -77c-146 0 -264 45.667 -354 137s-135 216 -135 374
c0 157.333 45.167 281.666 135.5 372.999s206.5 137 348.5 137c137.333 0 247.5 -42 330.5 -126s124.5 -205.667 124.5 -365zM581 869c-81.333 0 -149.499 -23.167 -204.499 -69.5s-89.5 -113.833 -103.5 -202.5h589c-6.66699 88.667 -35.334 156.167 -86.001 202.5
s-115.667 69.5 -195 69.5z" />
    <glyph glyph-name="Eogonek" unicode="&#x118;" horiz-adv-x="1098" 
d="M976 1245h-572v-461h504v-161h-504v-460h572v-163l-24.5 -25l-31 -32l-31 -33.5c-13 -14.333 -23.5 -26.833 -31.5 -37.5l-25 -35c-8.66699 -12.667 -15 -24.5 -19 -35.5s-6 -20.833 -6 -29.5c0 -28.667 25 -43 75 -43c34.667 0 65.667 10 93 30v-127
c-31.333 -12 -67.333 -18 -108 -18c-57.333 0 -100.833 8.16699 -130.5 24.5s-44.5 39.5 -44.5 69.5c0 62.667 64.667 160 194 292h-666v1408h755v-163z" />
    <glyph glyph-name="eogonek" unicode="&#x119;" horiz-adv-x="1131" 
d="M1036 511l-2 -46.9971h-768c2.66699 -109.333 34 -193.166 94 -251.499s134.667 -87.5 224 -87.5c60 0 114.333 15.667 163 47s86 74.666 112 129.999l156 -33c-20 -50.667 -47 -95.334 -81 -134.001h1l-3 -3c-1.33301 -1.33301 -2.5 -2.66602 -3.5 -3.99902
s-2.16699 -2.33301 -3.5 -3c-6 -6.66699 -12.333 -13 -19 -19l-63 -67.5c-16 -17.667 -32.667 -39.834 -50 -66.501s-26 -48.334 -26 -65.001c0 -28.667 25 -43 75 -43c34.667 0 65.667 10 93 30v-127c-30.667 -12 -66.667 -18 -108 -18
c-57.333 0 -100.833 8.16699 -130.5 24.5s-44.5 39.5 -44.5 69.5c0 39.333 25.333 92.333 76 159c-44 -14 -91.333 -21 -142 -21c-146 0 -264 45.667 -354 137s-135 216 -135 374c0 157.333 45.167 281.666 135.5 372.999s206.5 137 348.5 137
c137.333 0 247.5 -42 330.5 -126s124.5 -205.667 124.5 -365zM581 869.003c-81.333 0 -149.499 -23.167 -204.499 -69.5s-89.5 -113.833 -103.5 -202.5h589c-6.66699 88.667 -35.334 156.167 -86.001 202.5s-115.667 69.5 -195 69.5z" />
    <glyph glyph-name="Ecaron" unicode="&#x11a;" horiz-adv-x="1098" 
d="M665 1554h-127l-211 295h117l157 -214l156 214h119zM976 1245h-572v-461h504v-161h-504v-460h572v-163h-755v1408h755v-163z" />
    <glyph glyph-name="ecaron" unicode="&#x11b;" horiz-adv-x="1131" 
d="M650 1168h-127l-211 295h117l157 -214l156 214h119zM1036 511l-2 -47h-768c2.66699 -109.333 34 -193.166 94 -251.499s134.667 -87.5 224 -87.5c60 0 114.333 15.667 163 47s86 74.666 112 129.999l156 -33c-35.333 -89.333 -91.333 -159.666 -168 -210.999
s-163.667 -77 -261 -77c-146 0 -264 45.667 -354 137s-135 216 -135 374c0 157.333 45.167 281.666 135.5 372.999s206.5 137 348.5 137c137.333 0 247.5 -42 330.5 -126s124.5 -205.667 124.5 -365zM581 869c-81.333 0 -149.499 -23.167 -204.499 -69.5
s-89.5 -113.833 -103.5 -202.5h589c-6.66699 88.667 -35.334 156.167 -86.001 202.5s-115.667 69.5 -195 69.5z" />
    <glyph glyph-name="Gbreve" unicode="&#x11e;" horiz-adv-x="1630" 
d="M813 1554c-103.333 0 -185.501 22.3311 -246.501 66.998s-91.5 112.334 -91.5 203.001h107c0 -60.667 20.833 -105.834 62.5 -135.501s97.834 -44.5 168.501 -44.5c72 0 129 14.833 171 44.5s63 74.834 63 135.501h107c0 -91.333 -30.667 -159.166 -92 -203.499
s-144.333 -66.5 -249 -66.5zM818.999 -19.002c-98 0 -189.498 16.499 -274.498 49.499s-158.667 79.667 -221 140s-111.333 136 -147 227s-53.5 191.833 -53.5 302.5c0 148 31 277.667 93 389s145.667 195.5 251 252.5s224.333 85.5 357 85.5c129.333 0 246.333 -28 351 -84
s187 -137.333 247 -244l-158 -85c-44.667 82 -105.334 143.833 -182.001 185.5s-162.667 62.5 -258 62.5c-73.333 0 -141.666 -12.333 -204.999 -37s-118.5 -60.167 -165.5 -106.5s-83.833 -105.166 -110.5 -176.499s-40 -151 -40 -239c0 -87.333 13.167 -166.333 39.5 -237
s63 -129.5 110 -176.5s102.667 -83 167 -108s134.166 -37.5 209.499 -37.5c129.333 0 236.833 36.5 322.5 109.5s136.167 177.167 151.5 312.5h-475v152h650v-718h-147v264c-46.667 -90.667 -113.834 -160.5 -201.501 -209.5s-191.167 -73.5 -310.5 -73.5z" />
    <glyph glyph-name="gbreve" unicode="&#x11f;" horiz-adv-x="1232" 
d="M576 1143c-99.333 0 -180.501 28.667 -243.501 86s-94.5 134.333 -94.5 231h113c0 -66 20.833 -120.167 62.5 -162.5s95.834 -63.5 162.501 -63.5c68 0 123 21 165 63s63 96.333 63 163h113c0 -96.667 -31.667 -173.667 -95 -231s-145.333 -86 -246 -86zM887.999 983
h168.001v-933c0 -166 -42.333 -293.667 -127 -383s-202 -134 -352 -134c-238 0 -397 100.333 -477 301l143 70c58 -151.333 167.667 -227 329 -227c100.667 0 177.5 32 230.5 96s79.5 153.333 79.5 268v182c-30.667 -58.667 -77.334 -105.834 -140.001 -141.501
s-131 -53.5 -205 -53.5c-124.667 0 -230.667 46.167 -318 138.5s-131 208.833 -131 349.5s43.833 256.834 131.5 348.501s194.167 137.5 319.5 137.5c75.333 0 144 -18.333 206 -55s108.333 -85 139 -145zM576 175c88.667 0 164.167 33.667 226.5 101s93.5 147.333 93.5 240
c0 93.333 -31 173.666 -93 240.999s-137.667 101 -227 101s-164.833 -32.667 -226.5 -98s-92.5 -146.666 -92.5 -243.999c0 -96 31.167 -176.833 93.5 -242.5s137.5 -98.5 225.5 -98.5z" />
    <glyph glyph-name="Gdotaccent" unicode="&#x120;" horiz-adv-x="1630" 
d="M815 1536c-32 0 -59.5 11.5 -82.5 34.5s-34.5 50.5 -34.5 82.5s11.5 59.333 34.5 82s50.5 34 82.5 34c31.333 0 58.5 -11.333 81.5 -34s34.5 -50 34.5 -82s-11.5 -59.5 -34.5 -82.5s-50.167 -34.5 -81.5 -34.5zM819 -19c-98 0 -189.498 16.499 -274.498 49.499
s-158.667 79.667 -221 140s-111.333 136 -147 227s-53.5 191.833 -53.5 302.5c0 148 31 277.667 93 389s145.667 195.5 251 252.5s224.333 85.5 357 85.5c129.333 0 246.333 -28 351 -84s187 -137.333 247 -244l-158 -85c-44.667 82 -105.334 143.833 -182.001 185.5
s-162.667 62.5 -258 62.5c-73.333 0 -141.666 -12.333 -204.999 -37s-118.5 -60.167 -165.5 -106.5s-83.833 -105.166 -110.5 -176.499s-40 -151 -40 -239c0 -87.333 13.167 -166.333 39.5 -237s63 -129.5 110 -176.5s102.667 -83 167 -108s134.166 -37.5 209.499 -37.5
c129.333 0 236.833 36.5 322.5 109.5s136.167 177.167 151.5 312.5h-475v152h650v-718h-147v264c-46.667 -90.667 -113.834 -160.5 -201.501 -209.5s-191.167 -73.5 -310.5 -73.5z" />
    <glyph glyph-name="gdotaccent" unicode="&#x121;" horiz-adv-x="1232" 
d="M578 1214c-32 0 -59.5 11.5 -82.5 34.5s-34.5 50.5 -34.5 82.5s11.5 59.333 34.5 82s50.5 34 82.5 34c31.333 0 58.5 -11.333 81.5 -34s34.5 -50 34.5 -82s-11.5 -59.5 -34.5 -82.5s-50.167 -34.5 -81.5 -34.5zM888 983h168.001v-933c0 -166 -42.333 -293.667 -127 -383
s-202 -134 -352 -134c-238 0 -397 100.333 -477 301l143 70c58 -151.333 167.667 -227 329 -227c100.667 0 177.5 32 230.5 96s79.5 153.333 79.5 268v182c-30.667 -58.667 -77.334 -105.834 -140.001 -141.501s-131 -53.5 -205 -53.5
c-124.667 0 -230.667 46.167 -318 138.5s-131 208.833 -131 349.5s43.833 256.834 131.5 348.501s194.167 137.5 319.5 137.5c75.333 0 144 -18.333 206 -55s108.333 -85 139 -145zM576.001 175c88.667 0 164.167 33.667 226.5 101s93.5 147.333 93.5 240
c0 93.333 -31 173.666 -93 240.999s-137.667 101 -227 101s-164.833 -32.667 -226.5 -98s-92.5 -146.666 -92.5 -243.999c0 -96 31.167 -176.833 93.5 -242.5s137.5 -98.5 225.5 -98.5z" />
    <glyph glyph-name="Gcommaaccent" unicode="&#x122;" horiz-adv-x="1630" 
d="M819 -19c-98 0 -189.498 16.499 -274.498 49.499s-158.667 79.667 -221 140s-111.333 136 -147 227s-53.5 191.833 -53.5 302.5c0 148 31 277.667 93 389s145.667 195.5 251 252.5s224.333 85.5 357 85.5c129.333 0 246.333 -28 351 -84s187 -137.333 247 -244l-158 -85
c-44.667 82 -105.334 143.833 -182.001 185.5s-162.667 62.5 -258 62.5c-73.333 0 -141.666 -12.333 -204.999 -37s-118.5 -60.167 -165.5 -106.5s-83.833 -105.166 -110.5 -176.499s-40 -151 -40 -239c0 -87.333 13.167 -166.333 39.5 -237s63 -129.5 110 -176.5
s102.667 -83 167 -108s134.166 -37.5 209.499 -37.5c129.333 0 236.833 36.5 322.5 109.5s136.167 177.167 151.5 312.5h-475v152h650v-718h-147v264c-46.667 -90.667 -113.834 -160.5 -201.501 -209.5s-191.167 -73.5 -310.5 -73.5zM666.002 -559.001l-92 41l160 366h158z
" />
    <glyph glyph-name="gcommaaccent" unicode="&#x123;" horiz-adv-x="1232" 
d="M733 1453l-122 -306h-181l177 306h126zM888 983h168.001v-933c0 -166 -42.333 -293.667 -127 -383s-202 -134 -352 -134c-238 0 -397 100.333 -477 301l143 70c58 -151.333 167.667 -227 329 -227c100.667 0 177.5 32 230.5 96s79.5 153.333 79.5 268v182
c-30.667 -58.667 -77.334 -105.834 -140.001 -141.501s-131 -53.5 -205 -53.5c-124.667 0 -230.667 46.167 -318 138.5s-131 208.833 -131 349.5s43.833 256.834 131.5 348.501s194.167 137.5 319.5 137.5c75.333 0 144 -18.333 206 -55s108.333 -85 139 -145zM576.001 175
c88.667 0 164.167 33.667 226.5 101s93.5 147.333 93.5 240c0 93.333 -31 173.666 -93 240.999s-137.667 101 -227 101s-164.833 -32.667 -226.5 -98s-92.5 -146.666 -92.5 -243.999c0 -96 31.167 -176.833 93.5 -242.5s137.5 -98.5 225.5 -98.5z" />
    <glyph glyph-name="Hbar" unicode="&#x126;" horiz-adv-x="1514" 
d="M1433 1145v-91h-140v-1054h-179v625h-713v-625h-180v1054h-142v91h142v263h180v-263h713v263h179v-263h140zM1114 786v268h-713v-268h713z" />
    <glyph glyph-name="hbar" unicode="&#x127;" horiz-adv-x="1137" 
d="M646 1002c101.333 0 182.334 -30.333 243.001 -91s91 -147.667 91 -261v-650h-173v617c0 82 -20 142.333 -60 181s-91.667 58 -155 58c-70 0 -127.833 -22.333 -173.5 -67s-68.834 -111.667 -69.501 -201v-588h-173v1190h-134v115h134v231h173v-231h299v-115h-299v-337
c31.333 47.333 72.5 84 123.5 110s108.833 39 173.5 39z" />
    <glyph glyph-name="Itilde" unicode="&#x128;" horiz-adv-x="621" 
d="M452 1548c-40.667 0 -73.8311 8.66992 -99.498 26.0029s-49.167 40.666 -70.5 69.999c-11.333 16 -20.5 28.167 -27.5 36.5s-17.333 16.5 -31 24.5s-28.5 12 -44.5 12c-34 0 -60.667 -14.167 -80 -42.5s-29 -65.5 -29 -111.5h-94c0 71.333 18.167 129.666 54.5 174.999
s85.5 68 147.5 68c38.667 0 70.667 -8.33301 96 -25s48.666 -39.334 69.999 -68.001c24 -31.333 42.667 -51 56 -59c15.333 -10.667 32.666 -16 51.999 -16c34 0 60.167 13.5 78.5 40.5s27.5 63.833 27.5 110.5h97c0 -70.667 -18.167 -128.5 -54.5 -173.5
s-85.833 -67.5 -148.5 -67.5zM221.003 0.00292969v1408h179v-1408h-179z" />
    <glyph glyph-name="itilde" unicode="&#x129;" horiz-adv-x="526" 
d="M393 1144c-68.667 0 -123.331 32.332 -163.998 96.999c-22.667 34 -49.334 51 -80.001 51c-27.333 0 -48.833 -12.333 -64.5 -37s-23.5 -57 -23.5 -97h-96c0 67.333 16.333 122.333 49 165s76.667 64 132 64c68.667 0 122.667 -32.667 162 -98
c20 -32.667 47.333 -49 82 -49c27.333 0 48.666 11.833 63.999 35.5s23 55.834 23 96.501h97c0 -66 -16.333 -120.5 -49 -163.5s-76.667 -64.5 -132 -64.5zM176.003 -0.000976562v983h174v-983h-174z" />
    <glyph glyph-name="Imacron" unicode="&#x12a;" horiz-adv-x="621" 
d="M-14 1554v110h647v-110h-647zM221 0v1408h179v-1408h-179z" />
    <glyph glyph-name="imacron" unicode="&#x12b;" horiz-adv-x="526" 
d="M-60 1178v111h647v-111h-647zM176 0v983h174v-983h-174z" />
    <glyph glyph-name="Iogonek" unicode="&#x12e;" horiz-adv-x="621" 
d="M233 -228c0 -28.667 25 -43 75 -43c34.667 0 65.667 10 93 30v-127c-30.667 -12 -66.667 -18 -108 -18c-57.333 0 -100.833 8.16699 -130.5 24.5s-44.5 39.5 -44.5 69.5c0 62.667 64.667 160 194 292h-91v1408h179v-1408h1l-24.5 -25l-31 -32l-31 -33.5
c-13 -14.333 -23.5 -26.833 -31.5 -37.5l-25 -35c-8.66699 -12.667 -15 -24.5 -19 -35.5s-6 -20.833 -6 -29.5z" />
    <glyph glyph-name="iogonek" unicode="&#x12f;" horiz-adv-x="526" 
d="M264 1214c-32 0 -59.5 11.5 -82.5 34.5s-34.5 50.5 -34.5 82.5s11.5 59.333 34.5 82s50.5 34 82.5 34c31.333 0 58.5 -11.333 81.5 -34s34.5 -50 34.5 -82s-11.5 -59.5 -34.5 -82.5s-50.167 -34.5 -81.5 -34.5zM176 0v983h174v-983l-24.5 -25l-31 -32l-31 -33.5
c-13 -14.333 -23.5 -26.833 -31.5 -37.5l-25 -35c-8.66699 -12.667 -15 -24.5 -19 -35.5s-6 -20.833 -6 -29.5c0 -28.667 25 -43 75 -43c34.667 0 65.667 10 93 30v-127c-30.667 -12 -66.667 -18 -108 -18c-57.333 0 -100.833 8.16699 -130.5 24.5s-44.5 39.5 -44.5 69.5
c0 62.667 64.667 160 194 292h-85z" />
    <glyph glyph-name="Idotaccent" unicode="&#x130;" horiz-adv-x="621" 
d="M310 1536c-32 0 -59.5 11.5 -82.5 34.5s-34.5 50.5 -34.5 82.5s11.5 59.333 34.5 82s50.5 34 82.5 34c31.333 0 58.5 -11.333 81.5 -34s34.5 -50 34.5 -82s-11.5 -59.5 -34.5 -82.5s-50.167 -34.5 -81.5 -34.5zM221 0v1408h179v-1408h-179z" />
    <glyph glyph-name="dotlessi" unicode="&#x131;" horiz-adv-x="526" 
d="M176 0v983h174v-983h-174z" />
    <glyph glyph-name="Kcommaaccent" unicode="&#x136;" horiz-adv-x="1314" 
d="M677 737l583 -737h-230l-506 651h-124v-651h-179v1408h179v-595h123l487 595h220zM397 -518l160 366h158l-226 -407z" />
    <glyph glyph-name="kcommaaccent" unicode="&#x137;" horiz-adv-x="1041" 
d="M574 534l449 -534h-221l-372 455h-79v-455h-175v1536h175v-949h74l341 396h205zM279 -518l160 366h158l-226 -407z" />
    <glyph glyph-name="Lacute" unicode="&#x139;" horiz-adv-x="946" 
d="M587 1813l-224 -259h-119l251 326zM400 163h489v-163h-668v1408h179v-1245z" />
    <glyph glyph-name="lacute" unicode="&#x13a;" horiz-adv-x="527" 
d="M198 1706l251 326l92 -67l-224 -259h-119zM176 0v1536h175v-1536h-175z" />
    <glyph glyph-name="Lcommaaccent" unicode="&#x13b;" horiz-adv-x="946" 
d="M400 163h489v-163h-668v1408h179v-1245zM314 -518l160 366h158l-226 -407z" />
    <glyph glyph-name="lcommaaccent" unicode="&#x13c;" horiz-adv-x="527" 
d="M176 0v1536h175v-1536h-175zM115 -559l-92 41l160 366h158z" />
    <glyph glyph-name="Lcaron" unicode="&#x13d;" horiz-adv-x="1032" 
d="M400 1408v-1245h489v-163h-668v1408h179zM931 1407l-177 -620h-126l122 620h181z" />
    <glyph glyph-name="lcaron" unicode="&#x13e;" horiz-adv-x="642" 
d="M176 0v1536h172v-1536h-172zM482 916l124 620h181l-178 -620h-127z" />
    <glyph glyph-name="Lslash" unicode="&#x141;" horiz-adv-x="946" 
d="M400 163h489v-163h-668v560l-164 -122v128l164 122v720h179v-586l198 148v-128l-198 -148v-531z" />
    <glyph glyph-name="lslash" unicode="&#x142;" horiz-adv-x="527" 
d="M532 985v-128l-181 -135v-722h-175v591l-185 -138v128l185 138v817h175v-686z" />
    <glyph glyph-name="Nacute" unicode="&#x143;" horiz-adv-x="1566" 
d="M1060 1813l-224 -259h-119l251 326zM1167 1408h178v-1408h-189l-759 1139v-1139h-176v1408h187l759 -1134v1134z" />
    <glyph glyph-name="nacute" unicode="&#x144;" horiz-adv-x="1138" 
d="M844 1412l-224 -259h-119l251 326zM640 1002c103.333 0 185.832 -29.667 247.499 -89s92.5 -143 92.5 -251v-662h-173v623c0 79.333 -20 138 -60 176s-91.333 57 -154 57c-71.333 0 -129.666 -22.5 -174.999 -67.5s-68.333 -111.833 -69 -200.5v-588h-173v983h173v-126
c65.333 96.667 162.333 145 291 145z" />
    <glyph glyph-name="Ncommaaccent" unicode="&#x145;" horiz-adv-x="1566" 
d="M1167 1408h178v-1408h-189l-759 1139v-1139h-176v1408h187l759 -1134v1134zM543 -518l160 366h158l-226 -407z" />
    <glyph glyph-name="ncommaaccent" unicode="&#x146;" horiz-adv-x="1138" 
d="M640 1002c103.333 0 185.832 -29.667 247.499 -89s92.5 -143 92.5 -251v-662h-173v623c0 79.333 -20 138 -60 176s-91.333 57 -154 57c-71.333 0 -129.666 -22.5 -174.999 -67.5s-68.333 -111.833 -69 -200.5v-588h-173v983h173v-126c65.333 96.667 162.333 145 291 145z
M326.999 -518l160 366h158l-226 -407z" />
    <glyph glyph-name="Ncaron" unicode="&#x147;" horiz-adv-x="1566" 
d="M846 1554h-127l-211 295h117l157 -214l156 214h119zM1167 1408h178v-1408h-189l-759 1139v-1139h-176v1408h187l759 -1134v1134z" />
    <glyph glyph-name="ncaron" unicode="&#x148;" horiz-adv-x="1138" 
d="M630 1165h-127l-211 295h117l157 -214l156 214h119zM640 1002c103.333 0 185.832 -29.667 247.499 -89s92.5 -143 92.5 -251v-662h-173v623c0 79.333 -20 138 -60 176s-91.333 57 -154 57c-71.333 0 -129.666 -22.5 -174.999 -67.5s-68.333 -111.833 -69 -200.5v-588
h-173v983h173v-126c65.333 96.667 162.333 145 291 145z" />
    <glyph glyph-name="Eng" unicode="&#x14a;" horiz-adv-x="1599" 
d="M1202 1408h177v-1408c0 -146.667 -43.333 -260.167 -130 -340.5s-203.334 -120.5 -350.001 -120.5v142c94.667 0 169.834 27.5 225.501 82.5s78.167 133.833 67.5 236.5l-796 1145v-1145h-175v1408h184l797 -1139v1139z" />
    <glyph glyph-name="eng" unicode="&#x14b;" horiz-adv-x="1139" 
d="M642 1002c104 0 186.666 -30.168 247.999 -90.501s92 -147.166 92 -260.499v-826c0 -86 -24.667 -155.5 -74 -208.5s-115.333 -79.5 -198 -79.5h-133v129h92c40.667 0 74 13.333 100 40s39 63.334 39 110.001v807c0 80 -20.167 138.833 -60.5 176.5
s-93.833 56.5 -160.5 56.5c-69.333 0 -126.166 -21 -170.499 -63s-66.833 -106.333 -67.5 -193v-600h-173v983h173v-116c32.667 43.333 74.167 76.666 124.5 99.999s106.5 35 168.5 35z" />
    <glyph glyph-name="Omacron" unicode="&#x14c;" horiz-adv-x="1646" 
d="M500 1554v110h647v-110h-647zM824 -19c-99.333 0 -191.666 16.834 -276.999 50.501s-159.5 81 -222.5 142s-112.333 137.167 -148 228.5s-53.5 192.333 -53.5 303c0 110 18 210.5 54 301.5s85.333 167.167 148 228.5s136.667 108.666 222 141.999s177.666 50 276.999 50
c98 0 189.667 -16.833 275 -50.5s159.333 -81 222 -142s112 -137 148 -228s54 -191.5 54 -301.5s-18 -210.833 -54 -302.5s-85.333 -168 -148 -229s-136.667 -108.333 -222 -142s-177 -50.5 -275 -50.5zM824 150.001c150 0 274.167 49.501 372.5 148.501
s147.5 234.5 147.5 406.5c0 86 -13.5 164 -40.5 234s-64 128 -111 174s-102 81.333 -165 106s-130.833 37 -203.5 37c-73.333 0 -141.666 -12.333 -204.999 -37s-118.666 -60 -165.999 -106s-84.5 -104 -111.5 -174s-40.5 -148 -40.5 -234
c0 -86.667 13.5 -165.334 40.5 -236.001s64.167 -129 111.5 -175s102.666 -81.5 165.999 -106.5s131.666 -37.5 204.999 -37.5z" />
    <glyph glyph-name="omacron" unicode="&#x14d;" horiz-adv-x="1180" 
d="M266 1177v111h647v-111h-647zM590 -19c-93.333 0 -177.333 20.333 -252 61s-133.834 100.167 -177.501 178.5s-65.5 168.833 -65.5 271.5c0 154 46.5 277.5 139.5 370.5s211.5 139.5 355.5 139.5c144.667 0 263.334 -46.5 356.001 -139.5s139 -216.5 139 -370.5
c0 -154.667 -46.5 -278.5 -139.5 -371.5s-211.5 -139.5 -355.5 -139.5zM589 125c93.333 0 170.833 33.667 232.5 101s92.5 156 92.5 266c0 109.333 -30.833 197.666 -92.5 264.999s-139.167 101 -232.5 101c-92.667 0 -169.5 -33.667 -230.5 -101
s-91.5 -155.666 -91.5 -264.999c0 -110 30.5 -198.667 91.5 -266s137.833 -101 230.5 -101z" />
    <glyph glyph-name="Ohungarumlaut" unicode="&#x150;" horiz-adv-x="1646" 
d="M584 1554l251 326l92 -67l-224 -259h-119zM943 1554l252 326l92 -67l-224 -259h-120zM824 -19c-99.333 0 -191.666 16.834 -276.999 50.501s-159.5 81 -222.5 142s-112.333 137.167 -148 228.5s-53.5 192.333 -53.5 303c0 110 18 210.5 54 301.5
s85.333 167.167 148 228.5s136.667 108.666 222 141.999s177.666 50 276.999 50c98 0 189.667 -16.833 275 -50.5s159.333 -81 222 -142s112 -137 148 -228s54 -191.5 54 -301.5s-18 -210.833 -54 -302.5s-85.333 -168 -148 -229s-136.667 -108.333 -222 -142
s-177 -50.5 -275 -50.5zM824 150.001c150 0 274.167 49.501 372.5 148.501s147.5 234.5 147.5 406.5c0 86 -13.5 164 -40.5 234s-64 128 -111 174s-102 81.333 -165 106s-130.833 37 -203.5 37c-73.333 0 -141.666 -12.333 -204.999 -37s-118.666 -60 -165.999 -106
s-84.5 -104 -111.5 -174s-40.5 -148 -40.5 -234c0 -86.667 13.5 -165.334 40.5 -236.001s64.167 -129 111.5 -175s102.666 -81.5 165.999 -106.5s131.666 -37.5 204.999 -37.5z" />
    <glyph glyph-name="ohungarumlaut" unicode="&#x151;" horiz-adv-x="1180" 
d="M350 1152l251 326l92 -67l-224 -259h-119zM709 1152l252 326l92 -67l-224 -259h-120zM590 -19c-93.333 0 -177.333 20.333 -252 61s-133.834 100.167 -177.501 178.5s-65.5 168.833 -65.5 271.5c0 154 46.5 277.5 139.5 370.5s211.5 139.5 355.5 139.5
c144.667 0 263.334 -46.5 356.001 -139.5s139 -216.5 139 -370.5c0 -154.667 -46.5 -278.5 -139.5 -371.5s-211.5 -139.5 -355.5 -139.5zM589 125c93.333 0 170.833 33.667 232.5 101s92.5 156 92.5 266c0 109.333 -30.833 197.666 -92.5 264.999s-139.167 101 -232.5 101
c-92.667 0 -169.5 -33.667 -230.5 -101s-91.5 -155.666 -91.5 -264.999c0 -110 30.5 -198.667 91.5 -266s137.833 -101 230.5 -101z" />
    <glyph glyph-name="OE" unicode="&#x152;" horiz-adv-x="1959" 
d="M835 0c-238 0 -416.167 62 -534.5 186s-177.5 297.333 -177.5 520c0 222 59.167 394.5 177.5 517.5s296.5 184.5 534.5 184.5h1002v-163h-610v-459h524v-163h-524v-460h610v-163h-1002zM842 163l207 0.000976562v1082h-207c-186.667 0 -322.5 -45.333 -407.5 -136
s-127.5 -225 -127.5 -403c0 -178.667 42.5 -313.834 127.5 -405.501s220.833 -137.5 407.5 -137.5z" />
    <glyph glyph-name="oe" unicode="&#x153;" horiz-adv-x="1952" 
d="M1857 511l-2 -47.001h-768c2.66699 -109.333 34 -193.166 94 -251.499s134.667 -87.5 224 -87.5c60 0 114.333 15.667 163 47s86 74.666 112 129.999l156 -33c-35.333 -89.333 -91.333 -159.666 -168 -210.999s-163.667 -77 -261 -77
c-88.667 0 -168.167 17.667 -238.5 53s-126.833 86 -169.5 152c-43.333 -65.333 -100.5 -115.833 -171.5 -151.5s-150.167 -53.5 -237.5 -53.5c-93.333 0 -177.333 20.333 -252 61s-133.834 100.167 -177.501 178.5s-65.5 168.833 -65.5 271.5c0 154 46.5 277.5 139.5 370.5
s211.5 139.5 355.5 139.5c87.333 0 166.5 -17.833 237.5 -53.5s128.5 -86.167 172.5 -151.5c42.667 66 98.834 116.667 168.501 152s147.5 53 233.5 53c137.333 0 247.5 -42 330.5 -126s124.5 -205.667 124.5 -365zM1402 868.999c-81.333 0 -149.499 -23.167 -204.499 -69.5
s-89.5 -113.833 -103.5 -202.5h589c-6.66699 88.667 -35.334 156.167 -86.001 202.5s-115.667 69.5 -195 69.5zM589.001 124.999c93.333 0 170.833 33.667 232.5 101s92.5 156 92.5 266c0 109.333 -30.833 197.666 -92.5 264.999s-139.167 101 -232.5 101
c-92.667 0 -169.5 -33.667 -230.5 -101s-91.5 -155.666 -91.5 -264.999c0 -110 30.5 -198.667 91.5 -266s137.833 -101 230.5 -101z" />
    <glyph glyph-name="Racute" unicode="&#x154;" horiz-adv-x="1275" 
d="M913 1813l-224 -259h-119l251 326zM983 0l-362 635h-221v-635h-179v1408h467c138 0 243.167 -37.167 315.5 -111.5s108.5 -169.833 108.5 -286.5c0 -98 -27.5 -179.667 -82.5 -245s-131.5 -106.333 -229.5 -123l392 -642h-209zM400 1251v-475h264
c91.333 0 160 21.167 206 63.5s69 99.833 69 172.5s-23.167 130.667 -69.5 174s-114.833 65 -205.5 65h-264z" />
    <glyph glyph-name="racute" unicode="&#x155;" horiz-adv-x="683" 
d="M622 1412l-224 -259h-119l251 326zM345 810c24.667 54 65.333 98.001 122 132.001s119.667 51.333 189 52v-163c-100 0 -176.167 -24.333 -228.5 -73s-78.5 -126.334 -78.5 -233.001v-525h-173v983h169v-173z" />
    <glyph glyph-name="Rcommaaccent" unicode="&#x156;" horiz-adv-x="1275" 
d="M800 642l392 -642h-209l-362 635h-221v-635h-179v1408h467c138 0 243.167 -37.167 315.5 -111.5s108.5 -169.833 108.5 -286.5c0 -98 -27.5 -179.667 -82.5 -245s-131.5 -106.333 -229.5 -123zM400 1251v-475h264c91.333 0 160 21.167 206 63.5s69 99.833 69 172.5
s-23.167 130.667 -69.5 174s-114.833 65 -205.5 65h-264zM396 -518l160 366h158l-226 -407z" />
    <glyph glyph-name="rcommaaccent" unicode="&#x157;" horiz-adv-x="683" 
d="M345 810c24.667 54 65.333 98.001 122 132.001s119.667 51.333 189 52v-163c-100 0 -176.167 -24.333 -228.5 -73s-78.5 -126.334 -78.5 -233.001v-525h-173v983h169v-173zM23.999 -517.999l160 366h158l-226 -407z" />
    <glyph glyph-name="Rcaron" unicode="&#x158;" horiz-adv-x="1275" 
d="M699 1554h-127l-211 295h117l157 -214l156 214h119zM983 0l-362 635h-221v-635h-179v1408h467c138 0 243.167 -37.167 315.5 -111.5s108.5 -169.833 108.5 -286.5c0 -98 -27.5 -179.667 -82.5 -245s-131.5 -106.333 -229.5 -123l392 -642h-209zM400 1251v-475h264
c91.333 0 160 21.167 206 63.5s69 99.833 69 172.5s-23.167 130.667 -69.5 174s-114.833 65 -205.5 65h-264z" />
    <glyph glyph-name="rcaron" unicode="&#x159;" horiz-adv-x="683" 
d="M408 1165h-127l-211 295h117l157 -214l156 214h119zM345 810c24.667 54 65.333 98.001 122 132.001s119.667 51.333 189 52v-163c-100 0 -176.167 -24.333 -228.5 -73s-78.5 -126.334 -78.5 -233.001v-525h-173v983h169v-173z" />
    <glyph glyph-name="Sacute" unicode="&#x15a;" horiz-adv-x="1271" 
d="M570 1554l251 326l92 -67l-224 -259h-119zM656 -19c-146.667 0 -269.161 33.166 -367.494 99.499s-159.5 157.5 -183.5 273.5l181 43c16.667 -81.333 59 -145.333 127 -192s151 -70 249 -70c32.667 0 63.667 2.66699 93 8s57.5 14.166 84.5 26.499s50.167 27.5 69.5 45.5
s34.666 41 45.999 69s16.666 59.333 15.999 94c-0.666992 24 -4.83398 46.167 -12.501 66.5s-17 37.833 -28 52.5s-26.833 28.834 -47.5 42.501s-39.667 25 -57 34s-40.833 18.5 -70.5 28.5s-54.5 17.833 -74.5 23.5l-81 22.5c-6.66699 2 -11.667 3.33301 -15 4
c-38.667 10 -70.167 18.667 -94.5 26s-53.5 17.5 -87.5 30.5s-61.833 25.833 -83.5 38.5s-44.5 28.667 -68.5 48s-42.833 40.166 -56.5 62.499s-25 48.833 -34 79.5s-13.5 64 -13.5 100c0 84 21.833 156 65.5 216s100 104 169 132s146.5 42 232.5 42
c131.333 0 244.166 -28.833 338.499 -86.5s154.166 -142.834 179.499 -255.501l-174 -44c-17.333 76.667 -56.333 134.334 -117 173.001s-134 58 -220 58c-38 0 -74 -4.33301 -108 -13s-65.167 -22 -93.5 -40s-50.833 -42.5 -67.5 -73.5s-25 -66.833 -25 -107.5
c0 -21.333 3.33301 -41.166 10 -59.499s15 -34.166 25 -47.499s24.333 -26.333 43 -39s36.167 -23 52.5 -31s38.166 -16.5 65.499 -25.5s50.666 -16.333 69.999 -22s45 -12.5 77 -20.5c126 -33.333 216.333 -63.333 271 -90c122 -60 191.667 -146.333 209 -259
c2.66699 -19.333 4 -39.666 4 -60.999c0 -68.667 -13.5 -129.334 -40.5 -182.001s-64 -94.667 -111 -126s-99.667 -54.833 -158 -70.5s-121.166 -23.5 -188.499 -23.5z" />
    <glyph glyph-name="sacute" unicode="&#x15b;" horiz-adv-x="945" 
d="M411 1153l251 326l92 -67l-224 -259h-119zM487 -19c-106 0 -194.331 23.666 -264.998 70.999s-113.667 114.666 -129 201.999l151 43c10.667 -58.667 37.5 -104.167 80.5 -136.5s96.833 -48.5 161.5 -48.5c34.667 0 66.167 4.33301 94.5 13s52.5 24.834 72.5 48.501
s29.667 53.5 29 89.5c-0.666992 14.667 -3.33398 28.167 -8.00098 40.5s-10 23.166 -16 32.499s-15.333 18.333 -28 27s-24 15.667 -34 21s-24.833 11.5 -44.5 18.5s-35.5 12.333 -47.5 16s-30.333 9 -55 16l-57 16.5c-41.333 12.667 -75.333 24.667 -102 36
s-54.334 27.166 -83.001 47.499s-50.167 46.166 -64.5 77.499s-21.5 68 -21.5 110c0 62 16 114.333 48 157s73.5 73.5 124.5 92.5s109.167 28.5 174.5 28.5c94.667 0 174.5 -21.333 239.5 -64s104.833 -106.667 119.5 -192l-142 -36
c-10.667 55.333 -35.667 96.833 -75 124.5s-86.333 41.5 -141 41.5c-51.333 0 -95.333 -11.5 -132 -34.5s-55 -58.167 -55 -105.5c0 -20 4.83301 -38.167 14.5 -54.5s19.5 -29.166 29.5 -38.499s28 -19.166 54 -29.499s45.333 -17.333 58 -21s36.667 -9.83398 72 -18.501
c6.66699 -2 11.667 -3.33301 15 -4c38.667 -10 70.167 -18.833 94.5 -26.5s52.666 -19.667 84.999 -36s57.833 -34.166 76.5 -53.499s34.667 -44.666 48 -75.999s20 -66.666 20 -105.999c0 -50 -9.83301 -94.167 -29.5 -132.5s-46.5 -68.5 -80.5 -90.5
s-72.167 -38.5 -114.5 -49.5s-88.166 -16.5 -137.499 -16.5z" />
    <glyph glyph-name="Scedilla" unicode="&#x15e;" horiz-adv-x="1271" 
d="M1154 383c0 -66.667 -12.9961 -126.002 -38.9961 -178.002s-61.5 -93.833 -106.5 -125.5s-95.667 -55.667 -152 -72s-117.166 -25.166 -182.499 -26.499l-58 -119c24 5.33301 42.333 8 55 8c58 0 105.833 -17.833 143.5 -53.5s56.5 -81.834 56.5 -138.501
c0 -58.667 -20.167 -108.334 -60.5 -149.001s-90.166 -61 -149.499 -61c-48.667 0 -95.167 12.333 -139.5 37s-76.5 55.667 -96.5 93l86 36c14.667 -21.333 36.334 -39.166 65.001 -53.499s56.334 -21.5 83.001 -21.5c32.667 0 60.667 11.333 84 34s35 51 35 85
c0 36 -11.667 64 -35 84s-53.333 30 -90 30c-28.667 0 -55.334 -6.66699 -80.001 -20l-75 49l82 163c-126.667 11.333 -232 49.5 -316 114.5s-137 150.167 -159 255.5l181 43c16.667 -81.333 59 -145.333 127 -192s151 -70 249 -70c32.667 0 63.667 2.66699 93 8
s57.5 14.166 84.5 26.499s50.167 27.5 69.5 45.5s34.666 41 45.999 69s16.666 59.333 15.999 94c-0.666992 24 -4.83398 46.167 -12.501 66.5s-17 37.833 -28 52.5s-26.833 28.834 -47.5 42.501s-39.667 25 -57 34s-40.833 18.5 -70.5 28.5s-54.5 17.833 -74.5 23.5
l-81 22.5c-6.66699 2 -11.667 3.33301 -15 4c-38.667 10 -70.167 18.667 -94.5 26s-53.5 17.5 -87.5 30.5s-61.833 25.833 -83.5 38.5s-44.5 28.667 -68.5 48s-42.833 40.166 -56.5 62.499s-25 48.833 -34 79.5s-13.5 64 -13.5 100c0 84 21.833 156 65.5 216
s100 104 169 132s146.5 42 232.5 42c131.333 0 244.166 -28.833 338.499 -86.5s154.166 -142.834 179.499 -255.501l-174 -44c-17.333 76.667 -56.333 134.334 -117 173.001s-134 58 -220 58c-38 0 -74 -4.33301 -108 -13s-65.167 -22 -93.5 -40s-50.833 -42.5 -67.5 -73.5
s-25 -66.833 -25 -107.5c0 -21.333 3.33301 -41.166 10 -59.499s15 -34.166 25 -47.499s24.333 -26.333 43 -39s36.167 -23 52.5 -31s38.166 -16.5 65.499 -25.5s50.666 -16.333 69.999 -22s45 -12.5 77 -20.5c126 -33.333 216.333 -63.333 271 -90
c122 -60 191.667 -146.333 209 -259c2.66699 -19.333 4 -39.666 4 -60.999z" />
    <glyph glyph-name="scedilla" unicode="&#x15f;" horiz-adv-x="945" 
d="M849 270c0 -48 -8.83105 -90.3311 -26.498 -126.998s-42.334 -66.334 -74.001 -89.001s-67 -39.834 -106 -51.501s-81.833 -18.5 -128.5 -20.5l-57 -119c24 5.33301 42.333 8 55 8c58 0 105.833 -17.833 143.5 -53.5s56.5 -81.834 56.5 -138.501
c0 -58.667 -20.167 -108.334 -60.5 -149.001s-90.166 -61 -149.499 -61c-48.667 0 -95.167 12.333 -139.5 37s-76.5 55.667 -96.5 93l86 36c14.667 -21.333 36.334 -39.166 65.001 -53.499s56.334 -21.5 83.001 -21.5c32.667 0 60.667 11.333 84 34s35 51 35 85
c0 36 -11.667 64 -35 84s-53.333 30 -90 30c-28.667 0 -55.334 -6.66699 -80.001 -20l-75 49l82 162c-89.333 10 -162.833 38.167 -220.5 84.5s-93.5 108.166 -107.5 185.499l151 43c10.667 -58.667 37.5 -104.167 80.5 -136.5s96.833 -48.5 161.5 -48.5
c34.667 0 66.167 4.33301 94.5 13s52.5 24.834 72.5 48.501s29.667 53.5 29 89.5c-0.666992 14.667 -3.33398 28.167 -8.00098 40.5s-10 23.166 -16 32.499s-15.333 18.333 -28 27s-24 15.667 -34 21s-24.833 11.5 -44.5 18.5s-35.5 12.333 -47.5 16s-30.333 9 -55 16
l-57 16.5c-41.333 12.667 -75.333 24.667 -102 36s-54.334 27.166 -83.001 47.499s-50.167 46.166 -64.5 77.499s-21.5 68 -21.5 110c0 62 16 114.333 48 157s73.5 73.5 124.5 92.5s109.167 28.5 174.5 28.5c94.667 0 174.5 -21.333 239.5 -64s104.833 -106.667 119.5 -192
l-142 -36c-10.667 55.333 -35.667 96.833 -75 124.5s-86.333 41.5 -141 41.5c-51.333 0 -95.333 -11.5 -132 -34.5s-55 -58.167 -55 -105.5c0 -20 4.83301 -38.167 14.5 -54.5s19.5 -29.166 29.5 -38.499s28 -19.166 54 -29.499s45.333 -17.333 58 -21
s36.667 -9.83398 72 -18.501c6.66699 -2 11.667 -3.33301 15 -4c38.667 -10 70.167 -18.833 94.5 -26.5s52.666 -19.667 84.999 -36s57.833 -34.166 76.5 -53.499s34.667 -44.666 48 -75.999s20 -66.666 20 -105.999z" />
    <glyph glyph-name="Scaron" unicode="&#x160;" horiz-adv-x="1271" 
d="M572 1554l-211 295h117l157 -214l156 214h119l-211 -295h-127zM656 -19c-146.667 0 -269.161 33.166 -367.494 99.499s-159.5 157.5 -183.5 273.5l181 43c16.667 -81.333 59 -145.333 127 -192s151 -70 249 -70c32.667 0 63.667 2.66699 93 8s57.5 14.166 84.5 26.499
s50.167 27.5 69.5 45.5s34.666 41 45.999 69s16.666 59.333 15.999 94c-0.666992 24 -4.83398 46.167 -12.501 66.5s-17 37.833 -28 52.5s-26.833 28.834 -47.5 42.501s-39.667 25 -57 34s-40.833 18.5 -70.5 28.5s-54.5 17.833 -74.5 23.5l-81 22.5
c-6.66699 2 -11.667 3.33301 -15 4c-38.667 10 -70.167 18.667 -94.5 26s-53.5 17.5 -87.5 30.5s-61.833 25.833 -83.5 38.5s-44.5 28.667 -68.5 48s-42.833 40.166 -56.5 62.499s-25 48.833 -34 79.5s-13.5 64 -13.5 100c0 84 21.833 156 65.5 216s100 104 169 132
s146.5 42 232.5 42c131.333 0 244.166 -28.833 338.499 -86.5s154.166 -142.834 179.499 -255.501l-174 -44c-17.333 76.667 -56.333 134.334 -117 173.001s-134 58 -220 58c-38 0 -74 -4.33301 -108 -13s-65.167 -22 -93.5 -40s-50.833 -42.5 -67.5 -73.5
s-25 -66.833 -25 -107.5c0 -21.333 3.33301 -41.166 10 -59.499s15 -34.166 25 -47.499s24.333 -26.333 43 -39s36.167 -23 52.5 -31s38.166 -16.5 65.499 -25.5s50.666 -16.333 69.999 -22s45 -12.5 77 -20.5c126 -33.333 216.333 -63.333 271 -90
c122 -60 191.667 -146.333 209 -259c2.66699 -19.333 4 -39.666 4 -60.999c0 -68.667 -13.5 -129.334 -40.5 -182.001s-64 -94.667 -111 -126s-99.667 -54.833 -158 -70.5s-121.166 -23.5 -188.499 -23.5z" />
    <glyph glyph-name="scaron" unicode="&#x161;" horiz-adv-x="945" 
d="M413 1165l-211 295h117l157 -214l156 214h119l-211 -295h-127zM487 -19c-106 0 -194.331 23.666 -264.998 70.999s-113.667 114.666 -129 201.999l151 43c10.667 -58.667 37.5 -104.167 80.5 -136.5s96.833 -48.5 161.5 -48.5c34.667 0 66.167 4.33301 94.5 13
s52.5 24.834 72.5 48.501s29.667 53.5 29 89.5c-0.666992 14.667 -3.33398 28.167 -8.00098 40.5s-10 23.166 -16 32.499s-15.333 18.333 -28 27s-24 15.667 -34 21s-24.833 11.5 -44.5 18.5s-35.5 12.333 -47.5 16s-30.333 9 -55 16l-57 16.5
c-41.333 12.667 -75.333 24.667 -102 36s-54.334 27.166 -83.001 47.499s-50.167 46.166 -64.5 77.499s-21.5 68 -21.5 110c0 62 16 114.333 48 157s73.5 73.5 124.5 92.5s109.167 28.5 174.5 28.5c94.667 0 174.5 -21.333 239.5 -64s104.833 -106.667 119.5 -192l-142 -36
c-10.667 55.333 -35.667 96.833 -75 124.5s-86.333 41.5 -141 41.5c-51.333 0 -95.333 -11.5 -132 -34.5s-55 -58.167 -55 -105.5c0 -20 4.83301 -38.167 14.5 -54.5s19.5 -29.166 29.5 -38.499s28 -19.166 54 -29.499s45.333 -17.333 58 -21s36.667 -9.83398 72 -18.501
c6.66699 -2 11.667 -3.33301 15 -4c38.667 -10 70.167 -18.833 94.5 -26.5s52.666 -19.667 84.999 -36s57.833 -34.166 76.5 -53.499s34.667 -44.666 48 -75.999s20 -66.666 20 -105.999c0 -50 -9.83301 -94.167 -29.5 -132.5s-46.5 -68.5 -80.5 -90.5
s-72.167 -38.5 -114.5 -49.5s-88.166 -16.5 -137.499 -16.5z" />
    <glyph glyph-name="uni0162" unicode="&#x162;" horiz-adv-x="1013" 
d="M596 0l-42.002 0.000976562l-67 -138c24 5.33301 42.333 8 55 8c58 0 105.833 -17.833 143.5 -53.5s56.5 -81.834 56.5 -138.501c0 -58.667 -20.167 -108.334 -60.5 -149.001s-90.166 -61 -149.499 -61c-48.667 0 -95.167 12.333 -139.5 37s-76.5 55.667 -96.5 93l86 36
c14.667 -21.333 36.334 -39.166 65.001 -53.499s56.334 -21.5 83.001 -21.5c32.667 0 60.667 11.333 84 34s35 51 35 85c0 36 -11.667 64 -35 84s-53.333 30 -90 30c-28.667 0 -55.334 -6.66699 -80.001 -20l-75 49l90 179h-41v1245h-362v163h901v-163h-361v-1245z" />
    <glyph glyph-name="uni0163" unicode="&#x163;" horiz-adv-x="702" 
d="M569 -130c58 0 105.831 -17.8301 143.498 -53.4971s56.5 -81.834 56.5 -138.501c0 -58.667 -20.167 -108.334 -60.5 -149.001s-90.166 -61 -149.499 -61c-48.667 0 -95.167 12.333 -139.5 37s-76.5 55.667 -96.5 93l86 36c14.667 -21.333 36.334 -39.166 65.001 -53.499
s56.334 -21.5 83.001 -21.5c32.667 0 60.667 11.333 84 34s35 51 35 85c0 36 -11.667 64 -35 84s-53.333 30 -90 30c-28.667 0 -55.334 -6.66699 -80.001 -20l-75 49l90 179c-80 1.33301 -143 25.166 -189 71.499s-69 111.5 -69 195.5v578h-201v138h74
c51.333 0 87.5 11.5 108.5 34.5s31.5 61.5 31.5 115.5v178h161v-328h226v-138h-226v-560c0 -46.667 12.5 -82.834 37.5 -108.501s57.833 -38.5 98.5 -38.5h90v-138h-47l-67 -138c24 5.33301 42.333 8 55 8z" />
    <glyph glyph-name="Tcaron" unicode="&#x164;" horiz-adv-x="1013" 
d="M570 1554h-127l-211 295h117l157 -214l156 214h119zM957 1408v-163h-361v-1245h-178v1245h-362v163h901z" />
    <glyph glyph-name="tcaron" unicode="&#x165;" horiz-adv-x="662" 
d="M542 1202l124 619h181l-178 -619h-127zM481 0c-81.333 0 -145.333 23.501 -192 70.501s-70 112.5 -70 196.5v578h-201v138h74c50.667 0 86.667 11.5 108 34.5s32 61.5 32 115.5v178h160v-328h226v-138h-226v-560c0 -46.667 12.667 -82.834 38 -108.501
s58.333 -38.5 99 -38.5h89v-138h-137z" />
    <glyph glyph-name="Tbar" unicode="&#x166;" horiz-adv-x="1013" 
d="M957 1245h-361v-483h215v-115h-215v-647h-178v647h-213v115h213v483h-362v163h901v-163z" />
    <glyph glyph-name="tbar" unicode="&#x167;" horiz-adv-x="702" 
d="M628 845l-226 0.000976562v-296h166v-115h-166v-149c0 -46.667 12.5 -82.834 37.5 -108.501s57.833 -38.5 98.5 -38.5h90v-138h-138c-81.333 0 -145.333 23.5 -192 70.5s-70 112.5 -70 196.5v167h-152v115h152v296h-201v138h74c51.333 0 87.5 11.5 108.5 34.5
s31.5 61.5 31.5 115.5v178h161v-328h226v-138z" />
    <glyph glyph-name="Utilde" unicode="&#x168;" horiz-adv-x="1409" 
d="M845 1548c-40.667 0 -73.832 8.66992 -99.499 26.0029s-49.167 40.666 -70.5 69.999c-11.333 16 -20.5 28.167 -27.5 36.5s-17.333 16.5 -31 24.5s-28.5 12 -44.5 12c-34 0 -60.667 -14.167 -80 -42.5s-29 -65.5 -29 -111.5h-94c0 71.333 18.167 129.666 54.5 174.999
s85.5 68 147.5 68c38.667 0 70.667 -8.33301 96 -25s48.666 -39.334 69.999 -68.001c24 -31.333 42.667 -51 56 -59c16 -10.667 33.333 -16 52 -16c34 0 60.167 13.5 78.5 40.5s27.5 63.833 27.5 110.5h97c0 -70.667 -18.167 -128.5 -54.5 -173.5
s-85.833 -67.5 -148.5 -67.5zM703.002 -18.9971c-149.333 0 -271.833 43.3311 -367.5 129.998s-143.5 205.334 -143.5 356.001v941h179v-916c0 -113.333 30.833 -199.666 92.5 -258.999s141.5 -89 239.5 -89s178.333 29.833 241 89.5s94 145.834 94 258.501v916h179v-941
c0 -150.667 -48.167 -269.334 -144.5 -356.001s-219.5 -130 -369.5 -130z" />
    <glyph glyph-name="utilde" unicode="&#x169;" horiz-adv-x="1137" 
d="M456 1292c-27.333 0 -48.8301 -12.334 -64.4971 -37.001s-23.5 -57 -23.5 -97h-96c0 67.333 16.333 122.333 49 165s76.667 64 132 64c68.667 0 122.667 -32.667 162 -98c20 -32.667 47.333 -49 82 -49c27.333 0 48.666 11.833 63.999 35.5s23 55.834 23 96.501h97
c0 -66 -16.333 -120.5 -49 -163.5s-76.667 -64.5 -132 -64.5c-68.667 0 -123.334 32.333 -164.001 97c-22.667 34 -49.334 51 -80.001 51zM788.003 982.999l173.001 0.000976562v-983h-166l-4 130c-30.667 -48 -71.334 -84.833 -122.001 -110.5s-108 -38.5 -172 -38.5
c-103.333 0 -185.833 29.667 -247.5 89s-92.5 143 -92.5 251v662h173v-623c0 -78.667 20.167 -137.334 60.5 -176.001s91.833 -58 154.5 -58c71.333 0 129.5 22.667 174.5 68s67.833 112.333 68.5 201v588z" />
    <glyph glyph-name="Umacron" unicode="&#x16a;" horiz-adv-x="1409" 
d="M379 1554v110h647v-110h-647zM703 -19c-149.333 0 -271.833 43.3311 -367.5 129.998s-143.5 205.334 -143.5 356.001v941h179v-916c0 -113.333 30.833 -199.666 92.5 -258.999s141.5 -89 239.5 -89s178.333 29.833 241 89.5s94 145.834 94 258.501v916h179v-941
c0 -150.667 -48.167 -269.334 -144.5 -356.001s-219.5 -130 -369.5 -130z" />
    <glyph glyph-name="umacron" unicode="&#x16b;" horiz-adv-x="1137" 
d="M894 1289v-111h-647v111h647zM788 983l173.001 0.000976562v-983h-166l-4 130c-30.667 -48 -71.334 -84.833 -122.001 -110.5s-108 -38.5 -172 -38.5c-103.333 0 -185.833 29.667 -247.5 89s-92.5 143 -92.5 251v662h173v-623c0 -78.667 20.167 -137.334 60.5 -176.001
s91.833 -58 154.5 -58c71.333 0 129.5 22.667 174.5 68s67.833 112.333 68.5 201v588z" />
    <glyph glyph-name="Uring" unicode="&#x16e;" horiz-adv-x="1409" 
d="M703 1554c-58 0 -107.667 20.667 -149 62s-62 90.666 -62 147.999c0 58 20.5 107.333 61.5 148s90.833 61 149.5 61c57.333 0 106.333 -20.333 147 -61s61 -90 61 -148c0 -57.333 -20.5 -106.666 -61.5 -147.999s-89.833 -62 -146.5 -62zM703 1639
c35.333 0 65 11.833 89 35.5s36 53.5 36 89.5c0 35.333 -12.167 65.5 -36.5 90.5s-53.833 37.5 -88.5 37.5s-64.167 -12.5 -88.5 -37.5s-36.5 -55.167 -36.5 -90.5c0 -36 12 -65.833 36 -89.5s53.667 -35.5 89 -35.5zM703 -19c-149.333 0 -271.833 43.3311 -367.5 129.998
s-143.5 205.334 -143.5 356.001v941h179v-916c0 -113.333 30.833 -199.666 92.5 -258.999s141.5 -89 239.5 -89s178.333 29.833 241 89.5s94 145.834 94 258.501v916h179v-941c0 -150.667 -48.167 -269.334 -144.5 -356.001s-219.5 -130 -369.5 -130z" />
    <glyph glyph-name="uring" unicode="&#x16f;" horiz-adv-x="1137" 
d="M571 1116c-58 0 -107.667 20.833 -149 62.5s-62 91.167 -62 148.5c0 58 20.5 107.333 61.5 148s90.833 61 149.5 61c57.333 0 106.333 -20.333 147 -61s61 -90 61 -148c0 -57.333 -20.5 -106.833 -61.5 -148.5s-89.833 -62.5 -146.5 -62.5zM571 1455
c-34.667 0 -64.167 -12.667 -88.5 -38s-36.5 -55.333 -36.5 -90c0 -36 12 -65.833 36 -89.5s53.667 -35.5 89 -35.5s65 11.833 89 35.5s36 53.5 36 89.5c0 34.667 -12.167 64.667 -36.5 90s-53.833 38 -88.5 38zM788 983l173.001 0.000976562v-983h-166l-4 130
c-30.667 -48 -71.334 -84.833 -122.001 -110.5s-108 -38.5 -172 -38.5c-103.333 0 -185.833 29.667 -247.5 89s-92.5 143 -92.5 251v662h173v-623c0 -78.667 20.167 -137.334 60.5 -176.001s91.833 -58 154.5 -58c71.333 0 129.5 22.667 174.5 68s67.833 112.333 68.5 201
v588z" />
    <glyph glyph-name="Uhungarumlaut" unicode="&#x170;" horiz-adv-x="1409" 
d="M463 1554l251 326l92 -67l-224 -259h-119zM822 1554l252 326l92 -67l-224 -259h-120zM703 -19c-149.333 0 -271.833 43.3311 -367.5 129.998s-143.5 205.334 -143.5 356.001v941h179v-916c0 -113.333 30.833 -199.666 92.5 -258.999s141.5 -89 239.5 -89
s178.333 29.833 241 89.5s94 145.834 94 258.501v916h179v-941c0 -150.667 -48.167 -269.334 -144.5 -356.001s-219.5 -130 -369.5 -130z" />
    <glyph glyph-name="uhungarumlaut" unicode="&#x171;" horiz-adv-x="1137" 
d="M674 1412l-224 -259h-119l251 326zM1034 1412l-224 -259h-120l252 326zM788 395l0.000976562 588.001h173v-983h-166l-4 130c-30.667 -48 -71.334 -84.833 -122.001 -110.5s-108 -38.5 -172 -38.5c-103.333 0 -185.833 29.667 -247.5 89s-92.5 143 -92.5 251v662h173
v-623c0 -78.667 20.167 -137.334 60.5 -176.001s91.833 -58 154.5 -58c71.333 0 129.5 22.667 174.5 68s67.833 112.333 68.5 201z" />
    <glyph glyph-name="Uogonek" unicode="&#x172;" horiz-adv-x="1409" 
d="M1038 1408l179 -0.00292969v-941c0 -110.667 -26.833 -204.667 -80.5 -282s-126.5 -133 -218.5 -167l-66 -69.5c-16.667 -18.333 -34.667 -41.833 -54 -70.5s-29 -51.667 -29 -69c0 -28.667 25 -43 75 -43c34.667 0 65.667 10 93 30v-127
c-30.667 -12 -66.667 -18 -108 -18c-57.333 0 -100.833 8.16699 -130.5 24.5s-44.5 39.5 -44.5 69.5c0 54.667 49.333 135.667 148 243c-30 -4.66699 -63 -7 -99 -7c-149.333 0 -271.833 43.333 -367.5 130s-143.5 205.334 -143.5 356.001v941h179v-916
c0 -113.333 30.833 -199.666 92.5 -258.999s141.5 -89 239.5 -89s178.333 29.833 241 89.5s94 145.834 94 258.501v916z" />
    <glyph glyph-name="uogonek" unicode="&#x173;" horiz-adv-x="1137" 
d="M961 983l0.000976562 -982.999l-24.5 -25l-31 -32l-31 -33.5c-13 -14.333 -23.5 -26.833 -31.5 -37.5l-25 -35c-8.66699 -12.667 -15 -24.5 -19 -35.5s-6 -20.833 -6 -29.5c0 -28.667 25 -43 75 -43c34.667 0 65.667 10 93 30v-127c-31.333 -12 -67.333 -18 -108 -18
c-57.333 0 -100.833 8.16699 -130.5 24.5s-44.5 39.5 -44.5 69.5c0 62.667 64.667 160 194 292h-77l-4 130c-30.667 -48 -71.334 -84.833 -122.001 -110.5s-108 -38.5 -172 -38.5c-103.333 0 -185.833 29.667 -247.5 89s-92.5 143 -92.5 251v662h173v-623
c0 -78.667 20.167 -137.334 60.5 -176.001s91.833 -58 154.5 -58c71.333 0 129.5 22.667 174.5 68s67.833 112.333 68.5 201v588h173z" />
    <glyph glyph-name="Wcircumflex" unicode="&#x174;" horiz-adv-x="2042" 
d="M863 1554h-118l211 295h128l211 -295h-119l-157 212zM473 0l-402 1408h186l334 -1161l351 1161h158l351 -1161l336 1161h185l-403 -1408h-210l-338 1083l-338 -1083h-210z" />
    <glyph glyph-name="wcircumflex" unicode="&#x175;" horiz-adv-x="1597" 
d="M803 1377l-156 -212h-118l211 295h128l211 -295h-119zM1377 983h182l-339 -984h-157l-266 758l-267 -758h-158l-333 984h180l243 -753l267 753h133l267 -755z" />
    <glyph glyph-name="Ycircumflex" unicode="&#x176;" horiz-adv-x="1197" 
d="M597 1766l-156 -212h-118l211 295h128l211 -295h-119zM1152 1408l-463 -737v-671h-180v670l-464 738h204l350 -576l350 576h203z" />
    <glyph glyph-name="ycircumflex" unicode="&#x177;" horiz-adv-x="997" 
d="M498 1377l-156 -212h-118l211 295h128l211 -295h-119zM782 983h183l-569 -1446h-179l197 487l-382 959h192l277 -765z" />
    <glyph glyph-name="Ydieresis" unicode="&#x178;" horiz-adv-x="1197" 
d="M412 1536c-32 0 -59.5 11.5 -82.5 34.5s-34.5 50.5 -34.5 82.5s11.5 59.333 34.5 82s50.5 34 82.5 34c31.333 0 58.5 -11.333 81.5 -34s34.5 -50 34.5 -82s-11.5 -59.5 -34.5 -82.5s-50.167 -34.5 -81.5 -34.5zM786 1536c-32 0 -59.5 11.5 -82.5 34.5
s-34.5 50.5 -34.5 82.5s11.5 59.333 34.5 82s50.5 34 82.5 34c31.333 0 58.5 -11.333 81.5 -34s34.5 -50 34.5 -82s-11.5 -59.5 -34.5 -82.5s-50.167 -34.5 -81.5 -34.5zM1152 1408l-463 -737v-671h-180v670l-464 738h204l350 -576l350 576h203z" />
    <glyph glyph-name="Zacute" unicode="&#x179;" horiz-adv-x="1231" 
d="M906 1813l-224 -259h-119l251 326zM320 163h820v-163h-1042v146l800 1099h-797v163h1013v-148z" />
    <glyph glyph-name="zacute" unicode="&#x17a;" horiz-adv-x="900" 
d="M738 1412l-224 -259h-119l251 326zM312 140h524v-140h-784l518 842h-488v141h753z" />
    <glyph glyph-name="Zdotaccent" unicode="&#x17b;" horiz-adv-x="1231" 
d="M629 1536c-32 0 -59.5 11.5 -82.5 34.5s-34.5 50.5 -34.5 82.5s11.5 59.333 34.5 82s50.5 34 82.5 34c31.333 0 58.5 -11.333 81.5 -34s34.5 -50 34.5 -82s-11.5 -59.5 -34.5 -82.5s-50.167 -34.5 -81.5 -34.5zM320 163h820v-163h-1042v146l800 1099h-797v163h1013v-148z
" />
    <glyph glyph-name="zdotaccent" unicode="&#x17c;" horiz-adv-x="900" 
d="M461 1214c-32 0 -59.5 11.5 -82.5 34.5s-34.5 50.5 -34.5 82.5s11.5 59.333 34.5 82s50.5 34 82.5 34c31.333 0 58.5 -11.333 81.5 -34s34.5 -50 34.5 -82s-11.5 -59.5 -34.5 -82.5s-50.167 -34.5 -81.5 -34.5zM312 140h524v-140h-784l518 842h-488v141h753z" />
    <glyph glyph-name="Zcaron" unicode="&#x17d;" horiz-adv-x="1231" 
d="M692 1554h-127l-211 295h117l157 -214l156 214h119zM320 163h820v-163h-1042v146l800 1099h-797v163h1013v-148z" />
    <glyph glyph-name="zcaron" unicode="&#x17e;" horiz-adv-x="900" 
d="M524 1165h-127l-211 295h117l157 -214l156 214h119zM312 140h524v-140h-784l518 842h-488v141h753z" />
    <glyph glyph-name="florin" unicode="&#x192;" horiz-adv-x="1037" 
d="M171 -384l193.999 1223h-172l22 144h174l42 274c12.667 84 53.167 154.833 121.5 212.5s144.5 86.5 228.5 86.5c26.667 0 52.834 -3.5 78.501 -10.5s44.834 -15.5 57.501 -25.5l-15 -135c-28.667 23.333 -63.334 35 -104.001 35c-51.333 0 -96 -17.333 -134 -52
s-61.333 -79.334 -70 -134.001l-39 -251h287l-23 -144h-286l-197 -1223h-165z" />
    <glyph glyph-name="Ohorn" unicode="&#x1a0;" horiz-adv-x="1646" 
d="M1488 1478h109.001v-108c0 -82 -15.333 -141.5 -46 -178.5s-71.667 -55.5 -123 -55.5c-6 0 -15 0.666992 -27 2c81.333 -121.333 122 -265.666 122 -432.999c0 -110 -18 -210.833 -54 -302.5s-85.333 -168 -148 -229s-136.667 -108.333 -222 -142s-177 -50.5 -275 -50.5
c-99.333 0 -191.666 16.833 -276.999 50.5s-159.5 81 -222.5 142s-112.333 137.167 -148 228.5s-53.5 192.333 -53.5 303c0 110 18 210.5 54 301.5s85.333 167.167 148 228.5s136.667 108.666 222 141.999s177.666 50 276.999 50c96 0 185.667 -15.833 269 -47.5
s156.333 -77.167 219 -136.5c29.333 -12.667 57 -19 83 -19c33.333 0 57.166 12.333 71.499 37s21.5 63 21.5 115v102zM824.001 150c150 0 274.167 49.501 372.5 148.501s147.5 234.5 147.5 406.5c0 86 -13.5 164 -40.5 234s-64 128 -111 174s-102 81.333 -165 106
s-130.833 37 -203.5 37c-73.333 0 -141.666 -12.333 -204.999 -37s-118.666 -60 -165.999 -106s-84.5 -104 -111.5 -174s-40.5 -148 -40.5 -234c0 -86.667 13.5 -165.334 40.5 -236.001s64.167 -129 111.5 -175s102.666 -81.5 165.999 -106.5s131.666 -37.5 204.999 -37.5z
" />
    <glyph glyph-name="ohorn" unicode="&#x1a1;" horiz-adv-x="1180" 
d="M1089 1118h109.002v-108c0 -82 -15.333 -141.5 -46 -178.5s-71.667 -55.5 -123 -55.5c-7.33301 0 -13 0.333008 -17 1c48.667 -80.667 73 -175.667 73 -285c0 -154.667 -46.5 -278.5 -139.5 -371.5s-211.5 -139.5 -355.5 -139.5c-93.333 0 -177.333 20.333 -252 61
s-133.834 100.167 -177.501 178.5s-65.5 168.833 -65.5 271.5c0 154 46.5 277.5 139.5 370.5s211.5 139.5 355.5 139.5c138 0 252 -42 342 -126c24 -8 45.333 -12 64 -12c33.333 0 57.166 12.333 71.499 37s21.5 63 21.5 115v102zM589.002 125
c93.333 0 170.833 33.667 232.5 101s92.5 156 92.5 266c0 109.333 -30.833 197.666 -92.5 264.999s-139.167 101 -232.5 101c-92.667 0 -169.5 -33.667 -230.5 -101s-91.5 -155.666 -91.5 -264.999c0 -110 30.5 -198.667 91.5 -266s137.833 -101 230.5 -101z" />
    <glyph glyph-name="Uhorn" unicode="&#x1af;" horiz-adv-x="1409" 
d="M1379 1529l109.001 -0.00195312v-108c0 -82 -15.333 -141.5 -46 -178.5s-71.667 -55.5 -123 -55.5c-31.333 0 -65.333 6.33301 -102 19v-739c0 -150.667 -48.167 -269.334 -144.5 -356.001s-219.5 -130 -369.5 -130c-149.333 0 -271.833 43.333 -367.5 130
s-143.5 205.334 -143.5 356.001v941h179v-916c0 -113.333 30.833 -199.666 92.5 -258.999s141.5 -89 239.5 -89s178.333 29.833 241 89.5s94 145.834 94 258.501v916h179v-119c23.333 -9.33301 46.333 -14 69 -14c33.333 0 57.166 12.333 71.499 37s21.5 63 21.5 115v102z
" />
    <glyph glyph-name="uhorn" unicode="&#x1b0;" horiz-adv-x="1137" 
d="M1133 1104l109.002 0.000976562v-108c0 -82 -15.333 -141.5 -46 -178.5s-71.667 -55.5 -123 -55.5c-34.667 0 -72 7.66699 -112 23v-785h-166l-4 130c-30.667 -48 -71.334 -84.833 -122.001 -110.5s-108 -38.5 -172 -38.5c-103.333 0 -185.833 29.667 -247.5 89
s-92.5 143 -92.5 251v662h173v-623c0 -78.667 20.167 -137.334 60.5 -176.001s91.833 -58 154.5 -58c71.333 0 129.5 22.667 174.5 68s67.833 112.333 68.5 201v588h173v-116c30 -11.333 56.333 -17 79 -17c33.333 0 57.166 12.333 71.499 37s21.5 63 21.5 115v102z" />
    <glyph glyph-name="uni01CD" unicode="&#x1cd;" horiz-adv-x="1372" 
d="M748 1554h-127l-211 295h117l157 -214l156 214h119zM1125 0l-121 337h-637l-120 -337h-187l519 1408h214l519 -1408h-187zM424 495h524l-262 733z" />
    <glyph glyph-name="uni01CE" unicode="&#x1ce;" horiz-adv-x="1073" 
d="M476 1165l-211 295h117l157 -214l156 214h119l-211 -295h-127zM403 -19c-87.333 0 -159.167 22.5029 -215.5 67.5029s-84.5 112.167 -84.5 201.5c0 49.333 9 92.166 27 128.499s44.667 66.166 80 89.499s73.833 41.833 115.5 55.5s91.5 25.5 149.5 35.5l159 26
c58 10.667 87 41 87 91c0 66.667 -20.5 115.5 -61.5 146.5s-92.833 46.5 -155.5 46.5c-61.333 0 -112.666 -15 -153.999 -45s-65.666 -76 -72.999 -138l-156 33c14.667 93.333 55.667 163.5 123 210.5s156.666 70.5 267.999 70.5c52 0 99.5 -5.83301 142.5 -17.5
s82.667 -30 119 -55s64.666 -60.333 84.999 -106s30.5 -99.5 30.5 -161.5v-406c0 -50.667 7.5 -84.834 22.5 -102.501s40.833 -26.5 77.5 -26.5h16v-125h-86c-106 -0 -168 44.333 -186 133h-8c-74.667 -101.333 -182 -152 -322 -152zM442.999 121.003
c87.333 0 157.666 31.667 210.999 95s80 150 80 260l-260 -50c-68.667 -11.333 -119.5 -29.5 -152.5 -54.5s-49.5 -60.833 -49.5 -107.5c0 -48.667 15.833 -84.667 47.5 -108s72.834 -35 123.501 -35z" />
    <glyph glyph-name="uni01CF" unicode="&#x1cf;" horiz-adv-x="621" 
d="M246 1554l-211 295h117l157 -214l156 214h119l-211 -295h-127zM221 0v1408h179v-1408h-179z" />
    <glyph glyph-name="uni01D0" unicode="&#x1d0;" horiz-adv-x="526" 
d="M200 1165l-211 295h117l157 -214l156 214h119l-211 -295h-127zM176 0v983h174v-983h-174z" />
    <glyph glyph-name="uni01D1" unicode="&#x1d1;" horiz-adv-x="1646" 
d="M760 1554l-211 295h117l157 -214l156 214h119l-211 -295h-127zM824 -19c-99.333 0 -191.666 16.834 -276.999 50.501s-159.5 81 -222.5 142s-112.333 137.167 -148 228.5s-53.5 192.333 -53.5 303c0 110 18 210.5 54 301.5s85.333 167.167 148 228.5
s136.667 108.666 222 141.999s177.666 50 276.999 50c98 0 189.667 -16.833 275 -50.5s159.333 -81 222 -142s112 -137 148 -228s54 -191.5 54 -301.5s-18 -210.833 -54 -302.5s-85.333 -168 -148 -229s-136.667 -108.333 -222 -142s-177 -50.5 -275 -50.5zM824 150.001
c150 0 274.167 49.501 372.5 148.501s147.5 234.5 147.5 406.5c0 86 -13.5 164 -40.5 234s-64 128 -111 174s-102 81.333 -165 106s-130.833 37 -203.5 37c-73.333 0 -141.666 -12.333 -204.999 -37s-118.666 -60 -165.999 -106s-84.5 -104 -111.5 -174
s-40.5 -148 -40.5 -234c0 -86.667 13.5 -165.334 40.5 -236.001s64.167 -129 111.5 -175s102.666 -81.5 165.999 -106.5s131.666 -37.5 204.999 -37.5z" />
    <glyph glyph-name="uni01D2" unicode="&#x1d2;" horiz-adv-x="1180" 
d="M526 1164l-211 295h117l157 -214l156 214h119l-211 -295h-127zM590 -19c-93.333 0 -177.333 20.333 -252 61s-133.834 100.167 -177.501 178.5s-65.5 168.833 -65.5 271.5c0 154 46.5 277.5 139.5 370.5s211.5 139.5 355.5 139.5c144.667 0 263.334 -46.5 356.001 -139.5
s139 -216.5 139 -370.5c0 -154.667 -46.5 -278.5 -139.5 -371.5s-211.5 -139.5 -355.5 -139.5zM589 125c93.333 0 170.833 33.667 232.5 101s92.5 156 92.5 266c0 109.333 -30.833 197.666 -92.5 264.999s-139.167 101 -232.5 101c-92.667 0 -169.5 -33.667 -230.5 -101
s-91.5 -155.666 -91.5 -264.999c0 -110 30.5 -198.667 91.5 -266s137.833 -101 230.5 -101z" />
    <glyph glyph-name="uni01D3" unicode="&#x1d3;" horiz-adv-x="1409" 
d="M639 1554l-211 295h117l157 -214l156 214h119l-211 -295h-127zM703 -19c-149.333 0 -271.833 43.3311 -367.5 129.998s-143.5 205.334 -143.5 356.001v941h179v-916c0 -113.333 30.833 -199.666 92.5 -258.999s141.5 -89 239.5 -89s178.333 29.833 241 89.5
s94 145.834 94 258.501v916h179v-941c0 -150.667 -48.167 -269.334 -144.5 -356.001s-219.5 -130 -369.5 -130z" />
    <glyph glyph-name="uni01D4" unicode="&#x1d4;" horiz-adv-x="1137" 
d="M634 1165h-127l-211 295h117l157 -214l156 214h119zM788 983l173.001 0.000976562v-983h-166l-4 130c-30.667 -48 -71.334 -84.833 -122.001 -110.5s-108 -38.5 -172 -38.5c-103.333 0 -185.833 29.667 -247.5 89s-92.5 143 -92.5 251v662h173v-623
c0 -78.667 20.167 -137.334 60.5 -176.001s91.833 -58 154.5 -58c71.333 0 129.5 22.667 174.5 68s67.833 112.333 68.5 201v588z" />
    <glyph glyph-name="uni01D5" unicode="&#x1d5;" horiz-adv-x="1409" 
d="M379 1915v110h647v-110h-647zM516 1536c-32 0 -59.5 11.5 -82.5 34.5s-34.5 50.5 -34.5 82.5s11.5 59.333 34.5 82s50.5 34 82.5 34c31.333 0 58.5 -11.333 81.5 -34s34.5 -50 34.5 -82s-11.5 -59.5 -34.5 -82.5s-50.167 -34.5 -81.5 -34.5zM890 1536
c-32 0 -59.5 11.5 -82.5 34.5s-34.5 50.5 -34.5 82.5s11.5 59.333 34.5 82s50.5 34 82.5 34c31.333 0 58.5 -11.333 81.5 -34s34.5 -50 34.5 -82s-11.5 -59.5 -34.5 -82.5s-50.167 -34.5 -81.5 -34.5zM703 -19c-149.333 0 -271.833 43.3311 -367.5 129.998
s-143.5 205.334 -143.5 356.001v941h179v-916c0 -113.333 30.833 -199.666 92.5 -258.999s141.5 -89 239.5 -89s178.333 29.833 241 89.5s94 145.834 94 258.501v916h179v-941c0 -150.667 -48.167 -269.334 -144.5 -356.001s-219.5 -130 -369.5 -130z" />
    <glyph glyph-name="uni01D6" unicode="&#x1d6;" horiz-adv-x="1137" 
d="M894 1732v-111h-647v111h647zM267 1331c0 32 11.5 59.333 34.5 82s50.5 34 82.5 34c31.333 0 58.5 -11.333 81.5 -34s34.5 -50 34.5 -82s-11.5 -59.5 -34.5 -82.5s-50.167 -34.5 -81.5 -34.5c-32 0 -59.5 11.5 -82.5 34.5s-34.5 50.5 -34.5 82.5zM641 1331
c0 32 11.5 59.333 34.5 82s50.5 34 82.5 34c31.333 0 58.5 -11.333 81.5 -34s34.5 -50 34.5 -82s-11.5 -59.5 -34.5 -82.5s-50.167 -34.5 -81.5 -34.5c-32 0 -59.5 11.5 -82.5 34.5s-34.5 50.5 -34.5 82.5zM788 983l173.001 0.000976562v-983h-166l-4 130
c-30.667 -48 -71.334 -84.833 -122.001 -110.5s-108 -38.5 -172 -38.5c-103.333 0 -185.833 29.667 -247.5 89s-92.5 143 -92.5 251v662h173v-623c0 -78.667 20.167 -137.334 60.5 -176.001s91.833 -58 154.5 -58c71.333 0 129.5 22.667 174.5 68s67.833 112.333 68.5 201
v588z" />
    <glyph glyph-name="uni01D7" unicode="&#x1d7;" horiz-adv-x="1409" 
d="M637 1915l251 326l92 -67l-224 -259h-119zM516 1536c-32 0 -59.5 11.5 -82.5 34.5s-34.5 50.5 -34.5 82.5s11.5 59.333 34.5 82s50.5 34 82.5 34c31.333 0 58.5 -11.333 81.5 -34s34.5 -50 34.5 -82s-11.5 -59.5 -34.5 -82.5s-50.167 -34.5 -81.5 -34.5zM890 1536
c-32 0 -59.5 11.5 -82.5 34.5s-34.5 50.5 -34.5 82.5s11.5 59.333 34.5 82s50.5 34 82.5 34c31.333 0 58.5 -11.333 81.5 -34s34.5 -50 34.5 -82s-11.5 -59.5 -34.5 -82.5s-50.167 -34.5 -81.5 -34.5zM703 -19c-149.333 0 -271.833 43.3311 -367.5 129.998
s-143.5 205.334 -143.5 356.001v941h179v-916c0 -113.333 30.833 -199.666 92.5 -258.999s141.5 -89 239.5 -89s178.333 29.833 241 89.5s94 145.834 94 258.501v916h179v-941c0 -150.667 -48.167 -269.334 -144.5 -356.001s-219.5 -130 -369.5 -130z" />
    <glyph glyph-name="uni01D8" unicode="&#x1d8;" horiz-adv-x="1137" 
d="M848 1855l-224 -259h-119l251 326zM384 1214c-32 0 -59.5 11.5 -82.5 34.5s-34.5 50.5 -34.5 82.5s11.5 59.333 34.5 82s50.5 34 82.5 34c31.333 0 58.5 -11.333 81.5 -34s34.5 -50 34.5 -82s-11.5 -59.5 -34.5 -82.5s-50.167 -34.5 -81.5 -34.5zM758 1447
c31.333 0 58.5 -11.333 81.5 -34s34.5 -50 34.5 -82s-11.5 -59.5 -34.5 -82.5s-50.167 -34.5 -81.5 -34.5c-32 0 -59.5 11.5 -82.5 34.5s-34.5 50.5 -34.5 82.5s11.5 59.333 34.5 82s50.5 34 82.5 34zM788 983l173.001 0.000976562v-983h-166l-4 130
c-30.667 -48 -71.334 -84.833 -122.001 -110.5s-108 -38.5 -172 -38.5c-103.333 0 -185.833 29.667 -247.5 89s-92.5 143 -92.5 251v662h173v-623c0 -78.667 20.167 -137.334 60.5 -176.001s91.833 -58 154.5 -58c71.333 0 129.5 22.667 174.5 68s67.833 112.333 68.5 201
v588z" />
    <glyph glyph-name="uni01D9" unicode="&#x1d9;" horiz-adv-x="1409" 
d="M639 1915l-211 295h117l157 -214l156 214h119l-211 -295h-127zM516 1536c-32 0 -59.5 11.5 -82.5 34.5s-34.5 50.5 -34.5 82.5s11.5 59.333 34.5 82s50.5 34 82.5 34c31.333 0 58.5 -11.333 81.5 -34s34.5 -50 34.5 -82s-11.5 -59.5 -34.5 -82.5
s-50.167 -34.5 -81.5 -34.5zM890 1536c-32 0 -59.5 11.5 -82.5 34.5s-34.5 50.5 -34.5 82.5s11.5 59.333 34.5 82s50.5 34 82.5 34c31.333 0 58.5 -11.333 81.5 -34s34.5 -50 34.5 -82s-11.5 -59.5 -34.5 -82.5s-50.167 -34.5 -81.5 -34.5zM703 -19
c-149.333 0 -271.833 43.3311 -367.5 129.998s-143.5 205.334 -143.5 356.001v941h179v-916c0 -113.333 30.833 -199.666 92.5 -258.999s141.5 -89 239.5 -89s178.333 29.833 241 89.5s94 145.834 94 258.501v916h179v-941c0 -150.667 -48.167 -269.334 -144.5 -356.001
s-219.5 -130 -369.5 -130z" />
    <glyph glyph-name="uni01DA" unicode="&#x1da;" horiz-adv-x="1137" 
d="M634 1608h-127l-211 295h117l157 -214l156 214h119zM384 1214c-32 0 -59.5 11.5 -82.5 34.5s-34.5 50.5 -34.5 82.5s11.5 59.333 34.5 82s50.5 34 82.5 34c31.333 0 58.5 -11.333 81.5 -34s34.5 -50 34.5 -82s-11.5 -59.5 -34.5 -82.5s-50.167 -34.5 -81.5 -34.5z
M758 1447c31.333 0 58.5 -11.333 81.5 -34s34.5 -50 34.5 -82s-11.5 -59.5 -34.5 -82.5s-50.167 -34.5 -81.5 -34.5c-32 0 -59.5 11.5 -82.5 34.5s-34.5 50.5 -34.5 82.5s11.5 59.333 34.5 82s50.5 34 82.5 34zM788 983l173.001 0.000976562v-983h-166l-4 130
c-30.667 -48 -71.334 -84.833 -122.001 -110.5s-108 -38.5 -172 -38.5c-103.333 0 -185.833 29.667 -247.5 89s-92.5 143 -92.5 251v662h173v-623c0 -78.667 20.167 -137.334 60.5 -176.001s91.833 -58 154.5 -58c71.333 0 129.5 22.667 174.5 68s67.833 112.333 68.5 201
v588z" />
    <glyph glyph-name="uni01DB" unicode="&#x1db;" horiz-adv-x="1409" 
d="M645 1915l-225 259l92 67l252 -326h-119zM516 1536c-32 0 -59.5 11.5 -82.5 34.5s-34.5 50.5 -34.5 82.5s11.5 59.333 34.5 82s50.5 34 82.5 34c31.333 0 58.5 -11.333 81.5 -34s34.5 -50 34.5 -82s-11.5 -59.5 -34.5 -82.5s-50.167 -34.5 -81.5 -34.5zM890 1536
c-32 0 -59.5 11.5 -82.5 34.5s-34.5 50.5 -34.5 82.5s11.5 59.333 34.5 82s50.5 34 82.5 34c31.333 0 58.5 -11.333 81.5 -34s34.5 -50 34.5 -82s-11.5 -59.5 -34.5 -82.5s-50.167 -34.5 -81.5 -34.5zM703 -19c-149.333 0 -271.833 43.3311 -367.5 129.998
s-143.5 205.334 -143.5 356.001v941h179v-916c0 -113.333 30.833 -199.666 92.5 -258.999s141.5 -89 239.5 -89s178.333 29.833 241 89.5s94 145.834 94 258.501v916h179v-941c0 -150.667 -48.167 -269.334 -144.5 -356.001s-219.5 -130 -369.5 -130z" />
    <glyph glyph-name="uni01DC" unicode="&#x1dc;" horiz-adv-x="1137" 
d="M632 1596h-119l-225 259l92 67zM384 1214c-32 0 -59.5 11.5 -82.5 34.5s-34.5 50.5 -34.5 82.5s11.5 59.333 34.5 82s50.5 34 82.5 34c31.333 0 58.5 -11.333 81.5 -34s34.5 -50 34.5 -82s-11.5 -59.5 -34.5 -82.5s-50.167 -34.5 -81.5 -34.5zM758 1214
c-32 0 -59.5 11.5 -82.5 34.5s-34.5 50.5 -34.5 82.5s11.5 59.333 34.5 82s50.5 34 82.5 34c31.333 0 58.5 -11.333 81.5 -34s34.5 -50 34.5 -82s-11.5 -59.5 -34.5 -82.5s-50.167 -34.5 -81.5 -34.5zM788 983l173.001 0.000976562v-983h-166l-4 130
c-30.667 -48 -71.334 -84.833 -122.001 -110.5s-108 -38.5 -172 -38.5c-103.333 0 -185.833 29.667 -247.5 89s-92.5 143 -92.5 251v662h173v-623c0 -78.667 20.167 -137.334 60.5 -176.001s91.833 -58 154.5 -58c71.333 0 129.5 22.667 174.5 68s67.833 112.333 68.5 201
v588z" />
    <glyph glyph-name="Scommaaccent" unicode="&#x218;" horiz-adv-x="1271" 
d="M656 -19c-146.667 0 -269.161 33.166 -367.494 99.499s-159.5 157.5 -183.5 273.5l181 43c16.667 -81.333 59 -145.333 127 -192s151 -70 249 -70c32.667 0 63.667 2.66699 93 8s57.5 14.166 84.5 26.499s50.167 27.5 69.5 45.5s34.666 41 45.999 69
s16.666 59.333 15.999 94c-0.666992 24 -4.83398 46.167 -12.501 66.5s-17 37.833 -28 52.5s-26.833 28.834 -47.5 42.501s-39.667 25 -57 34s-40.833 18.5 -70.5 28.5s-54.5 17.833 -74.5 23.5l-81 22.5c-6.66699 2 -11.667 3.33301 -15 4
c-38.667 10 -70.167 18.667 -94.5 26s-53.5 17.5 -87.5 30.5s-61.833 25.833 -83.5 38.5s-44.5 28.667 -68.5 48s-42.833 40.166 -56.5 62.499s-25 48.833 -34 79.5s-13.5 64 -13.5 100c0 84 21.833 156 65.5 216s100 104 169 132s146.5 42 232.5 42
c131.333 0 244.166 -28.833 338.499 -86.5s154.166 -142.834 179.499 -255.501l-174 -44c-17.333 76.667 -56.333 134.334 -117 173.001s-134 58 -220 58c-38 0 -74 -4.33301 -108 -13s-65.167 -22 -93.5 -40s-50.833 -42.5 -67.5 -73.5s-25 -66.833 -25 -107.5
c0 -21.333 3.33301 -41.166 10 -59.499s15 -34.166 25 -47.499s24.333 -26.333 43 -39s36.167 -23 52.5 -31s38.166 -16.5 65.499 -25.5s50.666 -16.333 69.999 -22s45 -12.5 77 -20.5c126 -33.333 216.333 -63.333 271 -90c122 -60 191.667 -146.333 209 -259
c2.66699 -19.333 4 -39.666 4 -60.999c0 -68.667 -13.5 -129.334 -40.5 -182.001s-64 -94.667 -111 -126s-99.667 -54.833 -158 -70.5s-121.166 -23.5 -188.499 -23.5zM488.006 -559.001l-92 41l160 366h158z" />
    <glyph glyph-name="scommaaccent" unicode="&#x219;" horiz-adv-x="945" 
d="M487 -19c-106 0 -194.331 23.666 -264.998 70.999s-113.667 114.666 -129 201.999l151 43c10.667 -58.667 37.5 -104.167 80.5 -136.5s96.833 -48.5 161.5 -48.5c34.667 0 66.167 4.33301 94.5 13s52.5 24.834 72.5 48.501s29.667 53.5 29 89.5
c-0.666992 14.667 -3.33398 28.167 -8.00098 40.5s-10 23.166 -16 32.499s-15.333 18.333 -28 27s-24 15.667 -34 21s-24.833 11.5 -44.5 18.5s-35.5 12.333 -47.5 16s-30.333 9 -55 16l-57 16.5c-41.333 12.667 -75.333 24.667 -102 36s-54.334 27.166 -83.001 47.499
s-50.167 46.166 -64.5 77.499s-21.5 68 -21.5 110c0 62 16 114.333 48 157s73.5 73.5 124.5 92.5s109.167 28.5 174.5 28.5c94.667 0 174.5 -21.333 239.5 -64s104.833 -106.667 119.5 -192l-142 -36c-10.667 55.333 -35.667 96.833 -75 124.5s-86.333 41.5 -141 41.5
c-51.333 0 -95.333 -11.5 -132 -34.5s-55 -58.167 -55 -105.5c0 -20 4.83301 -38.167 14.5 -54.5s19.5 -29.166 29.5 -38.499s28 -19.166 54 -29.499s45.333 -17.333 58 -21s36.667 -9.83398 72 -18.501c6.66699 -2 11.667 -3.33301 15 -4
c38.667 -10 70.167 -18.833 94.5 -26.5s52.666 -19.667 84.999 -36s57.833 -34.166 76.5 -53.499s34.667 -44.666 48 -75.999s20 -66.666 20 -105.999c0 -50 -9.83301 -94.167 -29.5 -132.5s-46.5 -68.5 -80.5 -90.5s-72.167 -38.5 -114.5 -49.5
s-88.166 -16.5 -137.499 -16.5zM329.002 -558.001l-92 41l160 366h158z" />
    <glyph glyph-name="uni021A" unicode="&#x21a;" horiz-adv-x="1013" 
d="M957 1408v-163h-361v-1245h-178v1245h-362v163h901zM267 -518l160 366h158l-226 -407z" />
    <glyph glyph-name="uni021B" unicode="&#x21b;" horiz-adv-x="702" 
d="M490 0c-81.333 0 -145.333 23.501 -192 70.501s-70 112.5 -70 196.5v578h-201v138h74c51.333 0 87.5 11.5 108.5 34.5s31.5 61.5 31.5 115.5v178h161v-328h226v-138h-226v-560c0 -46.667 12.5 -82.834 37.5 -108.501s57.833 -38.5 98.5 -38.5h90v-138h-138zM386 -558.999
l-92 41l160 366h158z" />
    <glyph glyph-name="uni0237" unicode="&#x237;" horiz-adv-x="528" 
d="M-50 -460v146.999c62.667 0 109.667 9.33301 141 28s53.333 50.667 66 96s19 113 19 203v969h175v-969c0 -173.333 -30.333 -295.666 -91 -366.999s-164 -107 -310 -107z" />
    <glyph glyph-name="circumflex" unicode="&#x2c6;" horiz-adv-x="696" 
d="M191 1241h-118l211 295h128l211 -295h-119l-157 212z" />
    <glyph glyph-name="caron" unicode="&#x2c7;" horiz-adv-x="703" 
d="M288 1241l-211 295h117l157 -214l156 214h119l-211 -295h-127z" />
    <glyph glyph-name="breve" unicode="&#x2d8;" horiz-adv-x="902" 
d="M449 1219c-99.333 0 -180.5 28.667 -243.5 86s-94.5 134.333 -94.5 231h113c0 -66 20.833 -120.167 62.5 -162.5s95.834 -63.5 162.501 -63.5c67.333 0 122.166 21 164.499 63s63.5 96.333 63.5 163h113c0 -96.667 -31.667 -173.667 -95 -231s-145.333 -86 -246 -86z" />
    <glyph glyph-name="dotaccent" unicode="&#x2d9;" horiz-adv-x="520" 
d="M260 1214c-32 0 -59.5 11.5 -82.5 34.5s-34.5 50.5 -34.5 82.5s11.5 59.333 34.5 82s50.5 34 82.5 34c31.333 0 58.5 -11.333 81.5 -34s34.5 -50 34.5 -82s-11.5 -59.5 -34.5 -82.5s-50.167 -34.5 -81.5 -34.5z" />
    <glyph glyph-name="ring" unicode="&#x2da;" horiz-adv-x="671" 
d="M336 1157c-58 0 -107.667 20.833 -149 62.5s-62 91.167 -62 148.5c0 58 20.5 107.333 61.5 148s90.833 61 149.5 61c57.333 0 106.333 -20.333 147 -61s61 -90 61 -148c0 -57.333 -20.5 -106.833 -61.5 -148.5s-89.833 -62.5 -146.5 -62.5zM336 1243
c35.333 0 65 11.833 89 35.5s36 53.5 36 89.5c0 34.667 -12.167 64.667 -36.5 90s-53.833 38 -88.5 38s-64.167 -12.667 -88.5 -38s-36.5 -55.333 -36.5 -90c0 -36 12 -65.833 36 -89.5s53.667 -35.5 89 -35.5z" />
    <glyph glyph-name="ogonek" unicode="&#x2db;" horiz-adv-x="521" 
d="M273 -386c-57.333 0 -100.833 8.16797 -130.5 24.501s-44.5 39.5 -44.5 69.5c0 65.333 73.667 171.666 221 318.999l62 -27l-24.5 -25l-31 -32l-31 -33.5c-13 -14.333 -23.5 -26.833 -31.5 -37.5l-25 -35c-8.66699 -12.667 -15 -24.5 -19 -35.5s-6 -20.833 -6 -29.5
c0 -28.667 25 -43 75 -43c34.667 0 65.667 10 93 30v-127c-30.667 -12 -66.667 -18 -108 -18z" />
    <glyph glyph-name="tilde" unicode="&#x2dc;" horiz-adv-x="883" 
d="M565 1144c-68.667 0 -123.331 32.332 -163.998 96.999c-22.667 34 -49.334 51 -80.001 51c-27.333 0 -48.833 -12.333 -64.5 -37s-23.5 -57 -23.5 -97h-96c0 67.333 16.333 122.333 49 165s76.667 64 132 64c68.667 0 122.667 -32.667 162 -98
c20 -32.667 47.333 -49 82 -49c27.333 0 48.666 11.833 63.999 35.5s23 55.834 23 96.501h97c0 -66 -16.333 -120.5 -49 -163.5s-76.667 -64.5 -132 -64.5z" />
    <glyph glyph-name="hungarumlaut" unicode="&#x2dd;" horiz-adv-x="842" 
d="M61 1229l251 326l92 -67l-224 -259h-119zM420 1229l252 326l92 -67l-224 -259h-120z" />
    <glyph glyph-name="gravecomb" unicode="&#x300;" 
d="M-179 1229l-225 259l92 67l252 -326h-119z" />
    <glyph glyph-name="acutecomb" unicode="&#x301;" 
d="M-421 1229l251 326l92 -67l-224 -259h-119z" />
    <glyph glyph-name="uni0302" unicode="&#x302;" 
d="M-505 1241h-118l211 295h128l211 -295h-119l-157 212z" />
    <glyph glyph-name="tildecomb" unicode="&#x303;" 
d="M-318 1144c-68.667 0 -123.331 32.332 -163.998 96.999c-22.667 34 -49.334 51 -80.001 51c-27.333 0 -48.833 -12.333 -64.5 -37s-23.5 -57 -23.5 -97h-96c0 67.333 16.333 122.333 49 165s76.667 64 132 64c68.667 0 122.667 -32.667 162 -98
c20 -32.667 47.333 -49 82 -49c27.333 0 48.666 11.833 63.999 35.5s23 55.834 23 96.501h97c0 -66 -16.333 -120.5 -49 -163.5s-76.667 -64.5 -132 -64.5z" />
    <glyph glyph-name="uni0304" unicode="&#x304;" 
d="M-819 1254v111h647v-111h-647z" />
    <glyph glyph-name="uni0306" unicode="&#x306;" 
d="M-453 1219c-99.333 0 -180.5 28.667 -243.5 86s-94.5 134.333 -94.5 231h113c0 -66 20.833 -120.167 62.5 -162.5s95.834 -63.5 162.501 -63.5c67.333 0 122.166 21 164.499 63s63.5 96.333 63.5 163h113c0 -96.667 -31.667 -173.667 -95 -231s-145.333 -86 -246 -86z
" />
    <glyph glyph-name="uni0307" unicode="&#x307;" 
d="M-260 1214c-32 0 -59.5 11.5 -82.5 34.5s-34.5 50.5 -34.5 82.5s11.5 59.333 34.5 82s50.5 34 82.5 34c31.333 0 58.5 -11.333 81.5 -34s34.5 -50 34.5 -82s-11.5 -59.5 -34.5 -82.5s-50.167 -34.5 -81.5 -34.5z" />
    <glyph glyph-name="uni0308" unicode="&#x308;" 
d="M-634 1214c-32 0 -59.5 11.5 -82.5 34.5s-34.5 50.5 -34.5 82.5s11.5 59.333 34.5 82s50.5 34 82.5 34c31.333 0 58.5 -11.333 81.5 -34s34.5 -50 34.5 -82s-11.5 -59.5 -34.5 -82.5s-50.167 -34.5 -81.5 -34.5zM-260 1214c-32 0 -59.5 11.5 -82.5 34.5
s-34.5 50.5 -34.5 82.5s11.5 59.333 34.5 82s50.5 34 82.5 34c31.333 0 58.5 -11.333 81.5 -34s34.5 -50 34.5 -82s-11.5 -59.5 -34.5 -82.5s-50.167 -34.5 -81.5 -34.5z" />
    <glyph glyph-name="hookabovecomb" unicode="&#x309;" 
d="M-339 1155l-0.000976562 118.999c79.333 17.333 119 54 119 110c0 24.667 -7.66699 45.167 -23 61.5s-36.666 24.5 -63.999 24.5c-30 0 -58.667 -10.667 -86 -32l-51 70c39.333 32 85.333 48 138 48c54.667 0 99.167 -15.667 133.5 -47s51.5 -71.666 51.5 -120.999
c0 -78 -43.333 -130 -130 -156v-77h-88z" />
    <glyph glyph-name="uni030A" unicode="&#x30a;" 
d="M-335 1157c-58 0 -107.667 20.833 -149 62.5s-62 91.167 -62 148.5c0 58 20.5 107.333 61.5 148s90.833 61 149.5 61c57.333 0 106.333 -20.333 147 -61s61 -90 61 -148c0 -57.333 -20.5 -106.833 -61.5 -148.5s-89.833 -62.5 -146.5 -62.5zM-335 1243
c35.333 0 65 11.833 89 35.5s36 53.5 36 89.5c0 34.667 -12.167 64.667 -36.5 90s-53.833 38 -88.5 38s-64.167 -12.667 -88.5 -38s-36.5 -55.333 -36.5 -90c0 -36 12 -65.833 36 -89.5s53.667 -35.5 89 -35.5z" />
    <glyph glyph-name="uni030B" unicode="&#x30b;" 
d="M-781 1229l251 326l92 -67l-224 -259h-119zM-422 1229l252 326l92 -67l-224 -259h-120z" />
    <glyph glyph-name="uni030C" unicode="&#x30c;" 
d="M-415 1241l-211 295h117l157 -214l156 214h119l-211 -295h-127z" />
    <glyph glyph-name="uni0312" unicode="&#x312;" 
d="M-242 1529h126l-122 -306h-181z" />
    <glyph glyph-name="uni031B" unicode="&#x31b;" 
d="M-321 791c-58.667 0 -118.332 18.667 -178.999 56l44 60c36.667 -18.667 70.667 -28 102 -28c33.333 0 57.166 12.333 71.499 37s21.5 63 21.5 115v102h109v-108c0 -82 -15.333 -141.5 -46 -178.5s-71.667 -55.5 -123 -55.5z" />
    <glyph glyph-name="dotbelowcomb" unicode="&#x323;" 
d="M-260 -512c-32 0 -59.5 11.333 -82.5 34s-34.5 50.334 -34.5 83.001c0 31.333 11.5 58.5 34.5 81.5s50.5 34.5 82.5 34.5c31.333 0 58.5 -11.5 81.5 -34.5s34.5 -50.167 34.5 -81.5c0 -32.667 -11.333 -60.334 -34 -83.001s-50 -34 -82 -34z" />
    <glyph glyph-name="uni0326" unicode="&#x326;" 
d="M-299 -559l-92 41l160 366h158z" />
    <glyph glyph-name="uni0327" unicode="&#x327;" 
d="M-303 -532c-48.667 0 -95.1689 12.334 -139.502 37.001s-76.5 55.667 -96.5 93l86 36c14.667 -21.333 36.334 -39.166 65.001 -53.499s56.334 -21.5 83.001 -21.5c32.667 0 60.667 11.333 84 34s35 51 35 85c0 36 -11.667 64 -35 84s-53.333 30 -90 30
c-28.667 0 -55.334 -6.66699 -80.001 -20l-75 49l110 219h94l-86 -178c24 5.33301 42.333 8 55 8c58 0 105.833 -17.833 143.5 -53.5s56.5 -81.834 56.5 -138.501c0 -58.667 -20.167 -108.334 -60.5 -149.001s-90.166 -61 -149.499 -61z" />
    <glyph glyph-name="uni0328" unicode="&#x328;" 
d="M-248 -386c-57.333 0 -100.833 8.16797 -130.5 24.501s-44.5 39.5 -44.5 69.5c0 65.333 73.667 171.666 221 318.999l62 -27l-24.5 -25l-31 -32l-31 -33.5c-13 -14.333 -23.5 -26.833 -31.5 -37.5l-25 -35c-8.66699 -12.667 -15 -24.5 -19 -35.5s-6 -20.833 -6 -29.5
c0 -28.667 25 -43 75 -43c34.667 0 65.667 10 93 30v-127c-30.667 -12 -66.667 -18 -108 -18z" />
    <glyph glyph-name="uni0335" unicode="&#x335;" 
d="M-779 473v115h606v-115h-606z" />
    <glyph glyph-name="uni0336" unicode="&#x336;" 
d="M-1638 487v91h1466v-91h-1466z" />
    <glyph glyph-name="uni0337" unicode="&#x337;" 
d="M-603 275v128l541 404v-128z" />
    <glyph glyph-name="uni0338" unicode="&#x338;" 
d="M-904 212l812 1163l85 -52l-812 -1163z" />
    <glyph glyph-name="uni0394" unicode="&#x394;" horiz-adv-x="1535" 
d="M862 1536l617 -1536h-1423l617 1536h189zM303 161h927l-462 1184z" />
    <glyph glyph-name="uni03A9" unicode="&#x3a9;" horiz-adv-x="1832" 
d="M1322 150l386.999 -0.000976562v-150h-622v123c50.667 26.667 98.334 60.334 143.001 101.001s85.167 88.667 121.5 144s65.166 119.666 86.499 192.999s32 151 32 233c0 77.333 -12.167 151.666 -36.5 222.999s-58.833 135.333 -103.5 192s-102.167 102 -172.5 136
s-148.166 51 -233.499 51c-162.667 0 -296.834 -56.667 -402.501 -170s-158.5 -258.333 -158.5 -435c0 -80 10.833 -156.667 32.5 -230s50.667 -137.833 87 -193.5s76.833 -104.167 121.5 -145.5s92 -74.333 142 -99v-123h-623v150h381v2c-42 30 -82.167 66.667 -120.5 110
s-73.833 92.833 -106.5 148.5s-58.667 118.834 -78 189.501s-29 143 -29 217c0 136 31.833 259.667 95.5 371s153 199.166 268 263.499s244.5 96.5 388.5 96.5c92 0 178.167 -14 258.5 -42s149.5 -65.667 207.5 -113s107.833 -102.166 149.5 -164.499
s72.834 -128.166 93.501 -197.499s31 -139.333 31 -210c0 -144.667 -33 -276.5 -99 -395.5s-146.333 -210.833 -241 -275.5z" />
    <glyph glyph-name="uni03BC" unicode="&#x3bc;" horiz-adv-x="1206" 
d="M859 1002h171.999v-1002h-172v140c-36 -49.333 -80.5 -88 -133.5 -116s-110.167 -42 -171.5 -42c-95.333 0 -178.666 32 -249.999 96v-520h-129v1444h172v-612c0 -71.333 24.5 -132 73.5 -182s108.5 -75 178.5 -75c72 0 133.333 25 184 75s76 110.667 76 182v612z" />
    <glyph glyph-name="pi" unicode="&#x3c0;" horiz-adv-x="1258" 
d="M153 0c38 96.667 71.832 226 101.499 388s47.167 309.333 52.5 442c-117.333 0 -200.666 -10.667 -249.999 -32l-20 115c61.333 34.667 164.333 52 309 52h881l-15 -135h-177v-542c0 -128 10 -224 30 -288h-160c-21.333 35.333 -32 125.666 -32 270.999v559l-406 1
c-7.33301 -132 -26 -283.667 -56 -455s-63 -296.666 -99 -375.999h-159z" />
    <glyph glyph-name="Wgrave" unicode="&#x1e80;" horiz-adv-x="2042" 
d="M963 1554l-225 259l92 67l252 -326h-119zM473 0l-402 1408h186l334 -1161l351 1161h158l351 -1161l336 1161h185l-403 -1408h-210l-338 1083l-338 -1083h-210z" />
    <glyph glyph-name="wgrave" unicode="&#x1e81;" horiz-adv-x="1597" 
d="M866 1153h-119l-225 259l92 67zM1377 983h182l-339 -984h-157l-266 758l-267 -758h-158l-333 984h180l243 -753l267 753h133l267 -755z" />
    <glyph glyph-name="Wacute" unicode="&#x1e82;" horiz-adv-x="2042" 
d="M955 1554l251 326l92 -67l-224 -259h-119zM473 0l-402 1408h186l334 -1161l351 1161h158l351 -1161l336 1161h185l-403 -1408h-210l-338 1083l-338 -1083h-210z" />
    <glyph glyph-name="wacute" unicode="&#x1e83;" horiz-adv-x="1597" 
d="M1082 1412l-224 -259h-119l251 326zM1377 983h182l-339 -984h-157l-266 758l-267 -758h-158l-333 984h180l243 -753l267 753h133l267 -755z" />
    <glyph glyph-name="Wdieresis" unicode="&#x1e84;" horiz-adv-x="2042" 
d="M834 1536c-32 0 -59.5 11.5 -82.5 34.5s-34.5 50.5 -34.5 82.5s11.5 59.333 34.5 82s50.5 34 82.5 34c31.333 0 58.5 -11.333 81.5 -34s34.5 -50 34.5 -82s-11.5 -59.5 -34.5 -82.5s-50.167 -34.5 -81.5 -34.5zM1208 1536c-32 0 -59.5 11.5 -82.5 34.5
s-34.5 50.5 -34.5 82.5s11.5 59.333 34.5 82s50.5 34 82.5 34c31.333 0 58.5 -11.333 81.5 -34s34.5 -50 34.5 -82s-11.5 -59.5 -34.5 -82.5s-50.167 -34.5 -81.5 -34.5zM473 0l-402 1408h186l334 -1161l351 1161h158l351 -1161l336 1161h185l-403 -1408h-210l-338 1083
l-338 -1083h-210z" />
    <glyph glyph-name="wdieresis" unicode="&#x1e85;" horiz-adv-x="1597" 
d="M618 1214c-32 0 -59.5 11.5 -82.5 34.5s-34.5 50.5 -34.5 82.5s11.5 59.333 34.5 82s50.5 34 82.5 34c31.333 0 58.5 -11.333 81.5 -34s34.5 -50 34.5 -82s-11.5 -59.5 -34.5 -82.5s-50.167 -34.5 -81.5 -34.5zM992 1214c-32 0 -59.5 11.5 -82.5 34.5
s-34.5 50.5 -34.5 82.5s11.5 59.333 34.5 82s50.5 34 82.5 34c31.333 0 58.5 -11.333 81.5 -34s34.5 -50 34.5 -82s-11.5 -59.5 -34.5 -82.5s-50.167 -34.5 -81.5 -34.5zM1377 983h182l-339 -984h-157l-266 758l-267 -758h-158l-333 984h180l243 -753l267 753h133l267 -755z
" />
    <glyph glyph-name="uni1EA0" unicode="&#x1ea0;" horiz-adv-x="1372" 
d="M1312 0h-187l-121 337h-637l-120 -337h-187l519 1408h214zM424 495h524l-262 733zM685 -279c31.333 0 58.5 -11.5 81.5 -34.5s34.5 -50.167 34.5 -81.5c0 -32.667 -11.333 -60.334 -34 -83.001s-50 -34 -82 -34s-59.5 11.333 -82.5 34s-34.5 50.334 -34.5 83.001
c0 31.333 11.5 58.5 34.5 81.5s50.5 34.5 82.5 34.5z" />
    <glyph glyph-name="uni1EA1" unicode="&#x1ea1;" horiz-adv-x="1073" 
d="M403 -19c-87.333 0 -159.167 22.5029 -215.5 67.5029s-84.5 112.167 -84.5 201.5c0 49.333 9 92.166 27 128.499s44.667 66.166 80 89.499s73.833 41.833 115.5 55.5s91.5 25.5 149.5 35.5l159 26c58 10.667 87 41 87 91c0 66.667 -20.5 115.5 -61.5 146.5
s-92.833 46.5 -155.5 46.5c-61.333 0 -112.666 -15 -153.999 -45s-65.666 -76 -72.999 -138l-156 33c14.667 93.333 55.667 163.5 123 210.5s156.666 70.5 267.999 70.5c52 0 99.5 -5.83301 142.5 -17.5s82.667 -30 119 -55s64.666 -60.333 84.999 -106
s30.5 -99.5 30.5 -161.5v-406c0 -50.667 7.5 -84.834 22.5 -102.501s40.833 -26.5 77.5 -26.5h16v-125h-86c-106 -0 -168 44.333 -186 133h-8c-74.667 -101.333 -182 -152 -322 -152zM442.999 121.003c87.333 0 157.666 31.667 210.999 95s80 150 80 260l-260 -50
c-68.667 -11.333 -119.5 -29.5 -152.5 -54.5s-49.5 -60.833 -49.5 -107.5c0 -48.667 15.833 -84.667 47.5 -108s72.834 -35 123.501 -35zM537.999 -511.997c-32 0 -59.5 11.333 -82.5 34s-34.5 50.334 -34.5 83.001c0 31.333 11.5 58.5 34.5 81.5s50.5 34.5 82.5 34.5
c31.333 0 58.5 -11.5 81.5 -34.5s34.5 -50.167 34.5 -81.5c0 -32.667 -11.333 -60.334 -34 -83.001s-50 -34 -82 -34z" />
    <glyph glyph-name="uni1EA2" unicode="&#x1ea2;" horiz-adv-x="1372" 
d="M674 1850c-29.333 0 -58.001 -10.335 -86.001 -31.002l-51 69c40 32.667 86 49 138 49c54.667 0 99.167 -15.667 133.5 -47s51.5 -71.666 51.5 -120.999c0 -77.333 -43.333 -129.666 -130 -156.999v-76h-88v119c79.333 16 119 52.667 119 110
c0 24.667 -7.66699 45 -23 61s-36.666 24 -63.999 24zM1125 -0.00195312l-121 337h-637l-120 -337h-187l519 1408h214l519 -1408h-187zM423.999 494.998h524l-262 733z" />
    <glyph glyph-name="uni1EA3" unicode="&#x1ea3;" horiz-adv-x="1073" 
d="M497 1079l-0.000976562 118.999c79.333 17.333 119 54 119 110c0 24.667 -7.66699 45.167 -23 61.5s-36.666 24.5 -63.999 24.5c-30 0 -58.667 -10.667 -86 -32l-51 70c39.333 32 85.333 48 138 48c54.667 0 99.167 -15.667 133.5 -47s51.5 -71.666 51.5 -120.999
c0 -78 -43.333 -130 -130 -156v-77h-88zM402.999 -19.001c-87.333 0 -159.167 22.5029 -215.5 67.5029s-84.5 112.167 -84.5 201.5c0 49.333 9 92.166 27 128.499s44.667 66.166 80 89.499s73.833 41.833 115.5 55.5s91.5 25.5 149.5 35.5l159 26c58 10.667 87 41 87 91
c0 66.667 -20.5 115.5 -61.5 146.5s-92.833 46.5 -155.5 46.5c-61.333 0 -112.666 -15 -153.999 -45s-65.666 -76 -72.999 -138l-156 33c14.667 93.333 55.667 163.5 123 210.5s156.666 70.5 267.999 70.5c52 0 99.5 -5.83301 142.5 -17.5s82.667 -30 119 -55
s64.666 -60.333 84.999 -106s30.5 -99.5 30.5 -161.5v-406c0 -50.667 7.5 -84.834 22.5 -102.501s40.833 -26.5 77.5 -26.5h16v-125h-86c-106 0 -168 44.333 -186 133h-8c-74.667 -101.333 -182 -152 -322 -152zM442.998 121.002c87.333 0 157.666 31.667 210.999 95
s80 150 80 260l-260 -50c-68.667 -11.333 -119.5 -29.5 -152.5 -54.5s-49.5 -60.833 -49.5 -107.5c0 -48.667 15.833 -84.667 47.5 -108s72.834 -35 123.501 -35z" />
    <glyph glyph-name="uni1EA4" unicode="&#x1ea4;" horiz-adv-x="1372" 
d="M960 2207l-224 -259h-119l251 326zM683 1766l-156 -212h-118l211 295h128l211 -295h-119zM1125 0l-121 337h-637l-120 -337h-187l519 1408h214l519 -1408h-187zM424 495h524l-262 733z" />
    <glyph glyph-name="uni1EA5" unicode="&#x1ea5;" horiz-adv-x="1073" 
d="M472 1630l251 326l92 -67l-224 -259h-119zM382 1165h-118l211 295h128l211 -295h-119l-157 212zM403 -19c-87.333 0 -159.167 22.5029 -215.5 67.5029s-84.5 112.167 -84.5 201.5c0 49.333 9 92.166 27 128.499s44.667 66.166 80 89.499s73.833 41.833 115.5 55.5
s91.5 25.5 149.5 35.5l159 26c58 10.667 87 41 87 91c0 66.667 -20.5 115.5 -61.5 146.5s-92.833 46.5 -155.5 46.5c-61.333 0 -112.666 -15 -153.999 -45s-65.666 -76 -72.999 -138l-156 33c14.667 93.333 55.667 163.5 123 210.5s156.666 70.5 267.999 70.5
c52 0 99.5 -5.83301 142.5 -17.5s82.667 -30 119 -55s64.666 -60.333 84.999 -106s30.5 -99.5 30.5 -161.5v-406c0 -50.667 7.5 -84.834 22.5 -102.501s40.833 -26.5 77.5 -26.5h16v-125h-86c-106 -0 -168 44.333 -186 133h-8c-74.667 -101.333 -182 -152 -322 -152z
M442.999 121.003c87.333 0 157.666 31.667 210.999 95s80 150 80 260l-260 -50c-68.667 -11.333 -119.5 -29.5 -152.5 -54.5s-49.5 -60.833 -49.5 -107.5c0 -48.667 15.833 -84.667 47.5 -108s72.834 -35 123.501 -35z" />
    <glyph glyph-name="uni1EA6" unicode="&#x1ea6;" horiz-adv-x="1372" 
d="M744 1948h-119l-225 259l92 67zM409 1554l211 295h128l211 -295h-119l-157 212l-156 -212h-118zM1125 0l-121 337h-637l-120 -337h-187l519 1408h214l519 -1408h-187zM424 495h524l-262 733z" />
    <glyph glyph-name="uni1EA7" unicode="&#x1ea7;" horiz-adv-x="1073" 
d="M480 1630l-225 259l92 67l252 -326h-119zM382 1165h-118l211 295h128l211 -295h-119l-157 212zM403 -19c-87.333 0 -159.167 22.5029 -215.5 67.5029s-84.5 112.167 -84.5 201.5c0 49.333 9 92.166 27 128.499s44.667 66.166 80 89.499s73.833 41.833 115.5 55.5
s91.5 25.5 149.5 35.5l159 26c58 10.667 87 41 87 91c0 66.667 -20.5 115.5 -61.5 146.5s-92.833 46.5 -155.5 46.5c-61.333 0 -112.666 -15 -153.999 -45s-65.666 -76 -72.999 -138l-156 33c14.667 93.333 55.667 163.5 123 210.5s156.666 70.5 267.999 70.5
c52 0 99.5 -5.83301 142.5 -17.5s82.667 -30 119 -55s64.666 -60.333 84.999 -106s30.5 -99.5 30.5 -161.5v-406c0 -50.667 7.5 -84.834 22.5 -102.501s40.833 -26.5 77.5 -26.5h16v-125h-86c-106 -0 -168 44.333 -186 133h-8c-74.667 -101.333 -182 -152 -322 -152z
M442.999 121.003c87.333 0 157.666 31.667 210.999 95s80 150 80 260l-260 -50c-68.667 -11.333 -119.5 -29.5 -152.5 -54.5s-49.5 -60.833 -49.5 -107.5c0 -48.667 15.833 -84.667 47.5 -108s72.834 -35 123.501 -35z" />
    <glyph glyph-name="uni1EA8" unicode="&#x1ea8;" horiz-adv-x="1372" 
d="M672 2244c-29.333 0 -58.001 -10.335 -86.001 -31.002l-51 69c40 32.667 86 49 138 49c54.667 0 99.167 -15.667 133.5 -47s51.5 -71.666 51.5 -120.999c0 -77.333 -43.333 -129.666 -130 -156.999v-76h-88v119c79.333 16 119 52.667 119 110
c0 24.667 -7.66699 45 -23 61s-36.666 24 -63.999 24zM682.999 1766l-156 -212h-118l211 295h128l211 -295h-119zM1125 -0.00195312l-121 337h-637l-120 -337h-187l519 1408h214l519 -1408h-187zM423.999 494.998h524l-262 733z" />
    <glyph glyph-name="uni1EA9" unicode="&#x1ea9;" horiz-adv-x="1073" 
d="M495 1556l-0.000976562 118.999c79.333 17.333 119 54 119 110c0 24.667 -7.66699 45.167 -23 61.5s-36.666 24.5 -63.999 24.5c-30 0 -58.667 -10.667 -86 -32l-51 70c39.333 32 85.333 48 138 48c54.667 0 99.167 -15.667 133.5 -47s51.5 -71.666 51.5 -120.999
c0 -78 -43.333 -130 -130 -156v-77h-88zM381.999 1165h-118l211 295h128l211 -295h-119l-157 212zM402.999 -19.001c-87.333 0 -159.167 22.5029 -215.5 67.5029s-84.5 112.167 -84.5 201.5c0 49.333 9 92.166 27 128.499s44.667 66.166 80 89.499s73.833 41.833 115.5 55.5
s91.5 25.5 149.5 35.5l159 26c58 10.667 87 41 87 91c0 66.667 -20.5 115.5 -61.5 146.5s-92.833 46.5 -155.5 46.5c-61.333 0 -112.666 -15 -153.999 -45s-65.666 -76 -72.999 -138l-156 33c14.667 93.333 55.667 163.5 123 210.5s156.666 70.5 267.999 70.5
c52 0 99.5 -5.83301 142.5 -17.5s82.667 -30 119 -55s64.666 -60.333 84.999 -106s30.5 -99.5 30.5 -161.5v-406c0 -50.667 7.5 -84.834 22.5 -102.501s40.833 -26.5 77.5 -26.5h16v-125h-86c-106 0 -168 44.333 -186 133h-8c-74.667 -101.333 -182 -152 -322 -152z
M442.998 121.002c87.333 0 157.666 31.667 210.999 95s80 150 80 260l-260 -50c-68.667 -11.333 -119.5 -29.5 -152.5 -54.5s-49.5 -60.833 -49.5 -107.5c0 -48.667 15.833 -84.667 47.5 -108s72.834 -35 123.501 -35z" />
    <glyph glyph-name="uni1EAA" unicode="&#x1eaa;" horiz-adv-x="1372" 
d="M552 2111c-34 0 -60.665 -14.1641 -79.998 -42.4971s-29 -65.5 -29 -111.5h-94c0 71.333 18.167 129.666 54.5 174.999s85.5 68 147.5 68c38.667 0 70.667 -8.33301 96 -25s48.666 -39.334 69.999 -68.001c24 -31.333 42.667 -51 56 -59c16 -10.667 33.333 -16 52 -16
c34 0 60.167 13.5 78.5 40.5s27.5 63.833 27.5 110.5h97c0 -70.667 -18.167 -128.5 -54.5 -173.5s-85.833 -67.5 -148.5 -67.5c-40.667 0 -73.834 8.66699 -99.501 26s-49.167 40.666 -70.5 69.999c-11.333 16 -20.5 28.167 -27.5 36.5s-17.333 16.5 -31 24.5
s-28.5 12 -44.5 12zM620.002 1849h128l211 -295h-119l-157 212l-156 -212h-118zM1125 0.00292969l-121 337h-637l-120 -337h-187l519 1408h214l519 -1408h-187zM424.002 495.003h524l-262 733z" />
    <glyph glyph-name="uni1EAB" unicode="&#x1eab;" horiz-adv-x="1073" 
d="M667 1621c-68.667 0 -123.331 32.332 -163.998 96.999c-22.667 34 -49.334 51 -80.001 51c-27.333 0 -48.833 -12.333 -64.5 -37s-23.5 -57 -23.5 -97h-96c0 67.333 16.333 122.333 49 165s76.667 64 132 64c68.667 0 122.667 -32.667 162 -98
c20 -32.667 47.333 -49 82 -49c27.333 0 48.666 11.833 63.999 35.5s23 55.834 23 96.501h97c0 -66 -16.333 -120.5 -49 -163.5s-76.667 -64.5 -132 -64.5zM382.003 1165h-118l211 295h128l211 -295h-119l-157 212zM403.003 -19.001
c-87.333 0 -159.167 22.5029 -215.5 67.5029s-84.5 112.167 -84.5 201.5c0 49.333 9 92.166 27 128.499s44.667 66.166 80 89.499s73.833 41.833 115.5 55.5s91.5 25.5 149.5 35.5l159 26c58 10.667 87 41 87 91c0 66.667 -20.5 115.5 -61.5 146.5s-92.833 46.5 -155.5 46.5
c-61.333 0 -112.666 -15 -153.999 -45s-65.666 -76 -72.999 -138l-156 33c14.667 93.333 55.667 163.5 123 210.5s156.666 70.5 267.999 70.5c52 0 99.5 -5.83301 142.5 -17.5s82.667 -30 119 -55s64.666 -60.333 84.999 -106s30.5 -99.5 30.5 -161.5v-406
c0 -50.667 7.5 -84.834 22.5 -102.501s40.833 -26.5 77.5 -26.5h16v-125h-86c-106 0 -168 44.333 -186 133h-8c-74.667 -101.333 -182 -152 -322 -152zM443.002 121.002c87.333 0 157.666 31.667 210.999 95s80 150 80 260l-260 -50
c-68.667 -11.333 -119.5 -29.5 -152.5 -54.5s-49.5 -60.833 -49.5 -107.5c0 -48.667 15.833 -84.667 47.5 -108s72.834 -35 123.501 -35z" />
    <glyph glyph-name="uni1EAC" unicode="&#x1eac;" horiz-adv-x="1372" 
d="M683 1766l-156 -212h-118l211 295h128l211 -295h-119zM1312 0h-187l-121 337h-637l-120 -337h-187l519 1408h214zM424 495h524l-262 733zM685 -279c31.333 0 58.5 -11.5 81.5 -34.5s34.5 -50.167 34.5 -81.5c0 -32.667 -11.333 -60.334 -34 -83.001s-50 -34 -82 -34
s-59.5 11.333 -82.5 34s-34.5 50.334 -34.5 83.001c0 31.333 11.5 58.5 34.5 81.5s50.5 34.5 82.5 34.5z" />
    <glyph glyph-name="uni1EAD" unicode="&#x1ead;" horiz-adv-x="1073" 
d="M382 1165h-118l211 295h128l211 -295h-119l-157 212zM403 -19c-87.333 0 -159.167 22.5029 -215.5 67.5029s-84.5 112.167 -84.5 201.5c0 49.333 9 92.166 27 128.499s44.667 66.166 80 89.499s73.833 41.833 115.5 55.5s91.5 25.5 149.5 35.5l159 26
c58 10.667 87 41 87 91c0 66.667 -20.5 115.5 -61.5 146.5s-92.833 46.5 -155.5 46.5c-61.333 0 -112.666 -15 -153.999 -45s-65.666 -76 -72.999 -138l-156 33c14.667 93.333 55.667 163.5 123 210.5s156.666 70.5 267.999 70.5c52 0 99.5 -5.83301 142.5 -17.5
s82.667 -30 119 -55s64.666 -60.333 84.999 -106s30.5 -99.5 30.5 -161.5v-406c0 -50.667 7.5 -84.834 22.5 -102.501s40.833 -26.5 77.5 -26.5h16v-125h-86c-106 -0 -168 44.333 -186 133h-8c-74.667 -101.333 -182 -152 -322 -152zM442.999 121.003
c87.333 0 157.666 31.667 210.999 95s80 150 80 260l-260 -50c-68.667 -11.333 -119.5 -29.5 -152.5 -54.5s-49.5 -60.833 -49.5 -107.5c0 -48.667 15.833 -84.667 47.5 -108s72.834 -35 123.501 -35zM537.999 -511.997c-32 0 -59.5 11.333 -82.5 34
s-34.5 50.334 -34.5 83.001c0 31.333 11.5 58.5 34.5 81.5s50.5 34.5 82.5 34.5c31.333 0 58.5 -11.5 81.5 -34.5s34.5 -50.167 34.5 -81.5c0 -32.667 -11.333 -60.334 -34 -83.001s-50 -34 -82 -34z" />
    <glyph glyph-name="uni1EAE" unicode="&#x1eae;" horiz-adv-x="1372" 
d="M963 2155l-224 -259h-119l251 326zM683 1554c-103.333 0 -185.501 22.3311 -246.501 66.998s-91.5 112.334 -91.5 203.001h107c0 -60.667 20.833 -105.834 62.5 -135.501s97.834 -44.5 168.501 -44.5c72 0 129 14.833 171 44.5s63 74.834 63 135.501h107
c0 -91.333 -30.667 -159.166 -92 -203.499s-144.333 -66.5 -249 -66.5zM1125 -0.00195312l-121 337h-637l-120 -337h-187l519 1408h214l519 -1408h-187zM423.999 494.998h524l-262 733z" />
    <glyph glyph-name="uni1EAF" unicode="&#x1eaf;" horiz-adv-x="1073" 
d="M474 1630l251 326l92 -67l-224 -259h-119zM538 1143c-99.333 0 -180.501 28.667 -243.501 86s-94.5 134.333 -94.5 231h113c0 -66 20.833 -120.167 62.5 -162.5s95.834 -63.5 162.501 -63.5c68 0 123 21 165 63s63 96.333 63 163h113
c0 -96.667 -31.667 -173.667 -95 -231s-145.333 -86 -246 -86zM402.999 -19c-87.333 0 -159.167 22.5029 -215.5 67.5029s-84.5 112.167 -84.5 201.5c0 49.333 9 92.166 27 128.499s44.667 66.166 80 89.499s73.833 41.833 115.5 55.5s91.5 25.5 149.5 35.5l159 26
c58 10.667 87 41 87 91c0 66.667 -20.5 115.5 -61.5 146.5s-92.833 46.5 -155.5 46.5c-61.333 0 -112.666 -15 -153.999 -45s-65.666 -76 -72.999 -138l-156 33c14.667 93.333 55.667 163.5 123 210.5s156.666 70.5 267.999 70.5c52 0 99.5 -5.83301 142.5 -17.5
s82.667 -30 119 -55s64.666 -60.333 84.999 -106s30.5 -99.5 30.5 -161.5v-406c0 -50.667 7.5 -84.834 22.5 -102.501s40.833 -26.5 77.5 -26.5h16v-125h-86c-106 -0 -168 44.333 -186 133h-8c-74.667 -101.333 -182 -152 -322 -152zM442.998 121.003
c87.333 0 157.666 31.667 210.999 95s80 150 80 260l-260 -50c-68.667 -11.333 -119.5 -29.5 -152.5 -54.5s-49.5 -60.833 -49.5 -107.5c0 -48.667 15.833 -84.667 47.5 -108s72.834 -35 123.501 -35z" />
    <glyph glyph-name="uni1EB0" unicode="&#x1eb0;" horiz-adv-x="1372" 
d="M747 1896h-119l-225 259l92 67zM683 1554c-103.333 0 -185.501 22.3311 -246.501 66.998s-91.5 112.334 -91.5 203.001h107c0 -60.667 20.833 -105.834 62.5 -135.501s97.834 -44.5 168.501 -44.5c72 0 129 14.833 171 44.5s63 74.834 63 135.501h107
c0 -91.333 -30.667 -159.166 -92 -203.499s-144.333 -66.5 -249 -66.5zM1125 -0.00195312l-121 337h-637l-120 -337h-187l519 1408h214l519 -1408h-187zM423.999 494.998h524l-262 733z" />
    <glyph glyph-name="uni1EB1" unicode="&#x1eb1;" horiz-adv-x="1073" 
d="M482 1630l-225 259l92 67l252 -326h-119zM538 1143c-99.333 0 -180.501 28.667 -243.501 86s-94.5 134.333 -94.5 231h113c0 -66 20.833 -120.167 62.5 -162.5s95.834 -63.5 162.501 -63.5c68 0 123 21 165 63s63 96.333 63 163h113c0 -96.667 -31.667 -173.667 -95 -231
s-145.333 -86 -246 -86zM402.999 -19c-87.333 0 -159.167 22.5029 -215.5 67.5029s-84.5 112.167 -84.5 201.5c0 49.333 9 92.166 27 128.499s44.667 66.166 80 89.499s73.833 41.833 115.5 55.5s91.5 25.5 149.5 35.5l159 26c58 10.667 87 41 87 91
c0 66.667 -20.5 115.5 -61.5 146.5s-92.833 46.5 -155.5 46.5c-61.333 0 -112.666 -15 -153.999 -45s-65.666 -76 -72.999 -138l-156 33c14.667 93.333 55.667 163.5 123 210.5s156.666 70.5 267.999 70.5c52 0 99.5 -5.83301 142.5 -17.5s82.667 -30 119 -55
s64.666 -60.333 84.999 -106s30.5 -99.5 30.5 -161.5v-406c0 -50.667 7.5 -84.834 22.5 -102.501s40.833 -26.5 77.5 -26.5h16v-125h-86c-106 -0 -168 44.333 -186 133h-8c-74.667 -101.333 -182 -152 -322 -152zM442.998 121.003c87.333 0 157.666 31.667 210.999 95
s80 150 80 260l-260 -50c-68.667 -11.333 -119.5 -29.5 -152.5 -54.5s-49.5 -60.833 -49.5 -107.5c0 -48.667 15.833 -84.667 47.5 -108s72.834 -35 123.501 -35z" />
    <glyph glyph-name="uni1EB2" unicode="&#x1eb2;" horiz-adv-x="1372" 
d="M675 2192c-29.333 0 -58.001 -10.335 -86.001 -31.002l-51 69c40 32.667 86 49 138 49c54.667 0 99.167 -15.667 133.5 -47s51.5 -71.666 51.5 -120.999c0 -77.333 -43.333 -129.666 -130 -156.999v-76h-88v119c79.333 16 119 52.667 119 110
c0 24.667 -7.66699 45 -23 61s-36.666 24 -63.999 24zM682.999 1554c-103.333 0 -185.501 22.3311 -246.501 66.998s-91.5 112.334 -91.5 203.001h107c0 -60.667 20.833 -105.834 62.5 -135.501s97.834 -44.5 168.501 -44.5c72 0 129 14.833 171 44.5s63 74.834 63 135.501
h107c0 -91.333 -30.667 -159.166 -92 -203.499s-144.333 -66.5 -249 -66.5zM1125 -0.00390625l-121 337h-637l-120 -337h-187l519 1408h214l519 -1408h-187zM423.998 494.996h524l-262 733z" />
    <glyph glyph-name="uni1EB3" unicode="&#x1eb3;" horiz-adv-x="1073" 
d="M497 1556l-0.000976562 118.999c79.333 17.333 119 54 119 110c0 24.667 -7.66699 45.167 -23 61.5s-36.666 24.5 -63.999 24.5c-30 0 -58.667 -10.667 -86 -32l-51 70c39.333 32 85.333 48 138 48c54.667 0 99.167 -15.667 133.5 -47s51.5 -71.666 51.5 -120.999
c0 -78 -43.333 -130 -130 -156v-77h-88zM537.999 1143c-99.333 0 -180.501 28.667 -243.501 86s-94.5 134.333 -94.5 231h113c0 -66 20.833 -120.167 62.5 -162.5s95.834 -63.5 162.501 -63.5c68 0 123 21 165 63s63 96.333 63 163h113c0 -96.667 -31.667 -173.667 -95 -231
s-145.333 -86 -246 -86zM402.998 -19.001c-87.333 0 -159.167 22.5029 -215.5 67.5029s-84.5 112.167 -84.5 201.5c0 49.333 9 92.166 27 128.499s44.667 66.166 80 89.499s73.833 41.833 115.5 55.5s91.5 25.5 149.5 35.5l159 26c58 10.667 87 41 87 91
c0 66.667 -20.5 115.5 -61.5 146.5s-92.833 46.5 -155.5 46.5c-61.333 0 -112.666 -15 -153.999 -45s-65.666 -76 -72.999 -138l-156 33c14.667 93.333 55.667 163.5 123 210.5s156.666 70.5 267.999 70.5c52 0 99.5 -5.83301 142.5 -17.5s82.667 -30 119 -55
s64.666 -60.333 84.999 -106s30.5 -99.5 30.5 -161.5v-406c0 -50.667 7.5 -84.834 22.5 -102.501s40.833 -26.5 77.5 -26.5h16v-125h-86c-106 0 -168 44.333 -186 133h-8c-74.667 -101.333 -182 -152 -322 -152zM442.997 121.002c87.333 0 157.666 31.667 210.999 95
s80 150 80 260l-260 -50c-68.667 -11.333 -119.5 -29.5 -152.5 -54.5s-49.5 -60.833 -49.5 -107.5c0 -48.667 15.833 -84.667 47.5 -108s72.834 -35 123.501 -35z" />
    <glyph glyph-name="uni1EB4" unicode="&#x1eb4;" horiz-adv-x="1372" 
d="M555 2059c-34 0 -60.665 -14.1641 -79.998 -42.4971s-29 -65.5 -29 -111.5h-94c0 71.333 18.167 129.666 54.5 174.999s85.5 68 147.5 68c38.667 0 70.667 -8.33301 96 -25s48.666 -39.334 69.999 -68.001c24 -31.333 42.667 -51 56 -59c16 -10.667 33.333 -16 52 -16
c34 0 60.167 13.5 78.5 40.5s27.5 63.833 27.5 110.5h97c0 -70.667 -18.167 -128.5 -54.5 -173.5s-85.833 -67.5 -148.5 -67.5c-40.667 0 -73.834 8.66699 -99.501 26s-49.167 40.666 -70.5 69.999c-11.333 16 -20.5 28.167 -27.5 36.5s-17.333 16.5 -31 24.5
s-28.5 12 -44.5 12zM683.002 1554c-103.333 0 -185.501 22.3311 -246.501 66.998s-91.5 112.334 -91.5 203.001h107c0 -60.667 20.833 -105.834 62.5 -135.501s97.834 -44.5 168.501 -44.5c72 0 129 14.833 171 44.5s63 74.834 63 135.501h107
c0 -91.333 -30.667 -159.166 -92 -203.499s-144.333 -66.5 -249 -66.5zM1125 0.000976562l-121 337h-637l-120 -337h-187l519 1408h214l519 -1408h-187zM424.001 495.001h524l-262 733z" />
    </font>
</defs>
</svg>
