<?xml version="1.0" standalone="no"?>
<!DOCTYPE svg PUBLIC "-//W3C//DTD SVG 1.1//EN" "http://www.w3.org/Graphics/SVG/1.1/DTD/svg11.dtd" >
<svg>
<metadata>
Created by FontForge 20090914 at Mon Aug 31 16:29:33 2020
 By www-data
Copyright &#194;&#169;2016. Cerebri Sans is a trademark of Alfredo Marco Pradil. All rights reserved.
</metadata>
<defs>
<font id="CerebriSans-Bold" horiz-adv-x="0" >
  <font-face 
    font-family="Cerebri Sans"
    font-weight="700"
    font-stretch="normal"
    units-per-em="2048"
    panose-1="0 0 8 0 0 0 0 0 0 0"
    ascent="1536"
    descent="-512"
    x-height="1028"
    cap-height="1445"
    bbox="-1662 -574.003 2840 2369"
    underline-thickness="102"
    underline-position="-286"
    unicode-range="U+0020-U+FB02"
  />
<missing-glyph horiz-adv-x="1248" 
d="M160 0v1536h928v-1536h-928zM379 219h490v1098h-490v-1098z" />
    <glyph glyph-name="fi" unicode="fi" horiz-adv-x="1331" 
d="M221 1139c0 48.667 4.33398 92.333 13.001 131s20.334 71.834 35.001 99.501s34.167 51.5 58.5 71.5s49.666 36 75.999 48s57.833 21.667 94.5 29s72.834 12.166 108.501 14.499s76.5 3.5 122.5 3.5v-230h-6c-18.667 0 -32.834 -0.166992 -42.501 -0.5
s-23.334 -1.5 -41.001 -3.5s-31.5 -5 -41.5 -9s-21.5 -10.167 -34.5 -18.5s-23 -18.333 -30 -30s-13 -26.5 -18 -44.5s-7.5 -38.667 -7.5 -62v-110h221v-221h-221v-807h-287v807h-201v221h201v111zM1039 1182c-46 0 -85.333 16.167 -118 48.5s-49 71.5 -49 117.5
c0 45.333 16.5 84.166 49.5 116.499s72.167 48.5 117.5 48.5c44.667 0 83.334 -16.167 116.001 -48.5s49 -71.166 49 -116.499c0 -46 -16.333 -85.167 -49 -117.5s-71.334 -48.5 -116.001 -48.5zM892.001 -0.000976562v1028h290v-1028h-290z" />
    <glyph glyph-name="fl" unicode="fl" horiz-adv-x="1332" 
d="M221 1139c0 48.667 4.33398 92.333 13.001 131s20.334 71.834 35.001 99.501s34.167 51.5 58.5 71.5s49.666 36 75.999 48s57.833 21.667 94.5 29s72.834 12.166 108.501 14.499s76.5 3.5 122.5 3.5v-230h-6c-18.667 0 -32.834 -0.166992 -42.501 -0.5
s-23.334 -1.5 -41.001 -3.5s-31.5 -5 -41.5 -9s-21.5 -10.167 -34.5 -18.5s-23 -18.333 -30 -30s-13 -26.5 -18 -44.5s-7.5 -38.667 -7.5 -62v-110h221v-221h-221v-807h-287v807h-201v221h201v111zM892.001 1536h291v-1536h-291v1536z" />
    <glyph glyph-name="f_f" unicode="ff" horiz-adv-x="1439" 
d="M221 0l0.00195312 806.998h-201v221h201v111c0 48.667 4.33301 92.334 13 131.001s20.334 71.834 35.001 99.501s34.167 51.5 58.5 71.5s49.666 36 75.999 48s57.833 21.667 94.5 29s72.834 12.166 108.501 14.499s76.5 3.5 122.5 3.5v-230h-6
c-18.667 0 -32.834 -0.166992 -42.501 -0.5s-23.334 -1.5 -41.001 -3.5s-31.5 -5 -41.5 -9s-21.5 -10.167 -34.5 -18.5s-23 -18.333 -30 -30s-13 -26.5 -18 -44.5s-7.5 -38.667 -7.5 -62v-110h408v111c0 48.667 4.33301 92.334 13 131.001s20.334 71.834 35.001 99.501
s34.167 51.5 58.5 71.5s49.666 36 75.999 48s57.833 21.667 94.5 29s72.834 12.166 108.501 14.499s76.5 3.5 122.5 3.5v-230h-6c-18.667 0 -32.834 -0.166992 -42.501 -0.5s-23.334 -1.5 -41.001 -3.5s-31.5 -5 -41.5 -9s-21.333 -10.167 -34 -18.5
s-22.5 -18.333 -29.5 -30s-13 -26.5 -18 -44.5s-7.5 -38.667 -7.5 -62v-110h220v-221h-220v-807h-288v807h-408v-807h-287z" />
    <glyph glyph-name=".notdef" horiz-adv-x="1248" 
d="M160 0v1536h928v-1536h-928zM379 219h490v1098h-490v-1098z" />
    <glyph glyph-name="space" unicode=" " horiz-adv-x="532" 
 />
    <glyph glyph-name="exclam" unicode="!" horiz-adv-x="669" 
d="M217 461l-29 984h290l-29 -984h-232zM333 -20c-44.667 0 -83.167 16 -115.5 48s-48.5 70.667 -48.5 116c0 46 16 85.167 48 117.5s70.667 48.5 116 48.5c46 0 85.167 -16.167 117.5 -48.5s48.5 -71.5 48.5 -117.5c0 -45.333 -16.167 -84 -48.5 -116s-71.5 -48 -117.5 -48
z" />
    <glyph glyph-name="quotedbl" unicode="&#x22;" horiz-adv-x="1071" 
d="M226 793l-38 652h274l-29 -652h-207zM638 793l-29 652h272l-37 -652h-206z" />
    <glyph glyph-name="numbersign" unicode="#" horiz-adv-x="1567" 
d="M312 0l46 327h-280l27 202h281l57 384h-284l35 200h275l49 334h200l-45 -334h333l47 334h202l-47 -334h282l-32 -200h-278l-54 -384h279l-28 -202h-278l-50 -327h-200l47 327h-338l-45 -327h-201zM589 529h334l55 384h-337z" />
    <glyph glyph-name="dollar" unicode="$" horiz-adv-x="1371" 
d="M1246 415c0 -70 -13.002 -132.337 -39.002 -187.004s-62 -99.167 -108 -133.5s-98 -60.833 -156 -79.5s-121 -30 -189 -34v-141h-111v141c-142 8.66699 -261.333 49.5 -358 122.5s-155 171.167 -175 294.5l310 72c8 -67.333 31.833 -121.333 71.5 -162
s90.167 -66.667 151.5 -78v389c-5.33301 2 -13 4.5 -23 7.5l-22 6.5c-36.667 11.333 -67.167 21.166 -91.5 29.499s-53.333 19.5 -87 33.5s-61.5 28 -83.5 42s-45.167 31.333 -69.5 52s-43.5 42.834 -57.5 66.501s-25.667 51.334 -35 83.001s-14 65.834 -14 102.501
c0 127.333 44.833 228.166 134.5 302.499s205.834 114.166 348.501 119.499v129h111v-133c78.667 -7.33301 150 -24.5 214 -51.5s120.667 -68.167 170 -123.5s82.333 -122.333 99 -201l-289 -72c-21.333 114.667 -86 181.667 -194 201v-355
c1.33301 -0.666992 3.83301 -1.5 7.5 -2.5s6.5 -1.83301 8.5 -2.5c38.667 -11.333 70.5 -21.166 95.5 -29.499s55.833 -20.166 92.5 -35.499s67 -30.166 91 -44.499s49.667 -32.833 77 -55.5s48.833 -46.667 64.5 -72s28.834 -55.166 39.501 -89.499s16 -71.5 16 -111.5z
M462.998 1049c0 -37.333 15.332 -67.832 45.999 -91.499s75.334 -45.5 134.001 -65.5v325c-54 -6.66699 -97.5 -23.834 -130.5 -51.501s-49.5 -66.5 -49.5 -116.5zM753.997 225.997c56 6 100.5 23.333 133.5 52s49.167 69 48.5 121c-0.666992 44 -16.5 80 -47.5 108
s-75.833 53 -134.5 75v-356z" />
    <glyph glyph-name="percent" unicode="%" horiz-adv-x="1705" 
d="M423 791c-93.333 0 -172.668 32.833 -238.001 98.5s-98 145.5 -98 239.5c0 92.667 32.833 172 98.5 238s144.834 99 237.501 99c93.333 0 172.833 -33 238.5 -99s98.5 -145.333 98.5 -238c0 -93.333 -32.667 -173 -98 -239s-145 -99 -239 -99zM349.998 -1l756 1447h241
l-757 -1447h-240zM422.998 983c42 0 76.833 14 104.5 42s41.5 62.667 41.5 104c0 40 -14.333 74.167 -43 102.5s-63 42.5 -103 42.5s-74.333 -14 -103 -42s-43 -62.333 -43 -103c0 -41.333 14.167 -76 42.5 -104s62.833 -42 103.5 -42zM1284 -17
c-94.667 0 -174.667 32.833 -240 98.5s-98 145.167 -98 238.5s33 172.833 99 238.5s145.667 98.5 239 98.5c92.667 0 171.667 -32.833 237 -98.5s98 -145.167 98 -238.5c0 -92.667 -32.667 -172 -98 -238s-144.333 -99 -237 -99zM1284 176c40 0 74.333 14 103 42
s43 62 43 102s-14.5 74.333 -43.5 103s-63.167 43 -102.5 43c-41.333 0 -76.166 -14 -104.499 -42s-42.5 -62.667 -42.5 -104c0 -40 14.167 -74 42.5 -102s63.166 -42 104.499 -42z" />
    <glyph glyph-name="ampersand" unicode="&#x26;" horiz-adv-x="1582" 
d="M1484 0l-329.999 -0.000976562l-95 119c-139.333 -92.667 -292 -139 -458 -139c-150 0 -272.333 37.5 -367 112.5s-142 179.167 -142 312.5c0 41.333 5.5 79.5 16.5 114.5s25.5 66.5 43.5 94.5s43.667 56.833 77 86.5s67.166 56.5 101.499 80.5s78.833 53 133.5 87
l-12 15c-47.333 60 -80.833 112.5 -100.5 157.5s-29.5 88.5 -29.5 130.5c0 92.667 37.333 165.667 112 219c68.667 50.667 160 76 274 76c120 0 215.667 -27.667 287 -83s107 -127.666 107 -216.999c0 -63.333 -21.5 -122.333 -64.5 -177s-114.167 -111.667 -213.5 -171
l261 -323c76 116 114 235 114 357h260c0 -101.333 -18.333 -200.5 -55 -297.5s-88 -185.167 -154 -264.5zM626.001 1248c-22 -18.667 -33 -45.6689 -33 -81.002c0 -23.333 5.66699 -46.166 17 -68.499s31 -51.5 59 -87.5l23 -29c103.333 62 155 125 155 189
c0 32.667 -12.333 58.834 -37 78.501s-55.667 29.5 -93 29.5c-38 0 -68.333 -10.333 -91 -31zM613.001 215.997c106.667 0 205 30.999 295 92.999l-304 382l-69.5 -43c-15.667 -10 -35 -23.167 -58 -39.5s-40.167 -30.666 -51.5 -42.999s-23 -26.833 -35 -43.5
s-20.333 -34 -25 -52s-7 -37.333 -7 -58c0 -63.333 23 -111.833 69 -145.5s108 -50.5 186 -50.5z" />
    <glyph glyph-name="quotesingle" unicode="'" horiz-adv-x="655" 
d="M222 793l-29 652h272l-37 -652h-206z" />
    <glyph glyph-name="parenleft" unicode="(" horiz-adv-x="700" 
d="M516 -480c-134 97.333 -239.5 245.667 -316.5 445s-115.5 426 -115.5 680c0 253.333 38.5 479.833 115.5 679.5s182.5 348.167 316.5 445.5l164 -195c-100.667 -69.333 -181.5 -187.833 -242.5 -355.5s-91.5 -359.167 -91.5 -574.5c0 -216 30.5 -407.5 91.5 -574.5
s141.833 -285.167 242.5 -354.5z" />
    <glyph glyph-name="parenright" unicode=")" horiz-adv-x="700" 
d="M184 -480l-164 195.999c100.667 69.333 181.5 187.5 242.5 354.5s91.5 358.5 91.5 574.5c0 215.333 -30.5 406.833 -91.5 574.5s-141.833 286.167 -242.5 355.5l164 195c134 -97.333 239.5 -245.833 316.5 -445.5s115.5 -426.167 115.5 -679.5
c0 -254 -38.5 -480.667 -115.5 -680s-182.5 -347.666 -316.5 -444.999z" />
    <glyph glyph-name="asterisk" unicode="*" horiz-adv-x="1003" 
d="M373 808l-136 82l160 197c15.333 18.667 19.333 34.334 12 47.001s-22.666 17 -45.999 13l-254 -39v158l254 -38c23.333 -4 38.666 0.333008 45.999 13s3.33301 28.334 -12 47.001l-160 199l136 79l94 -239c8 -23.333 19.667 -35 35 -35s27 11.667 35 35l93 239l139 -79
l-163 -199c-15.333 -18.667 -19.333 -34.334 -12 -47.001s23 -17 47 -13l253 38v-158l-253 39c-24 4 -39.667 -0.333008 -47 -13s-3 -28.334 13 -47.001l162 -197l-139 -82l-93 238c-8 23.333 -19.667 35 -35 35s-27 -11.667 -35 -35z" />
    <glyph glyph-name="plus" unicode="+" horiz-adv-x="1195" 
d="M489 205v386h-386v219h386v385h218v-385h385v-219h-385v-386h-218z" />
    <glyph glyph-name="comma" unicode="," horiz-adv-x="672" 
d="M351 -368h-206l125 654h296z" />
    <glyph glyph-name="hyphen" unicode="-" horiz-adv-x="1009" 
d="M146 412v241h717v-241h-717z" />
    <glyph glyph-name="period" unicode="." horiz-adv-x="660" 
d="M329 -20c-44.667 0 -83.167 16.167 -115.5 48.5s-48.5 70.833 -48.5 115.5c0 45.333 16.167 84.333 48.5 117s70.833 49 115.5 49c45.333 0 84.333 -16.333 117 -49s49 -71.667 49 -117c0 -44.667 -16.333 -83.167 -49 -115.5s-71.667 -48.5 -117 -48.5z" />
    <glyph glyph-name="slash" unicode="/" horiz-adv-x="1219" 
d="M-25 -407l997 1943h271l-996 -1943h-272z" />
    <glyph glyph-name="zero" unicode="0" horiz-adv-x="1223" 
d="M613 -20c-168.667 0 -298.167 62.333 -388.5 187s-135.5 310 -135.5 556c0 246.667 45 432 135 556s219.667 186 389 186c168.667 0 298 -62 388 -186s135 -309.333 135 -556c0 -246 -45.167 -431.333 -135.5 -556s-219.5 -187 -387.5 -187zM613 240
c74.667 0 132.5 39.5 173.5 118.5s61.5 200.5 61.5 364.5s-20.667 285.5 -62 364.5s-99 118.5 -173 118.5c-157.333 0 -236 -161 -236 -483s78.667 -483 236 -483z" />
    <glyph glyph-name="one" unicode="1" horiz-adv-x="1223" 
d="M572 1445h274v-1445h-287v1149l-332 -309v296z" />
    <glyph glyph-name="two" unicode="2" horiz-adv-x="1223" 
d="M503 257l615.999 -0.000976562v-257h-1019v217l575 587c83.333 84 125 167 125 249c0 56.667 -17.167 101.334 -51.5 134.001s-82.833 49 -145.5 49c-136.667 0 -205 -77.667 -205 -233v-107l-287 29v72c0 150 44 265.833 132 347.5s207.333 122.5 358 122.5
c142.667 0 258.834 -37 348.501 -111s134.5 -175.667 134.5 -305c0 -72 -15.167 -138 -45.5 -198s-78.5 -124.333 -144.5 -193z" />
    <glyph glyph-name="three" unicode="3" horiz-adv-x="1223" 
d="M609 -20c-180 0 -311.334 43.999 -394.001 131.999s-124 222.667 -124 404l295 13c0 -42 1.5 -77.333 4.5 -106s9 -56 18 -82s21.667 -46.5 38 -61.5s38 -26.833 65 -35.5s59.5 -13 97.5 -13c74 0 130.833 19.333 170.5 58s59.5 89.334 59.5 152.001
c0 68.667 -19 120.834 -57 156.501s-89 53.5 -153 53.5h-56v224h52c48 0 87.833 17 119.5 51s47.5 77 47.5 129s-17.333 92 -52 120s-80.334 42 -137.001 42c-30 0 -56 -4.5 -78 -13.5s-39.5 -20.5 -52.5 -34.5s-23.333 -31.667 -31 -53s-12.667 -42.333 -15 -63
s-3.5 -44 -3.5 -70l-291 14c0 151.333 41.333 267.166 124 347.499s197.334 120.5 344.001 120.5c133.333 0 243.333 -36.833 330 -110.5s130 -165.167 130 -274.5c0 -72 -18.5 -134 -55.5 -186s-79.167 -88.667 -126.5 -110c32.667 -9.33301 63.334 -23 92.001 -41
s55.5 -41 80.5 -69s44.833 -63 59.5 -105s22 -88.667 22 -140c0 -136 -47.667 -244.833 -143 -326.5s-222 -122.5 -380 -122.5z" />
    <glyph glyph-name="four" unicode="4" horiz-adv-x="1223" 
d="M1171 531v-257h-174v-274h-288v274h-665v258l512 913h441v-914h174zM311 531h398v741z" />
    <glyph glyph-name="five" unicode="5" horiz-adv-x="1223" 
d="M583 937c370 0 555.001 -151.998 555.001 -455.998c0 -152.667 -46.667 -274.5 -140 -365.5s-216.333 -136.5 -369 -136.5c-94.667 0 -180.834 17.833 -258.501 53.5s-140.167 88.667 -187.5 159s-71 151.5 -71 243.5c0 23.333 2 47.333 6 72l286 13
c-4.66699 -28 -7 -49.333 -7 -64c0 -70.667 21.667 -123.834 65 -159.501s97 -53.5 161 -53.5c72.667 0 128.667 20.5 168 61.5s59 96.167 59 165.5c0 73.333 -24 129.666 -72 168.999s-128.667 59 -242 59h-379l60 747h853v-257h-594l-19 -251h126z" />
    <glyph glyph-name="six" unicode="6" horiz-adv-x="1223" 
d="M1143 485c0.666992 -72 -13.501 -139.668 -42.501 -203.001s-68 -116.833 -117 -160.5s-106.167 -78 -171.5 -103s-133.666 -37.5 -204.999 -37.5c-73.333 0 -142.833 12.833 -208.5 38.5s-122 60.834 -169 105.501s-84.167 98.167 -111.5 160.5s-41 128.5 -41 198.5
c0 117.333 42.667 235 128 353l450 608h327l-375 -489c19.333 2.66699 41.333 4 66 4c62 0 121.167 -11.333 177.5 -34s106.166 -54.167 149.499 -94.5s77.833 -90.5 103.5 -150.5s38.834 -125.333 39.501 -196zM860.999 491.999
c1.33301 76 -22.0029 138.167 -70.0029 186.5s-111 72.5 -189 72.5c-74.667 0 -135.667 -24.333 -183 -73s-71.666 -109.334 -72.999 -182.001c-1.33301 -76.667 21 -138.5 67 -185.5s108 -70.5 186 -70.5c76.667 0 139.334 23.333 188.001 70
s73.334 107.334 74.001 182.001z" />
    <glyph glyph-name="seven" unicode="7" horiz-adv-x="1223" 
d="M111 1445h1017v-222l-653 -1223h-326l655 1189h-693v256z" />
    <glyph glyph-name="eight" unicode="8" horiz-adv-x="1223" 
d="M614 -20c-152.667 0 -278.5 40.332 -377.5 120.999s-148.5 189 -148.5 325c0 84 20.167 157.833 60.5 221.5s96.166 113.5 167.499 149.5c-50.667 32.667 -90.5 73.667 -119.5 123s-43.5 104 -43.5 164c0 113.333 43 205.166 129 275.499s196.667 105.5 332 105.5
c132.667 0 241.834 -35.167 327.501 -105.5s128.5 -162.166 128.5 -275.499c0 -60 -14 -114.5 -42 -163.5s-66.667 -90.167 -116 -123.5c70.667 -36 126 -85.833 166 -149.5s60 -137.5 60 -221.5c0 -90 -23 -169.167 -69 -237.5s-108.5 -120.166 -187.5 -155.499
s-168.167 -53 -267.5 -53zM614 880.999c53.333 0 99 18.001 137 54.001s57 80 57 132c0 51.333 -19 94.666 -57 129.999s-83.667 53 -137 53c-54.667 0 -100.834 -17.667 -138.501 -53s-56.5 -78.666 -56.5 -129.999c0 -52.667 18.833 -96.834 56.5 -132.501
s83.834 -53.5 138.501 -53.5zM614 238c68 0 124.333 20.333 169 61s67 95.334 67 164.001c0 66.667 -22.5 120.167 -67.5 160.5s-101.167 60.5 -168.5 60.5c-68.667 0 -125.5 -20.167 -170.5 -60.5s-67.5 -93.833 -67.5 -160.5c0 -68.667 22.5 -123.334 67.5 -164.001
s101.833 -61 170.5 -61z" />
    <glyph glyph-name="nine" unicode="9" horiz-adv-x="1223" 
d="M614 1464c98.667 0 188.501 -21.832 269.501 -65.499s144.833 -104 191.5 -181s70 -162.5 70 -256.5c0 -118 -43 -235.333 -129 -352l-450 -609h-328l374 489c-19.333 -2.66699 -41 -4 -65 -4c-82 0 -158.333 19.167 -229 57.5s-128.167 94.166 -172.5 167.499
s-66.5 156.666 -66.5 249.999c-0.666992 144.667 51.666 264.834 156.999 360.501s231.333 143.5 378 143.5zM874.001 950.001c1.33301 76 -20.833 137.5 -66.5 184.5s-107.5 70.5 -185.5 70.5c-76 0 -138.5 -23.5 -187.5 -70.5s-73.833 -107.5 -74.5 -181.5
c-1.33301 -75.333 22 -137.333 70 -186s111 -73 189 -73c75.333 0 136.333 24.333 183 73s70.667 109.667 72 183z" />
    <glyph glyph-name="colon" unicode=":" horiz-adv-x="638" 
d="M317 635c-44.667 0 -83.167 16.333 -115.5 49s-48.5 71.667 -48.5 117c0 44.667 16.167 83.167 48.5 115.5s70.833 48.5 115.5 48.5c45.333 0 84.333 -16.167 117 -48.5s49 -70.833 49 -115.5c0 -45.333 -16.333 -84.333 -49 -117s-71.667 -49 -117 -49zM317 -20
c-44.667 0 -83.167 16.167 -115.5 48.5s-48.5 70.833 -48.5 115.5c0 45.333 16.167 84.333 48.5 117s70.833 49 115.5 49c45.333 0 84.333 -16.333 117 -49s49 -71.667 49 -117c0 -44.667 -16.333 -83.167 -49 -115.5s-71.667 -48.5 -117 -48.5z" />
    <glyph glyph-name="semicolon" unicode=";" horiz-adv-x="666" 
d="M362 635c-45.333 0 -84.168 16.333 -116.501 49s-48.5 71.667 -48.5 117c0 44.667 16.333 83.167 49 115.5s71.334 48.5 116.001 48.5s83.5 -16.167 116.5 -48.5s49.5 -70.833 49.5 -115.5c0 -45.333 -16.5 -84.333 -49.5 -117s-71.833 -49 -116.5 -49zM108.998 -368
l125 654h296l-215 -654h-206z" />
    <glyph glyph-name="less" unicode="&#x3c;" horiz-adv-x="1344" 
d="M1218 1455v-242l-904 -457l904 -457v-246l-1130 572v263z" />
    <glyph glyph-name="equal" unicode="=" horiz-adv-x="1330" 
d="M224 814v219h883v-219h-883zM224 375v219h883v-219h-883z" />
    <glyph glyph-name="greater" unicode="&#x3e;" horiz-adv-x="1344" 
d="M126 1455l1130 -567v-263l-1130 -572v246l904 457l-904 457v242z" />
    <glyph glyph-name="question" unicode="?" horiz-adv-x="1070" 
d="M414 446l-0.00195312 108.002c0 43.333 8.16699 80.666 24.5 111.999s37.5 56.833 63.5 76.5s61.667 40.834 107 63.501c82.667 41.333 124 111.333 124 210c0 68.667 -19 121.167 -57 157.5s-88 54.5 -150 54.5c-62.667 0 -113 -18.833 -151 -56.5
s-57 -87.167 -57 -148.5c0 -24.667 4 -54 12 -88l-258 33c-3.33301 28.667 -5 53.667 -5 75c0 124.667 42 226.334 126 305.001s193.667 118 329 118c136 0 247.667 -40.167 335 -120.5s131 -187.833 131 -322.5c0 -54.667 -7.33301 -104.334 -22 -149.001
s-34.667 -82.167 -60 -112.5s-52.166 -55.333 -80.499 -75s-59.166 -35.834 -92.499 -48.501c-30 -12 -52 -26.833 -66 -44.5s-21 -40.834 -21 -69.501v-78h-232zM533.998 -19.998c-45.333 0 -84.166 16 -116.499 48s-48.5 70.667 -48.5 116c0 46 16.167 84.833 48.5 116.5
s71.166 47.5 116.499 47.5c44.667 0 83 -15.833 115 -47.5s48 -70.5 48 -116.5c0 -45.333 -15.833 -84 -47.5 -116s-70.167 -48 -115.5 -48z" />
    <glyph glyph-name="at" unicode="@" horiz-adv-x="1776" 
d="M891 -219c-106 0 -206.833 20.334 -302.5 61.001s-178.167 95.5 -247.5 164.5s-124.5 151.667 -165.5 248s-61.5 197.833 -61.5 304.5c0 140 33.5 269.167 100.5 387.5s160.333 212.5 280 282.5s252.167 105 397.5 105s277.5 -34.833 396.5 -104.5
s212 -163.834 279 -282.501s100.5 -248.334 100.5 -389.001c0 -70.667 -9 -132.5 -27 -185.5s-42.667 -94.5 -74 -124.5s-65.5 -52.167 -102.5 -66.5s-77.167 -21.5 -120.5 -21.5c-61.333 0 -113.666 8.16699 -156.999 24.5s-80.333 46.833 -111 91.5h-14
c-30 -38.667 -67.5 -67.834 -112.5 -87.501s-92.5 -29.5 -142.5 -29.5c-72 0 -132.833 18.833 -182.5 56.5s-74.5 90.167 -74.5 157.5c0 36.667 7.66699 69 23 97s37 51 65 69s56 32.167 84 42.5s60 19.5 96 27.5l202 47v37c0 75.333 -42 113 -126 113
c-40.667 0 -73.334 -8.66699 -98.001 -26s-41 -47 -49 -89l-189 45c16 66 53 117.333 111 154s133 55 225 55c42.667 0 82.167 -4.5 118.5 -13.5s70.833 -23.5 103.5 -43.5s58.334 -49.167 77.001 -87.5s28 -84.166 28 -137.499v-214c0 -47.333 10.167 -82.333 30.5 -105
s52.5 -34 96.5 -34c49.333 0 87.333 17.667 114 53s40 94.333 40 177c0 118.667 -26.333 225.834 -79 321.501s-125.5 170.5 -218.5 224.5s-196.5 81 -310.5 81c-115.333 0 -220 -27.333 -314 -82s-167.167 -128.167 -219.5 -220.5s-78.5 -193.5 -78.5 -303.5
c0 -84 16.167 -164 48.5 -240s75.666 -141.333 129.999 -196s119.333 -98 195 -130s155.167 -48 238.5 -48c116.667 0 225.667 31.333 327 94l77 -145c-121.333 -76.667 -257 -115 -407 -115zM852 302.001c20 0 39.833 2.66699 59.5 8s39.5 14 59.5 26
s36.167 30.167 48.5 54.5s18.5 53.166 18.5 86.499v61l-158 -40c-48.667 -12.667 -82.5 -27.167 -101.5 -43.5s-28.5 -38.166 -28.5 -65.499c0 -58 34 -87 102 -87z" />
    <glyph glyph-name="A" unicode="A" horiz-adv-x="1491" 
d="M1154 0l-105 298h-607l-105 -298h-307l532 1445h367l532 -1445h-307zM530 549h431l-215 613z" />
    <glyph glyph-name="B" unicode="B" horiz-adv-x="1315" 
d="M963 763c181.333 -50 272 -169.331 272 -357.998c0 -125.333 -38.333 -224.166 -115 -296.499s-189.334 -108.5 -338.001 -108.5h-595v1445h468c154 0 271.833 -34.833 353.5 -104.5s122.5 -166.834 122.5 -291.501c0 -64.667 -14.167 -121.834 -42.5 -171.501
s-70.166 -87.834 -125.499 -114.501zM658 1196h-182v-340h195c61.333 0 107.333 16 138 48s46 74 46 126c0 50 -16.667 90.167 -50 120.5s-82.333 45.5 -147 45.5zM726 257.002c75.333 0 130.5 17 165.5 51s52.5 77.333 52.5 130c0 54 -17.667 98.667 -53 134
s-92.333 53 -171 53h-244v-368h250z" />
    <glyph glyph-name="C" unicode="C" horiz-adv-x="1569" 
d="M827 -20c-105.333 0 -203.501 17.6699 -294.501 53.0029s-169.167 84.666 -234.5 147.999s-116.666 141.666 -153.999 234.999s-56 195.666 -56 306.999c0 148.667 32 279.5 96 392.5s151.833 199.5 263.5 259.5s238.167 90 379.5 90c161.333 0 302.666 -39 423.999 -117
s207.666 -185.333 258.999 -322l-280 -102c-32 83.333 -83.667 148.333 -155 195s-154 70 -248 70c-128 0 -233.333 -42 -316 -126s-124 -197.333 -124 -340s41.5 -256.167 124.5 -340.5s188.167 -126.5 315.5 -126.5c93.333 0 175.833 23.5 247.5 70.5
s123.5 112.167 155.5 195.5l280 -102c-51.333 -136.667 -137.666 -244.167 -258.999 -322.5s-262.666 -117.5 -423.999 -117.5z" />
    <glyph glyph-name="D" unicode="D" horiz-adv-x="1493" 
d="M187 0v1445h523c113.333 0 213.833 -17.333 301.5 -52s159.667 -83.834 216 -147.501s99 -139.5 128 -227.5s43.5 -186.333 43.5 -295c0 -109.333 -14.5 -208 -43.5 -296s-71.667 -163.833 -128 -227.5s-128.333 -112.834 -216 -147.501s-188.167 -52 -301.5 -52h-523z
M487 265.002h208c130.667 0 228 39.167 292 117.5s96 191.833 96 340.5s-32 262.167 -96 340.5s-161.333 117.5 -292 117.5h-208v-916z" />
    <glyph glyph-name="E" unicode="E" horiz-adv-x="1147" 
d="M1025 1181h-536v-328h475v-261h-475v-327h536v-265h-838v1445h838v-264z" />
    <glyph glyph-name="F" unicode="F" horiz-adv-x="1108" 
d="M1039 1181h-550v-328h475v-261h-475v-592h-302v1445h852v-264z" />
    <glyph glyph-name="G" unicode="G" horiz-adv-x="1642" 
d="M812 -20c-103.333 0 -199.5 17.4971 -288.5 52.4971s-165.667 84.167 -230 147.5s-114.666 141.333 -150.999 234s-54.5 194.334 -54.5 305.001c0 112 18.667 214.833 56 308.5s88.666 172.334 153.999 236.001s143.5 113.167 234.5 148.5s189.167 53 294.5 53
c139.333 0 264.5 -29.5 375.5 -88.5s197.833 -142.833 260.5 -251.5l-263 -140c-37.333 72.667 -88.166 127.334 -152.499 164.001s-137.833 55 -220.5 55c-128.667 0 -233.834 -42.333 -315.501 -127s-122.5 -201.667 -122.5 -351c0 -147.333 40.667 -265 122 -353
s190.333 -132 327 -132c64 0 122.667 10.333 176 31s100 54.167 140 100.5s66.667 103.5 80 171.5h-395v241h679v-785h-236v200c-99.333 -146.667 -256 -220 -470 -220z" />
    <glyph glyph-name="H" unicode="H" horiz-adv-x="1585" 
d="M1098 1445h300v-1445h-300v594h-611v-594h-300v1445h300v-590h611v590z" />
    <glyph glyph-name="I" unicode="I" horiz-adv-x="673" 
d="M187 0v1445h300v-1445h-300z" />
    <glyph glyph-name="J" unicode="J" horiz-adv-x="1013" 
d="M407 -20c-127.333 0 -254.667 33.334 -382 100.001l127 247c72.667 -51.333 145.667 -77 219 -77c60 0 104.667 19.167 134 57.5s44 99.166 44 182.499v955h300v-1011c0 -144.667 -40.167 -256.5 -120.5 -335.5s-187.5 -118.5 -321.5 -118.5z" />
    <glyph glyph-name="K" unicode="K" horiz-adv-x="1453" 
d="M1042 0l-449 614h-106v-614h-300v1445h300v-568h102l453 568h366l-560 -691l577 -754h-383z" />
    <glyph glyph-name="L" unicode="L" horiz-adv-x="982" 
d="M487 265h453v-265h-753v1445h300v-1180z" />
    <glyph glyph-name="M" unicode="M" horiz-adv-x="1970" 
d="M1843 0h-299l-95 1089l-366 -1089h-194l-366 1089l-96 -1089h-300l121 1445h428l308 -907l312 907h428z" />
    <glyph glyph-name="N" unicode="N" horiz-adv-x="1660" 
d="M1174 1445h299v-1445h-347l-640 1033v-1033h-299v1445h343l644 -1027v1027z" />
    <glyph glyph-name="O" unicode="O" horiz-adv-x="1654" 
d="M827 -20c-141.333 0 -267.831 30.167 -379.498 90.5s-199.5 147.166 -263.5 260.499s-96 244 -96 392c0 148.667 32 279.5 96 392.5s151.833 199.5 263.5 259.5s238.167 90 379.5 90s267.666 -30 378.999 -90s199 -146.5 263 -259.5s96 -243.833 96 -392.5
c0 -148 -32 -278.667 -96 -392s-151.833 -200.166 -263.5 -260.499s-237.834 -90.5 -378.501 -90.5zM827.002 255c128 0 233.333 42.167 316 126.5s124 198.166 124 341.499c0 142.667 -41.333 256 -124 340s-188 126 -316 126s-233.333 -42 -316 -126
s-124 -197.333 -124 -340c0 -143.333 41.333 -257.166 124 -341.499s188 -126.5 316 -126.5z" />
    <glyph glyph-name="P" unicode="P" horiz-adv-x="1312" 
d="M788 1445c138 0 248.999 -44.833 332.999 -134.5s126 -200.5 126 -332.5c0 -134 -41.667 -244.167 -125 -330.5s-194.666 -129.5 -333.999 -129.5h-301v-518h-300v1445h601zM737.999 769c73.333 0 128.333 18.832 165 56.499s55 89.834 55 156.501
c0 64.667 -18.5 116.167 -55.5 154.5s-91.833 57.5 -164.5 57.5h-251v-425h251z" />
    <glyph glyph-name="Q" unicode="Q" horiz-adv-x="1686" 
d="M1617 -60l-250 -94.999l-185 208c-105.333 -48.667 -221.333 -73 -348 -73c-142.667 0 -270.5 30.167 -383.5 90.5s-202 147.166 -267 260.499s-97.5 244 -97.5 392c0 148.667 32.5 279.5 97.5 392.5s153.833 199.5 266.5 259.5s240.667 90 384 90s271.333 -30 384 -90
s201.5 -146.5 266.5 -259.5s97.5 -243.833 97.5 -392.5c0 -212 -64 -385.667 -192 -521zM385 723.001c0 -150 42 -267.833 126 -353.5s191.667 -128.5 323 -128.5s239 42.833 323 128.5s126 203.5 126 353.5c0 142.667 -42.333 256 -127 340s-192 126 -322 126
s-237.333 -42 -322 -126s-127 -197.333 -127 -340z" />
    <glyph glyph-name="R" unicode="R" horiz-adv-x="1338" 
d="M950 0l-375.998 636h-87v-636h-300v1445h524c79.333 0 149.333 -11.167 210 -33.5s109.167 -53.333 145.5 -93s63.666 -85.167 81.999 -136.5s27.5 -107.666 27.5 -168.999c0 -96.667 -26.333 -175.834 -79 -237.501s-128.334 -103.167 -227.001 -124.5l435 -651h-355z
M487.002 1196l0.000976562 -345h177c150 0 225 57.333 225 172c0 54 -18.333 96.333 -55 127s-93.334 46 -170.001 46h-177z" />
    <glyph glyph-name="S" unicode="S" horiz-adv-x="1297" 
d="M667 -20c-158.667 0 -292.332 36.832 -400.999 110.499s-173.667 176.834 -195 309.501l310 71c10 -79.333 41.833 -140.166 95.5 -182.499s121.167 -63.5 202.5 -63.5c64.667 0 117.334 14.833 158.001 44.5s60.667 73.5 60 131.5c0 40.667 -17 76.334 -51 107.001
s-67.833 52.5 -101.5 65.5s-87.834 30.833 -162.501 53.5c-10 3.33301 -17.333 5.66602 -22 6.99902c-38 12 -68.667 22 -92 30s-52.166 19.167 -86.499 33.5s-62.333 28.333 -84 42s-44.834 31 -69.501 52s-44 43.167 -58 66.5s-25.667 51 -35 83s-14 66.333 -14 103
c0 87.333 22.5 163.166 67.5 227.499s105.667 112.666 182 144.999s163.166 48.5 260.499 48.5c66 0 128.833 -7 188.5 -21s115.834 -35.5 168.501 -64.5s97.5 -68.667 134.5 -119s62.5 -108.833 76.5 -175.5l-290 -72c-26 138 -112.667 207 -260 207
c-65.333 0 -119 -14 -161 -42s-63 -70.333 -63 -127c0 -52.667 35 -95.334 105 -128.001c32.667 -16 99.667 -39 201 -69l96 -30c24.667 -8 55.667 -19.667 93 -35s67.666 -30.166 90.999 -44.499s48.666 -32.833 75.999 -55.5s48.833 -46.667 64.5 -72
s28.834 -55.166 39.501 -89.499s16 -71.5 16 -111.5c0 -60 -9.66699 -114.333 -29 -163s-45.833 -89.667 -79.5 -123s-73.5 -61.5 -119.5 -84.5s-95 -39.667 -147 -50s-107 -15.5 -165 -15.5z" />
    <glyph glyph-name="T" unicode="T" horiz-adv-x="1065" 
d="M1025 1445v-264h-343v-1181h-297v1181h-345v264h985z" />
    <glyph glyph-name="U" unicode="U" horiz-adv-x="1446" 
d="M722 -20c-80.667 0 -154.832 10.5 -222.499 31.5s-127.167 52.5 -178.5 94.5s-91.5 97 -120.5 165s-43.5 146.333 -43.5 235v939h300v-898c0 -104 24.167 -180.333 72.5 -229s112.5 -73 192.5 -73s144.5 24.5 193.5 73.5s73.5 125.167 73.5 228.5v898h300v-939
c0 -88.667 -14.5 -167 -43.5 -235s-69.333 -123 -121 -165s-111.334 -73.5 -179.001 -94.5s-142.167 -31.5 -223.5 -31.5z" />
    <glyph glyph-name="V" unicode="V" horiz-adv-x="1455" 
d="M1106 1445h319l-534 -1445h-330l-531 1445h318l379 -1095z" />
    <glyph glyph-name="W" unicode="W" horiz-adv-x="2175" 
d="M422 0l-378 1445h312l282 -1094l323 1094h253l321 -1094l285 1094h311l-378 -1445h-386l-280 893l-279 -893h-386z" />
    <glyph glyph-name="X" unicode="X" horiz-adv-x="1540" 
d="M29 0l563 754l-547 691h365l360 -474l360 474h365l-547 -691l563 -754h-382l-359 511l-359 -511h-382z" />
    <glyph glyph-name="Y" unicode="Y" horiz-adv-x="1287" 
d="M1271 1445l-475 -753v-692h-301v685l-478 760h332l295 -492l296 492h331z" />
    <glyph glyph-name="Z" unicode="Z" horiz-adv-x="1232" 
d="M450 265h694v-265h-1053v237l685 944h-684v264h1039v-237z" />
    <glyph glyph-name="bracketleft" unicode="[" horiz-adv-x="708" 
d="M149 -512v2048h517v-204h-264v-1640h264v-204h-517z" />
    <glyph glyph-name="backslash" unicode="\" horiz-adv-x="1219" 
d="M972 -407l-997 1943h272l996 -1943h-271z" />
    <glyph glyph-name="bracketright" unicode="]" horiz-adv-x="701" 
d="M552 -512h-517v204h264v1640h-264v204h517v-2048z" />
    <glyph glyph-name="asciicircum" unicode="^" horiz-adv-x="1423" 
d="M1355 315h-243l-400 882l-400 -882h-244l512 1130h263z" />
    <glyph glyph-name="underscore" unicode="_" horiz-adv-x="1316" 
d="M146 -241v241h1024v-241h-1024z" />
    <glyph glyph-name="grave" unicode="`" horiz-adv-x="487" 
d="M277 1200l-226 268l141 100l263 -368h-178z" />
    <glyph glyph-name="a" unicode="a" horiz-adv-x="1123" 
d="M992 279c0 -109.333 8.33105 -192.999 24.998 -250.999v-28h-269l-23 112c-36.667 -44 -84.667 -77 -144 -99s-121.333 -33 -186 -33c-34 0 -66 3 -96 9s-58.833 16.167 -86.5 30.5s-51.5 32.166 -71.5 53.499s-36 48.5 -48 81.5s-18 70.167 -18 111.5
s6.33301 78.5 19 111.5s29.334 60.833 50.001 83.5s47.667 43 81 61s67.333 32.667 102 44s75.334 22 122.001 32l169 38c36 8.66699 61.5 19.5 76.5 32.5s22.5 30.167 22.5 51.5c0 46 -16.833 79 -50.5 99s-74.5 30 -122.5 30c-118 0 -185 -52.333 -201 -157l-255 46
c21.333 106 71 184.167 149 234.5s185.667 75.5 323 75.5c288 0 432 -123.667 432 -371v-398zM484.998 175.001c72.667 0 132.002 24.833 178.002 74.5s69 123.167 69 220.5l-244 -69c-44.667 -10.667 -78.834 -24.667 -102.501 -42s-35.5 -42 -35.5 -74
c0 -35.333 12.667 -62.5 38 -81.5s57.666 -28.5 96.999 -28.5z" />
    <glyph glyph-name="b" unicode="b" horiz-adv-x="1315" 
d="M753 1048c67.333 0 131.002 -12.333 191.002 -37s112.5 -59.5 157.5 -104.5s80.5 -101.5 106.5 -169.5s39 -143 39 -225s-13 -157 -39 -225s-61.5 -124.5 -106.5 -169.5s-97.5 -79.833 -157.5 -104.5s-123.667 -37 -191 -37c-72 0 -136.833 13.833 -194.5 41.5
s-100.834 66.5 -129.501 116.5l-7 -134h-273v1536h288v-633c29.333 46 72.166 81.667 128.499 107s118.833 38 187.5 38zM686.002 215c78.667 0 143.834 27.001 195.501 81.001s77.5 126 77.5 216c0 90.667 -25.833 163 -77.5 217s-116.834 81 -195.501 81
c-77.333 0 -142 -27.5 -194 -82.5s-78 -126.833 -78 -215.5s25.833 -160.334 77.5 -215.001s116.5 -82 194.5 -82z" />
    <glyph glyph-name="c" unicode="c" horiz-adv-x="1175" 
d="M614 -19c-162 0 -294.333 49.3311 -397 147.998s-154 227.334 -154 386.001c0 159.333 51.167 288 153.5 386s234.833 147 397.5 147c132 0 243 -33 333 -99s147.333 -159 172 -279l-266 -29c-15.333 60 -44 105 -86 135s-94 45 -156 45c-77.333 0 -140 -28 -188 -84
s-72 -130 -72 -222c0 -91.333 24 -165.166 72 -221.499s110.667 -84.5 188 -84.5c62 0 113.833 15 155.5 45s70.5 75 86.5 135l266 -29c-24.667 -119.333 -82.5 -212.333 -173.5 -279s-201.5 -100 -331.5 -100z" />
    <glyph glyph-name="d" unicode="d" horiz-adv-x="1315" 
d="M878 1536h288.001v-1536h-273l-7 134c-29.333 -50 -72.833 -88.833 -130.5 -116.5s-121.834 -41.5 -192.501 -41.5c-68 0 -132 12.333 -192 37s-112.5 59.5 -157.5 104.5s-80.5 101.5 -106.5 169.5s-39 143 -39 225c0 108.667 22.667 204.167 68 286.5
s105.166 144.5 179.499 186.5s156.833 63 247.5 63c68.667 0 130.834 -12.5 186.501 -37.5s98.5 -60.5 128.5 -106.5v632zM629.001 215c78 0 142.833 27.332 194.5 81.999s77.5 126.334 77.5 215.001s-26 160.5 -78 215.5s-116.667 82.5 -194 82.5
c-78.667 0 -143.834 -27 -195.501 -81s-77.5 -126.333 -77.5 -217c0 -90 25.833 -162 77.5 -216s116.834 -81 195.501 -81z" />
    <glyph glyph-name="e" unicode="e" horiz-adv-x="1186" 
d="M1116 529l-2.99902 -69h-762c6 -82 33.333 -144.667 82 -188s109 -65 181 -65c52 0 97.167 11.833 135.5 35.5s67.166 58.167 86.499 103.5l264 -39c-34 -103.333 -94 -183.666 -180 -240.999s-187.333 -86 -304 -86c-168 0 -301.5 47.167 -400.5 141.5
s-148.5 225.166 -148.5 392.499c0 166 49.667 296.833 149 392.5s229.666 143.5 390.999 143.5c153.333 0 276.333 -43.667 369 -131s139.334 -217.333 140.001 -390zM609.001 846c-140 0 -223.333 -66 -250 -198h472c-7.33301 64 -31 113 -71 147s-90.333 51 -151 51z" />
    <glyph glyph-name="f" unicode="f" horiz-adv-x="743" 
d="M729 1306l-5.99902 -0.000976562c-18.667 0 -32.834 -0.166992 -42.501 -0.5s-23.334 -1.5 -41.001 -3.5s-31.5 -5 -41.5 -9s-21.5 -10.167 -34.5 -18.5s-23 -18.333 -30 -30s-13 -26.5 -18 -44.5s-7.5 -38.667 -7.5 -62v-110h221v-221h-221v-807h-287v807h-201v221h201
v111c0 48.667 4.33301 92.334 13 131.001s20.334 71.834 35.001 99.501s34.167 51.5 58.5 71.5s49.666 36 75.999 48s57.833 21.667 94.5 29s72.834 12.166 108.501 14.499s76.5 3.5 122.5 3.5v-230z" />
    <glyph glyph-name="g" unicode="g" horiz-adv-x="1281" 
d="M857 1028l274.002 -0.00292969v-951c0 -98 -12.833 -183.333 -38.5 -256s-62.834 -131.167 -111.501 -175.5s-105.667 -77.166 -171 -98.499s-140 -32 -224 -32c-271.333 0 -448 106.333 -530 319l239 102c29.333 -67.333 66.333 -117 111 -149s101 -48 169 -48
c178 0 267 105.667 267 317v120c-30.667 -42 -73.834 -75.833 -129.501 -101.5s-116.5 -38.5 -182.5 -38.5c-63.333 0 -123.5 12.167 -180.5 36.5s-106.833 58.333 -149.5 102s-76.5 97.5 -101.5 161.5s-37.5 133.333 -37.5 208c0 75.333 12.5 144.833 37.5 208.5
s59 116.834 102 159.501s93 76 150 100s117.5 36 181.5 36c70.667 0 134.167 -14.167 190.5 -42.5s98.833 -66.166 127.5 -113.499zM604.002 268.997c74.667 0 137.667 26.667 189 80s77 118.333 77 195c0 77.333 -25.5 142.666 -76.5 195.999s-114.167 80 -189.5 80
c-76 0 -139.167 -26.167 -189.5 -78.5s-75.5 -118.166 -75.5 -197.499c0 -78 25.5 -143.333 76.5 -196s113.833 -79 188.5 -79z" />
    <glyph glyph-name="h" unicode="h" horiz-adv-x="1267" 
d="M771 1048c116.667 0 207.167 -32.501 271.5 -97.501s96.5 -160.833 96.5 -287.5v-663h-289v616c0 70.667 -17 121.834 -51 153.501s-79.333 47.5 -136 47.5c-28.667 0 -55.5 -4 -80.5 -12s-48.833 -20.833 -71.5 -38.5s-40.5 -43.5 -53.5 -77.5
s-19.833 -74.667 -20.5 -122v-567h-288v1536h288v-631c78 95.333 189.333 143 334 143z" />
    <glyph glyph-name="i" unicode="i" horiz-adv-x="588" 
d="M296 1182c-46 0 -85.333 16.167 -118 48.5s-49 71.5 -49 117.5c0 45.333 16.5 84.166 49.5 116.499s72.167 48.5 117.5 48.5c44.667 0 83.334 -16.167 116.001 -48.5s49 -71.166 49 -116.499c0 -46 -16.333 -85.167 -49 -117.5s-71.334 -48.5 -116.001 -48.5zM149 0v1028
h290v-1028h-290z" />
    <glyph glyph-name="j" unicode="j" horiz-adv-x="591" 
d="M297 1182c-46 0 -85.333 16.167 -118 48.5s-49 71.5 -49 117.5c0 45.333 16.5 84.166 49.5 116.499s72.167 48.5 117.5 48.5c44.667 0 83.334 -16.167 116.001 -48.5s49 -71.166 49 -116.499c0 -46 -16.333 -85.167 -49 -117.5s-71.334 -48.5 -116.001 -48.5zM-61 -482
l0.000976562 225c44.667 0 80.667 4.83301 108 14.5s48.666 26.834 63.999 51.501s25.5 54.167 30.5 88.5s7.5 80.166 7.5 137.499v993h292v-993c0 -179.333 -39 -310.333 -117 -393s-206.333 -124 -385 -124z" />
    <glyph glyph-name="k" unicode="k" horiz-adv-x="1179" 
d="M831 0l-331 432h-60v-432h-291v1536h291v-904h54l323 396h326l-405 -477l443 -551h-350z" />
    <glyph glyph-name="l" unicode="l" horiz-adv-x="589" 
d="M149 0v1536h291v-1536h-291z" />
    <glyph glyph-name="m" unicode="m" horiz-adv-x="1860" 
d="M1367 1048c112 0 200.335 -27.835 265.002 -83.502s97 -135.5 97 -239.5v-725h-288v643c0 57.333 -15.333 100.666 -46 129.999s-69.334 44 -116.001 44c-57.333 0 -104 -18.667 -140 -56s-54 -97.666 -54 -180.999v-580h-291v640c0 58.667 -15.333 102.834 -46 132.501
s-70.334 44.5 -119.001 44.5c-56.667 0 -103 -19.667 -139 -59s-54 -103.666 -54 -192.999v-565h-287v1028h287v-121c70 94 169.333 141 298 141c74.667 0 139.167 -13.167 193.5 -39.5s94.833 -64.5 121.5 -114.5c72 102.667 178 154 318 154z" />
    <glyph glyph-name="n" unicode="n" horiz-adv-x="1269" 
d="M756 1048c123.333 0 218 -30.834 284 -92.501s99 -149.5 99 -263.5v-692h-289v630c0 64.667 -17.167 112 -51.5 142s-78.5 45 -132.5 45c-31.333 0 -60 -4.33301 -86 -13s-50 -22.167 -72 -40.5s-39.167 -44.166 -51.5 -77.499s-18.833 -73 -19.5 -119v-567h-288v1028
h288v-114c76 89.333 182.333 134 319 134z" />
    <glyph glyph-name="o" unicode="o" horiz-adv-x="1257" 
d="M628 -20c-109.333 0 -206.333 21 -291 63s-151.167 103.667 -199.5 185s-72.5 177 -72.5 287c0 164.667 52 294.667 156 390s239.667 143 407 143c168 0 304 -47.667 408 -143s156 -225.333 156 -390c0 -165.333 -52 -295.833 -156 -391.5s-240 -143.5 -408 -143.5z
M625 209c84 0 151.833 27.998 203.5 83.998s77.5 130 77.5 222s-25.833 166 -77.5 222s-119.5 84 -203.5 84c-80.667 0 -146.5 -28.167 -197.5 -84.5s-76.5 -130.166 -76.5 -221.499s25.5 -165.166 76.5 -221.499s116.833 -84.5 197.5 -84.5z" />
    <glyph glyph-name="p" unicode="p" horiz-adv-x="1315" 
d="M752 1048c68 0 132 -12.3311 192 -36.998s112.5 -59.334 157.5 -104.001s80.5 -101.167 106.5 -169.5s39 -143.5 39 -225.5s-13 -157.167 -39 -225.5s-61.5 -124.833 -106.5 -169.5s-97.5 -79.334 -157.5 -104.001s-124 -37 -192 -37s-130 12.667 -186 38
s-99 61.333 -129 108v-622h-288v1528h273l8 -138c28 50 70.833 88.833 128.5 116.5s122.167 41.5 193.5 41.5zM687 215.002c78 0 142.833 26.833 194.5 80.5s77.5 125.834 77.5 216.501s-25.833 162.834 -77.5 216.501s-116.5 80.5 -194.5 80.5
c-78.667 0 -144 -27.333 -196 -82s-78 -126.334 -78 -215.001s26 -160.334 78 -215.001s117.333 -82 196 -82z" />
    <glyph glyph-name="q" unicode="q" horiz-adv-x="1315" 
d="M892 1028l272.998 -0.00292969v-1528h-288v620c-30 -45.333 -73 -80.666 -129 -105.999s-117.667 -38 -185 -38c-68 0 -132 12.333 -192 37s-112.5 59.334 -157.5 104.001s-80.5 101.167 -106.5 169.5s-39 143.5 -39 225.5s13 157.167 39 225.5s61.5 124.833 106.5 169.5
s97.5 79.334 157.5 104.001s124 37 192 37c70.667 0 134.834 -13.5 192.501 -40.5s100.834 -65.167 129.501 -114.5zM627.998 214.997c78.667 0 143.833 27.333 195.5 82s77.5 126.334 77.5 215.001s-26 160.334 -78 215.001s-117 82 -195 82s-142.833 -26.833 -194.5 -80.5
s-77.5 -125.834 -77.5 -216.501s25.833 -162.834 77.5 -216.501s116.5 -80.5 194.5 -80.5z" />
    <glyph glyph-name="r" unicode="r" horiz-adv-x="781" 
d="M425 865c27.333 48 72.333 89.166 135 123.499s129.667 51.5 201 51.5v-257c-113.333 0 -195.333 -20.667 -246 -62s-76 -114.666 -76 -219.999v-501h-290v1028h276v-163z" />
    <glyph glyph-name="s" unicode="s" horiz-adv-x="992" 
d="M511 -20c-120 0 -219.999 23.9961 -299.999 71.9961s-129 119.333 -147 214l241 68c28.667 -102 97.334 -153 206.001 -153c42 0 77 7.83301 105 23.5s41.667 42.167 41 79.5c0 20.667 -5.66699 38.334 -17 53.001s-28.833 27.334 -52.5 38.001s-47 19.667 -70 27
s-53.5 16.166 -91.5 26.499s-69.667 20.166 -95 29.499c-34.667 12 -64.834 24.833 -90.501 38.5s-50.667 31.334 -75 53.001s-43 48.5 -56 80.5s-19.5 68.667 -19.5 110c0 101.333 37.167 178 111.5 230s171.5 78 291.5 78c106.667 0 196.334 -22 269.001 -66
s118.667 -112.667 138 -206l-223 -50c-28 86.667 -89 130 -183 130c-40.667 0 -74.334 -7.66699 -101.001 -23s-40 -38 -40 -68c0 -11.333 2 -21.666 6 -30.999s11 -17.666 21 -24.999s19.667 -13.666 29 -18.999s23 -10.833 41 -16.5s33 -10 45 -13l52.5 -13.5l53.5 -14
c36.667 -10 68.834 -20 96.501 -30s57.167 -24 88.5 -42s57.166 -38.167 77.499 -60.5s37.166 -50.666 50.499 -84.999s20 -72.5 20 -114.5c0 -56.667 -11.5 -106.334 -34.5 -149.001s-54.5 -76.167 -94.5 -100.5s-84.5 -42.333 -133.5 -54s-102.5 -17.5 -160.5 -17.5z" />
    <glyph glyph-name="t" unicode="t" horiz-adv-x="796" 
d="M532 0c-100 0 -177.333 27.832 -232 83.499s-82 134.834 -82 237.501v486h-202v221h65c58 0 100.667 14.333 128 43s41 79.667 41 153v136h260v-332h212v-221h-212v-455c0 -88.667 39.667 -133 119 -133h93v-219h-190z" />
    <glyph glyph-name="u" unicode="u" horiz-adv-x="1267" 
d="M830 1028h288v-1028h-273l-7 124c-76 -96 -185 -144 -327 -144c-123.333 0 -218 30.833 -284 92.5s-99 149.5 -99 263.5v692h289v-630c0 -64 17.167 -111 51.5 -141s78.833 -45 133.5 -45c66.667 0 121.167 19.5 163.5 58.5s63.833 102.5 64.5 190.5v567z" />
    <glyph glyph-name="v" unicode="v" horiz-adv-x="1125" 
d="M818 1028h305l-438 -1028h-250l-433 1028h303l256 -703z" />
    <glyph glyph-name="w" unicode="w" horiz-adv-x="1752" 
d="M1443 1028h298l-360 -1029h-267l-238 679l-240 -679h-271l-353 1029h297l212 -669l243 669h221l242 -667z" />
    <glyph glyph-name="x" unicode="x" horiz-adv-x="1208" 
d="M8 0l422 515l-422 513h360l236 -324l238 324h357l-423 -514l423 -514h-357l-236 322l-237 -322h-361z" />
    <glyph glyph-name="y" unicode="y" horiz-adv-x="1120" 
d="M822 1028h295l-634 -1512h-292l235 526l-423 986h314l245 -676z" />
    <glyph glyph-name="z" unicode="z" horiz-adv-x="947" 
d="M899 1028l-452 -806h438v-222h-847l450 806h-415v222h826z" />
    <glyph glyph-name="braceleft" unicode="{" horiz-adv-x="688" 
d="M507 -493c-96 0 -171.999 26 -227.999 78s-84 118 -84 198v405c0 39.333 -1.5 71.333 -4.5 96s-7.16699 45.5 -12.5 62.5s-15 31 -29 42s-28.167 20 -42.5 27s-35.833 15.5 -64.5 25.5v160c28.667 10 50.167 18.5 64.5 25.5s28.5 16.167 42.5 27.5s23.667 25.5 29 42.5
s9.5 37.833 12.5 62.5s4.5 56.667 4.5 96v405c0 80 28 146 84 198s132 78 228 78h124v-202h-69c-30 0 -54 -9.5 -72 -28.5s-27 -47.167 -27 -84.5v-366c0 -36.667 -1.5 -68.167 -4.5 -94.5s-9.5 -52.833 -19.5 -79.5s-23.667 -49.167 -41 -67.5s-40.666 -35.5 -69.999 -51.5
s-64.666 -29.333 -105.999 -40c41.333 -10.667 76.666 -24.167 105.999 -40.5s52.666 -33.833 69.999 -52.5s31 -41.167 41 -67.5s16.5 -52.5 19.5 -78.5s4.5 -57.333 4.5 -94v-370c0 -39.333 7.66699 -67.5 23 -84.5s40.666 -25.5 75.999 -25.5h69v-202h-124z" />
    <glyph glyph-name="bar" unicode="|" horiz-adv-x="627" 
d="M224 -307v1843h179v-1843h-179z" />
    <glyph glyph-name="braceright" unicode="}" horiz-adv-x="684" 
d="M177 -493h-123.999v202h69c35.333 0 60.666 8.5 75.999 25.5s23 45.167 23 84.5v370c0 36.667 1.5 68 4.5 94s9.5 52.167 19.5 78.5s23.667 48.833 41 67.5s40.666 36.167 69.999 52.5s64.666 29.833 105.999 40.5c-41.333 10.667 -76.666 24 -105.999 40
s-52.666 33.167 -69.999 51.5s-31 40.833 -41 67.5s-16.5 53.167 -19.5 79.5s-4.5 57.833 -4.5 94.5v366c0 37.333 -9 65.5 -27 84.5s-42 28.5 -72 28.5h-69v202h124c96 0 172 -26 228 -78s84 -118 84 -198v-405c0 -39.333 1.5 -71.333 4.5 -96s7.16699 -45.5 12.5 -62.5
s15 -31.167 29 -42.5s28.167 -20.5 42.5 -27.5s35.833 -15.5 64.5 -25.5v-160c-28.667 -10 -50.167 -18.5 -64.5 -25.5s-28.5 -16 -42.5 -27s-23.667 -25 -29 -42s-9.5 -37.833 -12.5 -62.5s-4.5 -56.667 -4.5 -96v-405c0 -80 -28 -146 -84 -198s-132 -78 -228 -78z" />
    <glyph glyph-name="asciitilde" unicode="~" horiz-adv-x="1382" 
d="M899 317c-22 0 -43.1709 1.83398 -63.5039 5.50098s-39.5 9.66699 -57.5 18s-33.667 16 -47 23s-27.666 17 -42.999 30l-33 28.5c-6.66699 6 -16.5 15.833 -29.5 29.5l-22.5 23.5c-36 35.333 -69 53 -99 53c-43.333 0 -76.666 -19 -99.999 -57s-35.666 -84 -36.999 -138
h-204c-5.33301 119.333 23.167 215.833 85.5 289.5s149.166 110.5 260.499 110.5c58.667 0 107.667 -11.833 147 -35.5s78 -60.834 116 -111.501c12 -15.333 21.833 -26.833 29.5 -34.5s18.667 -15.5 33 -23.5s29.833 -12 46.5 -12c38.667 0 70.834 17.667 96.501 53
s37.167 82 34.5 140h202c10 -111.333 -15.167 -204.5 -75.5 -279.5s-140.166 -112.5 -239.499 -112.5z" />
    <glyph glyph-name="exclamdown" unicode="&#xa1;" horiz-adv-x="669" 
d="M333 1046c46 0 85.167 -16 117.5 -48s48.5 -70.667 48.5 -116c0 -46 -16.167 -85.167 -48.5 -117.5s-71.5 -48.5 -117.5 -48.5c-45.333 0 -84 16.167 -116 48.5s-48 71.5 -48 117.5c0 45.333 16.167 84 48.5 116s70.833 48 115.5 48zM217 565h232l29 -984h-290z" />
    <glyph glyph-name="cent" unicode="&#xa2;" horiz-adv-x="1145" 
d="M648 463c42.667 0 81.668 10.667 117.001 32s65 51.333 89 90l198 -174c-86.667 -106.667 -198.667 -168.667 -336 -186v-225h-169v230c-127.333 22.667 -230.5 83 -309.5 181s-118.5 217.667 -118.5 359s39.5 261 118.5 359s182.167 158.333 309.5 181v226h169v-221
c137.333 -17.333 249.333 -79.333 336 -186l-198 -173c-50.667 80.667 -119.334 121 -206.001 121c-72 0 -132.333 -28.333 -181 -85s-73 -130.667 -73 -222s24.333 -165.333 73 -222s109 -85 181 -85z" />
    <glyph glyph-name="sterling" unicode="&#xa3;" horiz-adv-x="1333" 
d="M137 0l-0.00195312 173.001l59 12c61.333 13.333 92 54 92 122v287h-151v208h151v154c0 150 45.833 273 137.5 369s210.167 144 355.5 144c42 0 82.5 -4.5 121.5 -13.5s76.333 -23.5 112 -43.5s66.834 -44.5 93.501 -73.5s47.834 -65 63.501 -108
s23.5 -90.833 23.5 -143.5c0 -20.667 -1.66699 -45 -5 -73l-249 -56c8.66699 35.333 13 67.333 13 96c0 57.333 -16.667 100.833 -50 130.5s-76.333 44.5 -129 44.5c-70.667 0 -125.5 -23.333 -164.5 -70s-58.5 -114.334 -58.5 -203.001v-154h285v-208h-285v-348h621v-246
h-1036z" />
    <glyph glyph-name="currency" unicode="&#xa4;" horiz-adv-x="1394" 
d="M325 217l-151.999 159.999l108 107c-50.667 79.333 -76 165.333 -76 258c0 94.667 25.667 181.334 77 260.001l-106 106l151 160l111 -111c79.333 51.333 166.666 77 261.999 77c94.667 0 180.334 -25.333 257.001 -76l109 109l155 -155l-107 -108
c50 -78 75 -165 75 -261c0 -94 -25 -181 -75 -261l105 -105l-151 -160l-111 111c-76.667 -50 -163.334 -75 -260.001 -75c-95.333 0 -182.333 25 -261 75zM697.001 467.999c77.333 0 142.332 27.5 194.999 82.5s79 119.833 79 194.5s-26.667 138.667 -80 192
s-117.666 80 -192.999 80c-76 0 -140.667 -27.167 -194 -81.5s-80 -119.833 -80 -196.5s27 -141 81 -193s118 -78 192 -78z" />
    <glyph glyph-name="yen" unicode="&#xa5;" horiz-adv-x="1438" 
d="M571 0v209h-343v173h343v192h-343v173h304l-446 698h332l302 -492l303 492h330l-446 -698h304v-173h-340v-192h340v-173h-340v-209h-300z" />
    <glyph glyph-name="brokenbar" unicode="&#xa6;" horiz-adv-x="627" 
d="M224 799v737h179v-737h-179zM224 -307v737h179v-737h-179z" />
    <glyph glyph-name="section" unicode="&#xa7;" horiz-adv-x="1301" 
d="M1058 215c66 -62.667 99.001 -143.337 99.001 -242.004c0 -54 -8.83301 -103.333 -26.5 -148s-41.834 -82.167 -72.501 -112.5s-67.334 -55.833 -110.001 -76.5s-88.167 -35.667 -136.5 -45s-99.833 -14 -154.5 -14c-142 0 -262 33.5 -360 100.5
s-156.667 159.833 -176 278.5l251 58c12 -75.333 44.667 -133.333 98 -174s119 -61 197 -61c70.667 0 128.167 15.333 172.5 46s66.166 77 65.499 139c0 26 -6.16699 49.667 -18.5 71s-27.333 39.166 -45 53.499s-42 28.166 -73 41.499s-59.333 24 -85 32l-98.5 30
c-2 0.666992 -3.33301 1 -4 1s-1.66699 0.333008 -3 1s-2.66602 1 -3.99902 1c-34.667 10 -63.5 18.833 -86.5 26.5s-50.167 17.834 -81.5 30.501s-57.333 25.334 -78 38.001s-42.167 28.5 -64.5 47.5s-40 39.333 -53 61s-23.833 47.167 -32.5 76.5s-13 61.333 -13 96
c0 106.667 36.667 192 110 256c-73.333 60 -110 141 -110 243c0 81.333 20.667 151.333 62 210s96.666 102.5 165.999 131.5s148 43.5 236 43.5c61.333 0 119.5 -6.5 174.5 -19.5s106.167 -32.833 153.5 -59.5s87.5 -62.5 120.5 -107.5s55.5 -97.167 67.5 -156.5l-236 -60
c-14 68 -44.167 118.333 -90.5 151s-105.166 49 -176.499 49c-66 0 -120.833 -14.667 -164.5 -44s-65.5 -73.666 -65.5 -132.999c0 -35.333 15.333 -66.166 46 -92.499s61.167 -45.166 91.5 -56.499s79.5 -26.666 147.5 -45.999c6 -2 10.333 -3.33301 13 -4l91 -27.5
c22.667 -7 51.834 -17.333 87.501 -31s64.167 -27 85.5 -40s45 -30 71 -51s46.167 -42.833 60.5 -65.5s26.5 -50 36.5 -82s15 -66.667 15 -104c0 -106 -33 -192.667 -99 -260zM412.001 575.997c0 -56 35.332 -100.999 105.999 -134.999c34 -16 98 -37.667 192 -65
c66 -19.333 110.667 -33.333 134 -42c41.333 28.667 61.666 71.667 60.999 129c0 21.333 -3.66699 41 -11 59s-19.166 34.167 -35.499 48.5s-32.166 26.666 -47.499 36.999s-37.5 20.833 -66.5 31.5s-53 19 -72 25l-81.5 25c-7.33301 2 -13 3.66699 -17 5
c-7.33301 2.66699 -18.333 6.16699 -33 10.5s-25.667 7.5 -33 9.5c-64 -26.667 -96 -72.667 -96 -138z" />
    <glyph glyph-name="dieresis" unicode="&#xa8;" horiz-adv-x="974" 
d="M272 1182c-46 0 -85.333 16.167 -118 48.5s-49 71.5 -49 117.5c0 45.333 16.5 84.166 49.5 116.499s72.167 48.5 117.5 48.5c44.667 0 83.334 -16.167 116.001 -48.5s49 -71.166 49 -116.499c0 -46 -16.333 -85.167 -49 -117.5s-71.334 -48.5 -116.001 -48.5zM703 1182
c-46 0 -85.333 16.167 -118 48.5s-49 71.5 -49 117.5c0 45.333 16.333 84.166 49 116.499s72 48.5 118 48.5c44.667 0 83.334 -16.167 116.001 -48.5s49 -71.166 49 -116.499c0 -46 -16.333 -85.167 -49 -117.5s-71.334 -48.5 -116.001 -48.5z" />
    <glyph glyph-name="copyright" unicode="&#xa9;" horiz-adv-x="1722" 
d="M860 -20c-100.667 0 -196.834 19.6689 -288.501 59.002s-170.834 92.333 -237.501 159s-119.667 146 -159 238s-59 188.333 -59 289s19.667 197 59 289s92.333 171.333 159 238s145.834 119.667 237.501 159s187.834 59 288.501 59c80.667 0 159 -12.5 235 -37.5
s144.5 -60.667 205.5 -107s114.667 -100 161 -161s82 -129.333 107 -205s37.5 -153.834 37.5 -234.501s-12.5 -158.834 -37.5 -234.501s-60.667 -144 -107 -205s-100 -114.667 -161 -161s-129.5 -82 -205.5 -107s-154.333 -37.5 -235 -37.5zM860 132.002
c108.667 0 208.5 26.167 299.5 78.5s162.667 124 215 215s78.5 190.833 78.5 299.5s-26.167 208.334 -78.5 299.001s-124 162.167 -215 214.5s-190.833 78.5 -299.5 78.5s-208.334 -26.167 -299.001 -78.5s-162.167 -123.833 -214.5 -214.5s-78.5 -190.334 -78.5 -299.001
s26.167 -208.5 78.5 -299.5s123.833 -162.667 214.5 -215s190.334 -78.5 299.001 -78.5zM864 305.002c-114.667 0 -212.832 40.835 -294.499 122.502s-122.5 180.167 -122.5 295.5c0 116 40.667 214.5 122 295.5s179.666 121.5 294.999 121.5
c64.667 0 125.834 -13.833 183.501 -41.5s105.5 -65.834 143.5 -114.501l-129 -102c-48.667 65.333 -114.667 98 -198 98c-70.667 0 -130 -24.5 -178 -73.5s-72 -110.167 -72 -183.5c0 -72.667 24 -133.334 72 -182.001s107.333 -73 178 -73c84 0 150 32.333 198 97
l129 -102c-38 -48.667 -85.833 -87.167 -143.5 -115.5s-118.834 -42.5 -183.501 -42.5z" />
    <glyph glyph-name="ordfeminine" unicode="&#xaa;" horiz-adv-x="953" 
d="M618 1445h164.001v-614h-164v88c-52.667 -66.667 -123 -100 -211 -100c-84.667 0 -156.667 31 -216 93s-89 137.333 -89 226s29.667 164.167 89 226.5s131.333 93.5 216 93.5c87.333 0 157.666 -33.667 210.999 -101v88zM441.001 962
c48.667 0 90.334 17.167 125.001 51.5s52 75.833 52 124.5s-17.333 90 -52 124s-76.334 51 -125.001 51s-90.167 -17 -124.5 -51s-51.5 -75.333 -51.5 -124s17.167 -90.167 51.5 -124.5s75.833 -51.5 124.5 -51.5z" />
    <glyph glyph-name="guillemotleft" unicode="&#xab;" horiz-adv-x="1105" 
d="M354 275l-312 377l312 376h231l-311 -376l311 -377h-231zM818 275l-311 377l311 376h233l-311 -376l311 -377h-233z" />
    <glyph glyph-name="logicalnot" unicode="&#xac;" horiz-adv-x="1678" 
d="M1222 270v525h-1112v233h1344v-758h-232z" />
    <glyph glyph-name="uni00AD" unicode="&#xad;" horiz-adv-x="1009" 
d="M146 418v248h717v-248h-717z" />
    <glyph glyph-name="registered" unicode="&#xae;" horiz-adv-x="1766" 
d="M882 1470c80.667 0 159 -12.498 235 -37.498s144.5 -60.667 205.5 -107s114.667 -100 161 -161s82 -129.333 107 -205s37.5 -153.834 37.5 -234.501s-12.5 -158.834 -37.5 -234.501s-60.667 -144 -107 -205s-100 -114.667 -161 -161s-129.5 -82 -205.5 -107
s-154.333 -37.5 -235 -37.5c-100.667 0 -196.834 19.667 -288.501 59s-170.834 92.333 -237.501 159s-119.667 146 -159 238s-59 188.333 -59 289s19.667 197 59 289s92.333 171.333 159 238s145.834 119.667 237.501 159s187.834 59 288.501 59zM882 132.002
c108.667 0 208.5 26.167 299.5 78.5s162.667 124 215 215s78.5 190.833 78.5 299.5s-26.167 208.334 -78.5 299.001s-124 162.167 -215 214.5s-190.833 78.5 -299.5 78.5s-208.334 -26.167 -299.001 -78.5s-162.167 -123.833 -214.5 -214.5s-78.5 -190.334 -78.5 -299.001
s26.167 -208.5 78.5 -299.5s123.833 -162.667 214.5 -215s190.334 -78.5 299.001 -78.5zM1207 894.002c0 -47.333 -11.833 -90.167 -35.5 -128.5s-55.5 -67.5 -95.5 -87.5l157 -367h-181l-135 341h-129v-341h-166v827h341c68 0 125.667 -23.667 173 -71s71 -105 71 -173z
M788 992.001v-202.999h149c31.333 0 57.5 9.66699 78.5 29s31.5 43.666 31.5 72.999s-10.5 53.5 -31.5 72.5s-47.167 28.5 -78.5 28.5h-149z" />
    <glyph glyph-name="macron" unicode="&#xaf;" horiz-adv-x="954" 
d="M145 1228v170h664v-170h-664z" />
    <glyph glyph-name="degree" unicode="&#xb0;" horiz-adv-x="922" 
d="M461 853c-85.333 0 -157.833 29.667 -217.5 89s-89.5 131.666 -89.5 216.999s29.833 157.833 89.5 217.5s132.167 89.5 217.5 89.5s157.666 -29.833 216.999 -89.5s89 -132.167 89 -217.5s-29.667 -157.666 -89 -216.999s-131.666 -89 -216.999 -89zM461 1012
c41.333 0 76 14.167 104 42.5s42 63.166 42 104.499s-14 76.166 -42 104.499s-62.667 42.5 -104 42.5s-76 -14.167 -104 -42.5s-42 -63.166 -42 -104.499s14 -76.166 42 -104.499s62.667 -42.5 104 -42.5z" />
    <glyph glyph-name="plusminus" unicode="&#xb1;" horiz-adv-x="1255" 
d="M522 368v385h-385v219h385v386h219v-386h385v-219h-385v-385h-219zM126 0v219h995v-219h-995z" />
    <glyph glyph-name="acute" unicode="&#xb4;" horiz-adv-x="487" 
d="M32 1200l262 368l142 -100l-227 -268h-177z" />
    <glyph glyph-name="uni00B5" unicode="&#xb5;" horiz-adv-x="1352" 
d="M933 1028h249v-1028h-249v128c-38.667 -46.667 -84.667 -83 -138 -109s-110.333 -39 -171 -39s-118 13 -172 39v-531h-228v1540h249v-607c0 -62 21.5 -114.5 64.5 -157.5s95.5 -64.5 157.5 -64.5c66.667 0 123 21.5 169 64.5s69 95.5 69 157.5v607z" />
    <glyph glyph-name="paragraph" unicode="&#xb6;" horiz-adv-x="1192" 
d="M483 -307v1066h-40c-114 0 -203.167 29.833 -267.5 89.5s-96.5 144.5 -96.5 254.5c0 110.667 32.167 195.334 96.5 254.001s153.5 88 267.5 88h186v-1752h-146zM820 -307.001v1752h148v-1752h-148z" />
    <glyph glyph-name="periodcentered" unicode="&#xb7;" horiz-adv-x="591" 
d="M296 615c-33.333 0 -62.166 11.833 -86.499 35.5s-36.5 52.5 -36.5 86.5c0 32.667 12.167 61.167 36.5 85.5s53.166 36.5 86.499 36.5c32 0 60.333 -12.167 85 -36.5s37 -52.833 37 -85.5c0 -34 -12.167 -62.833 -36.5 -86.5s-52.833 -35.5 -85.5 -35.5z" />
    <glyph glyph-name="cedilla" unicode="&#xb8;" horiz-adv-x="591" 
d="M298 -532c-56.667 0 -106.5 14.333 -149.5 43s-72.833 64.667 -89.5 108l127 44c10 -19.333 24.833 -34.833 44.5 -46.5s40.167 -17.5 61.5 -17.5c26 0 48.167 8.5 66.5 25.5s27.5 39.167 27.5 66.5c0 28.667 -9.16699 51 -27.5 67s-41.166 24 -68.499 24
c-30.667 0 -55.334 -10.333 -74.001 -31l-105 62l122 223h137l-90 -159c20 4 35 6 45 6c56.667 0 103.5 -18 140.5 -54s55.5 -82 55.5 -138c0 -62.667 -21.5 -115.5 -64.5 -158.5s-95.833 -64.5 -158.5 -64.5z" />
    <glyph glyph-name="ordmasculine" unicode="&#xba;" horiz-adv-x="875" 
d="M436 827c-94.667 0 -174.834 30.833 -240.501 92.5s-98.5 137.167 -98.5 226.5s32.833 165 98.5 227s145.834 93 240.501 93s175.167 -31 241.5 -93s99.5 -137.667 99.5 -227c0 -88.667 -33 -164 -99 -226s-146.667 -93 -242 -93zM436 970
c48.667 0 90.334 17.167 125.001 51.5s52 75.833 52 124.5s-17.333 90.167 -52 124.5s-76.334 51.5 -125.001 51.5s-90.167 -17.167 -124.5 -51.5s-51.5 -75.833 -51.5 -124.5s17.167 -90.167 51.5 -124.5s75.833 -51.5 124.5 -51.5z" />
    <glyph glyph-name="guillemotright" unicode="&#xbb;" horiz-adv-x="1105" 
d="M54 275l311 377l-311 376h231l312 -376l-312 -377h-231zM519 275l311 377l-311 376h232l312 -376l-312 -377h-232z" />
    <glyph glyph-name="onequarter" unicode="&#xbc;" horiz-adv-x="1608" 
d="M362 524h-170l1 761l-193 -150l-1 163l206 147h157v-921zM1021 1445h184l-815 -1445h-184zM1565 323v-128h-97v-195h-164v195h-423v146l365 581h222v-599h97zM1022 323h282v468z" />
    <glyph glyph-name="onehalf" unicode="&#xbd;" horiz-adv-x="1650" 
d="M362 524h-170l1 761l-193 -150l-1 163l206 147h157v-921zM1021 1445h184l-815 -1445h-184zM1147 134l451 -0.000976562v-134h-631v161c76.667 52 142.834 100.167 198.501 144.5s99.334 82.333 131.001 114s56.667 61.834 75 90.501s30.166 52.5 35.499 71.5
s8 38.833 8 59.5c0 56.667 -13 96.834 -39 120.501s-57.667 34.5 -95 32.5c-45.333 -2.66699 -78.333 -18.834 -99 -48.501s-30.334 -66.5 -29.001 -110.5h-177c-2 87.333 27 159.333 87 216s136 85 228 85c86 0 155.5 -25.5 208.5 -76.5s80.167 -117.833 81.5 -200.5
c2 -184.667 -142.667 -359.667 -434 -525z" />
    <glyph glyph-name="threequarters" unicode="&#xbe;" horiz-adv-x="1824" 
d="M652 814c0 -82 -29.833 -151.5 -89.5 -208.5s-134.5 -85.5 -224.5 -85.5c-88 0 -161.667 25.667 -221 77s-89 115.666 -89 192.999h177c0 -41.333 12.5 -73.166 37.5 -95.499s57.167 -33.5 96.5 -33.5c42 0 75.667 13.167 101 39.5s38 62.5 38 108.5
c0 44.667 -13.667 79.167 -41 103.5s-67 36.5 -119 36.5h-44v132h33c90 0 135 43 135 129c0 37.333 -10.167 66.666 -30.5 87.999s-46.833 32 -79.5 32c-74 0 -111 -42.667 -111 -128l-172 1c0 79.333 26.5 143 79.5 191s120.833 72 203.5 72
c78.667 0 143.167 -23.5 193.5 -70.5s75.5 -107.5 75.5 -181.5c0 -75.333 -29 -134.333 -87 -177c92 -47.333 138 -121.666 138 -222.999zM1237 1445h184l-815 -1445h-184zM1781 323v-128h-97v-195h-164v195h-423v146l365 581h222v-599h97zM1238 323h282v468z" />
    <glyph glyph-name="questiondown" unicode="&#xbf;" horiz-adv-x="1070" 
d="M521 1048c45.333 0 84.166 -16 116.499 -48s48.5 -70.667 48.5 -116c0 -46 -16.167 -84.833 -48.5 -116.5s-71.166 -47.5 -116.499 -47.5c-44.667 0 -83 15.833 -115 47.5s-48 70.5 -48 116.5c0 45.333 15.833 84 47.5 116s70.167 48 115.5 48zM641 582
l0.00195312 -108.002c0 -43.333 -8.16699 -80.666 -24.5 -111.999s-37.5 -56.833 -63.5 -76.5s-61.667 -40.834 -107 -63.501c-82.667 -41.333 -124 -111.333 -124 -210c0 -68.667 19 -121.167 57 -157.5s88 -54.5 150 -54.5c62.667 0 113 18.833 151 56.5
s57 87.167 57 148.5c0 24.667 -4 54 -12 88l258 -33c3.33301 -28.667 5 -53.667 5 -75c0 -124.667 -42 -226.334 -126 -305.001s-193.667 -118 -329 -118c-136 0 -247.667 40.167 -335 120.5s-131 187.833 -131 322.5c0 54.667 7.33301 104.334 22 149.001
s34.667 82.167 60 112.5s52.166 55.333 80.499 75s59.166 35.834 92.499 48.501c30 12 52 26.833 66 44.5s21 40.834 21 69.501v78h232z" />
    <glyph glyph-name="Agrave" unicode="&#xc0;" horiz-adv-x="1491" 
d="M835 1580h-178l-226 267l141 101zM1154 0l-105 298h-607l-105 -298h-307l532 1445h367l532 -1445h-307zM530 549h431l-215 613z" />
    <glyph glyph-name="Aacute" unicode="&#xc1;" horiz-adv-x="1491" 
d="M1061 1847l-227 -267h-177l262 368zM1154 0l-105 298h-607l-105 -298h-307l532 1445h367l532 -1445h-307zM530 549h431l-215 613z" />
    <glyph glyph-name="Acircumflex" unicode="&#xc2;" horiz-adv-x="1491" 
d="M745 1746l-136 -166h-177l227 299h173l227 -299h-177zM1154 0l-105 298h-607l-105 -298h-307l532 1445h367l532 -1445h-307zM530 549h431l-215 613z" />
    <glyph glyph-name="Atilde" unicode="&#xc3;" horiz-adv-x="1491" 
d="M630 1740c-27.333 0 -48.168 -12.6689 -62.501 -38.002s-21.5 -58.333 -21.5 -99h-151c0 78.667 20.667 142.834 62 192.501s97.333 74.5 168 74.5c68.667 0 124.667 -24.333 168 -73l22.5 -26c11 -12.667 19.167 -21.5 24.5 -26.5s13.166 -10.167 23.499 -15.5
s20.833 -8 31.5 -8c52 0 78 45 78 135h153c0 -78 -20.167 -141.833 -60.5 -191.5s-97.166 -74.5 -170.499 -74.5c-42 0 -75.667 7.16699 -101 21.5s-48.333 33.833 -69 58.5c-2 2 -6 6.83301 -12 14.5l-12 15.5c-2 2.66699 -5.66699 6.83398 -11 12.501
s-9.66602 9.5 -12.999 11.5l-13 8c-5.33301 3.33301 -10.833 5.5 -16.5 6.5s-11.5 1.5 -17.5 1.5zM1154 -0.00195312l-105 298h-607l-105 -298h-307l532 1445h367l532 -1445h-307zM529.998 548.998h431l-215 613z" />
    <glyph glyph-name="Adieresis" unicode="&#xc4;" horiz-adv-x="1491" 
d="M531 1536c-46 0 -85.333 16.167 -118 48.5s-49 71.5 -49 117.5c0 45.333 16.333 84 49 116s72 48 118 48c44.667 0 83.334 -16 116.001 -48s49 -70.667 49 -116c0 -46 -16.333 -85.167 -49 -117.5s-71.334 -48.5 -116.001 -48.5zM962 1536
c-46 0 -85.333 16.167 -118 48.5s-49 71.5 -49 117.5c0 45.333 16.333 84 49 116s72 48 118 48c44.667 0 83.334 -16 116.001 -48s49 -70.667 49 -116c0 -46 -16.333 -85.167 -49 -117.5s-71.334 -48.5 -116.001 -48.5zM1154 0l-105 298h-607l-105 -298h-307l532 1445h367
l532 -1445h-307zM530 549h431l-215 613z" />
    <glyph glyph-name="Aring" unicode="&#xc5;" horiz-adv-x="1491" 
d="M746 1580c-66.667 0 -123.5 23.5 -170.5 70.5s-70.5 103.5 -70.5 169.5c0 65.333 23.5 121.166 70.5 167.499s103.833 69.5 170.5 69.5c65.333 0 121.166 -23.167 167.499 -69.5s69.5 -102.166 69.5 -167.499c0 -66 -23.167 -122.5 -69.5 -169.5
s-102.166 -70.5 -167.499 -70.5zM746 1940c-32.667 0 -60.167 -11.833 -82.5 -35.5s-33.5 -51.834 -33.5 -84.501c0 -35.333 11 -64 33 -86s49.667 -33 83 -33s61.333 11.167 84 33.5s34 50.833 34 85.5c0 32.667 -11.5 60.834 -34.5 84.501s-50.833 35.5 -83.5 35.5z
M1154 0l-105 298h-607l-105 -298h-307l532 1445h367l532 -1445h-307zM530 549h431l-215 613z" />
    <glyph glyph-name="AE" unicode="&#xc6;" horiz-adv-x="1883" 
d="M30 0l498 1445h1233v-264h-562v-327h486v-264h-486v-325h562v-265h-863v298h-459l-96 -298h-313zM522 549h376v632h-177z" />
    <glyph glyph-name="Ccedilla" unicode="&#xc7;" horiz-adv-x="1569" 
d="M827 256c93.333 0 175.836 23.499 247.503 70.499s123.5 112.167 155.5 195.5l280 -102c-48 -128 -127 -230.667 -237 -308s-238.667 -120.666 -386 -129.999l-59 -105c20 4 35 6 45 6c56.667 0 103.5 -18 140.5 -54s55.5 -82 55.5 -138
c0 -62.667 -21.5 -115.5 -64.5 -158.5s-95.833 -64.5 -158.5 -64.5c-56.667 0 -106.5 14.333 -149.5 43s-72.833 64.667 -89.5 108l127 44c10 -19.333 24.833 -34.833 44.5 -46.5s40.167 -17.5 61.5 -17.5c26 0 48.167 8.5 66.5 25.5s27.5 39.167 27.5 66.5
c0 28.667 -9.16699 51 -27.5 67s-41.166 24 -68.499 24c-30.667 0 -55.334 -10.333 -74.001 -31l-105 62l93 170c-96 8 -184.833 31.167 -266.5 69.5s-151.834 89 -210.501 152s-104.5 139 -137.5 228s-49.5 185.833 -49.5 290.5c0 148.667 32 279.5 96 392.5
s151.833 199.5 263.5 259.5s238.167 90 379.5 90c161.333 0 302.666 -39 423.999 -117s207.666 -185.333 258.999 -322l-280 -102c-32 83.333 -83.667 148.333 -155 195s-154 70 -248 70c-128 0 -233.333 -42 -316 -126s-124 -197.333 -124 -340s41.5 -256.167 124.5 -340.5
s188.167 -126.5 315.5 -126.5z" />
    <glyph glyph-name="Egrave" unicode="&#xc8;" horiz-adv-x="1147" 
d="M702 1580h-178l-226 267l141 101zM1025 1181h-536v-328h475v-261h-475v-327h536v-265h-838v1445h838v-264z" />
    <glyph glyph-name="Eacute" unicode="&#xc9;" horiz-adv-x="1147" 
d="M928 1847l-227 -267h-177l262 368zM1025 1181h-536v-328h475v-261h-475v-327h536v-265h-838v1445h838v-264z" />
    <glyph glyph-name="Ecircumflex" unicode="&#xca;" horiz-adv-x="1147" 
d="M612 1746l-136 -166h-177l227 299h173l227 -299h-177zM1025 1181h-536v-328h475v-261h-475v-327h536v-265h-838v1445h838v-264z" />
    <glyph glyph-name="Edieresis" unicode="&#xcb;" horiz-adv-x="1147" 
d="M398 1536c-46 0 -85.333 16.167 -118 48.5s-49 71.5 -49 117.5c0 45.333 16.333 84 49 116s72 48 118 48c44.667 0 83.334 -16 116.001 -48s49 -70.667 49 -116c0 -46 -16.333 -85.167 -49 -117.5s-71.334 -48.5 -116.001 -48.5zM829 1536
c-46 0 -85.333 16.167 -118 48.5s-49 71.5 -49 117.5c0 45.333 16.333 84 49 116s72 48 118 48c44.667 0 83.334 -16 116.001 -48s49 -70.667 49 -116c0 -46 -16.333 -85.167 -49 -117.5s-71.334 -48.5 -116.001 -48.5zM1025 1181h-536v-328h475v-261h-475v-327h536v-265
h-838v1445h838v-264z" />
    <glyph glyph-name="Igrave" unicode="&#xcc;" horiz-adv-x="673" 
d="M246 1580l-226 267l141 101l263 -368h-178zM187 0v1445h300v-1445h-300z" />
    <glyph glyph-name="Iacute" unicode="&#xcd;" horiz-adv-x="673" 
d="M246 1580l262 368l142 -101l-227 -267h-177zM187 0v1445h300v-1445h-300z" />
    <glyph glyph-name="Icircumflex" unicode="&#xce;" horiz-adv-x="673" 
d="M198 1580h-177l227 299h173l227 -299h-177l-137 166zM187 0v1445h300v-1445h-300z" />
    <glyph glyph-name="Idieresis" unicode="&#xcf;" horiz-adv-x="673" 
d="M120 1536c-46 0 -85.333 16.167 -118 48.5s-49 71.5 -49 117.5c0 45.333 16.333 84 49 116s72 48 118 48c44.667 0 83.334 -16 116.001 -48s49 -70.667 49 -116c0 -46 -16.333 -85.167 -49 -117.5s-71.334 -48.5 -116.001 -48.5zM551 1536
c-46 0 -85.333 16.167 -118 48.5s-49 71.5 -49 117.5c0 45.333 16.333 84 49 116s72 48 118 48c44.667 0 83.334 -16 116.001 -48s49 -70.667 49 -116c0 -46 -16.333 -85.167 -49 -117.5s-71.334 -48.5 -116.001 -48.5zM187 0v1445h300v-1445h-300z" />
    <glyph glyph-name="Eth" unicode="&#xd0;" horiz-adv-x="1493" 
d="M710 1445c113.333 0 213.833 -17.3311 301.5 -51.998s159.667 -83.834 216 -147.501s99 -139.5 128 -227.5s43.5 -186.333 43.5 -295c0 -109.333 -14.5 -208 -43.5 -296s-71.667 -163.833 -128 -227.5s-128.333 -112.834 -216 -147.501s-188.167 -52 -301.5 -52h-523v635
h-154v176h154v634h523zM695 265.002c130.667 0 228 39.167 292 117.5s96 191.833 96 340.5s-32 262.167 -96 340.5s-161.333 117.5 -292 117.5h-208v-370h235v-176h-235v-370h208z" />
    <glyph glyph-name="Ntilde" unicode="&#xd1;" horiz-adv-x="1660" 
d="M715 1740c-27.333 0 -48.168 -12.6689 -62.501 -38.002s-21.5 -58.333 -21.5 -99h-151c0 78.667 20.667 142.834 62 192.501s97.333 74.5 168 74.5c68.667 0 124.667 -24.333 168 -73l22.5 -26c11 -12.667 19.167 -21.5 24.5 -26.5s13.166 -10.167 23.499 -15.5
s20.833 -8 31.5 -8c52 0 78 45 78 135h153c0 -78 -20.167 -141.833 -60.5 -191.5s-97.166 -74.5 -170.499 -74.5c-42 0 -75.667 7.16699 -101 21.5s-48.333 33.833 -69 58.5c-2 2 -6 6.83301 -12 14.5l-12 15.5c-2 2.66699 -5.66699 6.83398 -11 12.501
s-9.66602 9.5 -12.999 11.5l-13 8c-5.33301 3.33301 -10.833 5.5 -16.5 6.5s-11.5 1.5 -17.5 1.5zM1174 1445h299v-1445h-347l-640 1033v-1033h-299v1445h343l644 -1027v1027z" />
    <glyph glyph-name="Ograve" unicode="&#xd2;" horiz-adv-x="1654" 
d="M738 1580l-226 267l141 101l263 -368h-178zM827 -20c-141.333 0 -267.831 30.167 -379.498 90.5s-199.5 147.166 -263.5 260.499s-96 244 -96 392c0 148.667 32 279.5 96 392.5s151.833 199.5 263.5 259.5s238.167 90 379.5 90s267.666 -30 378.999 -90
s199 -146.5 263 -259.5s96 -243.833 96 -392.5c0 -148 -32 -278.667 -96 -392s-151.833 -200.166 -263.5 -260.499s-237.834 -90.5 -378.501 -90.5zM827.002 255c128 0 233.333 42.167 316 126.5s124 198.166 124 341.499c0 142.667 -41.333 256 -124 340s-188 126 -316 126
s-233.333 -42 -316 -126s-124 -197.333 -124 -340c0 -143.333 41.333 -257.166 124 -341.499s188 -126.5 316 -126.5z" />
    <glyph glyph-name="Oacute" unicode="&#xd3;" horiz-adv-x="1654" 
d="M738 1580l262 368l142 -101l-227 -267h-177zM827 -20c-141.333 0 -267.831 30.167 -379.498 90.5s-199.5 147.166 -263.5 260.499s-96 244 -96 392c0 148.667 32 279.5 96 392.5s151.833 199.5 263.5 259.5s238.167 90 379.5 90s267.666 -30 378.999 -90
s199 -146.5 263 -259.5s96 -243.833 96 -392.5c0 -148 -32 -278.667 -96 -392s-151.833 -200.166 -263.5 -260.499s-237.834 -90.5 -378.501 -90.5zM827.002 255c128 0 233.333 42.167 316 126.5s124 198.166 124 341.499c0 142.667 -41.333 256 -124 340s-188 126 -316 126
s-233.333 -42 -316 -126s-124 -197.333 -124 -340c0 -143.333 41.333 -257.166 124 -341.499s188 -126.5 316 -126.5z" />
    <glyph glyph-name="Ocircumflex" unicode="&#xd4;" horiz-adv-x="1654" 
d="M690 1580h-177l227 299h173l227 -299h-177l-137 166zM827 -20c-141.333 0 -267.831 30.167 -379.498 90.5s-199.5 147.166 -263.5 260.499s-96 244 -96 392c0 148.667 32 279.5 96 392.5s151.833 199.5 263.5 259.5s238.167 90 379.5 90s267.666 -30 378.999 -90
s199 -146.5 263 -259.5s96 -243.833 96 -392.5c0 -148 -32 -278.667 -96 -392s-151.833 -200.166 -263.5 -260.499s-237.834 -90.5 -378.501 -90.5zM827.002 255c128 0 233.333 42.167 316 126.5s124 198.166 124 341.499c0 142.667 -41.333 256 -124 340s-188 126 -316 126
s-233.333 -42 -316 -126s-124 -197.333 -124 -340c0 -143.333 41.333 -257.166 124 -341.499s188 -126.5 316 -126.5z" />
    <glyph glyph-name="Otilde" unicode="&#xd5;" horiz-adv-x="1654" 
d="M976 1590c-42 0 -75.6689 7.16504 -101.002 21.498s-48.333 33.833 -69 58.5c-2 2 -6 6.83301 -12 14.5l-12 15.5c-2 2.66699 -5.66699 6.83398 -11 12.501s-9.66602 9.5 -12.999 11.5l-13 8c-5.33301 3.33301 -10.833 5.5 -16.5 6.5s-11.5 1.5 -17.5 1.5
c-27.333 0 -48.166 -12.667 -62.499 -38s-21.5 -58.333 -21.5 -99h-151c0 78.667 20.667 142.834 62 192.501s97.333 74.5 168 74.5c68.667 0 124.667 -24.333 168 -73l22.5 -26c11 -12.667 19.167 -21.5 24.5 -26.5s13.166 -10.167 23.499 -15.5s20.833 -8 31.5 -8
c52 0 78 45 78 135h153c0 -78 -20.167 -141.833 -60.5 -191.5s-97.166 -74.5 -170.499 -74.5zM826.998 -20.002c-141.333 0 -267.831 30.167 -379.498 90.5s-199.5 147.166 -263.5 260.499s-96 244 -96 392c0 148.667 32 279.5 96 392.5s151.833 199.5 263.5 259.5
s238.167 90 379.5 90s267.666 -30 378.999 -90s199 -146.5 263 -259.5s96 -243.833 96 -392.5c0 -148 -32 -278.667 -96 -392s-151.833 -200.166 -263.5 -260.499s-237.834 -90.5 -378.501 -90.5zM827 254.998c128 0 233.333 42.167 316 126.5s124 198.166 124 341.499
c0 142.667 -41.333 256 -124 340s-188 126 -316 126s-233.333 -42 -316 -126s-124 -197.333 -124 -340c0 -143.333 41.333 -257.166 124 -341.499s188 -126.5 316 -126.5z" />
    <glyph glyph-name="Odieresis" unicode="&#xd6;" horiz-adv-x="1654" 
d="M612 1536c-46 0 -85.333 16.167 -118 48.5s-49 71.5 -49 117.5c0 45.333 16.333 84 49 116s72 48 118 48c44.667 0 83.334 -16 116.001 -48s49 -70.667 49 -116c0 -46 -16.333 -85.167 -49 -117.5s-71.334 -48.5 -116.001 -48.5zM1043 1536
c-46 0 -85.333 16.167 -118 48.5s-49 71.5 -49 117.5c0 45.333 16.333 84 49 116s72 48 118 48c44.667 0 83.334 -16 116.001 -48s49 -70.667 49 -116c0 -46 -16.333 -85.167 -49 -117.5s-71.334 -48.5 -116.001 -48.5zM827 -20c-141.333 0 -267.831 30.167 -379.498 90.5
s-199.5 147.166 -263.5 260.499s-96 244 -96 392c0 148.667 32 279.5 96 392.5s151.833 199.5 263.5 259.5s238.167 90 379.5 90s267.666 -30 378.999 -90s199 -146.5 263 -259.5s96 -243.833 96 -392.5c0 -148 -32 -278.667 -96 -392s-151.833 -200.166 -263.5 -260.499
s-237.834 -90.5 -378.501 -90.5zM827.002 255c128 0 233.333 42.167 316 126.5s124 198.166 124 341.499c0 142.667 -41.333 256 -124 340s-188 126 -316 126s-233.333 -42 -316 -126s-124 -197.333 -124 -340c0 -143.333 41.333 -257.166 124 -341.499
s188 -126.5 316 -126.5z" />
    <glyph glyph-name="multiply" unicode="&#xd7;" horiz-adv-x="1074" 
d="M267 266l-156 156l271 271l-271 270l156 156l271 -270l269 270l156 -156l-271 -270l271 -271l-156 -155l-269 270z" />
    <glyph glyph-name="Oslash" unicode="&#xd8;" horiz-adv-x="1654" 
d="M1313 1302c80 -66 142.001 -148.335 186.001 -247.002s66 -209.334 66 -332.001c0 -148 -32 -278.667 -96 -392s-151.833 -200.166 -263.5 -260.499s-237.834 -90.5 -378.501 -90.5c-137.333 0 -261.666 29.333 -372.999 88l-123 -176l-117 69l127 182
c-80 66.667 -142.167 149.334 -186.5 248.001s-66.5 209.334 -66.5 332.001c0 148.667 32 279.5 96 392.5s151.833 199.5 263.5 259.5s238.167 90 379.5 90c137.333 0 261.666 -29.333 372.999 -88l123 177l117 -70zM387.001 722.998
c0 -140.667 40.668 -253.667 122.001 -339l527 758c-62.667 31.333 -132.334 47 -209.001 47c-128 0 -233.333 -42 -316 -126s-124 -197.333 -124 -340zM827.002 254.998c128 0 233.333 42.168 316 126.501s124 198.166 124 341.499c0 140 -40.667 252.667 -122 338
l-528 -758c64 -32 134 -48 210 -48z" />
    <glyph glyph-name="Ugrave" unicode="&#xd9;" horiz-adv-x="1446" 
d="M633 1580l-226 267l141 101l263 -368h-178zM722 -20c-80.667 0 -154.832 10.5 -222.499 31.5s-127.167 52.5 -178.5 94.5s-91.5 97 -120.5 165s-43.5 146.333 -43.5 235v939h300v-898c0 -104 24.167 -180.333 72.5 -229s112.5 -73 192.5 -73s144.5 24.5 193.5 73.5
s73.5 125.167 73.5 228.5v898h300v-939c0 -88.667 -14.5 -167 -43.5 -235s-69.333 -123 -121 -165s-111.334 -73.5 -179.001 -94.5s-142.167 -31.5 -223.5 -31.5z" />
    <glyph glyph-name="Uacute" unicode="&#xda;" horiz-adv-x="1446" 
d="M633 1580l262 368l142 -101l-227 -267h-177zM722 -20c-80.667 0 -154.832 10.5 -222.499 31.5s-127.167 52.5 -178.5 94.5s-91.5 97 -120.5 165s-43.5 146.333 -43.5 235v939h300v-898c0 -104 24.167 -180.333 72.5 -229s112.5 -73 192.5 -73s144.5 24.5 193.5 73.5
s73.5 125.167 73.5 228.5v898h300v-939c0 -88.667 -14.5 -167 -43.5 -235s-69.333 -123 -121 -165s-111.334 -73.5 -179.001 -94.5s-142.167 -31.5 -223.5 -31.5z" />
    <glyph glyph-name="Ucircumflex" unicode="&#xdb;" horiz-adv-x="1446" 
d="M585 1580h-177l227 299h173l227 -299h-177l-137 166zM722 -20c-80.667 0 -154.832 10.5 -222.499 31.5s-127.167 52.5 -178.5 94.5s-91.5 97 -120.5 165s-43.5 146.333 -43.5 235v939h300v-898c0 -104 24.167 -180.333 72.5 -229s112.5 -73 192.5 -73
s144.5 24.5 193.5 73.5s73.5 125.167 73.5 228.5v898h300v-939c0 -88.667 -14.5 -167 -43.5 -235s-69.333 -123 -121 -165s-111.334 -73.5 -179.001 -94.5s-142.167 -31.5 -223.5 -31.5z" />
    <glyph glyph-name="Udieresis" unicode="&#xdc;" horiz-adv-x="1446" 
d="M507 1536c-46 0 -85.333 16.167 -118 48.5s-49 71.5 -49 117.5c0 45.333 16.333 84 49 116s72 48 118 48c44.667 0 83.334 -16 116.001 -48s49 -70.667 49 -116c0 -46 -16.333 -85.167 -49 -117.5s-71.334 -48.5 -116.001 -48.5zM938 1536
c-46 0 -85.333 16.167 -118 48.5s-49 71.5 -49 117.5c0 45.333 16.333 84 49 116s72 48 118 48c44.667 0 83.334 -16 116.001 -48s49 -70.667 49 -116c0 -46 -16.333 -85.167 -49 -117.5s-71.334 -48.5 -116.001 -48.5zM722 -20c-80.667 0 -154.832 10.5 -222.499 31.5
s-127.167 52.5 -178.5 94.5s-91.5 97 -120.5 165s-43.5 146.333 -43.5 235v939h300v-898c0 -104 24.167 -180.333 72.5 -229s112.5 -73 192.5 -73s144.5 24.5 193.5 73.5s73.5 125.167 73.5 228.5v898h300v-939c0 -88.667 -14.5 -167 -43.5 -235s-69.333 -123 -121 -165
s-111.334 -73.5 -179.001 -94.5s-142.167 -31.5 -223.5 -31.5z" />
    <glyph glyph-name="Yacute" unicode="&#xdd;" horiz-adv-x="1287" 
d="M959 1847l-227 -267h-177l262 368zM1271 1445l-475 -753v-692h-301v685l-478 760h332l295 -492l296 492h331z" />
    <glyph glyph-name="Thorn" unicode="&#xde;" horiz-adv-x="1239" 
d="M767 1314c114 0 210.667 -44.334 290 -133.001s119 -197 119 -325c0 -123.333 -39.667 -227.666 -119 -312.999s-176 -128 -290 -128h-290v-415h-290v1534h290v-220h290zM756 671.999c44 0 81.167 18.833 111.5 56.5s45.5 83.167 45.5 136.5
c0 54 -15.167 99.333 -45.5 136s-67.5 55 -111.5 55h-279v-384h279z" />
    <glyph glyph-name="germandbls" unicode="&#xdf;" horiz-adv-x="1289" 
d="M149 0l0.000976562 961.998c0 90 9.83301 170 29.5 240s45.5 126.833 77.5 170.5s70.833 79.667 116.5 108s92.334 48 140.001 59s98.834 16.5 153.501 16.5c144.667 0 261.834 -37 351.501 -111s134.5 -167.667 134.5 -281c0 -40.667 -6 -77 -18 -109
s-26.667 -57.667 -44 -77s-34.666 -37.166 -51.999 -53.499s-32 -33.166 -44 -50.499s-18 -35.666 -18 -54.999c0 -16 4.83301 -31 14.5 -45s22.167 -27 37.5 -39s32.166 -24.5 50.499 -37.5s36.666 -28.667 54.999 -47s35.166 -38.666 50.499 -60.999
s27.833 -51.166 37.5 -86.499s14.5 -74.333 14.5 -117c0 -39.333 -4.33301 -77 -13 -113s-23.334 -70.833 -44.001 -104.5s-46 -62.834 -76 -87.501s-67.833 -44.334 -113.5 -59.001s-96.834 -22 -153.501 -22h-199v212h116c66 0 115.167 17.5 147.5 52.5
s48.5 77.833 48.5 128.5c0 34.667 -6 65 -18 91s-26.833 46.167 -44.5 60.5l-58 45.5l-58 46c-17.667 14.667 -32.5 35.167 -44.5 61.5s-18 57.166 -18 92.499c0 39.333 6 73.5 18 102.5s26.333 52.5 43 70.5s33.5 35.167 50.5 51.5s31.5 36 43.5 59s18 49.5 18 79.5
c0 54 -18.5 96.833 -55.5 128.5s-88.5 47.5 -154.5 47.5c-76 0 -134.333 -23.5 -175 -70.5s-61 -126.5 -61 -238.5v-1020h-286z" />
    <glyph glyph-name="agrave" unicode="&#xe0;" horiz-adv-x="1123" 
d="M654 1169h-178l-226 268l141 100zM992 279c0 -109.333 8.33105 -192.999 24.998 -250.999v-28h-269l-23 112c-36.667 -44 -84.667 -77 -144 -99s-121.333 -33 -186 -33c-34 0 -66 3 -96 9s-58.833 16.167 -86.5 30.5s-51.5 32.166 -71.5 53.499s-36 48.5 -48 81.5
s-18 70.167 -18 111.5s6.33301 78.5 19 111.5s29.334 60.833 50.001 83.5s47.667 43 81 61s67.333 32.667 102 44s75.334 22 122.001 32l169 38c36 8.66699 61.5 19.5 76.5 32.5s22.5 30.167 22.5 51.5c0 46 -16.833 79 -50.5 99s-74.5 30 -122.5 30
c-118 0 -185 -52.333 -201 -157l-255 46c21.333 106 71 184.167 149 234.5s185.667 75.5 323 75.5c288 0 432 -123.667 432 -371v-398zM484.998 175.001c72.667 0 132.002 24.833 178.002 74.5s69 123.167 69 220.5l-244 -69c-44.667 -10.667 -78.834 -24.667 -102.501 -42
s-35.5 -42 -35.5 -74c0 -35.333 12.667 -62.5 38 -81.5s57.666 -28.5 96.999 -28.5z" />
    <glyph glyph-name="aacute" unicode="&#xe1;" horiz-adv-x="1123" 
d="M880 1437l-227 -268h-177l262 368zM992 279c0 -109.333 8.33105 -192.999 24.998 -250.999v-28h-269l-23 112c-36.667 -44 -84.667 -77 -144 -99s-121.333 -33 -186 -33c-34 0 -66 3 -96 9s-58.833 16.167 -86.5 30.5s-51.5 32.166 -71.5 53.499s-36 48.5 -48 81.5
s-18 70.167 -18 111.5s6.33301 78.5 19 111.5s29.334 60.833 50.001 83.5s47.667 43 81 61s67.333 32.667 102 44s75.334 22 122.001 32l169 38c36 8.66699 61.5 19.5 76.5 32.5s22.5 30.167 22.5 51.5c0 46 -16.833 79 -50.5 99s-74.5 30 -122.5 30
c-118 0 -185 -52.333 -201 -157l-255 46c21.333 106 71 184.167 149 234.5s185.667 75.5 323 75.5c288 0 432 -123.667 432 -371v-398zM484.998 175.001c72.667 0 132.002 24.833 178.002 74.5s69 123.167 69 220.5l-244 -69c-44.667 -10.667 -78.834 -24.667 -102.501 -42
s-35.5 -42 -35.5 -74c0 -35.333 12.667 -62.5 38 -81.5s57.666 -28.5 96.999 -28.5z" />
    <glyph glyph-name="acircumflex" unicode="&#xe2;" horiz-adv-x="1123" 
d="M564 1372l-136 -166h-177l227 299h173l227 -299h-177zM992 279c0 -109.333 8.33105 -192.999 24.998 -250.999v-28h-269l-23 112c-36.667 -44 -84.667 -77 -144 -99s-121.333 -33 -186 -33c-34 0 -66 3 -96 9s-58.833 16.167 -86.5 30.5s-51.5 32.166 -71.5 53.499
s-36 48.5 -48 81.5s-18 70.167 -18 111.5s6.33301 78.5 19 111.5s29.334 60.833 50.001 83.5s47.667 43 81 61s67.333 32.667 102 44s75.334 22 122.001 32l169 38c36 8.66699 61.5 19.5 76.5 32.5s22.5 30.167 22.5 51.5c0 46 -16.833 79 -50.5 99s-74.5 30 -122.5 30
c-118 0 -185 -52.333 -201 -157l-255 46c21.333 106 71 184.167 149 234.5s185.667 75.5 323 75.5c288 0 432 -123.667 432 -371v-398zM484.998 175.001c72.667 0 132.002 24.833 178.002 74.5s69 123.167 69 220.5l-244 -69c-44.667 -10.667 -78.834 -24.667 -102.501 -42
s-35.5 -42 -35.5 -74c0 -35.333 12.667 -62.5 38 -81.5s57.666 -28.5 96.999 -28.5z" />
    <glyph glyph-name="atilde" unicode="&#xe3;" horiz-adv-x="1123" 
d="M465 1303c-22.667 0 -40 -11.667 -52 -35s-18 -54.333 -18 -93h-137c0 77.333 18.167 140.333 54.5 189s85.5 73 147.5 73c74.667 0 133 -34.333 175 -103c16 -25.333 36 -38 60 -38c44.667 0 67 42.667 67 128h138c0 -76.667 -17.833 -139.5 -53.5 -188.5
s-85.167 -73.5 -148.5 -73.5c-74 0 -132.667 34 -176 102c-16.667 26 -35.667 39 -57 39zM992 279c0 -109.333 8.33105 -192.999 24.998 -250.999v-28h-269l-23 112c-36.667 -44 -84.667 -77 -144 -99s-121.333 -33 -186 -33c-34 0 -66 3 -96 9s-58.833 16.167 -86.5 30.5
s-51.5 32.166 -71.5 53.499s-36 48.5 -48 81.5s-18 70.167 -18 111.5s6.33301 78.5 19 111.5s29.334 60.833 50.001 83.5s47.667 43 81 61s67.333 32.667 102 44s75.334 22 122.001 32l169 38c36 8.66699 61.5 19.5 76.5 32.5s22.5 30.167 22.5 51.5
c0 46 -16.833 79 -50.5 99s-74.5 30 -122.5 30c-118 0 -185 -52.333 -201 -157l-255 46c21.333 106 71 184.167 149 234.5s185.667 75.5 323 75.5c288 0 432 -123.667 432 -371v-398zM484.998 175.001c72.667 0 132.002 24.833 178.002 74.5s69 123.167 69 220.5l-244 -69
c-44.667 -10.667 -78.834 -24.667 -102.501 -42s-35.5 -42 -35.5 -74c0 -35.333 12.667 -62.5 38 -81.5s57.666 -28.5 96.999 -28.5z" />
    <glyph glyph-name="adieresis" unicode="&#xe4;" horiz-adv-x="1123" 
d="M350 1182c-46 0 -85.333 16.167 -118 48.5s-49 71.5 -49 117.5c0 45.333 16.5 84.166 49.5 116.499s72.167 48.5 117.5 48.5c44.667 0 83.334 -16.167 116.001 -48.5s49 -71.166 49 -116.499c0 -46 -16.333 -85.167 -49 -117.5s-71.334 -48.5 -116.001 -48.5zM781 1182
c-46 0 -85.333 16.167 -118 48.5s-49 71.5 -49 117.5c0 45.333 16.333 84.166 49 116.499s72 48.5 118 48.5c44.667 0 83.334 -16.167 116.001 -48.5s49 -71.166 49 -116.499c0 -46 -16.333 -85.167 -49 -117.5s-71.334 -48.5 -116.001 -48.5zM992 279
c0 -109.333 8.33105 -192.999 24.998 -250.999v-28h-269l-23 112c-36.667 -44 -84.667 -77 -144 -99s-121.333 -33 -186 -33c-34 0 -66 3 -96 9s-58.833 16.167 -86.5 30.5s-51.5 32.166 -71.5 53.499s-36 48.5 -48 81.5s-18 70.167 -18 111.5s6.33301 78.5 19 111.5
s29.334 60.833 50.001 83.5s47.667 43 81 61s67.333 32.667 102 44s75.334 22 122.001 32l169 38c36 8.66699 61.5 19.5 76.5 32.5s22.5 30.167 22.5 51.5c0 46 -16.833 79 -50.5 99s-74.5 30 -122.5 30c-118 0 -185 -52.333 -201 -157l-255 46
c21.333 106 71 184.167 149 234.5s185.667 75.5 323 75.5c288 0 432 -123.667 432 -371v-398zM484.998 175.001c72.667 0 132.002 24.833 178.002 74.5s69 123.167 69 220.5l-244 -69c-44.667 -10.667 -78.834 -24.667 -102.501 -42s-35.5 -42 -35.5 -74
c0 -35.333 12.667 -62.5 38 -81.5s57.666 -28.5 96.999 -28.5z" />
    <glyph glyph-name="aring" unicode="&#xe5;" horiz-adv-x="1123" 
d="M565 1140c-66.667 0 -123.5 23.667 -170.5 71s-70.5 104 -70.5 170c0 64.667 23.667 120.334 71 167.001s104 70 170 70c64.667 0 120.334 -23.333 167.001 -70s70 -102.334 70 -167.001c0 -66 -23.333 -122.667 -70 -170s-102.334 -71 -167.001 -71zM565 1501
c-32.667 0 -60.167 -12 -82.5 -36s-33.5 -52 -33.5 -84c0 -35.333 11 -64 33 -86s49.667 -33 83 -33s61.333 11.167 84 33.5s34 50.833 34 85.5c0 32 -11.5 60 -34.5 84s-50.833 36 -83.5 36zM992 279c0 -109.333 8.33105 -192.999 24.998 -250.999v-28h-269l-23 112
c-36.667 -44 -84.667 -77 -144 -99s-121.333 -33 -186 -33c-34 0 -66 3 -96 9s-58.833 16.167 -86.5 30.5s-51.5 32.166 -71.5 53.499s-36 48.5 -48 81.5s-18 70.167 -18 111.5s6.33301 78.5 19 111.5s29.334 60.833 50.001 83.5s47.667 43 81 61s67.333 32.667 102 44
s75.334 22 122.001 32l169 38c36 8.66699 61.5 19.5 76.5 32.5s22.5 30.167 22.5 51.5c0 46 -16.833 79 -50.5 99s-74.5 30 -122.5 30c-118 0 -185 -52.333 -201 -157l-255 46c21.333 106 71 184.167 149 234.5s185.667 75.5 323 75.5c288 0 432 -123.667 432 -371v-398z
M484.998 175.001c72.667 0 132.002 24.833 178.002 74.5s69 123.167 69 220.5l-244 -69c-44.667 -10.667 -78.834 -24.667 -102.501 -42s-35.5 -42 -35.5 -74c0 -35.333 12.667 -62.5 38 -81.5s57.666 -28.5 96.999 -28.5z" />
    <glyph glyph-name="ae" unicode="&#xe6;" horiz-adv-x="1817" 
d="M1748 529l-3.00098 -77h-761c7.33301 -79.333 35.166 -140 83.499 -182s108.5 -63 180.5 -63c50.667 0 95.167 11.833 133.5 35.5s67.5 58.167 87.5 103.5l264 -39c-35.333 -105.333 -95.833 -186.166 -181.5 -242.499s-189.167 -84.5 -310.5 -84.5
c-180.667 0 -320 56.333 -418 169h-4c-110.667 -112.667 -247 -169 -409 -169c-63.333 0 -119.166 8.83301 -167.499 26.5s-88 48.167 -119 91.5s-46.5 97.333 -46.5 162c0 44 7.66699 83.333 23 118s34.5 63.167 57.5 85.5s53.167 42.166 90.5 59.499
s72.833 30.833 106.5 40.5s73.834 19.167 120.501 28.5l145 29c35.333 8 60.666 19.333 75.999 34s23 34 23 58c0 48 -17 82.667 -51 104s-76 32 -126 32c-120 0 -186.333 -57 -199 -171l-257 42c20 112 69 194.667 147 248s187.333 80 328 80c152 0 261.667 -35 329 -105
c94 71.333 211 107 351 107c152 0 274.333 -43.667 367 -131s139.334 -217.333 140.001 -390zM1233 849c-62.667 0 -115 -16.332 -157 -48.999s-70 -82.334 -84 -149.001h472c-8 64 -32 113 -72 147s-93 51 -159 51zM490.999 203.001c45.333 0 89.168 12.335 131.501 37.002
s75.5 57.667 99.5 99c-10.667 36.667 -17.667 76.667 -21 120l-190 -43c-51.333 -10.667 -89.5 -24.834 -114.5 -42.501s-37.5 -41.834 -37.5 -72.501c0 -32 12.167 -56.333 36.5 -73s56.166 -25 95.499 -25z" />
    <glyph glyph-name="ccedilla" unicode="&#xe7;" horiz-adv-x="1175" 
d="M611 209c62 0 113.833 15 155.5 45s70.5 75 86.5 135l266 -29c-23.333 -112.667 -76.166 -202 -158.499 -268s-182.833 -102.667 -301.5 -110l-60 -105c20 4 35 6 45 6c56.667 0 103.5 -18 140.5 -54s55.5 -82 55.5 -138c0 -62.667 -21.5 -115.5 -64.5 -158.5
s-95.833 -64.5 -158.5 -64.5c-56.667 0 -106.5 14.333 -149.5 43s-72.833 64.667 -89.5 108l127 44c10 -19.333 24.833 -34.833 44.5 -46.5s40.167 -17.5 61.5 -17.5c26 0 48.167 8.5 66.5 25.5s27.5 39.167 27.5 66.5c0 28.667 -9.16699 51 -27.5 67s-41.166 24 -68.499 24
c-30.667 0 -55.334 -10.333 -74.001 -31l-105 62l95 174c-138.667 18 -250.334 74.667 -335.001 170s-127 214.666 -127 357.999c0 159.333 51.167 288 153.5 386s234.833 147 397.5 147c132 0 243 -33 333 -99s147.333 -159 172 -279l-266 -29c-15.333 60 -44 105 -86 135
s-94 45 -156 45c-77.333 0 -140 -28 -188 -84s-72 -130 -72 -222c0 -91.333 24 -165.166 72 -221.499s110.667 -84.5 188 -84.5z" />
    <glyph glyph-name="egrave" unicode="&#xe8;" horiz-adv-x="1186" 
d="M705 1172h-178l-226 268l141 100zM1116 529l-2.99902 -69h-762c6 -82 33.333 -144.667 82 -188s109 -65 181 -65c52 0 97.167 11.833 135.5 35.5s67.166 58.167 86.499 103.5l264 -39c-34 -103.333 -94 -183.666 -180 -240.999s-187.333 -86 -304 -86
c-168 0 -301.5 47.167 -400.5 141.5s-148.5 225.166 -148.5 392.499c0 166 49.667 296.833 149 392.5s229.666 143.5 390.999 143.5c153.333 0 276.333 -43.667 369 -131s139.334 -217.333 140.001 -390zM609.001 846c-140 0 -223.333 -66 -250 -198h472
c-7.33301 64 -31 113 -71 147s-90.333 51 -151 51z" />
    <glyph glyph-name="eacute" unicode="&#xe9;" horiz-adv-x="1186" 
d="M931 1440l-227 -268h-177l262 368zM1116 529l-2.99902 -69h-762c6 -82 33.333 -144.667 82 -188s109 -65 181 -65c52 0 97.167 11.833 135.5 35.5s67.166 58.167 86.499 103.5l264 -39c-34 -103.333 -94 -183.666 -180 -240.999s-187.333 -86 -304 -86
c-168 0 -301.5 47.167 -400.5 141.5s-148.5 225.166 -148.5 392.499c0 166 49.667 296.833 149 392.5s229.666 143.5 390.999 143.5c153.333 0 276.333 -43.667 369 -131s139.334 -217.333 140.001 -390zM609.001 846c-140 0 -223.333 -66 -250 -198h472
c-7.33301 64 -31 113 -71 147s-90.333 51 -151 51z" />
    <glyph glyph-name="ecircumflex" unicode="&#xea;" horiz-adv-x="1186" 
d="M615 1375l-136 -166h-177l227 299h173l227 -299h-177zM1116 529l-2.99902 -69h-762c6 -82 33.333 -144.667 82 -188s109 -65 181 -65c52 0 97.167 11.833 135.5 35.5s67.166 58.167 86.499 103.5l264 -39c-34 -103.333 -94 -183.666 -180 -240.999s-187.333 -86 -304 -86
c-168 0 -301.5 47.167 -400.5 141.5s-148.5 225.166 -148.5 392.499c0 166 49.667 296.833 149 392.5s229.666 143.5 390.999 143.5c153.333 0 276.333 -43.667 369 -131s139.334 -217.333 140.001 -390zM609.001 846c-140 0 -223.333 -66 -250 -198h472
c-7.33301 64 -31 113 -71 147s-90.333 51 -151 51z" />
    <glyph glyph-name="edieresis" unicode="&#xeb;" horiz-adv-x="1186" 
d="M401 1185c-46 0 -85.333 16.167 -118 48.5s-49 71.5 -49 117.5c0 45.333 16.5 84.166 49.5 116.499s72.167 48.5 117.5 48.5c44.667 0 83.334 -16.167 116.001 -48.5s49 -71.166 49 -116.499c0 -46 -16.333 -85.167 -49 -117.5s-71.334 -48.5 -116.001 -48.5zM832 1185
c-46 0 -85.333 16.167 -118 48.5s-49 71.5 -49 117.5c0 45.333 16.333 84.166 49 116.499s72 48.5 118 48.5c44.667 0 83.334 -16.167 116.001 -48.5s49 -71.166 49 -116.499c0 -46 -16.333 -85.167 -49 -117.5s-71.334 -48.5 -116.001 -48.5zM1116 529l-2.99902 -69h-762
c6 -82 33.333 -144.667 82 -188s109 -65 181 -65c52 0 97.167 11.833 135.5 35.5s67.166 58.167 86.499 103.5l264 -39c-34 -103.333 -94 -183.666 -180 -240.999s-187.333 -86 -304 -86c-168 0 -301.5 47.167 -400.5 141.5s-148.5 225.166 -148.5 392.499
c0 166 49.667 296.833 149 392.5s229.666 143.5 390.999 143.5c153.333 0 276.333 -43.667 369 -131s139.334 -217.333 140.001 -390zM609.001 846c-140 0 -223.333 -66 -250 -198h472c-7.33301 64 -31 113 -71 147s-90.333 51 -151 51z" />
    <glyph glyph-name="igrave" unicode="&#xec;" horiz-adv-x="588" 
d="M206 1169l-226 268l141 100l263 -368h-178zM149 0v1028h290v-1028h-290z" />
    <glyph glyph-name="iacute" unicode="&#xed;" horiz-adv-x="588" 
d="M206 1169l262 368l142 -100l-227 -268h-177zM149 0v1028h290v-1028h-290z" />
    <glyph glyph-name="icircumflex" unicode="&#xee;" horiz-adv-x="588" 
d="M158 1206h-177l227 299h173l227 -299h-177l-137 166zM149 0v1028h290v-1028h-290z" />
    <glyph glyph-name="idieresis" unicode="&#xef;" horiz-adv-x="588" 
d="M80 1182c-46 0 -85.333 16.167 -118 48.5s-49 71.5 -49 117.5c0 45.333 16.5 84.166 49.5 116.499s72.167 48.5 117.5 48.5c44.667 0 83.334 -16.167 116.001 -48.5s49 -71.166 49 -116.499c0 -46 -16.333 -85.167 -49 -117.5s-71.334 -48.5 -116.001 -48.5zM511 1182
c-46 0 -85.333 16.167 -118 48.5s-49 71.5 -49 117.5c0 45.333 16.333 84.166 49 116.499s72 48.5 118 48.5c44.667 0 83.334 -16.167 116.001 -48.5s49 -71.166 49 -116.499c0 -46 -16.333 -85.167 -49 -117.5s-71.334 -48.5 -116.001 -48.5zM149 0v1028h290v-1028h-290z
" />
    <glyph glyph-name="eth" unicode="&#xf0;" horiz-adv-x="1187" 
d="M999 874c84.667 -122 127 -244.333 127 -367c-0.666992 -99.333 -24.167 -189.166 -70.5 -269.499s-109.833 -143.166 -190.5 -188.499s-170 -68 -268 -68c-70.667 0 -138.5 13 -203.5 39s-121.833 61.833 -170.5 107.5s-87.5 101.667 -116.5 168
s-43.5 137.166 -43.5 212.499c0 152 41.5 274.167 124.5 366.5s189.5 147.166 319.5 164.499c22.667 2 46 1.33301 70 -2l-139 191l-242 -62l-23 85l209 53l-169 232h321l115 -164l214 55l23 -85l-183 -47zM606 238c77.333 0 138.668 25.667 184.001 77
s67.666 119 66.999 203c-0.666992 80 -24.667 146.833 -72 200.5s-108.333 80.5 -183 80.5c-77.333 0 -139.333 -26.167 -186 -78.5s-70 -120.833 -70 -205.5c0 -82.667 24.333 -149.5 73 -200.5s111 -76.5 187 -76.5z" />
    <glyph glyph-name="ntilde" unicode="&#xf1;" horiz-adv-x="1269" 
d="M531 1303c-22.667 0 -40 -11.667 -52 -35s-18 -54.333 -18 -93h-137c0 77.333 18.167 140.333 54.5 189s85.5 73 147.5 73c74.667 0 133 -34.333 175 -103c16 -25.333 36 -38 60 -38c44.667 0 67 42.667 67 128h138c0 -76.667 -17.833 -139.5 -53.5 -188.5
s-85.167 -73.5 -148.5 -73.5c-74 0 -132.667 34 -176 102c-16.667 26 -35.667 39 -57 39zM756 1048c123.333 0 218 -30.834 284 -92.501s99 -149.5 99 -263.5v-692h-289v630c0 64.667 -17.167 112 -51.5 142s-78.5 45 -132.5 45c-31.333 0 -60 -4.33301 -86 -13
s-50 -22.167 -72 -40.5s-39.167 -44.166 -51.5 -77.499s-18.833 -73 -19.5 -119v-567h-288v1028h288v-114c76 89.333 182.333 134 319 134z" />
    <glyph glyph-name="ograve" unicode="&#xf2;" horiz-adv-x="1257" 
d="M539 1168l-226 268l141 100l263 -368h-178zM628 -20c-109.333 0 -206.333 21 -291 63s-151.167 103.667 -199.5 185s-72.5 177 -72.5 287c0 164.667 52 294.667 156 390s239.667 143 407 143c168 0 304 -47.667 408 -143s156 -225.333 156 -390
c0 -165.333 -52 -295.833 -156 -391.5s-240 -143.5 -408 -143.5zM625 209c84 0 151.833 27.998 203.5 83.998s77.5 130 77.5 222s-25.833 166 -77.5 222s-119.5 84 -203.5 84c-80.667 0 -146.5 -28.167 -197.5 -84.5s-76.5 -130.166 -76.5 -221.499
s25.5 -165.166 76.5 -221.499s116.833 -84.5 197.5 -84.5z" />
    <glyph glyph-name="oacute" unicode="&#xf3;" horiz-adv-x="1257" 
d="M539 1168l262 368l142 -100l-227 -268h-177zM628 -20c-109.333 0 -206.333 21 -291 63s-151.167 103.667 -199.5 185s-72.5 177 -72.5 287c0 164.667 52 294.667 156 390s239.667 143 407 143c168 0 304 -47.667 408 -143s156 -225.333 156 -390
c0 -165.333 -52 -295.833 -156 -391.5s-240 -143.5 -408 -143.5zM625 209c84 0 151.833 27.998 203.5 83.998s77.5 130 77.5 222s-25.833 166 -77.5 222s-119.5 84 -203.5 84c-80.667 0 -146.5 -28.167 -197.5 -84.5s-76.5 -130.166 -76.5 -221.499
s25.5 -165.166 76.5 -221.499s116.833 -84.5 197.5 -84.5z" />
    <glyph glyph-name="ocircumflex" unicode="&#xf4;" horiz-adv-x="1257" 
d="M491 1205h-177l227 299h173l227 -299h-177l-137 166zM628 -20c-109.333 0 -206.333 21 -291 63s-151.167 103.667 -199.5 185s-72.5 177 -72.5 287c0 164.667 52 294.667 156 390s239.667 143 407 143c168 0 304 -47.667 408 -143s156 -225.333 156 -390
c0 -165.333 -52 -295.833 -156 -391.5s-240 -143.5 -408 -143.5zM625 209c84 0 151.833 27.998 203.5 83.998s77.5 130 77.5 222s-25.833 166 -77.5 222s-119.5 84 -203.5 84c-80.667 0 -146.5 -28.167 -197.5 -84.5s-76.5 -130.166 -76.5 -221.499
s25.5 -165.166 76.5 -221.499s116.833 -84.5 197.5 -84.5z" />
    <glyph glyph-name="otilde" unicode="&#xf5;" horiz-adv-x="1257" 
d="M761 1161c-74 0 -132.667 34 -176 102c-16.667 26 -35.667 39 -57 39c-22.667 0 -40 -11.667 -52 -35s-18 -54.333 -18 -93h-137c0 77.333 18.167 140.333 54.5 189s85.5 73 147.5 73c74.667 0 133 -34.333 175 -103c16 -25.333 36 -38 60 -38c44.667 0 67 42.667 67 128
h138c0 -76.667 -17.833 -139.5 -53.5 -188.5s-85.167 -73.5 -148.5 -73.5zM628 -20c-109.333 0 -206.333 21 -291 63s-151.167 103.667 -199.5 185s-72.5 177 -72.5 287c0 164.667 52 294.667 156 390s239.667 143 407 143c168 0 304 -47.667 408 -143
s156 -225.333 156 -390c0 -165.333 -52 -295.833 -156 -391.5s-240 -143.5 -408 -143.5zM625 209c84 0 151.833 27.998 203.5 83.998s77.5 130 77.5 222s-25.833 166 -77.5 222s-119.5 84 -203.5 84c-80.667 0 -146.5 -28.167 -197.5 -84.5s-76.5 -130.166 -76.5 -221.499
s25.5 -165.166 76.5 -221.499s116.833 -84.5 197.5 -84.5z" />
    <glyph glyph-name="odieresis" unicode="&#xf6;" horiz-adv-x="1257" 
d="M413 1181c-46 0 -85.333 16.167 -118 48.5s-49 71.5 -49 117.5c0 45.333 16.5 84.166 49.5 116.499s72.167 48.5 117.5 48.5c44.667 0 83.334 -16.167 116.001 -48.5s49 -71.166 49 -116.499c0 -46 -16.333 -85.167 -49 -117.5s-71.334 -48.5 -116.001 -48.5zM844 1181
c-46 0 -85.333 16.167 -118 48.5s-49 71.5 -49 117.5c0 45.333 16.333 84.166 49 116.499s72 48.5 118 48.5c44.667 0 83.334 -16.167 116.001 -48.5s49 -71.166 49 -116.499c0 -46 -16.333 -85.167 -49 -117.5s-71.334 -48.5 -116.001 -48.5zM628 -20
c-109.333 0 -206.333 21 -291 63s-151.167 103.667 -199.5 185s-72.5 177 -72.5 287c0 164.667 52 294.667 156 390s239.667 143 407 143c168 0 304 -47.667 408 -143s156 -225.333 156 -390c0 -165.333 -52 -295.833 -156 -391.5s-240 -143.5 -408 -143.5zM625 209
c84 0 151.833 27.998 203.5 83.998s77.5 130 77.5 222s-25.833 166 -77.5 222s-119.5 84 -203.5 84c-80.667 0 -146.5 -28.167 -197.5 -84.5s-76.5 -130.166 -76.5 -221.499s25.5 -165.166 76.5 -221.499s116.833 -84.5 197.5 -84.5z" />
    <glyph glyph-name="divide" unicode="&#xf7;" horiz-adv-x="1084" 
d="M533 930c-39.333 0 -73.832 14.5 -103.499 43.5s-44.5 64.167 -44.5 105.5c0 39.333 14.833 74 44.5 104s64.167 45 103.5 45c40 0 75 -15 105 -45s45 -64.667 45 -104c0 -41.333 -14.833 -76.5 -44.5 -105.5s-64.834 -43.5 -105.501 -43.5zM100.001 591v219h883v-219
h-883zM533.001 173c-39.333 0 -73.832 14.5 -103.499 43.5s-44.5 64.167 -44.5 105.5c0 39.333 14.833 74 44.5 104s64.167 45 103.5 45c40 0 75 -15 105 -45s45 -64.667 45 -104c0 -41.333 -14.833 -76.5 -44.5 -105.5s-64.834 -43.5 -105.501 -43.5z" />
    <glyph glyph-name="oslash" unicode="&#xf8;" horiz-adv-x="1257" 
d="M1001 935c127.333 -97.333 191 -237.333 191 -420c0 -165.333 -52 -295.833 -156 -391.5s-240 -143.5 -408 -143.5c-94.667 0 -180.667 16.333 -258 49l-89 -128l-115 69l88 126c-60 46.667 -106.5 105.667 -139.5 177s-49.5 152 -49.5 242c0 164.667 52 294.667 156 390
s239.667 143 407 143c94.667 0 180 -15.667 256 -47l88 126l115 -69zM351 515c0 -77.333 19 -143.334 57 -198.001l335 481c-36 15.333 -75.333 23 -118 23c-80.667 0 -146.5 -28.167 -197.5 -84.5s-76.5 -130.166 -76.5 -221.499zM625 208.999c84 0 151.832 28 203.499 84
s77.5 130 77.5 222c0 78.667 -19.667 145 -59 199l-335 -482c34.667 -15.333 72.334 -23 113.001 -23z" />
    <glyph glyph-name="ugrave" unicode="&#xf9;" horiz-adv-x="1267" 
d="M724 1169h-178l-226 268l141 100zM830 1028h288v-1028h-273l-7 124c-76 -96 -185 -144 -327 -144c-123.333 0 -218 30.833 -284 92.5s-99 149.5 -99 263.5v692h289v-630c0 -64 17.167 -111 51.5 -141s78.833 -45 133.5 -45c66.667 0 121.167 19.5 163.5 58.5
s63.833 102.5 64.5 190.5v567z" />
    <glyph glyph-name="uacute" unicode="&#xfa;" horiz-adv-x="1267" 
d="M950 1437l-227 -268h-177l262 368zM830 1028h288v-1028h-273l-7 124c-76 -96 -185 -144 -327 -144c-123.333 0 -218 30.833 -284 92.5s-99 149.5 -99 263.5v692h289v-630c0 -64 17.167 -111 51.5 -141s78.833 -45 133.5 -45c66.667 0 121.167 19.5 163.5 58.5
s63.833 102.5 64.5 190.5v567z" />
    <glyph glyph-name="ucircumflex" unicode="&#xfb;" horiz-adv-x="1267" 
d="M634 1372l-136 -166h-177l227 299h173l227 -299h-177zM830 1028h288v-1028h-273l-7 124c-76 -96 -185 -144 -327 -144c-123.333 0 -218 30.833 -284 92.5s-99 149.5 -99 263.5v692h289v-630c0 -64 17.167 -111 51.5 -141s78.833 -45 133.5 -45
c66.667 0 121.167 19.5 163.5 58.5s63.833 102.5 64.5 190.5v567z" />
    <glyph glyph-name="udieresis" unicode="&#xfc;" horiz-adv-x="1267" 
d="M420 1182c-46 0 -85.333 16.167 -118 48.5s-49 71.5 -49 117.5c0 45.333 16.5 84.166 49.5 116.499s72.167 48.5 117.5 48.5c44.667 0 83.334 -16.167 116.001 -48.5s49 -71.166 49 -116.499c0 -46 -16.333 -85.167 -49 -117.5s-71.334 -48.5 -116.001 -48.5zM851 1182
c-46 0 -85.333 16.167 -118 48.5s-49 71.5 -49 117.5c0 45.333 16.333 84.166 49 116.499s72 48.5 118 48.5c44.667 0 83.334 -16.167 116.001 -48.5s49 -71.166 49 -116.499c0 -46 -16.333 -85.167 -49 -117.5s-71.334 -48.5 -116.001 -48.5zM830 1028h288v-1028h-273
l-7 124c-76 -96 -185 -144 -327 -144c-123.333 0 -218 30.833 -284 92.5s-99 149.5 -99 263.5v692h289v-630c0 -64 17.167 -111 51.5 -141s78.833 -45 133.5 -45c66.667 0 121.167 19.5 163.5 58.5s63.833 102.5 64.5 190.5v567z" />
    <glyph glyph-name="yacute" unicode="&#xfd;" horiz-adv-x="1120" 
d="M876 1437l-227 -268h-177l262 368zM822 1028h295l-634 -1512h-292l235 526l-423 986h314l245 -676z" />
    <glyph glyph-name="thorn" unicode="&#xfe;" horiz-adv-x="1315" 
d="M752 1048c68 0 132 -12.3311 192 -36.998s112.5 -59.334 157.5 -104.001s80.5 -101.167 106.5 -169.5s39 -143.5 39 -225.5s-13 -157.167 -39 -225.5s-61.5 -124.833 -106.5 -169.5s-97.5 -79.334 -157.5 -104.001s-124 -37 -192 -37s-130 12.667 -186 38
s-99 61.333 -129 108v-622h-288v2036h288v-633c30 46 73 81.667 129 107s118 38 186 38zM687 215.002c78 0 142.833 26.833 194.5 80.5s77.5 125.834 77.5 216.501s-25.833 162.834 -77.5 216.501s-116.5 80.5 -194.5 80.5c-78.667 0 -144 -27.333 -196 -82
s-78 -126.334 -78 -215.001s26 -160.334 78 -215.001s117.333 -82 196 -82z" />
    <glyph glyph-name="ydieresis" unicode="&#xff;" horiz-adv-x="1120" 
d="M346 1182c-46 0 -85.333 16.167 -118 48.5s-49 71.5 -49 117.5c0 45.333 16.5 84.166 49.5 116.499s72.167 48.5 117.5 48.5c44.667 0 83.334 -16.167 116.001 -48.5s49 -71.166 49 -116.499c0 -46 -16.333 -85.167 -49 -117.5s-71.334 -48.5 -116.001 -48.5zM777 1182
c-46 0 -85.333 16.167 -118 48.5s-49 71.5 -49 117.5c0 45.333 16.333 84.166 49 116.499s72 48.5 118 48.5c44.667 0 83.334 -16.167 116.001 -48.5s49 -71.166 49 -116.499c0 -46 -16.333 -85.167 -49 -117.5s-71.334 -48.5 -116.001 -48.5zM822 1028h295l-634 -1512h-292
l235 526l-423 986h314l245 -676z" />
    <glyph glyph-name="Amacron" unicode="&#x100;" horiz-adv-x="1491" 
d="M1078 1750v-170h-664v170h664zM1154 0l-105 298h-607l-105 -298h-307l532 1445h367l532 -1445h-307zM530 549h431l-215 613z" />
    <glyph glyph-name="amacron" unicode="&#x101;" horiz-adv-x="1123" 
d="M897 1367v-170h-664v170h664zM992 279c0 -109.333 8.33105 -192.999 24.998 -250.999v-28h-269l-23 112c-36.667 -44 -84.667 -77 -144 -99s-121.333 -33 -186 -33c-34 0 -66 3 -96 9s-58.833 16.167 -86.5 30.5s-51.5 32.166 -71.5 53.499s-36 48.5 -48 81.5
s-18 70.167 -18 111.5s6.33301 78.5 19 111.5s29.334 60.833 50.001 83.5s47.667 43 81 61s67.333 32.667 102 44s75.334 22 122.001 32l169 38c36 8.66699 61.5 19.5 76.5 32.5s22.5 30.167 22.5 51.5c0 46 -16.833 79 -50.5 99s-74.5 30 -122.5 30
c-118 0 -185 -52.333 -201 -157l-255 46c21.333 106 71 184.167 149 234.5s185.667 75.5 323 75.5c288 0 432 -123.667 432 -371v-398zM484.998 175.001c72.667 0 132.002 24.833 178.002 74.5s69 123.167 69 220.5l-244 -69c-44.667 -10.667 -78.834 -24.667 -102.501 -42
s-35.5 -42 -35.5 -74c0 -35.333 12.667 -62.5 38 -81.5s57.666 -28.5 96.999 -28.5z" />
    <glyph glyph-name="Abreve" unicode="&#x102;" horiz-adv-x="1491" 
d="M745 1580c-242.667 0 -364 98.333 -364 295h166c0 -54 17.5 -94.333 52.5 -121s83.5 -40 145.5 -40c63.333 0 112.5 13.167 147.5 39.5s52.5 66.833 52.5 121.5h166c0 -196.667 -122 -295 -366 -295zM1154 0l-105 298h-607l-105 -298h-307l532 1445h367l532 -1445h-307z
M530 549h431l-215 613z" />
    <glyph glyph-name="abreve" unicode="&#x103;" horiz-adv-x="1123" 
d="M565 1154c-110.667 0 -199.001 30.1689 -265.001 90.502s-99 147.166 -99 260.499h180c0 -64.667 16 -116.834 48 -156.501s77.333 -59.5 136 -59.5c59.333 0 105 19.667 137 59s48 91.666 48 156.999h181c0 -113.333 -33.167 -200.166 -99.5 -260.499
s-155.166 -90.5 -266.499 -90.5zM991.999 279.002c0 -109.333 8.33105 -192.999 24.998 -250.999v-28h-269l-23 112c-36.667 -44 -84.667 -77 -144 -99s-121.333 -33 -186 -33c-34 0 -66 3 -96 9s-58.833 16.167 -86.5 30.5s-51.5 32.166 -71.5 53.499s-36 48.5 -48 81.5
s-18 70.167 -18 111.5s6.33301 78.5 19 111.5s29.334 60.833 50.001 83.5s47.667 43 81 61s67.333 32.667 102 44s75.334 22 122.001 32l169 38c36 8.66699 61.5 19.5 76.5 32.5s22.5 30.167 22.5 51.5c0 46 -16.833 79 -50.5 99s-74.5 30 -122.5 30
c-118 0 -185 -52.333 -201 -157l-255 46c21.333 106 71 184.167 149 234.5s185.667 75.5 323 75.5c288 0 432 -123.667 432 -371v-398zM484.997 175.003c72.667 0 132.002 24.833 178.002 74.5s69 123.167 69 220.5l-244 -69c-44.667 -10.667 -78.834 -24.667 -102.501 -42
s-35.5 -42 -35.5 -74c0 -35.333 12.667 -62.5 38 -81.5s57.666 -28.5 96.999 -28.5z" />
    <glyph glyph-name="Aogonek" unicode="&#x104;" horiz-adv-x="1491" 
d="M1289 -220c0 -24 20.001 -36.001 60.001 -36.001c18.667 0 38.667 3.66699 60 11s38.666 17 51.999 29v-182c-43.333 -18 -91.333 -27 -144 -27c-57.333 0 -103.833 9.33301 -139.5 28s-53.5 45.667 -53.5 81c0 74 72.333 179.333 217 316h-187l-105 298h-607l-105 -298
h-307l532 1445h367l532 -1445c-114.667 -103.333 -172 -176.666 -172 -219.999zM530.001 548.999h431l-215 613z" />
    <glyph glyph-name="aogonek" unicode="&#x105;" horiz-adv-x="1123" 
d="M1017 0c-114.667 -103.333 -172.001 -176.666 -172.001 -219.999c0 -24 20 -36 60 -36c18.667 0 38.667 3.66699 60 11s38.666 17 51.999 29v-182c-43.333 -18 -91.333 -27 -144 -27c-57.333 0 -103.833 9.33301 -139.5 28s-53.5 45.667 -53.5 81
c0 74 72.333 179.333 217 316h-149l-23 112c-36.667 -44 -84.667 -77 -144 -99s-121.333 -33 -186 -33c-34 0 -66 3 -96 9s-58.833 16.167 -86.5 30.5s-51.5 32.166 -71.5 53.499s-36 48.5 -48 81.5s-18 70.167 -18 111.5s6.33301 78.5 19 111.5s29.334 60.833 50.001 83.5
s47.667 43 81 61s67.333 32.667 102 44s75.334 22 122.001 32l169 38c36 8.66699 61.5 19.5 76.5 32.5s22.5 30.167 22.5 51.5c0 46 -16.833 79 -50.5 99s-74.5 30 -122.5 30c-118 0 -185 -52.333 -201 -157l-255 46c21.333 106 71 184.167 149 234.5s185.667 75.5 323 75.5
c288 0 432 -123.667 432 -371v-398c0 -109.333 8.33301 -193 25 -251v-28zM484.999 175c72.667 0 132.002 24.833 178.002 74.5s69 123.167 69 220.5l-244 -69c-44.667 -10.667 -78.834 -24.667 -102.501 -42s-35.5 -42 -35.5 -74c0 -35.333 12.667 -62.5 38 -81.5
s57.666 -28.5 96.999 -28.5z" />
    <glyph glyph-name="Cacute" unicode="&#x106;" horiz-adv-x="1569" 
d="M740 1580l262 368l142 -101l-227 -267h-177zM827 -20c-105.333 0 -203.501 17.6699 -294.501 53.0029s-169.167 84.666 -234.5 147.999s-116.666 141.666 -153.999 234.999s-56 195.666 -56 306.999c0 148.667 32 279.5 96 392.5s151.833 199.5 263.5 259.5
s238.167 90 379.5 90c161.333 0 302.666 -39 423.999 -117s207.666 -185.333 258.999 -322l-280 -102c-32 83.333 -83.667 148.333 -155 195s-154 70 -248 70c-128 0 -233.333 -42 -316 -126s-124 -197.333 -124 -340s41.5 -256.167 124.5 -340.5
s188.167 -126.5 315.5 -126.5c93.333 0 175.833 23.5 247.5 70.5s123.5 112.167 155.5 195.5l280 -102c-51.333 -136.667 -137.666 -244.167 -258.999 -322.5s-262.666 -117.5 -423.999 -117.5z" />
    <glyph glyph-name="cacute" unicode="&#x107;" horiz-adv-x="1175" 
d="M511 1169l262 368l142 -100l-227 -268h-177zM614 -19c-162 0 -294.333 49.3311 -397 147.998s-154 227.334 -154 386.001c0 159.333 51.167 288 153.5 386s234.833 147 397.5 147c132 0 243 -33 333 -99s147.333 -159 172 -279l-266 -29c-15.333 60 -44 105 -86 135
s-94 45 -156 45c-77.333 0 -140 -28 -188 -84s-72 -130 -72 -222c0 -91.333 24 -165.166 72 -221.499s110.667 -84.5 188 -84.5c62 0 113.833 15 155.5 45s70.5 75 86.5 135l266 -29c-24.667 -119.333 -82.5 -212.333 -173.5 -279s-201.5 -100 -331.5 -100z" />
    <glyph glyph-name="Cdotaccent" unicode="&#x10a;" horiz-adv-x="1569" 
d="M830 1536c-46 0 -85.333 16.167 -118 48.5s-49 71.5 -49 117.5c0 45.333 16.333 84 49 116s72 48 118 48c44.667 0 83.334 -16 116.001 -48s49 -70.667 49 -116c0 -46 -16.333 -85.167 -49 -117.5s-71.334 -48.5 -116.001 -48.5zM827 -20
c-105.333 0 -203.501 17.6699 -294.501 53.0029s-169.167 84.666 -234.5 147.999s-116.666 141.666 -153.999 234.999s-56 195.666 -56 306.999c0 148.667 32 279.5 96 392.5s151.833 199.5 263.5 259.5s238.167 90 379.5 90c161.333 0 302.666 -39 423.999 -117
s207.666 -185.333 258.999 -322l-280 -102c-32 83.333 -83.667 148.333 -155 195s-154 70 -248 70c-128 0 -233.333 -42 -316 -126s-124 -197.333 -124 -340s41.5 -256.167 124.5 -340.5s188.167 -126.5 315.5 -126.5c93.333 0 175.833 23.5 247.5 70.5
s123.5 112.167 155.5 195.5l280 -102c-51.333 -136.667 -137.666 -244.167 -258.999 -322.5s-262.666 -117.5 -423.999 -117.5z" />
    <glyph glyph-name="cdotaccent" unicode="&#x10b;" horiz-adv-x="1175" 
d="M601 1182c-46 0 -85.333 16.167 -118 48.5s-49 71.5 -49 117.5c0 45.333 16.5 84.166 49.5 116.499s72.167 48.5 117.5 48.5c44.667 0 83.334 -16.167 116.001 -48.5s49 -71.166 49 -116.499c0 -46 -16.333 -85.167 -49 -117.5s-71.334 -48.5 -116.001 -48.5zM614 -19
c-162 0 -294.333 49.3311 -397 147.998s-154 227.334 -154 386.001c0 159.333 51.167 288 153.5 386s234.833 147 397.5 147c132 0 243 -33 333 -99s147.333 -159 172 -279l-266 -29c-15.333 60 -44 105 -86 135s-94 45 -156 45c-77.333 0 -140 -28 -188 -84
s-72 -130 -72 -222c0 -91.333 24 -165.166 72 -221.499s110.667 -84.5 188 -84.5c62 0 113.833 15 155.5 45s70.5 75 86.5 135l266 -29c-24.667 -119.333 -82.5 -212.333 -173.5 -279s-201.5 -100 -331.5 -100z" />
    <glyph glyph-name="Ccaron" unicode="&#x10c;" horiz-adv-x="1569" 
d="M742 1580l-227 299h177l137 -167l136 167h178l-227 -299h-174zM827 -20c-105.333 0 -203.501 17.6699 -294.501 53.0029s-169.167 84.666 -234.5 147.999s-116.666 141.666 -153.999 234.999s-56 195.666 -56 306.999c0 148.667 32 279.5 96 392.5
s151.833 199.5 263.5 259.5s238.167 90 379.5 90c161.333 0 302.666 -39 423.999 -117s207.666 -185.333 258.999 -322l-280 -102c-32 83.333 -83.667 148.333 -155 195s-154 70 -248 70c-128 0 -233.333 -42 -316 -126s-124 -197.333 -124 -340s41.5 -256.167 124.5 -340.5
s188.167 -126.5 315.5 -126.5c93.333 0 175.833 23.5 247.5 70.5s123.5 112.167 155.5 195.5l280 -102c-51.333 -136.667 -137.666 -244.167 -258.999 -322.5s-262.666 -117.5 -423.999 -117.5z" />
    <glyph glyph-name="ccaron" unicode="&#x10d;" horiz-adv-x="1175" 
d="M513 1206l-227 299h177l137 -167l136 167h178l-227 -299h-174zM614 -19c-162 0 -294.333 49.3311 -397 147.998s-154 227.334 -154 386.001c0 159.333 51.167 288 153.5 386s234.833 147 397.5 147c132 0 243 -33 333 -99s147.333 -159 172 -279l-266 -29
c-15.333 60 -44 105 -86 135s-94 45 -156 45c-77.333 0 -140 -28 -188 -84s-72 -130 -72 -222c0 -91.333 24 -165.166 72 -221.499s110.667 -84.5 188 -84.5c62 0 113.833 15 155.5 45s70.5 75 86.5 135l266 -29c-24.667 -119.333 -82.5 -212.333 -173.5 -279
s-201.5 -100 -331.5 -100z" />
    <glyph glyph-name="Dcaron" unicode="&#x10e;" horiz-adv-x="1493" 
d="M548 1580l-227 299h177l137 -167l136 167h178l-227 -299h-174zM187 0v1445h523c113.333 0 213.833 -17.333 301.5 -52s159.667 -83.834 216 -147.501s99 -139.5 128 -227.5s43.5 -186.333 43.5 -295c0 -109.333 -14.5 -208 -43.5 -296s-71.667 -163.833 -128 -227.5
s-128.333 -112.834 -216 -147.501s-188.167 -52 -301.5 -52h-523zM487 265.002h208c130.667 0 228 39.167 292 117.5s96 191.833 96 340.5s-32 262.167 -96 340.5s-161.333 117.5 -292 117.5h-208v-916z" />
    <glyph glyph-name="dcaron" unicode="&#x10f;" horiz-adv-x="1540" 
d="M526 -20c-132 0 -240.667 48.5 -326 145.5s-128 227.5 -128 391.5s42.667 294.333 128 391s194 145 326 145c67.333 0 129.5 -14 186.5 -42s104.833 -67.667 143.5 -119l1 644h287v-1536h-288v141c-38.667 -51.333 -86.5 -91 -143.5 -119s-119.167 -42 -186.5 -42z
M1286 882l126 654h296l-216 -654h-206zM629 219c76 0 139.167 27.499 189.5 82.499s75.5 126.833 75.5 215.5s-25.333 160.334 -76 215.001s-113.667 82 -189 82c-78 0 -142.333 -27 -193 -81s-76 -126 -76 -216c0 -90.667 25.333 -163 76 -217s115 -81 193 -81z" />
    <glyph glyph-name="Dcroat" unicode="&#x110;" horiz-adv-x="1493" 
d="M710 1445c113.333 0 213.833 -17.3311 301.5 -51.998s159.667 -83.834 216 -147.501s99 -139.5 128 -227.5s43.5 -186.333 43.5 -295c0 -109.333 -14.5 -208 -43.5 -296s-71.667 -163.833 -128 -227.5s-128.333 -112.834 -216 -147.501s-188.167 -52 -301.5 -52h-523v635
h-154v176h154v634h523zM695 265.002c130.667 0 228 39.167 292 117.5s96 191.833 96 340.5s-32 262.167 -96 340.5s-161.333 117.5 -292 117.5h-208v-370h235v-176h-235v-370h208z" />
    <glyph glyph-name="dcroat" unicode="&#x111;" horiz-adv-x="1315" 
d="M1304 1364l0.000976562 -176h-138v-1188h-273l-7 134c-29.333 -50 -72.833 -88.833 -130.5 -116.5s-121.834 -41.5 -192.501 -41.5c-68 0 -132 12.333 -192 37s-112.5 59.5 -157.5 104.5s-80.5 101.5 -106.5 169.5s-39 143 -39 225c0 108.667 22.667 204.167 68 286.5
s105.166 144.5 179.499 186.5s156.833 63 247.5 63c68.667 0 130.834 -12.5 186.501 -37.5s98.5 -60.5 128.5 -106.5v284h-263v176h263v172h288v-172h138zM629.001 215c78 0 142.833 27.332 194.5 81.999s77.5 126.334 77.5 215.001s-26 160.5 -78 215.5
s-116.667 82.5 -194 82.5c-78.667 0 -143.834 -27 -195.501 -81s-77.5 -126.333 -77.5 -217c0 -90 25.833 -162 77.5 -216s116.834 -81 195.501 -81z" />
    <glyph glyph-name="Emacron" unicode="&#x112;" horiz-adv-x="1147" 
d="M945 1750v-170h-664v170h664zM1025 1181h-536v-328h475v-261h-475v-327h536v-265h-838v1445h838v-264z" />
    <glyph glyph-name="emacron" unicode="&#x113;" horiz-adv-x="1186" 
d="M948 1370v-170h-664v170h664zM1116 529l-2.99902 -69h-762c6 -82 33.333 -144.667 82 -188s109 -65 181 -65c52 0 97.167 11.833 135.5 35.5s67.166 58.167 86.499 103.5l264 -39c-34 -103.333 -94 -183.666 -180 -240.999s-187.333 -86 -304 -86
c-168 0 -301.5 47.167 -400.5 141.5s-148.5 225.166 -148.5 392.499c0 166 49.667 296.833 149 392.5s229.666 143.5 390.999 143.5c153.333 0 276.333 -43.667 369 -131s139.334 -217.333 140.001 -390zM609.001 846c-140 0 -223.333 -66 -250 -198h472
c-7.33301 64 -31 113 -71 147s-90.333 51 -151 51z" />
    <glyph glyph-name="Edotaccent" unicode="&#x116;" horiz-adv-x="1147" 
d="M614 1536c-46 0 -85.333 16.167 -118 48.5s-49 71.5 -49 117.5c0 45.333 16.333 84 49 116s72 48 118 48c44.667 0 83.334 -16 116.001 -48s49 -70.667 49 -116c0 -46 -16.333 -85.167 -49 -117.5s-71.334 -48.5 -116.001 -48.5zM1025 1181h-536v-328h475v-261h-475v-327
h536v-265h-838v1445h838v-264z" />
    <glyph glyph-name="edotaccent" unicode="&#x117;" horiz-adv-x="1186" 
d="M617 1185c-46 0 -85.333 16.167 -118 48.5s-49 71.5 -49 117.5c0 45.333 16.5 84.166 49.5 116.499s72.167 48.5 117.5 48.5c44.667 0 83.334 -16.167 116.001 -48.5s49 -71.166 49 -116.499c0 -46 -16.333 -85.167 -49 -117.5s-71.334 -48.5 -116.001 -48.5zM1116 529
l-2.99902 -69h-762c6 -82 33.333 -144.667 82 -188s109 -65 181 -65c52 0 97.167 11.833 135.5 35.5s67.166 58.167 86.499 103.5l264 -39c-34 -103.333 -94 -183.666 -180 -240.999s-187.333 -86 -304 -86c-168 0 -301.5 47.167 -400.5 141.5
s-148.5 225.166 -148.5 392.499c0 166 49.667 296.833 149 392.5s229.666 143.5 390.999 143.5c153.333 0 276.333 -43.667 369 -131s139.334 -217.333 140.001 -390zM609.001 846c-140 0 -223.333 -66 -250 -198h472c-7.33301 64 -31 113 -71 147s-90.333 51 -151 51z" />
    <glyph glyph-name="Eogonek" unicode="&#x118;" horiz-adv-x="1147" 
d="M1025 1181l-535.999 -0.000976562v-328h475v-261h-475v-327h536v-265c-114.667 -103.333 -172 -176.666 -172 -219.999c0 -24 20 -36 60 -36c18.667 0 38.667 3.66699 60 11s38.666 17 51.999 29v-182c-43.333 -18 -91.333 -27 -144 -27
c-57.333 0 -103.833 9.33301 -139.5 28s-53.5 45.667 -53.5 81c0 74 72.333 179.333 217 316h-718v1445h838v-264z" />
    <glyph glyph-name="eogonek" unicode="&#x119;" horiz-adv-x="1186" 
d="M1116 529l-2.99805 -69h-762c6 -82 33.333 -144.667 82 -188s109 -65 181 -65c52 0 97.167 11.833 135.5 35.5s67.166 58.167 86.499 103.5l264 -39c-20 -61.333 -49.667 -114.666 -89 -159.999l2 -1l-15 -13c-13.333 -14 -26 -26.333 -38 -37
c-79.333 -78 -119 -134.667 -119 -170c0 -24 20 -36 60 -36c18.667 0 38.667 3.66699 60 11s38.666 17 51.999 29v-182c-43.333 -18 -91.333 -27 -144 -27c-57.333 0 -103.833 9.33301 -139.5 28s-53.5 45.667 -53.5 81c0 43.333 25.667 98.333 77 165
c-43.333 -10 -89 -15 -137 -15c-168 0 -301.5 47.167 -400.5 141.5s-148.5 225.166 -148.5 392.499c0 166 49.667 296.833 149 392.5s229.666 143.5 390.999 143.5c153.333 0 276.333 -43.667 369 -131s139.334 -217.333 140.001 -390zM609.002 846
c-140 0 -223.333 -66 -250 -198h472c-7.33301 64 -31 113 -71 147s-90.333 51 -151 51z" />
    <glyph glyph-name="Ecaron" unicode="&#x11a;" horiz-adv-x="1147" 
d="M700 1580h-174l-227 299h177l137 -167l136 167h178zM1025 1181h-536v-328h475v-261h-475v-327h536v-265h-838v1445h838v-264z" />
    <glyph glyph-name="ecaron" unicode="&#x11b;" horiz-adv-x="1186" 
d="M703 1209h-174l-227 299h177l137 -167l136 167h178zM1116 529l-2.99902 -69h-762c6 -82 33.333 -144.667 82 -188s109 -65 181 -65c52 0 97.167 11.833 135.5 35.5s67.166 58.167 86.499 103.5l264 -39c-34 -103.333 -94 -183.666 -180 -240.999s-187.333 -86 -304 -86
c-168 0 -301.5 47.167 -400.5 141.5s-148.5 225.166 -148.5 392.499c0 166 49.667 296.833 149 392.5s229.666 143.5 390.999 143.5c153.333 0 276.333 -43.667 369 -131s139.334 -217.333 140.001 -390zM609.001 846c-140 0 -223.333 -66 -250 -198h472
c-7.33301 64 -31 113 -71 147s-90.333 51 -151 51z" />
    <glyph glyph-name="Gbreve" unicode="&#x11e;" horiz-adv-x="1642" 
d="M820 1580c-242.667 0 -364 98.333 -364 295h166c0 -54 17.5 -94.333 52.5 -121s83.5 -40 145.5 -40c63.333 0 112.5 13.167 147.5 39.5s52.5 66.833 52.5 121.5h166c0 -196.667 -122 -295 -366 -295zM812 -20c-103.333 0 -199.5 17.4971 -288.5 52.4971
s-165.667 84.167 -230 147.5s-114.666 141.333 -150.999 234s-54.5 194.334 -54.5 305.001c0 112 18.667 214.833 56 308.5s88.666 172.334 153.999 236.001s143.5 113.167 234.5 148.5s189.167 53 294.5 53c139.333 0 264.5 -29.5 375.5 -88.5
s197.833 -142.833 260.5 -251.5l-263 -140c-37.333 72.667 -88.166 127.334 -152.499 164.001s-137.833 55 -220.5 55c-128.667 0 -233.834 -42.333 -315.501 -127s-122.5 -201.667 -122.5 -351c0 -147.333 40.667 -265 122 -353s190.333 -132 327 -132
c64 0 122.667 10.333 176 31s100 54.167 140 100.5s66.667 103.5 80 171.5h-395v241h679v-785h-236v200c-99.333 -146.667 -256 -220 -470 -220z" />
    <glyph glyph-name="gbreve" unicode="&#x11f;" horiz-adv-x="1281" 
d="M626 1154c-110.667 0 -199.001 30.1689 -265.001 90.502s-99 147.166 -99 260.499h180c0 -64.667 16 -116.834 48 -156.501s77.333 -59.5 136 -59.5c59.333 0 105 19.667 137 59s48 91.666 48 156.999h181c0 -113.333 -33.167 -200.166 -99.5 -260.499
s-155.166 -90.5 -266.499 -90.5zM856.999 1028l274.002 -0.00292969v-951c0 -98 -12.833 -183.333 -38.5 -256s-62.834 -131.167 -111.501 -175.5s-105.667 -77.166 -171 -98.499s-140 -32 -224 -32c-271.333 0 -448 106.333 -530 319l239 102
c29.333 -67.333 66.333 -117 111 -149s101 -48 169 -48c178 0 267 105.667 267 317v120c-30.667 -42 -73.834 -75.833 -129.501 -101.5s-116.5 -38.5 -182.5 -38.5c-63.333 0 -123.5 12.167 -180.5 36.5s-106.833 58.333 -149.5 102s-76.5 97.5 -101.5 161.5
s-37.5 133.333 -37.5 208c0 75.333 12.5 144.833 37.5 208.5s59 116.834 102 159.501s93 76 150 100s117.5 36 181.5 36c70.667 0 134.167 -14.167 190.5 -42.5s98.833 -66.166 127.5 -113.499zM604.001 268.999c74.667 0 137.667 26.667 189 80s77 118.333 77 195
c0 77.333 -25.5 142.666 -76.5 195.999s-114.167 80 -189.5 80c-76 0 -139.167 -26.167 -189.5 -78.5s-75.5 -118.166 -75.5 -197.499c0 -78 25.5 -143.333 76.5 -196s113.833 -79 188.5 -79z" />
    <glyph glyph-name="Gdotaccent" unicode="&#x120;" horiz-adv-x="1642" 
d="M822 1536c-46 0 -85.333 16.167 -118 48.5s-49 71.5 -49 117.5c0 45.333 16.333 84 49 116s72 48 118 48c44.667 0 83.334 -16 116.001 -48s49 -70.667 49 -116c0 -46 -16.333 -85.167 -49 -117.5s-71.334 -48.5 -116.001 -48.5zM812 -20
c-103.333 0 -199.5 17.4971 -288.5 52.4971s-165.667 84.167 -230 147.5s-114.666 141.333 -150.999 234s-54.5 194.334 -54.5 305.001c0 112 18.667 214.833 56 308.5s88.666 172.334 153.999 236.001s143.5 113.167 234.5 148.5s189.167 53 294.5 53
c139.333 0 264.5 -29.5 375.5 -88.5s197.833 -142.833 260.5 -251.5l-263 -140c-37.333 72.667 -88.166 127.334 -152.499 164.001s-137.833 55 -220.5 55c-128.667 0 -233.834 -42.333 -315.501 -127s-122.5 -201.667 -122.5 -351c0 -147.333 40.667 -265 122 -353
s190.333 -132 327 -132c64 0 122.667 10.333 176 31s100 54.167 140 100.5s66.667 103.5 80 171.5h-395v241h679v-785h-236v200c-99.333 -146.667 -256 -220 -470 -220z" />
    <glyph glyph-name="gdotaccent" unicode="&#x121;" horiz-adv-x="1281" 
d="M627 1182c-46 0 -85.333 16.167 -118 48.5s-49 71.5 -49 117.5c0 45.333 16.5 84.166 49.5 116.499s72.167 48.5 117.5 48.5c44.667 0 83.334 -16.167 116.001 -48.5s49 -71.166 49 -116.499c0 -46 -16.333 -85.167 -49 -117.5s-71.334 -48.5 -116.001 -48.5zM857 1028
l274.002 -0.00292969v-951c0 -98 -12.833 -183.333 -38.5 -256s-62.834 -131.167 -111.501 -175.5s-105.667 -77.166 -171 -98.499s-140 -32 -224 -32c-271.333 0 -448 106.333 -530 319l239 102c29.333 -67.333 66.333 -117 111 -149s101 -48 169 -48
c178 0 267 105.667 267 317v120c-30.667 -42 -73.834 -75.833 -129.501 -101.5s-116.5 -38.5 -182.5 -38.5c-63.333 0 -123.5 12.167 -180.5 36.5s-106.833 58.333 -149.5 102s-76.5 97.5 -101.5 161.5s-37.5 133.333 -37.5 208c0 75.333 12.5 144.833 37.5 208.5
s59 116.834 102 159.501s93 76 150 100s117.5 36 181.5 36c70.667 0 134.167 -14.167 190.5 -42.5s98.833 -66.166 127.5 -113.499zM604.002 268.997c74.667 0 137.667 26.667 189 80s77 118.333 77 195c0 77.333 -25.5 142.666 -76.5 195.999s-114.167 80 -189.5 80
c-76 0 -139.167 -26.167 -189.5 -78.5s-75.5 -118.166 -75.5 -197.499c0 -78 25.5 -143.333 76.5 -196s113.833 -79 188.5 -79z" />
    <glyph glyph-name="Gcommaaccent" unicode="&#x122;" horiz-adv-x="1642" 
d="M812 -20c-103.333 0 -199.5 17.4971 -288.5 52.4971s-165.667 84.167 -230 147.5s-114.666 141.333 -150.999 234s-54.5 194.334 -54.5 305.001c0 112 18.667 214.833 56 308.5s88.666 172.334 153.999 236.001s143.5 113.167 234.5 148.5s189.167 53 294.5 53
c139.333 0 264.5 -29.5 375.5 -88.5s197.833 -142.833 260.5 -251.5l-263 -140c-37.333 72.667 -88.166 127.334 -152.499 164.001s-137.833 55 -220.5 55c-128.667 0 -233.834 -42.333 -315.501 -127s-122.5 -201.667 -122.5 -351c0 -147.333 40.667 -265 122 -353
s190.333 -132 327 -132c64 0 122.667 10.333 176 31s100 54.167 140 100.5s66.667 103.5 80 171.5h-395v241h679v-785h-236v200c-99.333 -146.667 -256 -220 -470 -220zM668 -574.003l-141 66l168 373h251z" />
    <glyph glyph-name="gcommaaccent" unicode="&#x123;" horiz-adv-x="1281" 
d="M843 1502l-125 -327h-296l215 327h206zM857 1028l274.002 -0.00292969v-951c0 -98 -12.833 -183.333 -38.5 -256s-62.834 -131.167 -111.501 -175.5s-105.667 -77.166 -171 -98.499s-140 -32 -224 -32c-271.333 0 -448 106.333 -530 319l239 102
c29.333 -67.333 66.333 -117 111 -149s101 -48 169 -48c178 0 267 105.667 267 317v120c-30.667 -42 -73.834 -75.833 -129.501 -101.5s-116.5 -38.5 -182.5 -38.5c-63.333 0 -123.5 12.167 -180.5 36.5s-106.833 58.333 -149.5 102s-76.5 97.5 -101.5 161.5
s-37.5 133.333 -37.5 208c0 75.333 12.5 144.833 37.5 208.5s59 116.834 102 159.501s93 76 150 100s117.5 36 181.5 36c70.667 0 134.167 -14.167 190.5 -42.5s98.833 -66.166 127.5 -113.499zM604.002 268.997c74.667 0 137.667 26.667 189 80s77 118.333 77 195
c0 77.333 -25.5 142.666 -76.5 195.999s-114.167 80 -189.5 80c-76 0 -139.167 -26.167 -189.5 -78.5s-75.5 -118.166 -75.5 -197.499c0 -78 25.5 -143.333 76.5 -196s113.833 -79 188.5 -79z" />
    <glyph glyph-name="Hbar" unicode="&#x126;" horiz-adv-x="1585" 
d="M1529 1198v-117h-131v-1081h-300v594h-611v-594h-300v1081h-128v117h128v247h300v-247h611v247h300v-247h131zM1098 855v226h-611v-226h611z" />
    <glyph glyph-name="hbar" unicode="&#x127;" horiz-adv-x="1267" 
d="M771 1048c116.667 0 207.167 -32.501 271.5 -97.501s96.5 -160.833 96.5 -287.5v-663h-289v616c0 70.667 -17 121.834 -51 153.501s-79.333 47.5 -136 47.5c-28.667 0 -55.5 -4 -80.5 -12s-48.833 -20.833 -71.5 -38.5s-40.5 -43.5 -53.5 -77.5
s-19.833 -74.667 -20.5 -122v-567h-288v1189h-122v176h122v171h288v-171h279v-176h-279v-284c78 95.333 189.333 143 334 143z" />
    <glyph glyph-name="Itilde" unicode="&#x128;" horiz-adv-x="673" 
d="M484 1590c-42 0 -75.6689 7.16504 -101.002 21.498s-48.333 33.833 -69 58.5c-2 2 -6 6.83301 -12 14.5l-12 15.5c-2 2.66699 -5.66699 6.83398 -11 12.501s-9.66602 9.5 -12.999 11.5l-13 8c-5.33301 3.33301 -10.833 5.5 -16.5 6.5s-11.5 1.5 -17.5 1.5
c-27.333 0 -48.166 -12.667 -62.499 -38s-21.5 -58.333 -21.5 -99h-151c0 78.667 20.667 142.834 62 192.501s97.333 74.5 168 74.5c68.667 0 124.667 -24.333 168 -73l22.5 -26c11 -12.667 19.167 -21.5 24.5 -26.5s13.166 -10.167 23.499 -15.5s20.833 -8 31.5 -8
c52 0 78 45 78 135h153c0 -78 -20.167 -141.833 -60.5 -191.5s-97.166 -74.5 -170.499 -74.5zM186.998 -0.00195312v1445h300v-1445h-300z" />
    <glyph glyph-name="itilde" unicode="&#x129;" horiz-adv-x="588" 
d="M428 1162c-74 0 -132.667 34 -176 102c-16.667 26 -35.667 39 -57 39c-22.667 0 -40 -11.667 -52 -35s-18 -54.333 -18 -93h-137c0 77.333 18.167 140.333 54.5 189s85.5 73 147.5 73c74.667 0 133 -34.333 175 -103c16 -25.333 36 -38 60 -38c44.667 0 67 42.667 67 128
h138c0 -76.667 -17.833 -139.5 -53.5 -188.5s-85.167 -73.5 -148.5 -73.5zM149 0v1028h290v-1028h-290z" />
    <glyph glyph-name="Imacron" unicode="&#x12a;" horiz-adv-x="673" 
d="M3 1580v170h664v-170h-664zM187 0v1445h300v-1445h-300z" />
    <glyph glyph-name="imacron" unicode="&#x12b;" horiz-adv-x="588" 
d="M-37 1197v170h664v-170h-664zM149 0v1028h290v-1028h-290z" />
    <glyph glyph-name="Iogonek" unicode="&#x12e;" horiz-adv-x="673" 
d="M487 0c-114.667 -103.333 -171.999 -176.667 -171.999 -220c0 -24 20 -36 60 -36c18.667 0 38.667 3.66699 60 11s38.666 17 51.999 29v-182c-43.333 -18 -91.333 -27 -144 -27c-57.333 0 -103.833 9.33301 -139.5 28s-53.5 45.667 -53.5 81c0 74 72.333 179.333 217 316
h-180v1445h300v-1445z" />
    <glyph glyph-name="iogonek" unicode="&#x12f;" horiz-adv-x="588" 
d="M296 1182c-46 0 -85.333 16.167 -118 48.5s-49 71.5 -49 117.5c0 45.333 16.5 84.166 49.5 116.499s72.167 48.5 117.5 48.5c44.667 0 83.334 -16.167 116.001 -48.5s49 -71.166 49 -116.499c0 -46 -16.333 -85.167 -49 -117.5s-71.334 -48.5 -116.001 -48.5zM149 0
l0.000976562 1028h290v-1028c-114.667 -103.333 -172 -176.666 -172 -219.999c0 -24 20 -36 60 -36c18.667 0 38.667 3.66699 60 11s38.666 17 51.999 29v-182c-43.333 -18 -91.333 -27 -144 -27c-57.333 0 -103.833 9.33301 -139.5 28s-53.5 45.667 -53.5 81
c0 74 72.333 179.333 217 316h-170z" />
    <glyph glyph-name="Idotaccent" unicode="&#x130;" horiz-adv-x="673" 
d="M336 1536c-46 0 -85.333 16.167 -118 48.5s-49 71.5 -49 117.5c0 45.333 16.333 84 49 116s72 48 118 48c44.667 0 83.334 -16 116.001 -48s49 -70.667 49 -116c0 -46 -16.333 -85.167 -49 -117.5s-71.334 -48.5 -116.001 -48.5zM187 0v1445h300v-1445h-300z" />
    <glyph glyph-name="dotlessi" unicode="&#x131;" horiz-adv-x="588" 
d="M149 0v1028h290v-1028h-290z" />
    <glyph glyph-name="Kcommaaccent" unicode="&#x136;" horiz-adv-x="1453" 
d="M848 754l577 -754h-383l-449 614h-106v-614h-300v1445h300v-568h102l453 568h366zM417 -508l168 373h251l-278 -439z" />
    <glyph glyph-name="kcommaaccent" unicode="&#x137;" horiz-adv-x="1179" 
d="M738 551l443 -551h-350l-331 432h-60v-432h-291v1536h291v-904h54l323 396h326zM295 -508l168 373h251l-278 -439z" />
    <glyph glyph-name="Lacute" unicode="&#x139;" horiz-adv-x="982" 
d="M652 1847l-227 -267h-177l262 368zM487 265h453v-265h-753v1445h300v-1180z" />
    <glyph glyph-name="lacute" unicode="&#x13a;" horiz-adv-x="589" 
d="M206 1677l262 368l142 -100l-227 -268h-177zM149 0v1536h291v-1536h-291z" />
    <glyph glyph-name="Lcommaaccent" unicode="&#x13b;" horiz-adv-x="982" 
d="M487 265h453v-265h-753v1445h300v-1180zM270 -508l168 373h251l-278 -439z" />
    <glyph glyph-name="lcommaaccent" unicode="&#x13c;" horiz-adv-x="589" 
d="M149 0v1536h291v-1536h-291zM141 -574l-141 66l168 373h251z" />
    <glyph glyph-name="Lcaron" unicode="&#x13d;" horiz-adv-x="1121" 
d="M1073 1446l-215 -654h-206l125 654h296zM487 1445v-1180h453v-265h-753v1445h300z" />
    <glyph glyph-name="lcaron" unicode="&#x13e;" horiz-adv-x="812" 
d="M149 0v1536h290v-1536h-290zM559 882l126 654h296l-216 -654h-206z" />
    <glyph glyph-name="Lslash" unicode="&#x141;" horiz-adv-x="982" 
d="M487 265h453v-265h-753v522l-169 -125v181l169 126v741h300v-518l166 123v-183l-166 -123v-479z" />
    <glyph glyph-name="lslash" unicode="&#x142;" horiz-adv-x="589" 
d="M610 1108v-183l-170 -126v-799h-291v584l-174 -129v181l174 129v771h291v-554z" />
    <glyph glyph-name="Nacute" unicode="&#x143;" horiz-adv-x="1660" 
d="M1146 1847l-227 -267h-177l262 368zM1174 1445h299v-1445h-347l-640 1033v-1033h-299v1445h343l644 -1027v1027z" />
    <glyph glyph-name="nacute" unicode="&#x144;" horiz-adv-x="1269" 
d="M946 1437l-227 -268h-177l262 368zM756 1048c123.333 0 218 -30.834 284 -92.501s99 -149.5 99 -263.5v-692h-289v630c0 64.667 -17.167 112 -51.5 142s-78.5 45 -132.5 45c-31.333 0 -60 -4.33301 -86 -13s-50 -22.167 -72 -40.5s-39.167 -44.166 -51.5 -77.499
s-18.833 -73 -19.5 -119v-567h-288v1028h288v-114c76 89.333 182.333 134 319 134z" />
    <glyph glyph-name="Ncommaaccent" unicode="&#x145;" horiz-adv-x="1660" 
d="M1174 1445h299v-1445h-347l-640 1033v-1033h-299v1445h343l644 -1027v1027zM537 -508l168 373h251l-278 -439z" />
    <glyph glyph-name="ncommaaccent" unicode="&#x146;" horiz-adv-x="1269" 
d="M756 1048c123.333 0 218 -30.834 284 -92.501s99 -149.5 99 -263.5v-692h-289v630c0 64.667 -17.167 112 -51.5 142s-78.5 45 -132.5 45c-31.333 0 -60 -4.33301 -86 -13s-50 -22.167 -72 -40.5s-39.167 -44.166 -51.5 -77.499s-18.833 -73 -19.5 -119v-567h-288v1028
h288v-114c76 89.333 182.333 134 319 134zM337 -508.001l168 373h251l-278 -439z" />
    <glyph glyph-name="Ncaron" unicode="&#x147;" horiz-adv-x="1660" 
d="M918 1580h-174l-227 299h177l137 -167l136 167h178zM1174 1445h299v-1445h-347l-640 1033v-1033h-299v1445h343l644 -1027v1027z" />
    <glyph glyph-name="ncaron" unicode="&#x148;" horiz-adv-x="1269" 
d="M718 1206h-174l-227 299h177l137 -167l136 167h178zM756 1048c123.333 0 218 -30.834 284 -92.501s99 -149.5 99 -263.5v-692h-289v630c0 64.667 -17.167 112 -51.5 142s-78.5 45 -132.5 45c-31.333 0 -60 -4.33301 -86 -13s-50 -22.167 -72 -40.5
s-39.167 -44.166 -51.5 -77.499s-18.833 -73 -19.5 -119v-567h-288v1028h288v-114c76 89.333 182.333 134 319 134z" />
    <glyph glyph-name="Eng" unicode="&#x14a;" horiz-adv-x="1673" 
d="M1188 1445l298.999 -0.000976562v-1445c0 -147.333 -46.167 -262.333 -138.5 -345s-216.166 -124 -371.499 -124v223c66 0 116.333 21.833 151 65.5s38.667 103.834 12 180.501l-655 1038v-1038h-298v1445h342l659 -1031v1031z" />
    <glyph glyph-name="eng" unicode="&#x14b;" horiz-adv-x="1269" 
d="M769 1048c118 0 209.332 -31.168 273.999 -93.501s97 -151.166 97 -266.499v-830c0 -104 -30.167 -187 -90.5 -249s-143.166 -93 -248.499 -93h-180v203h100c86.667 0 130 41 130 123v788c0 64.667 -17.333 112 -52 142s-79.667 45 -135 45
c-30.667 0 -58.834 -4 -84.501 -12s-49.5 -21 -71.5 -39s-39.167 -43.5 -51.5 -76.5s-18.833 -72.167 -19.5 -117.5v-572h-288v1028h288v-119c78.667 92.667 189.334 139 332.001 139z" />
    <glyph glyph-name="Omacron" unicode="&#x14c;" horiz-adv-x="1654" 
d="M495 1580v170h664v-170h-664zM827 -20c-141.333 0 -267.831 30.167 -379.498 90.5s-199.5 147.166 -263.5 260.499s-96 244 -96 392c0 148.667 32 279.5 96 392.5s151.833 199.5 263.5 259.5s238.167 90 379.5 90s267.666 -30 378.999 -90s199 -146.5 263 -259.5
s96 -243.833 96 -392.5c0 -148 -32 -278.667 -96 -392s-151.833 -200.166 -263.5 -260.499s-237.834 -90.5 -378.501 -90.5zM827.002 255c128 0 233.333 42.167 316 126.5s124 198.166 124 341.499c0 142.667 -41.333 256 -124 340s-188 126 -316 126
s-233.333 -42 -316 -126s-124 -197.333 -124 -340c0 -143.333 41.333 -257.166 124 -341.499s188 -126.5 316 -126.5z" />
    <glyph glyph-name="omacron" unicode="&#x14d;" horiz-adv-x="1257" 
d="M296 1196v170h664v-170h-664zM628 -20c-109.333 0 -206.333 21 -291 63s-151.167 103.667 -199.5 185s-72.5 177 -72.5 287c0 164.667 52 294.667 156 390s239.667 143 407 143c168 0 304 -47.667 408 -143s156 -225.333 156 -390c0 -165.333 -52 -295.833 -156 -391.5
s-240 -143.5 -408 -143.5zM625 209c84 0 151.833 27.998 203.5 83.998s77.5 130 77.5 222s-25.833 166 -77.5 222s-119.5 84 -203.5 84c-80.667 0 -146.5 -28.167 -197.5 -84.5s-76.5 -130.166 -76.5 -221.499s25.5 -165.166 76.5 -221.499s116.833 -84.5 197.5 -84.5z" />
    <glyph glyph-name="Ohungarumlaut" unicode="&#x150;" horiz-adv-x="1654" 
d="M549 1580l262 368l142 -101l-227 -267h-177zM926 1580l263 368l141 -101l-226 -267h-178zM827 -20c-141.333 0 -267.831 30.167 -379.498 90.5s-199.5 147.166 -263.5 260.499s-96 244 -96 392c0 148.667 32 279.5 96 392.5s151.833 199.5 263.5 259.5
s238.167 90 379.5 90s267.666 -30 378.999 -90s199 -146.5 263 -259.5s96 -243.833 96 -392.5c0 -148 -32 -278.667 -96 -392s-151.833 -200.166 -263.5 -260.499s-237.834 -90.5 -378.501 -90.5zM827.002 255c128 0 233.333 42.167 316 126.5s124 198.166 124 341.499
c0 142.667 -41.333 256 -124 340s-188 126 -316 126s-233.333 -42 -316 -126s-124 -197.333 -124 -340c0 -143.333 41.333 -257.166 124 -341.499s188 -126.5 316 -126.5z" />
    <glyph glyph-name="ohungarumlaut" unicode="&#x151;" horiz-adv-x="1257" 
d="M350 1168l262 368l142 -100l-227 -268h-177zM727 1168l263 368l141 -100l-226 -268h-178zM628 -20c-109.333 0 -206.333 21 -291 63s-151.167 103.667 -199.5 185s-72.5 177 -72.5 287c0 164.667 52 294.667 156 390s239.667 143 407 143c168 0 304 -47.667 408 -143
s156 -225.333 156 -390c0 -165.333 -52 -295.833 -156 -391.5s-240 -143.5 -408 -143.5zM625 209c84 0 151.833 27.998 203.5 83.998s77.5 130 77.5 222s-25.833 166 -77.5 222s-119.5 84 -203.5 84c-80.667 0 -146.5 -28.167 -197.5 -84.5s-76.5 -130.166 -76.5 -221.499
s25.5 -165.166 76.5 -221.499s116.833 -84.5 197.5 -84.5z" />
    <glyph glyph-name="OE" unicode="&#x152;" horiz-adv-x="2000" 
d="M810 0c-125.333 0 -234.667 17.167 -328 51.5s-168.5 83.666 -225.5 147.999s-99.333 140.166 -127 227.499s-41.5 187 -41.5 299c0 111.333 13.833 210.333 41.5 297s70 161.834 127 225.501s132 112.334 225 146.001s202.5 50.5 328.5 50.5h1068v-265h-571v-321h485
v-266h-485v-328h571v-265h-1068zM824.999 265l181.999 -0.000976562v915h-182c-79.333 0 -146.5 -9.66699 -201.5 -29s-98.667 -48.666 -131 -87.999s-55.5 -86.333 -69.5 -141s-21 -120 -21 -196c0 -155.333 31.833 -271 95.5 -347s172.834 -114 327.501 -114z" />
    <glyph glyph-name="oe" unicode="&#x153;" horiz-adv-x="2027" 
d="M1958 529l-3 -69.001h-762c6 -82 33.333 -144.667 82 -188s109 -65 181 -65c52 0 97.167 11.833 135.5 35.5s67.166 58.167 86.499 103.5l264 -39c-34 -103.333 -94 -183.666 -180 -240.999s-187.333 -86 -304 -86c-176 0 -313.333 51 -412 153
c-103.333 -102 -242.666 -153 -417.999 -153c-109.333 0 -206.333 21 -291 63s-151.167 103.667 -199.5 185s-72.5 177 -72.5 287c0 164.667 52 294.667 156 390s239.667 143 407 143c175.333 0 314.666 -51 417.999 -153c98 103.333 232.333 155 403 155
c153.333 0 276.333 -43.667 369 -131s139.334 -217.333 140.001 -390zM1451 845.999c-140 0 -223.333 -66 -250 -198h472c-7.33301 64 -31 113 -71 147s-90.333 51 -151 51zM625 208.999c84 0 151.833 27.998 203.5 83.998s77.5 130 77.5 222s-25.833 166 -77.5 222
s-119.5 84 -203.5 84c-80.667 0 -146.5 -28.167 -197.5 -84.5s-76.5 -130.166 -76.5 -221.499s25.5 -165.166 76.5 -221.499s116.833 -84.5 197.5 -84.5z" />
    <glyph glyph-name="Racute" unicode="&#x154;" horiz-adv-x="1338" 
d="M975 1847l-227 -267h-177l262 368zM950 0l-375.998 636h-87v-636h-300v1445h524c79.333 0 149.333 -11.167 210 -33.5s109.167 -53.333 145.5 -93s63.666 -85.167 81.999 -136.5s27.5 -107.666 27.5 -168.999c0 -96.667 -26.333 -175.834 -79 -237.501
s-128.334 -103.167 -227.001 -124.5l435 -651h-355zM487.002 1196l0.000976562 -345h177c150 0 225 57.333 225 172c0 54 -18.333 96.333 -55 127s-93.334 46 -170.001 46h-177z" />
    <glyph glyph-name="racute" unicode="&#x155;" horiz-adv-x="781" 
d="M683 1437l-227 -268h-177l262 368zM425 865c27.333 48 72.333 89.166 135 123.499s129.667 51.5 201 51.5v-257c-113.333 0 -195.333 -20.667 -246 -62s-76 -114.666 -76 -219.999v-501h-290v1028h276v-163z" />
    <glyph glyph-name="Rcommaaccent" unicode="&#x156;" horiz-adv-x="1338" 
d="M870 651l435.002 -651h-355l-376 636h-87v-636h-300v1445h524c79.333 0 149.333 -11.167 210 -33.5s109.167 -53.333 145.5 -93s63.666 -85.167 81.999 -136.5s27.5 -107.666 27.5 -168.999c0 -96.667 -26.333 -175.834 -79 -237.501s-128.334 -103.167 -227.001 -124.5z
M487.002 1196l0.000976562 -345h177c150 0 225 57.333 225 172c0 54 -18.333 96.333 -55 127s-93.334 46 -170.001 46h-177zM366.003 -508l168 373h251l-278 -439z" />
    <glyph glyph-name="rcommaaccent" unicode="&#x157;" horiz-adv-x="781" 
d="M425 865c27.333 48 72.333 89.166 135 123.499s129.667 51.5 201 51.5v-257c-113.333 0 -195.333 -20.667 -246 -62s-76 -114.666 -76 -219.999v-501h-290v1028h276v-163zM-1 -508.001l168 373h251l-278 -439z" />
    <glyph glyph-name="Rcaron" unicode="&#x158;" horiz-adv-x="1338" 
d="M747 1580h-174l-227 299h177l137 -167l136 167h178zM950 0l-375.998 636h-87v-636h-300v1445h524c79.333 0 149.333 -11.167 210 -33.5s109.167 -53.333 145.5 -93s63.666 -85.167 81.999 -136.5s27.5 -107.666 27.5 -168.999c0 -96.667 -26.333 -175.834 -79 -237.501
s-128.334 -103.167 -227.001 -124.5l435 -651h-355zM487.002 1196l0.000976562 -345h177c150 0 225 57.333 225 172c0 54 -18.333 96.333 -55 127s-93.334 46 -170.001 46h-177z" />
    <glyph glyph-name="rcaron" unicode="&#x159;" horiz-adv-x="781" 
d="M455 1206h-174l-227 299h177l137 -167l136 167h178zM425 865c27.333 48 72.333 89.166 135 123.499s129.667 51.5 201 51.5v-257c-113.333 0 -195.333 -20.667 -246 -62s-76 -114.666 -76 -219.999v-501h-290v1028h276v-163z" />
    <glyph glyph-name="Sacute" unicode="&#x15a;" horiz-adv-x="1297" 
d="M563 1580l262 368l142 -101l-227 -267h-177zM667 -20c-158.667 0 -292.332 36.832 -400.999 110.499s-173.667 176.834 -195 309.501l310 71c10 -79.333 41.833 -140.166 95.5 -182.499s121.167 -63.5 202.5 -63.5c64.667 0 117.334 14.833 158.001 44.5
s60.667 73.5 60 131.5c0 40.667 -17 76.334 -51 107.001s-67.833 52.5 -101.5 65.5s-87.834 30.833 -162.501 53.5c-10 3.33301 -17.333 5.66602 -22 6.99902c-38 12 -68.667 22 -92 30s-52.166 19.167 -86.499 33.5s-62.333 28.333 -84 42s-44.834 31 -69.501 52
s-44 43.167 -58 66.5s-25.667 51 -35 83s-14 66.333 -14 103c0 87.333 22.5 163.166 67.5 227.499s105.667 112.666 182 144.999s163.166 48.5 260.499 48.5c66 0 128.833 -7 188.5 -21s115.834 -35.5 168.501 -64.5s97.5 -68.667 134.5 -119s62.5 -108.833 76.5 -175.5
l-290 -72c-26 138 -112.667 207 -260 207c-65.333 0 -119 -14 -161 -42s-63 -70.333 -63 -127c0 -52.667 35 -95.334 105 -128.001c32.667 -16 99.667 -39 201 -69l96 -30c24.667 -8 55.667 -19.667 93 -35s67.666 -30.166 90.999 -44.499s48.666 -32.833 75.999 -55.5
s48.833 -46.667 64.5 -72s28.834 -55.166 39.501 -89.499s16 -71.5 16 -111.5c0 -60 -9.66699 -114.333 -29 -163s-45.833 -89.667 -79.5 -123s-73.5 -61.5 -119.5 -84.5s-95 -39.667 -147 -50s-107 -15.5 -165 -15.5z" />
    <glyph glyph-name="sacute" unicode="&#x15b;" horiz-adv-x="992" 
d="M411 1171l262 368l142 -100l-227 -268h-177zM511 -20c-120 0 -219.999 23.9961 -299.999 71.9961s-129 119.333 -147 214l241 68c28.667 -102 97.334 -153 206.001 -153c42 0 77 7.83301 105 23.5s41.667 42.167 41 79.5c0 20.667 -5.66699 38.334 -17 53.001
s-28.833 27.334 -52.5 38.001s-47 19.667 -70 27s-53.5 16.166 -91.5 26.499s-69.667 20.166 -95 29.499c-34.667 12 -64.834 24.833 -90.501 38.5s-50.667 31.334 -75 53.001s-43 48.5 -56 80.5s-19.5 68.667 -19.5 110c0 101.333 37.167 178 111.5 230s171.5 78 291.5 78
c106.667 0 196.334 -22 269.001 -66s118.667 -112.667 138 -206l-223 -50c-28 86.667 -89 130 -183 130c-40.667 0 -74.334 -7.66699 -101.001 -23s-40 -38 -40 -68c0 -11.333 2 -21.666 6 -30.999s11 -17.666 21 -24.999s19.667 -13.666 29 -18.999s23 -10.833 41 -16.5
s33 -10 45 -13l52.5 -13.5l53.5 -14c36.667 -10 68.834 -20 96.501 -30s57.167 -24 88.5 -42s57.166 -38.167 77.499 -60.5s37.166 -50.666 50.499 -84.999s20 -72.5 20 -114.5c0 -56.667 -11.5 -106.334 -34.5 -149.001s-54.5 -76.167 -94.5 -100.5
s-84.5 -42.333 -133.5 -54s-102.5 -17.5 -160.5 -17.5z" />
    <glyph glyph-name="Scedilla" unicode="&#x15e;" horiz-adv-x="1297" 
d="M1207 416c0 -70.667 -13.3311 -133.5 -39.998 -188.5s-63.334 -99.667 -110.001 -134s-99.167 -60.833 -157.5 -79.5s-121.5 -29.667 -189.5 -33l-59 -104c20 4 35 6 45 6c56.667 0 103.5 -18 140.5 -54s55.5 -82 55.5 -138c0 -62.667 -21.5 -115.5 -64.5 -158.5
s-95.833 -64.5 -158.5 -64.5c-56.667 0 -106.5 14.333 -149.5 43s-72.833 64.667 -89.5 108l127 44c10 -19.333 24.833 -34.833 44.5 -46.5s40.167 -17.5 61.5 -17.5c26 0 48.167 8.5 66.5 25.5s27.5 39.167 27.5 66.5c0 28.667 -9.16699 51 -27.5 67s-41.166 24 -68.499 24
c-30.667 0 -55.334 -10.333 -74.001 -31l-105 62l94 171c-136 14 -249.333 57 -340 129s-145.667 167.667 -165 287l310 71c10 -79.333 41.833 -140.166 95.5 -182.499s121.167 -63.5 202.5 -63.5c64.667 0 117.334 14.833 158.001 44.5s60.667 73.5 60 131.5
c0 40.667 -17 76.334 -51 107.001s-67.833 52.5 -101.5 65.5s-87.834 30.833 -162.501 53.5c-10 3.33301 -17.333 5.66602 -22 6.99902c-38 12 -68.667 22 -92 30s-52.166 19.167 -86.499 33.5s-62.333 28.333 -84 42s-44.834 31 -69.501 52s-44 43.167 -58 66.5
s-25.667 51 -35 83s-14 66.333 -14 103c0 87.333 22.5 163.166 67.5 227.499s105.667 112.666 182 144.999s163.166 48.5 260.499 48.5c66 0 128.833 -7 188.5 -21s115.834 -35.5 168.501 -64.5s97.5 -68.667 134.5 -119s62.5 -108.833 76.5 -175.5l-290 -72
c-26 138 -112.667 207 -260 207c-65.333 0 -119 -14 -161 -42s-63 -70.333 -63 -127c0 -52.667 35 -95.334 105 -128.001c32.667 -16 99.667 -39 201 -69l96 -30c24.667 -8 55.667 -19.667 93 -35s67.666 -30.166 90.999 -44.499s48.666 -32.833 75.999 -55.5
s48.833 -46.667 64.5 -72s28.834 -55.166 39.501 -89.499s16 -71.5 16 -111.5z" />
    <glyph glyph-name="scedilla" unicode="&#x15f;" horiz-adv-x="992" 
d="M934 301c0 -52.667 -10.001 -99.3379 -30.001 -140.005s-47.667 -73.334 -83 -98.001s-75 -43.667 -119 -57s-92.333 -21.666 -145 -24.999l-58 -103c20 4 35 6 45 6c56.667 0 103.5 -18 140.5 -54s55.5 -82 55.5 -138c0 -62.667 -21.5 -115.5 -64.5 -158.5
s-95.833 -64.5 -158.5 -64.5c-56.667 0 -106.5 14.333 -149.5 43s-72.833 64.667 -89.5 108l127 44c10 -19.333 24.833 -34.833 44.5 -46.5s40.167 -17.5 61.5 -17.5c26 0 48.167 8.5 66.5 25.5s27.5 39.167 27.5 66.5c0 28.667 -9.16699 51 -27.5 67s-41.166 24 -68.499 24
c-30.667 0 -55.334 -10.333 -74.001 -31l-105 62l93 171c-97.333 10.667 -177.666 39.667 -240.999 87s-102.666 112 -117.999 194l241 68c28.667 -102 97.334 -153 206.001 -153c42 0 77 7.83301 105 23.5s41.667 42.167 41 79.5c0 20.667 -5.66699 38.334 -17 53.001
s-28.833 27.334 -52.5 38.001s-47 19.667 -70 27s-53.5 16.166 -91.5 26.499s-69.667 20.166 -95 29.499c-34.667 12 -64.834 24.833 -90.501 38.5s-50.667 31.334 -75 53.001s-43 48.5 -56 80.5s-19.5 68.667 -19.5 110c0 101.333 37.167 178 111.5 230s171.5 78 291.5 78
c106.667 0 196.334 -22 269.001 -66s118.667 -112.667 138 -206l-223 -50c-28 86.667 -89 130 -183 130c-40.667 0 -74.334 -7.66699 -101.001 -23s-40 -38 -40 -68c0 -11.333 2 -21.666 6 -30.999s11 -17.666 21 -24.999s19.667 -13.666 29 -18.999s23 -10.833 41 -16.5
s33 -10 45 -13l52.5 -13.5l53.5 -14c36.667 -10 68.834 -20 96.501 -30s57.167 -24 88.5 -42s57.166 -38.167 77.499 -60.5s37.166 -50.666 50.499 -84.999s20 -72.5 20 -114.5z" />
    <glyph glyph-name="Scaron" unicode="&#x160;" horiz-adv-x="1297" 
d="M565 1580l-227 299h177l137 -167l136 167h178l-227 -299h-174zM667 -20c-158.667 0 -292.332 36.832 -400.999 110.499s-173.667 176.834 -195 309.501l310 71c10 -79.333 41.833 -140.166 95.5 -182.499s121.167 -63.5 202.5 -63.5
c64.667 0 117.334 14.833 158.001 44.5s60.667 73.5 60 131.5c0 40.667 -17 76.334 -51 107.001s-67.833 52.5 -101.5 65.5s-87.834 30.833 -162.501 53.5c-10 3.33301 -17.333 5.66602 -22 6.99902c-38 12 -68.667 22 -92 30s-52.166 19.167 -86.499 33.5
s-62.333 28.333 -84 42s-44.834 31 -69.501 52s-44 43.167 -58 66.5s-25.667 51 -35 83s-14 66.333 -14 103c0 87.333 22.5 163.166 67.5 227.499s105.667 112.666 182 144.999s163.166 48.5 260.499 48.5c66 0 128.833 -7 188.5 -21s115.834 -35.5 168.501 -64.5
s97.5 -68.667 134.5 -119s62.5 -108.833 76.5 -175.5l-290 -72c-26 138 -112.667 207 -260 207c-65.333 0 -119 -14 -161 -42s-63 -70.333 -63 -127c0 -52.667 35 -95.334 105 -128.001c32.667 -16 99.667 -39 201 -69l96 -30c24.667 -8 55.667 -19.667 93 -35
s67.666 -30.166 90.999 -44.499s48.666 -32.833 75.999 -55.5s48.833 -46.667 64.5 -72s28.834 -55.166 39.501 -89.499s16 -71.5 16 -111.5c0 -60 -9.66699 -114.333 -29 -163s-45.833 -89.667 -79.5 -123s-73.5 -61.5 -119.5 -84.5s-95 -39.667 -147 -50
s-107 -15.5 -165 -15.5z" />
    <glyph glyph-name="scaron" unicode="&#x161;" horiz-adv-x="992" 
d="M413 1208l-227 299h177l137 -167l136 167h178l-227 -299h-174zM511 -20c-120 0 -219.999 23.9961 -299.999 71.9961s-129 119.333 -147 214l241 68c28.667 -102 97.334 -153 206.001 -153c42 0 77 7.83301 105 23.5s41.667 42.167 41 79.5
c0 20.667 -5.66699 38.334 -17 53.001s-28.833 27.334 -52.5 38.001s-47 19.667 -70 27s-53.5 16.166 -91.5 26.499s-69.667 20.166 -95 29.499c-34.667 12 -64.834 24.833 -90.501 38.5s-50.667 31.334 -75 53.001s-43 48.5 -56 80.5s-19.5 68.667 -19.5 110
c0 101.333 37.167 178 111.5 230s171.5 78 291.5 78c106.667 0 196.334 -22 269.001 -66s118.667 -112.667 138 -206l-223 -50c-28 86.667 -89 130 -183 130c-40.667 0 -74.334 -7.66699 -101.001 -23s-40 -38 -40 -68c0 -11.333 2 -21.666 6 -30.999s11 -17.666 21 -24.999
s19.667 -13.666 29 -18.999s23 -10.833 41 -16.5s33 -10 45 -13l52.5 -13.5l53.5 -14c36.667 -10 68.834 -20 96.501 -30s57.167 -24 88.5 -42s57.166 -38.167 77.499 -60.5s37.166 -50.666 50.499 -84.999s20 -72.5 20 -114.5c0 -56.667 -11.5 -106.334 -34.5 -149.001
s-54.5 -76.167 -94.5 -100.5s-84.5 -42.333 -133.5 -54s-102.5 -17.5 -160.5 -17.5z" />
    <glyph glyph-name="uni0162" unicode="&#x162;" horiz-adv-x="1065" 
d="M682 0h-80l-70 -123c20 4 35 6 45 6c56.667 0 103.5 -18 140.5 -54s55.5 -82 55.5 -138c0 -62.667 -21.5 -115.5 -64.5 -158.5s-95.833 -64.5 -158.5 -64.5c-56.667 0 -106.5 14.333 -149.5 43s-72.833 64.667 -89.5 108l127 44c10 -19.333 24.833 -34.833 44.5 -46.5
s40.167 -17.5 61.5 -17.5c26 0 48.167 8.5 66.5 25.5s27.5 39.167 27.5 66.5c0 28.667 -9.16699 51 -27.5 67s-41.166 24 -68.499 24c-30.667 0 -55.334 -10.333 -74.001 -31l-105 62l102 187h-80v1181h-345v264h985v-264h-343v-1181z" />
    <glyph glyph-name="uni0163" unicode="&#x163;" horiz-adv-x="796" 
d="M629 -117c56.667 0 103.5 -17.999 140.5 -53.999s55.5 -82 55.5 -138c0 -62.667 -21.5 -115.5 -64.5 -158.5s-95.833 -64.5 -158.5 -64.5c-56.667 0 -106.5 14.333 -149.5 43s-72.833 64.667 -89.5 108l127 44c10 -19.333 24.833 -34.833 44.5 -46.5
s40.167 -17.5 61.5 -17.5c26 0 48.167 8.5 66.5 25.5s27.5 39.167 27.5 66.5c0 28.667 -9.16699 51 -27.5 67s-41.166 24 -68.499 24c-30.667 0 -55.334 -10.333 -74.001 -31l-105 62l102 187c-95.333 3.33301 -169 32.666 -221 87.999s-78 133 -78 233v486h-202v221h65
c58 0 100.667 14.333 128 43s41 79.667 41 153v136h260v-332h212v-221h-212v-455c0 -88.667 39.667 -133 119 -133h93v-219h-68l-70 -123c20 4 35 6 45 6z" />
    <glyph glyph-name="Tcaron" unicode="&#x164;" horiz-adv-x="1065" 
d="M620 1580h-174l-227 299h177l137 -167l136 167h178zM1025 1445v-264h-343v-1181h-297v1181h-345v264h985z" />
    <glyph glyph-name="tcaron" unicode="&#x165;" horiz-adv-x="759" 
d="M620 1200l125 653h297l-216 -653h-206zM508 0c-99.333 0 -176.333 27.832 -231 83.499s-82 134.834 -82 237.501v486h-203v221h66c57.333 0 99.833 14.333 127.5 43s41.5 79.667 41.5 153v136h259v-332h212v-221h-212v-455c0 -88.667 40 -133 120 -133h92v-219h-190z" />
    <glyph glyph-name="Tbar" unicode="&#x166;" horiz-adv-x="1065" 
d="M1025 1181h-343v-370h196v-176h-196v-635h-297v635h-196v176h196v370h-345v264h985v-264z" />
    <glyph glyph-name="tbar" unicode="&#x167;" horiz-adv-x="796" 
d="M722 807l-212 -0.000976562v-204h149v-176h-149v-75c0 -88.667 39.667 -133 119 -133h93v-219h-190c-100 0 -177.333 27.833 -232 83.5s-82 134.834 -82 237.501v106h-142v176h142v204h-202v221h65c58 0 100.667 14.333 128 43s41 79.667 41 153v136h260v-332h212v-221z
" />
    <glyph glyph-name="Utilde" unicode="&#x168;" horiz-adv-x="1446" 
d="M871 1590c-42 0 -75.6689 7.16504 -101.002 21.498s-48.333 33.833 -69 58.5c-2 2 -6 6.83301 -12 14.5l-12 15.5c-2 2.66699 -5.66699 6.83398 -11 12.501s-9.66602 9.5 -12.999 11.5l-13 8c-5.33301 3.33301 -10.833 5.5 -16.5 6.5s-11.5 1.5 -17.5 1.5
c-27.333 0 -48.166 -12.667 -62.499 -38s-21.5 -58.333 -21.5 -99h-151c0 78.667 20.667 142.834 62 192.501s97.333 74.5 168 74.5c68.667 0 124.667 -24.333 168 -73l22.5 -26c11 -12.667 19.167 -21.5 24.5 -26.5s13.166 -10.167 23.499 -15.5s20.833 -8 31.5 -8
c52 0 78 45 78 135h153c0 -78 -20.167 -141.833 -60.5 -191.5s-97.166 -74.5 -170.499 -74.5zM721.998 -20.002c-80.667 0 -154.832 10.5 -222.499 31.5s-127.167 52.5 -178.5 94.5s-91.5 97 -120.5 165s-43.5 146.333 -43.5 235v939h300v-898
c0 -104 24.167 -180.333 72.5 -229s112.5 -73 192.5 -73s144.5 24.5 193.5 73.5s73.5 125.167 73.5 228.5v898h300v-939c0 -88.667 -14.5 -167 -43.5 -235s-69.333 -123 -121 -165s-111.334 -73.5 -179.001 -94.5s-142.167 -31.5 -223.5 -31.5z" />
    <glyph glyph-name="utilde" unicode="&#x169;" horiz-adv-x="1267" 
d="M535 1303c-22.667 0 -40 -11.667 -52 -35s-18 -54.333 -18 -93h-137c0 77.333 18.167 140.333 54.5 189s85.5 73 147.5 73c74.667 0 133 -34.333 175 -103c16 -25.333 36 -38 60 -38c44.667 0 67 42.667 67 128h138c0 -76.667 -17.833 -139.5 -53.5 -188.5
s-85.167 -73.5 -148.5 -73.5c-74 0 -132.667 34 -176 102c-16.667 26 -35.667 39 -57 39zM830 1028h288v-1028h-273l-7 124c-76 -96 -185 -144 -327 -144c-123.333 0 -218 30.833 -284 92.5s-99 149.5 -99 263.5v692h289v-630c0 -64 17.167 -111 51.5 -141
s78.833 -45 133.5 -45c66.667 0 121.167 19.5 163.5 58.5s63.833 102.5 64.5 190.5v567z" />
    <glyph glyph-name="Umacron" unicode="&#x16a;" horiz-adv-x="1446" 
d="M390 1580v170h664v-170h-664zM722 -20c-80.667 0 -154.832 10.5 -222.499 31.5s-127.167 52.5 -178.5 94.5s-91.5 97 -120.5 165s-43.5 146.333 -43.5 235v939h300v-898c0 -104 24.167 -180.333 72.5 -229s112.5 -73 192.5 -73s144.5 24.5 193.5 73.5
s73.5 125.167 73.5 228.5v898h300v-939c0 -88.667 -14.5 -167 -43.5 -235s-69.333 -123 -121 -165s-111.334 -73.5 -179.001 -94.5s-142.167 -31.5 -223.5 -31.5z" />
    <glyph glyph-name="umacron" unicode="&#x16b;" horiz-adv-x="1267" 
d="M967 1367v-170h-664v170h664zM830 1028h288v-1028h-273l-7 124c-76 -96 -185 -144 -327 -144c-123.333 0 -218 30.833 -284 92.5s-99 149.5 -99 263.5v692h289v-630c0 -64 17.167 -111 51.5 -141s78.833 -45 133.5 -45c66.667 0 121.167 19.5 163.5 58.5
s63.833 102.5 64.5 190.5v567z" />
    <glyph glyph-name="Uring" unicode="&#x16e;" horiz-adv-x="1446" 
d="M722 1580c-66.667 0 -123.5 23.5 -170.5 70.5s-70.5 103.5 -70.5 169.5c0 65.333 23.5 121.166 70.5 167.499s103.833 69.5 170.5 69.5c65.333 0 121.166 -23.167 167.499 -69.5s69.5 -102.166 69.5 -167.499c0 -66 -23.167 -122.5 -69.5 -169.5
s-102.166 -70.5 -167.499 -70.5zM722 1701c33.333 0 61.333 11.167 84 33.5s34 50.833 34 85.5c0 32.667 -11.5 60.834 -34.5 84.501s-50.833 35.5 -83.5 35.5s-60.167 -11.833 -82.5 -35.5s-33.5 -51.834 -33.5 -84.501c0 -35.333 11 -64 33 -86s49.667 -33 83 -33z
M722 -20c-80.667 0 -154.832 10.5 -222.499 31.5s-127.167 52.5 -178.5 94.5s-91.5 97 -120.5 165s-43.5 146.333 -43.5 235v939h300v-898c0 -104 24.167 -180.333 72.5 -229s112.5 -73 192.5 -73s144.5 24.5 193.5 73.5s73.5 125.167 73.5 228.5v898h300v-939
c0 -88.667 -14.5 -167 -43.5 -235s-69.333 -123 -121 -165s-111.334 -73.5 -179.001 -94.5s-142.167 -31.5 -223.5 -31.5z" />
    <glyph glyph-name="uring" unicode="&#x16f;" horiz-adv-x="1267" 
d="M635 1140c-66.667 0 -123.5 23.667 -170.5 71s-70.5 104 -70.5 170c0 64.667 23.667 120.334 71 167.001s104 70 170 70c64.667 0 120.334 -23.333 167.001 -70s70 -102.334 70 -167.001c0 -66 -23.333 -122.667 -70 -170s-102.334 -71 -167.001 -71zM635 1501
c-32.667 0 -60.167 -12 -82.5 -36s-33.5 -52 -33.5 -84c0 -35.333 11 -64 33 -86s49.667 -33 83 -33s61.333 11.167 84 33.5s34 50.833 34 85.5c0 32 -11.5 60 -34.5 84s-50.833 36 -83.5 36zM830 1028h288v-1028h-273l-7 124c-76 -96 -185 -144 -327 -144
c-123.333 0 -218 30.833 -284 92.5s-99 149.5 -99 263.5v692h289v-630c0 -64 17.167 -111 51.5 -141s78.833 -45 133.5 -45c66.667 0 121.167 19.5 163.5 58.5s63.833 102.5 64.5 190.5v567z" />
    <glyph glyph-name="Uhungarumlaut" unicode="&#x170;" horiz-adv-x="1446" 
d="M444 1580l262 368l142 -101l-227 -267h-177zM821 1580l263 368l141 -101l-226 -267h-178zM722 -20c-80.667 0 -154.832 10.5 -222.499 31.5s-127.167 52.5 -178.5 94.5s-91.5 97 -120.5 165s-43.5 146.333 -43.5 235v939h300v-898c0 -104 24.167 -180.333 72.5 -229
s112.5 -73 192.5 -73s144.5 24.5 193.5 73.5s73.5 125.167 73.5 228.5v898h300v-939c0 -88.667 -14.5 -167 -43.5 -235s-69.333 -123 -121 -165s-111.334 -73.5 -179.001 -94.5s-142.167 -31.5 -223.5 -31.5z" />
    <glyph glyph-name="uhungarumlaut" unicode="&#x171;" horiz-adv-x="1267" 
d="M761 1437l-227 -268h-177l262 368zM912 1169h-178l263 368l141 -100zM830 461v567h288v-1028h-273l-7 124c-76 -96 -185 -144 -327 -144c-123.333 0 -218 30.833 -284 92.5s-99 149.5 -99 263.5v692h289v-630c0 -64 17.167 -111 51.5 -141s78.833 -45 133.5 -45
c66.667 0 121.167 19.5 163.5 58.5s63.833 102.5 64.5 190.5z" />
    <glyph glyph-name="Uogonek" unicode="&#x172;" horiz-adv-x="1446" 
d="M989 1445l300.002 -0.000976562v-939c0 -114 -23.333 -209.833 -70 -287.5s-111.667 -136.5 -195 -176.5c-98.667 -92.667 -148 -158.667 -148 -198c0 -24 20 -36 60 -36c18.667 0 38.667 3.66699 60 11s38.666 17 51.999 29v-182c-43.333 -18 -91.333 -27 -144 -27
c-57.333 0 -103.833 9.33301 -139.5 28s-53.5 45.667 -53.5 81c0 58.667 47.667 139.334 143 242.001c-40 -6.66699 -84 -10 -132 -10c-80.667 0 -154.834 10.5 -222.501 31.5s-127.167 52.5 -178.5 94.5s-91.5 97 -120.5 165s-43.5 146.333 -43.5 235v939h300v-898
c0 -104 24.167 -180.333 72.5 -229s112.5 -73 192.5 -73s144.5 24.5 193.5 73.5s73.5 125.167 73.5 228.5v898z" />
    <glyph glyph-name="uogonek" unicode="&#x173;" horiz-adv-x="1267" 
d="M1118 0c-114.667 -103.333 -171.999 -176.667 -171.999 -220c0 -24 20 -36 60 -36c18.667 0 38.667 3.66699 60 11s38.666 17 51.999 29v-182c-43.333 -18 -91.333 -27 -144 -27c-57.333 0 -103.833 9.33301 -139.5 28s-53.5 45.667 -53.5 81
c0 74 72.333 179.333 217 316h-153l-7 124c-76 -96 -185 -144 -327 -144c-123.333 0 -218 30.833 -284 92.5s-99 149.5 -99 263.5v692h289v-630c0 -64 17.167 -111 51.5 -141s78.833 -45 133.5 -45c66.667 0 121.167 19.5 163.5 58.5s63.833 102.5 64.5 190.5v567h288v-1028
z" />
    <glyph glyph-name="Wcircumflex" unicode="&#x174;" horiz-adv-x="2175" 
d="M950 1580h-177l227 299h173l227 -299h-177l-137 166zM422 0l-378 1445h312l282 -1094l323 1094h253l321 -1094l285 1094h311l-378 -1445h-386l-280 893l-279 -893h-386z" />
    <glyph glyph-name="wcircumflex" unicode="&#x175;" horiz-adv-x="1752" 
d="M886 1372l-136 -166h-177l227 299h173l227 -299h-177zM1443 1028h298l-360 -1029h-267l-238 679l-240 -679h-271l-353 1029h297l212 -669l243 669h221l242 -667z" />
    <glyph glyph-name="Ycircumflex" unicode="&#x176;" horiz-adv-x="1287" 
d="M643 1746l-136 -166h-177l227 299h173l227 -299h-177zM1271 1445l-475 -753v-692h-301v685l-478 760h332l295 -492l296 492h331z" />
    <glyph glyph-name="ycircumflex" unicode="&#x177;" horiz-adv-x="1120" 
d="M560 1372l-136 -166h-177l227 299h173l227 -299h-177zM822 1028h295l-634 -1512h-292l235 526l-423 986h314l245 -676z" />
    <glyph glyph-name="Ydieresis" unicode="&#x178;" horiz-adv-x="1287" 
d="M429 1536c-46 0 -85.333 16.167 -118 48.5s-49 71.5 -49 117.5c0 45.333 16.333 84 49 116s72 48 118 48c44.667 0 83.334 -16 116.001 -48s49 -70.667 49 -116c0 -46 -16.333 -85.167 -49 -117.5s-71.334 -48.5 -116.001 -48.5zM860 1536
c-46 0 -85.333 16.167 -118 48.5s-49 71.5 -49 117.5c0 45.333 16.333 84 49 116s72 48 118 48c44.667 0 83.334 -16 116.001 -48s49 -70.667 49 -116c0 -46 -16.333 -85.167 -49 -117.5s-71.334 -48.5 -116.001 -48.5zM1271 1445l-475 -753v-692h-301v685l-478 760h332
l295 -492l296 492h331z" />
    <glyph glyph-name="Zacute" unicode="&#x179;" horiz-adv-x="1232" 
d="M956 1847l-227 -267h-177l262 368zM450 265h694v-265h-1053v237l685 944h-684v264h1039v-237z" />
    <glyph glyph-name="zacute" unicode="&#x17a;" horiz-adv-x="947" 
d="M804 1437l-227 -268h-177l262 368zM899 1028l-452 -806h438v-222h-847l450 806h-415v222h826z" />
    <glyph glyph-name="Zdotaccent" unicode="&#x17b;" horiz-adv-x="1232" 
d="M642 1536c-46 0 -85.333 16.167 -118 48.5s-49 71.5 -49 117.5c0 45.333 16.333 84 49 116s72 48 118 48c44.667 0 83.334 -16 116.001 -48s49 -70.667 49 -116c0 -46 -16.333 -85.167 -49 -117.5s-71.334 -48.5 -116.001 -48.5zM450 265h694v-265h-1053v237l685 944
h-684v264h1039v-237z" />
    <glyph glyph-name="zdotaccent" unicode="&#x17c;" horiz-adv-x="947" 
d="M490 1182c-46 0 -85.333 16.167 -118 48.5s-49 71.5 -49 117.5c0 45.333 16.5 84.166 49.5 116.499s72.167 48.5 117.5 48.5c44.667 0 83.334 -16.167 116.001 -48.5s49 -71.166 49 -116.499c0 -46 -16.333 -85.167 -49 -117.5s-71.334 -48.5 -116.001 -48.5zM899 1028
l-452 -806h438v-222h-847l450 806h-415v222h826z" />
    <glyph glyph-name="Zcaron" unicode="&#x17d;" horiz-adv-x="1232" 
d="M728 1580h-174l-227 299h177l137 -167l136 167h178zM450 265h694v-265h-1053v237l685 944h-684v264h1039v-237z" />
    <glyph glyph-name="zcaron" unicode="&#x17e;" horiz-adv-x="947" 
d="M576 1206h-174l-227 299h177l137 -167l136 167h178zM899 1028l-452 -806h438v-222h-847l450 806h-415v222h826z" />
    <glyph glyph-name="florin" unicode="&#x192;" horiz-adv-x="1060" 
d="M132 -421l195.001 1227h-171l34 222h173l26 170c14 101.333 62.5 186.333 145.5 255s175.5 103 277.5 103c33.333 0 64.666 -3.66699 93.999 -11s50.333 -16 63 -26l-23 -204c-26 21.333 -60.333 32 -103 32c-52 0 -95.333 -16.667 -130 -50s-56.667 -79 -66 -137
l-21 -132h277l-35 -222h-276l-197 -1227h-263z" />
    <glyph glyph-name="Ohorn" unicode="&#x1a0;" horiz-adv-x="1654" 
d="M1498 1541l141 -0.000976562v-166c0 -83.333 -17.167 -142.666 -51.5 -177.999s-78.833 -53 -133.5 -53h-2c75.333 -120 113 -260.333 113 -421c0 -148 -32 -278.667 -96 -392s-151.833 -200.166 -263.5 -260.499s-237.834 -90.5 -378.501 -90.5
c-141.333 0 -267.833 30.167 -379.5 90.5s-199.5 147.166 -263.5 260.499s-96 244 -96 392c0 148.667 32 279.5 96 392.5s151.833 199.5 263.5 259.5s238.167 90 379.5 90c198 0 364 -57.667 498 -173c28 -12 53.667 -18 77 -18c36.667 0 61.834 10 75.501 30
s20.5 56.667 20.5 110v127zM827 254.999c128 0 233.333 42.167 316 126.5s124 198.166 124 341.499c0 142.667 -41.333 256 -124 340s-188 126 -316 126s-233.333 -42 -316 -126s-124 -197.333 -124 -340c0 -143.333 41.333 -257.166 124 -341.499s188 -126.5 316 -126.5z
" />
    <glyph glyph-name="ohorn" unicode="&#x1a1;" horiz-adv-x="1257" 
d="M1143 1192h140.999v-166c0 -143.333 -53.667 -220 -161 -230c46 -81.333 69 -175 69 -281c0 -165.333 -52 -295.833 -156 -391.5s-240 -143.5 -408 -143.5c-109.333 0 -206.333 21 -291 63s-151.167 103.667 -199.5 185s-72.5 177 -72.5 287
c0 164.667 52 294.667 156 390s239.667 143 407 143c152.667 0 278.667 -39.333 378 -118c18 -3.33301 31.667 -5 41 -5c36.667 0 61.834 10 75.501 30s20.5 56.667 20.5 110v127zM624.999 209c84 0 151.833 27.998 203.5 83.998s77.5 130 77.5 222s-25.833 166 -77.5 222
s-119.5 84 -203.5 84c-80.667 0 -146.5 -28.167 -197.5 -84.5s-76.5 -130.166 -76.5 -221.499s25.5 -165.166 76.5 -221.499s116.833 -84.5 197.5 -84.5z" />
    <glyph glyph-name="Uhorn" unicode="&#x1af;" horiz-adv-x="1446" 
d="M1442 1615l141.001 -0.000976562v-166c0 -83.333 -17.167 -142.666 -51.5 -177.999s-78.833 -53 -133.5 -53c-32.667 0 -69 6.66699 -109 20v-732c0 -88.667 -14.5 -167 -43.5 -235s-69.333 -123 -121 -165s-111.334 -73.5 -179.001 -94.5s-142.167 -31.5 -223.5 -31.5
c-80.667 0 -154.834 10.5 -222.501 31.5s-127.167 52.5 -178.5 94.5s-91.5 97 -120.5 165s-43.5 146.333 -43.5 235v939h300v-898c0 -104 24.167 -180.333 72.5 -229s112.5 -73 192.5 -73s144.5 24.5 193.5 73.5s73.5 125.167 73.5 228.5v898h300v-87
c20.667 -6.66699 39.667 -10 57 -10c36.667 0 61.834 10 75.501 30s20.5 56.667 20.5 110v127z" />
    <glyph glyph-name="uhorn" unicode="&#x1b0;" horiz-adv-x="1267" 
d="M1266 1198l141 -0.000976562v-166c0 -83.333 -17.167 -142.666 -51.5 -177.999s-78.833 -53 -133.5 -53c-32 0 -66.667 6 -104 18v-819h-273l-7 124c-76 -96 -185 -144 -327 -144c-123.333 0 -218 30.833 -284 92.5s-99 149.5 -99 263.5v692h289v-630
c0 -64 17.167 -111 51.5 -141s78.833 -45 133.5 -45c66.667 0 121.167 19.5 163.5 58.5s63.833 102.5 64.5 190.5v567h288v-88c17.333 -6 34.666 -9 51.999 -9c36.667 0 61.834 10 75.501 30s20.5 56.667 20.5 110v127z" />
    <glyph glyph-name="uni01CD" unicode="&#x1cd;" horiz-adv-x="1491" 
d="M833 1580h-174l-227 299h177l137 -167l136 167h178zM1154 0l-105 298h-607l-105 -298h-307l532 1445h367l532 -1445h-307zM530 549h431l-215 613z" />
    <glyph glyph-name="uni01CE" unicode="&#x1ce;" horiz-adv-x="1123" 
d="M652 1206h-174l-227 299h177l137 -167l136 167h178zM992 279c0 -109.333 8.33105 -192.999 24.998 -250.999v-28h-269l-23 112c-36.667 -44 -84.667 -77 -144 -99s-121.333 -33 -186 -33c-34 0 -66 3 -96 9s-58.833 16.167 -86.5 30.5s-51.5 32.166 -71.5 53.499
s-36 48.5 -48 81.5s-18 70.167 -18 111.5s6.33301 78.5 19 111.5s29.334 60.833 50.001 83.5s47.667 43 81 61s67.333 32.667 102 44s75.334 22 122.001 32l169 38c36 8.66699 61.5 19.5 76.5 32.5s22.5 30.167 22.5 51.5c0 46 -16.833 79 -50.5 99s-74.5 30 -122.5 30
c-118 0 -185 -52.333 -201 -157l-255 46c21.333 106 71 184.167 149 234.5s185.667 75.5 323 75.5c288 0 432 -123.667 432 -371v-398zM484.998 175.001c72.667 0 132.002 24.833 178.002 74.5s69 123.167 69 220.5l-244 -69c-44.667 -10.667 -78.834 -24.667 -102.501 -42
s-35.5 -42 -35.5 -74c0 -35.333 12.667 -62.5 38 -81.5s57.666 -28.5 96.999 -28.5z" />
    <glyph glyph-name="uni01CF" unicode="&#x1cf;" horiz-adv-x="673" 
d="M248 1580l-227 299h177l137 -167l136 167h178l-227 -299h-174zM187 0v1445h300v-1445h-300z" />
    <glyph glyph-name="uni01D0" unicode="&#x1d0;" horiz-adv-x="588" 
d="M208 1206l-227 299h177l137 -167l136 167h178l-227 -299h-174zM149 0v1028h290v-1028h-290z" />
    <glyph glyph-name="uni01D1" unicode="&#x1d1;" horiz-adv-x="1654" 
d="M740 1580l-227 299h177l137 -167l136 167h178l-227 -299h-174zM827 -20c-141.333 0 -267.831 30.167 -379.498 90.5s-199.5 147.166 -263.5 260.499s-96 244 -96 392c0 148.667 32 279.5 96 392.5s151.833 199.5 263.5 259.5s238.167 90 379.5 90
s267.666 -30 378.999 -90s199 -146.5 263 -259.5s96 -243.833 96 -392.5c0 -148 -32 -278.667 -96 -392s-151.833 -200.166 -263.5 -260.499s-237.834 -90.5 -378.501 -90.5zM827.002 255c128 0 233.333 42.167 316 126.5s124 198.166 124 341.499
c0 142.667 -41.333 256 -124 340s-188 126 -316 126s-233.333 -42 -316 -126s-124 -197.333 -124 -340c0 -143.333 41.333 -257.166 124 -341.499s188 -126.5 316 -126.5z" />
    <glyph glyph-name="uni01D2" unicode="&#x1d2;" horiz-adv-x="1257" 
d="M541 1205l-227 299h177l137 -167l136 167h178l-227 -299h-174zM628 -20c-109.333 0 -206.333 21 -291 63s-151.167 103.667 -199.5 185s-72.5 177 -72.5 287c0 164.667 52 294.667 156 390s239.667 143 407 143c168 0 304 -47.667 408 -143s156 -225.333 156 -390
c0 -165.333 -52 -295.833 -156 -391.5s-240 -143.5 -408 -143.5zM625 209c84 0 151.833 27.998 203.5 83.998s77.5 130 77.5 222s-25.833 166 -77.5 222s-119.5 84 -203.5 84c-80.667 0 -146.5 -28.167 -197.5 -84.5s-76.5 -130.166 -76.5 -221.499
s25.5 -165.166 76.5 -221.499s116.833 -84.5 197.5 -84.5z" />
    <glyph glyph-name="uni01D3" unicode="&#x1d3;" horiz-adv-x="1446" 
d="M635 1580l-227 299h177l137 -167l136 167h178l-227 -299h-174zM722 -20c-80.667 0 -154.832 10.5 -222.499 31.5s-127.167 52.5 -178.5 94.5s-91.5 97 -120.5 165s-43.5 146.333 -43.5 235v939h300v-898c0 -104 24.167 -180.333 72.5 -229s112.5 -73 192.5 -73
s144.5 24.5 193.5 73.5s73.5 125.167 73.5 228.5v898h300v-939c0 -88.667 -14.5 -167 -43.5 -235s-69.333 -123 -121 -165s-111.334 -73.5 -179.001 -94.5s-142.167 -31.5 -223.5 -31.5z" />
    <glyph glyph-name="uni01D4" unicode="&#x1d4;" horiz-adv-x="1267" 
d="M722 1206h-174l-227 299h177l137 -167l136 167h178zM830 1028h288v-1028h-273l-7 124c-76 -96 -185 -144 -327 -144c-123.333 0 -218 30.833 -284 92.5s-99 149.5 -99 263.5v692h289v-630c0 -64 17.167 -111 51.5 -141s78.833 -45 133.5 -45
c66.667 0 121.167 19.5 163.5 58.5s63.833 102.5 64.5 190.5v567z" />
    <glyph glyph-name="uni01D5" unicode="&#x1d5;" horiz-adv-x="1446" 
d="M390 2001v170h664v-170h-664zM507 1536c-46 0 -85.333 16.167 -118 48.5s-49 71.5 -49 117.5c0 45.333 16.333 84 49 116s72 48 118 48c44.667 0 83.334 -16 116.001 -48s49 -70.667 49 -116c0 -46 -16.333 -85.167 -49 -117.5s-71.334 -48.5 -116.001 -48.5zM938 1536
c-46 0 -85.333 16.167 -118 48.5s-49 71.5 -49 117.5c0 45.333 16.333 84 49 116s72 48 118 48c44.667 0 83.334 -16 116.001 -48s49 -70.667 49 -116c0 -46 -16.333 -85.167 -49 -117.5s-71.334 -48.5 -116.001 -48.5zM722 -20c-80.667 0 -154.832 10.5 -222.499 31.5
s-127.167 52.5 -178.5 94.5s-91.5 97 -120.5 165s-43.5 146.333 -43.5 235v939h300v-898c0 -104 24.167 -180.333 72.5 -229s112.5 -73 192.5 -73s144.5 24.5 193.5 73.5s73.5 125.167 73.5 228.5v898h300v-939c0 -88.667 -14.5 -167 -43.5 -235s-69.333 -123 -121 -165
s-111.334 -73.5 -179.001 -94.5s-142.167 -31.5 -223.5 -31.5z" />
    <glyph glyph-name="uni01D6" unicode="&#x1d6;" horiz-adv-x="1267" 
d="M967 1831v-170h-664v170h664zM420 1182c-46 0 -85.333 16.167 -118 48.5s-49 71.5 -49 117.5c0 45.333 16.5 84.166 49.5 116.499s72.167 48.5 117.5 48.5c44.667 0 83.334 -16.167 116.001 -48.5s49 -71.166 49 -116.499c0 -46 -16.333 -85.167 -49 -117.5
s-71.334 -48.5 -116.001 -48.5zM684 1348c0 45.333 16.333 84.166 49 116.499s72 48.5 118 48.5c44.667 0 83.334 -16.167 116.001 -48.5s49 -71.166 49 -116.499c0 -46 -16.333 -85.167 -49 -117.5s-71.334 -48.5 -116.001 -48.5c-46 0 -85.333 16.167 -118 48.5
s-49 71.5 -49 117.5zM830 1028h288v-1028h-273l-7 124c-76 -96 -185 -144 -327 -144c-123.333 0 -218 30.833 -284 92.5s-99 149.5 -99 263.5v692h289v-630c0 -64 17.167 -111 51.5 -141s78.833 -45 133.5 -45c66.667 0 121.167 19.5 163.5 58.5s63.833 102.5 64.5 190.5
v567z" />
    <glyph glyph-name="uni01D7" unicode="&#x1d7;" horiz-adv-x="1446" 
d="M633 2001l262 368l142 -101l-227 -267h-177zM507 1536c-46 0 -85.333 16.167 -118 48.5s-49 71.5 -49 117.5c0 45.333 16.333 84 49 116s72 48 118 48c44.667 0 83.334 -16 116.001 -48s49 -70.667 49 -116c0 -46 -16.333 -85.167 -49 -117.5
s-71.334 -48.5 -116.001 -48.5zM938 1536c-46 0 -85.333 16.167 -118 48.5s-49 71.5 -49 117.5c0 45.333 16.333 84 49 116s72 48 118 48c44.667 0 83.334 -16 116.001 -48s49 -70.667 49 -116c0 -46 -16.333 -85.167 -49 -117.5s-71.334 -48.5 -116.001 -48.5zM722 -20
c-80.667 0 -154.832 10.5 -222.499 31.5s-127.167 52.5 -178.5 94.5s-91.5 97 -120.5 165s-43.5 146.333 -43.5 235v939h300v-898c0 -104 24.167 -180.333 72.5 -229s112.5 -73 192.5 -73s144.5 24.5 193.5 73.5s73.5 125.167 73.5 228.5v898h300v-939
c0 -88.667 -14.5 -167 -43.5 -235s-69.333 -123 -121 -165s-111.334 -73.5 -179.001 -94.5s-142.167 -31.5 -223.5 -31.5z" />
    <glyph glyph-name="uni01D8" unicode="&#x1d8;" horiz-adv-x="1267" 
d="M950 1901l-227 -268h-177l262 368zM420 1182c-46 0 -85.333 16.167 -118 48.5s-49 71.5 -49 117.5c0 45.333 16.5 84.166 49.5 116.499s72.167 48.5 117.5 48.5c44.667 0 83.334 -16.167 116.001 -48.5s49 -71.166 49 -116.499c0 -46 -16.333 -85.167 -49 -117.5
s-71.334 -48.5 -116.001 -48.5zM684 1348c0 45.333 16.333 84.166 49 116.499s72 48.5 118 48.5c44.667 0 83.334 -16.167 116.001 -48.5s49 -71.166 49 -116.499c0 -46 -16.333 -85.167 -49 -117.5s-71.334 -48.5 -116.001 -48.5c-46 0 -85.333 16.167 -118 48.5
s-49 71.5 -49 117.5zM830 1028h288v-1028h-273l-7 124c-76 -96 -185 -144 -327 -144c-123.333 0 -218 30.833 -284 92.5s-99 149.5 -99 263.5v692h289v-630c0 -64 17.167 -111 51.5 -141s78.833 -45 133.5 -45c66.667 0 121.167 19.5 163.5 58.5s63.833 102.5 64.5 190.5
v567z" />
    <glyph glyph-name="uni01D9" unicode="&#x1d9;" horiz-adv-x="1446" 
d="M635 2001l-227 299h177l137 -167l136 167h178l-227 -299h-174zM507 1536c-46 0 -85.333 16.167 -118 48.5s-49 71.5 -49 117.5c0 45.333 16.333 84 49 116s72 48 118 48c44.667 0 83.334 -16 116.001 -48s49 -70.667 49 -116c0 -46 -16.333 -85.167 -49 -117.5
s-71.334 -48.5 -116.001 -48.5zM938 1536c-46 0 -85.333 16.167 -118 48.5s-49 71.5 -49 117.5c0 45.333 16.333 84 49 116s72 48 118 48c44.667 0 83.334 -16 116.001 -48s49 -70.667 49 -116c0 -46 -16.333 -85.167 -49 -117.5s-71.334 -48.5 -116.001 -48.5zM722 -20
c-80.667 0 -154.832 10.5 -222.499 31.5s-127.167 52.5 -178.5 94.5s-91.5 97 -120.5 165s-43.5 146.333 -43.5 235v939h300v-898c0 -104 24.167 -180.333 72.5 -229s112.5 -73 192.5 -73s144.5 24.5 193.5 73.5s73.5 125.167 73.5 228.5v898h300v-939
c0 -88.667 -14.5 -167 -43.5 -235s-69.333 -123 -121 -165s-111.334 -73.5 -179.001 -94.5s-142.167 -31.5 -223.5 -31.5z" />
    <glyph glyph-name="uni01DA" unicode="&#x1da;" horiz-adv-x="1267" 
d="M722 1670h-174l-227 299h177l137 -167l136 167h178zM420 1182c-46 0 -85.333 16.167 -118 48.5s-49 71.5 -49 117.5c0 45.333 16.5 84.166 49.5 116.499s72.167 48.5 117.5 48.5c44.667 0 83.334 -16.167 116.001 -48.5s49 -71.166 49 -116.499
c0 -46 -16.333 -85.167 -49 -117.5s-71.334 -48.5 -116.001 -48.5zM684 1348c0 45.333 16.333 84.166 49 116.499s72 48.5 118 48.5c44.667 0 83.334 -16.167 116.001 -48.5s49 -71.166 49 -116.499c0 -46 -16.333 -85.167 -49 -117.5s-71.334 -48.5 -116.001 -48.5
c-46 0 -85.333 16.167 -118 48.5s-49 71.5 -49 117.5zM830 1028h288v-1028h-273l-7 124c-76 -96 -185 -144 -327 -144c-123.333 0 -218 30.833 -284 92.5s-99 149.5 -99 263.5v692h289v-630c0 -64 17.167 -111 51.5 -141s78.833 -45 133.5 -45
c66.667 0 121.167 19.5 163.5 58.5s63.833 102.5 64.5 190.5v567z" />
    <glyph glyph-name="uni01DB" unicode="&#x1db;" horiz-adv-x="1446" 
d="M633 2001l-226 267l141 101l263 -368h-178zM507 1536c-46 0 -85.333 16.167 -118 48.5s-49 71.5 -49 117.5c0 45.333 16.333 84 49 116s72 48 118 48c44.667 0 83.334 -16 116.001 -48s49 -70.667 49 -116c0 -46 -16.333 -85.167 -49 -117.5
s-71.334 -48.5 -116.001 -48.5zM938 1536c-46 0 -85.333 16.167 -118 48.5s-49 71.5 -49 117.5c0 45.333 16.333 84 49 116s72 48 118 48c44.667 0 83.334 -16 116.001 -48s49 -70.667 49 -116c0 -46 -16.333 -85.167 -49 -117.5s-71.334 -48.5 -116.001 -48.5zM722 -20
c-80.667 0 -154.832 10.5 -222.499 31.5s-127.167 52.5 -178.5 94.5s-91.5 97 -120.5 165s-43.5 146.333 -43.5 235v939h300v-898c0 -104 24.167 -180.333 72.5 -229s112.5 -73 192.5 -73s144.5 24.5 193.5 73.5s73.5 125.167 73.5 228.5v898h300v-939
c0 -88.667 -14.5 -167 -43.5 -235s-69.333 -123 -121 -165s-111.334 -73.5 -179.001 -94.5s-142.167 -31.5 -223.5 -31.5z" />
    <glyph glyph-name="uni01DC" unicode="&#x1dc;" horiz-adv-x="1267" 
d="M724 1633h-178l-226 268l141 100zM420 1182c-46 0 -85.333 16.167 -118 48.5s-49 71.5 -49 117.5c0 45.333 16.5 84.166 49.5 116.499s72.167 48.5 117.5 48.5c44.667 0 83.334 -16.167 116.001 -48.5s49 -71.166 49 -116.499c0 -46 -16.333 -85.167 -49 -117.5
s-71.334 -48.5 -116.001 -48.5zM851 1182c-46 0 -85.333 16.167 -118 48.5s-49 71.5 -49 117.5c0 45.333 16.333 84.166 49 116.499s72 48.5 118 48.5c44.667 0 83.334 -16.167 116.001 -48.5s49 -71.166 49 -116.499c0 -46 -16.333 -85.167 -49 -117.5
s-71.334 -48.5 -116.001 -48.5zM830 1028h288v-1028h-273l-7 124c-76 -96 -185 -144 -327 -144c-123.333 0 -218 30.833 -284 92.5s-99 149.5 -99 263.5v692h289v-630c0 -64 17.167 -111 51.5 -141s78.833 -45 133.5 -45c66.667 0 121.167 19.5 163.5 58.5
s63.833 102.5 64.5 190.5v567z" />
    <glyph glyph-name="Scommaaccent" unicode="&#x218;" horiz-adv-x="1297" 
d="M667 -20c-158.667 0 -292.332 36.832 -400.999 110.499s-173.667 176.834 -195 309.501l310 71c10 -79.333 41.833 -140.166 95.5 -182.499s121.167 -63.5 202.5 -63.5c64.667 0 117.334 14.833 158.001 44.5s60.667 73.5 60 131.5c0 40.667 -17 76.334 -51 107.001
s-67.833 52.5 -101.5 65.5s-87.834 30.833 -162.501 53.5c-10 3.33301 -17.333 5.66602 -22 6.99902c-38 12 -68.667 22 -92 30s-52.166 19.167 -86.499 33.5s-62.333 28.333 -84 42s-44.834 31 -69.501 52s-44 43.167 -58 66.5s-25.667 51 -35 83s-14 66.333 -14 103
c0 87.333 22.5 163.166 67.5 227.499s105.667 112.666 182 144.999s163.166 48.5 260.499 48.5c66 0 128.833 -7 188.5 -21s115.834 -35.5 168.501 -64.5s97.5 -68.667 134.5 -119s62.5 -108.833 76.5 -175.5l-290 -72c-26 138 -112.667 207 -260 207
c-65.333 0 -119 -14 -161 -42s-63 -70.333 -63 -127c0 -52.667 35 -95.334 105 -128.001c32.667 -16 99.667 -39 201 -69l96 -30c24.667 -8 55.667 -19.667 93 -35s67.666 -30.166 90.999 -44.499s48.666 -32.833 75.999 -55.5s48.833 -46.667 64.5 -72
s28.834 -55.166 39.501 -89.499s16 -71.5 16 -111.5c0 -60 -9.66699 -114.333 -29 -163s-45.833 -89.667 -79.5 -123s-73.5 -61.5 -119.5 -84.5s-95 -39.667 -147 -50s-107 -15.5 -165 -15.5zM499.002 -574.001l-141 66l168 373h251z" />
    <glyph glyph-name="scommaaccent" unicode="&#x219;" horiz-adv-x="992" 
d="M511 -20c-120 0 -219.999 23.9961 -299.999 71.9961s-129 119.333 -147 214l241 68c28.667 -102 97.334 -153 206.001 -153c42 0 77 7.83301 105 23.5s41.667 42.167 41 79.5c0 20.667 -5.66699 38.334 -17 53.001s-28.833 27.334 -52.5 38.001s-47 19.667 -70 27
s-53.5 16.166 -91.5 26.499s-69.667 20.166 -95 29.499c-34.667 12 -64.834 24.833 -90.501 38.5s-50.667 31.334 -75 53.001s-43 48.5 -56 80.5s-19.5 68.667 -19.5 110c0 101.333 37.167 178 111.5 230s171.5 78 291.5 78c106.667 0 196.334 -22 269.001 -66
s118.667 -112.667 138 -206l-223 -50c-28 86.667 -89 130 -183 130c-40.667 0 -74.334 -7.66699 -101.001 -23s-40 -38 -40 -68c0 -11.333 2 -21.666 6 -30.999s11 -17.666 21 -24.999s19.667 -13.666 29 -18.999s23 -10.833 41 -16.5s33 -10 45 -13l52.5 -13.5l53.5 -14
c36.667 -10 68.834 -20 96.501 -30s57.167 -24 88.5 -42s57.166 -38.167 77.499 -60.5s37.166 -50.666 50.499 -84.999s20 -72.5 20 -114.5c0 -56.667 -11.5 -106.334 -34.5 -149.001s-54.5 -76.167 -94.5 -100.5s-84.5 -42.333 -133.5 -54s-102.5 -17.5 -160.5 -17.5z
M347.001 -573.004l-141 66l168 373h251z" />
    <glyph glyph-name="uni021A" unicode="&#x21a;" horiz-adv-x="1065" 
d="M1025 1445v-264h-343v-1181h-297v1181h-345v264h985zM239 -508l168 373h251l-278 -439z" />
    <glyph glyph-name="uni021B" unicode="&#x21b;" horiz-adv-x="796" 
d="M532 0c-100 0 -177.333 27.832 -232 83.499s-82 134.834 -82 237.501v486h-202v221h65c58 0 100.667 14.333 128 43s41 79.667 41 153v136h260v-332h212v-221h-212v-455c0 -88.667 39.667 -133 119 -133h93v-219h-190zM432 -574.001l-141 66l168 373h251z" />
    <glyph glyph-name="uni0237" unicode="&#x237;" horiz-adv-x="591" 
d="M-61 -482l0.000976562 225c44.667 0 80.667 4.83301 108 14.5s48.666 26.834 63.999 51.501s25.5 54.167 30.5 88.5s7.5 80.166 7.5 137.499v993h292v-993c0 -179.333 -39 -310.333 -117 -393s-206.333 -124 -385 -124z" />
    <glyph glyph-name="circumflex" unicode="&#x2c6;" horiz-adv-x="711" 
d="M219 1237h-177l227 299h173l227 -299h-177l-137 166z" />
    <glyph glyph-name="caron" unicode="&#x2c7;" horiz-adv-x="716" 
d="M271 1237l-227 299h177l137 -167l136 167h178l-227 -299h-174z" />
    <glyph glyph-name="breve" unicode="&#x2d8;" horiz-adv-x="898" 
d="M448 1185c-110.667 0 -199.001 30.1689 -265.001 90.502s-99 147.166 -99 260.499h180c0 -64.667 16 -116.834 48 -156.501s77.333 -59.5 136 -59.5c59.333 0 105 19.667 137 59s48 91.666 48 156.999h181c0 -113.333 -33.167 -200.166 -99.5 -260.499
s-155.166 -90.5 -266.499 -90.5z" />
    <glyph glyph-name="dotaccent" unicode="&#x2d9;" horiz-adv-x="543" 
d="M272 1182c-46 0 -85.333 16.167 -118 48.5s-49 71.5 -49 117.5c0 45.333 16.5 84.166 49.5 116.499s72.167 48.5 117.5 48.5c44.667 0 83.334 -16.167 116.001 -48.5s49 -71.166 49 -116.499c0 -46 -16.333 -85.167 -49 -117.5s-71.334 -48.5 -116.001 -48.5z" />
    <glyph glyph-name="ring" unicode="&#x2da;" horiz-adv-x="660" 
d="M331 1136c-66.667 0 -123.5 23.667 -170.5 71s-70.5 104 -70.5 170c0 64.667 23.667 120.334 71 167.001s104 70 170 70c64.667 0 120.334 -23.333 167.001 -70s70 -102.334 70 -167.001c0 -66 -23.333 -122.667 -70 -170s-102.334 -71 -167.001 -71zM331 1258
c33.333 0 61.333 11.167 84 33.5s34 50.833 34 85.5c0 32 -11.5 60 -34.5 84s-50.833 36 -83.5 36s-60.167 -12 -82.5 -36s-33.5 -52 -33.5 -84c0 -35.333 11 -64 33 -86s49.667 -33 83 -33z" />
    <glyph glyph-name="ogonek" unicode="&#x2db;" horiz-adv-x="522" 
d="M259 -425c-57.333 0 -103.832 9.33301 -139.499 28s-53.5 45.667 -53.5 81c0 81.333 84.333 197.666 253 348.999l84 -33c-114.667 -103.333 -172 -176.666 -172 -219.999c0 -24 20 -36 60 -36c18.667 0 38.667 3.66699 60 11s38.666 17 51.999 29v-182
c-43.333 -18 -91.333 -27 -144 -27z" />
    <glyph glyph-name="tilde" unicode="&#x2dc;" horiz-adv-x="852" 
d="M545 1162c-74 0 -132.667 34 -176 102c-16.667 26 -35.667 39 -57 39c-22.667 0 -40 -11.667 -52 -35s-18 -54.333 -18 -93h-137c0 77.333 18.167 140.333 54.5 189s85.5 73 147.5 73c74.667 0 133 -34.333 175 -103c16 -25.333 36 -38 60 -38c44.667 0 67 42.667 67 128
h138c0 -76.667 -17.833 -139.5 -53.5 -188.5s-85.167 -73.5 -148.5 -73.5z" />
    <glyph glyph-name="hungarumlaut" unicode="&#x2dd;" horiz-adv-x="864" 
d="M32 1200l262 368l142 -100l-227 -268h-177zM409 1200l263 368l141 -100l-226 -268h-178z" />
    <glyph glyph-name="gravecomb" unicode="&#x300;" 
d="M-210 1200l-226 268l141 100l263 -368h-178z" />
    <glyph glyph-name="acutecomb" unicode="&#x301;" 
d="M-455 1200l262 368l142 -100l-227 -268h-177z" />
    <glyph glyph-name="uni0302" unicode="&#x302;" 
d="M-492 1237h-177l227 299h173l227 -299h-177l-137 166z" />
    <glyph glyph-name="tildecomb" unicode="&#x303;" 
d="M-307 1162c-74 0 -132.667 34 -176 102c-16.667 26 -35.667 39 -57 39c-22.667 0 -40 -11.667 -52 -35s-18 -54.333 -18 -93h-137c0 77.333 18.167 140.333 54.5 189s85.5 73 147.5 73c74.667 0 133 -34.333 175 -103c16 -25.333 36 -38 60 -38
c44.667 0 67 42.667 67 128h138c0 -76.667 -17.833 -139.5 -53.5 -188.5s-85.167 -73.5 -148.5 -73.5z" />
    <glyph glyph-name="uni0304" unicode="&#x304;" 
d="M-809 1228v170h664v-170h-664z" />
    <glyph glyph-name="uni0306" unicode="&#x306;" 
d="M-450 1185c-110.667 0 -199.001 30.1689 -265.001 90.502s-99 147.166 -99 260.499h180c0 -64.667 16 -116.834 48 -156.501s77.333 -59.5 136 -59.5c59.333 0 105 19.667 137 59s48 91.666 48 156.999h181c0 -113.333 -33.167 -200.166 -99.5 -260.499
s-155.166 -90.5 -266.499 -90.5z" />
    <glyph glyph-name="uni0307" unicode="&#x307;" 
d="M-271 1182c-46 0 -85.333 16.167 -118 48.5s-49 71.5 -49 117.5c0 45.333 16.5 84.166 49.5 116.499s72.167 48.5 117.5 48.5c44.667 0 83.334 -16.167 116.001 -48.5s49 -71.166 49 -116.499c0 -46 -16.333 -85.167 -49 -117.5s-71.334 -48.5 -116.001 -48.5z" />
    <glyph glyph-name="uni0308" unicode="&#x308;" 
d="M-702 1182c-46 0 -85.333 16.167 -118 48.5s-49 71.5 -49 117.5c0 45.333 16.5 84.166 49.5 116.499s72.167 48.5 117.5 48.5c44.667 0 83.334 -16.167 116.001 -48.5s49 -71.166 49 -116.499c0 -46 -16.333 -85.167 -49 -117.5s-71.334 -48.5 -116.001 -48.5zM-271 1182
c-46 0 -85.333 16.167 -118 48.5s-49 71.5 -49 117.5c0 45.333 16.333 84.166 49 116.499s72 48.5 118 48.5c44.667 0 83.334 -16.167 116.001 -48.5s49 -71.166 49 -116.499c0 -46 -16.333 -85.167 -49 -117.5s-71.334 -48.5 -116.001 -48.5z" />
    <glyph glyph-name="hookabovecomb" unicode="&#x309;" 
d="M-348 1140l0.000976562 134.999c74 14 111 46.333 111 97c0 20.667 -5.83301 37.334 -17.5 50.001s-28.834 19 -51.501 19c-31.333 0 -60 -13 -86 -39l-67 97c46 38 102.333 57 169 57c61.333 0 109.333 -16 144 -48s52 -74.333 52 -127c0 -78.667 -42 -131 -126 -157
v-84h-128z" />
    <glyph glyph-name="uni030A" unicode="&#x30a;" 
d="M-329 1136c-66.667 0 -123.5 23.667 -170.5 71s-70.5 104 -70.5 170c0 64.667 23.667 120.334 71 167.001s104 70 170 70c64.667 0 120.334 -23.333 167.001 -70s70 -102.334 70 -167.001c0 -66 -23.333 -122.667 -70 -170s-102.334 -71 -167.001 -71zM-329 1258
c33.333 0 61.333 11.167 84 33.5s34 50.833 34 85.5c0 32 -11.5 60 -34.5 84s-50.833 36 -83.5 36s-60.167 -12 -82.5 -36s-33.5 -52 -33.5 -84c0 -35.333 11 -64 33 -86s49.667 -33 83 -33z" />
    <glyph glyph-name="uni030B" unicode="&#x30b;" 
d="M-832 1200l262 368l142 -100l-227 -268h-177zM-455 1200l263 368l141 -100l-226 -268h-178z" />
    <glyph glyph-name="uni030C" unicode="&#x30c;" 
d="M-445 1237l-227 299h177l137 -167l136 167h178l-227 -299h-174z" />
    <glyph glyph-name="uni0312" unicode="&#x312;" 
d="M-293 1533h206l-125 -327h-296z" />
    <glyph glyph-name="uni031B" unicode="&#x31b;" 
d="M-311 755c-66 0 -132.669 20.999 -200.002 62.999l50 95c34.667 -18.667 67.334 -28 98.001 -28c36.667 0 61.834 10 75.501 30s20.5 56.667 20.5 110v127h141v-166c0 -83.333 -17.167 -142.666 -51.5 -177.999s-78.833 -53 -133.5 -53z" />
    <glyph glyph-name="dotbelowcomb" unicode="&#x323;" 
d="M-271 -512c-46 0 -85.333 16.167 -118 48.5s-49 71.5 -49 117.5c0 44.667 16.5 83.167 49.5 115.5s72.167 48.5 117.5 48.5c44.667 0 83.334 -16.167 116.001 -48.5s49 -70.833 49 -115.5c0 -46 -16.333 -85.167 -49 -117.5s-71.334 -48.5 -116.001 -48.5z" />
    <glyph glyph-name="uni0326" unicode="&#x326;" 
d="M-309 -574l-141 66l168 373h251z" />
    <glyph glyph-name="uni0327" unicode="&#x327;" 
d="M-293 -532c-56.667 0 -106.5 14.333 -149.5 43s-72.833 64.667 -89.5 108l127 44c10 -19.333 24.833 -34.833 44.5 -46.5s40.167 -17.5 61.5 -17.5c26 0 48.167 8.5 66.5 25.5s27.5 39.167 27.5 66.5c0 28.667 -9.16699 51 -27.5 67s-41.166 24 -68.499 24
c-30.667 0 -55.334 -10.333 -74.001 -31l-105 62l122 223h137l-90 -159c20 4 35 6 45 6c56.667 0 103.5 -18 140.5 -54s55.5 -82 55.5 -138c0 -62.667 -21.5 -115.5 -64.5 -158.5s-95.833 -64.5 -158.5 -64.5z" />
    <glyph glyph-name="uni0328" unicode="&#x328;" 
d="M-263 -425c-57.333 0 -103.832 9.33301 -139.499 28s-53.5 45.667 -53.5 81c0 81.333 84.333 197.666 253 348.999l84 -33c-114.667 -103.333 -172 -176.666 -172 -219.999c0 -24 20 -36 60 -36c18.667 0 38.667 3.66699 60 11s38.666 17 51.999 29v-182
c-43.333 -18 -91.333 -27 -144 -27z" />
    <glyph glyph-name="uni0335" unicode="&#x335;" 
d="M-836 428v176h689v-176h-689z" />
    <glyph glyph-name="uni0336" unicode="&#x336;" 
d="M-1662 474v117h1517v-117h-1517z" />
    <glyph glyph-name="uni0337" unicode="&#x337;" 
d="M-673 248v181l635 472v-183z" />
    <glyph glyph-name="uni0338" unicode="&#x338;" 
d="M-908 208l806 1157l115 -69l-806 -1157z" />
    <glyph glyph-name="uni0394" unicode="&#x394;" horiz-adv-x="1598" 
d="M954 1536l617 -1536h-1543l616 1536h310zM431 269h737l-368 957z" />
    <glyph glyph-name="uni03A9" unicode="&#x3a9;" horiz-adv-x="1776" 
d="M104 0l-0.000976562 248.001h273v3c-62 60 -116.5 142.5 -163.5 247.5s-70.5 216.833 -70.5 335.5c0 99.333 18 192.666 54 279.999s86.167 163 150.5 227s143.5 114.333 237.5 151s196.333 55 307 55c94 0 181.333 -13.167 262 -39.5s150 -62.166 208 -107.499
s107.667 -98.333 149 -159s72 -125.334 92 -194.001s30 -139 30 -211c0 -114.667 -23 -225 -69 -331s-103.667 -191 -173 -255v-2h279v-248h-670v190c90.667 52.667 164.5 130 221.5 232s85.5 224.333 85.5 367c0 151.333 -36.5 273.5 -109.5 366.5
s-174.167 139.5 -303.5 139.5c-125.333 0 -227.666 -45.5 -306.999 -136.5s-119 -214.5 -119 -370.5c0 -142.667 29.667 -267 89 -373s133 -181 221 -225v-190h-674z" />
    <glyph glyph-name="uni03BC" unicode="&#x3bc;" horiz-adv-x="1236" 
d="M802 978h288.999v-978h-289v107c-76 -83.333 -168.667 -125 -278 -125c-60.667 0 -117 13.333 -169 40v-487h-210v1443h290v-568c0 -49.333 16.833 -91 50.5 -125s74.834 -51 123.501 -51c54 0 99.667 17 137 51s56 75.667 56 125v568z" />
    <glyph glyph-name="pi" unicode="&#x3c0;" horiz-adv-x="1306" 
d="M136 0c34 102 64.001 227.667 90.001 377s39.667 275.333 41 378c-100.667 0 -172.667 -6.33301 -216 -19l-29 165c57.333 42 173.666 63 348.999 63h906l-22 -209h-152v-464c0 -122 9 -219 27 -291h-262c-23.333 33.333 -35 125.333 -35 276v479l-301 -1
c-5.33301 -116 -20.5 -250.833 -45.5 -404.5s-54.167 -270.167 -87.5 -349.5h-263z" />
    <glyph glyph-name="Wgrave" unicode="&#x1e80;" horiz-adv-x="2175" 
d="M998 1580l-226 267l141 101l263 -368h-178zM422 0l-378 1445h312l282 -1094l323 1094h253l321 -1094l285 1094h311l-378 -1445h-386l-280 893l-279 -893h-386z" />
    <glyph glyph-name="wgrave" unicode="&#x1e81;" horiz-adv-x="1752" 
d="M976 1169h-178l-226 268l141 100zM1443 1028h298l-360 -1029h-267l-238 679l-240 -679h-271l-353 1029h297l212 -669l243 669h221l242 -667z" />
    <glyph glyph-name="Wacute" unicode="&#x1e82;" horiz-adv-x="2175" 
d="M998 1580l262 368l142 -101l-227 -267h-177zM422 0l-378 1445h312l282 -1094l323 1094h253l321 -1094l285 1094h311l-378 -1445h-386l-280 893l-279 -893h-386z" />
    <glyph glyph-name="wacute" unicode="&#x1e83;" horiz-adv-x="1752" 
d="M1202 1437l-227 -268h-177l262 368zM1443 1028h298l-360 -1029h-267l-238 679l-240 -679h-271l-353 1029h297l212 -669l243 669h221l242 -667z" />
    <glyph glyph-name="Wdieresis" unicode="&#x1e84;" horiz-adv-x="2175" 
d="M872 1536c-46 0 -85.333 16.167 -118 48.5s-49 71.5 -49 117.5c0 45.333 16.333 84 49 116s72 48 118 48c44.667 0 83.334 -16 116.001 -48s49 -70.667 49 -116c0 -46 -16.333 -85.167 -49 -117.5s-71.334 -48.5 -116.001 -48.5zM1303 1536
c-46 0 -85.333 16.167 -118 48.5s-49 71.5 -49 117.5c0 45.333 16.333 84 49 116s72 48 118 48c44.667 0 83.334 -16 116.001 -48s49 -70.667 49 -116c0 -46 -16.333 -85.167 -49 -117.5s-71.334 -48.5 -116.001 -48.5zM422 0l-378 1445h312l282 -1094l323 1094h253
l321 -1094l285 1094h311l-378 -1445h-386l-280 893l-279 -893h-386z" />
    <glyph glyph-name="wdieresis" unicode="&#x1e85;" horiz-adv-x="1752" 
d="M672 1182c-46 0 -85.333 16.167 -118 48.5s-49 71.5 -49 117.5c0 45.333 16.5 84.166 49.5 116.499s72.167 48.5 117.5 48.5c44.667 0 83.334 -16.167 116.001 -48.5s49 -71.166 49 -116.499c0 -46 -16.333 -85.167 -49 -117.5s-71.334 -48.5 -116.001 -48.5zM1103 1182
c-46 0 -85.333 16.167 -118 48.5s-49 71.5 -49 117.5c0 45.333 16.333 84.166 49 116.499s72 48.5 118 48.5c44.667 0 83.334 -16.167 116.001 -48.5s49 -71.166 49 -116.499c0 -46 -16.333 -85.167 -49 -117.5s-71.334 -48.5 -116.001 -48.5zM1443 1028h298l-360 -1029
h-267l-238 679l-240 -679h-271l-353 1029h297l212 -669l243 669h221l242 -667z" />
    <glyph glyph-name="uni1EA0" unicode="&#x1ea0;" horiz-adv-x="1491" 
d="M1461 0h-307l-105 298h-607l-105 -298h-307l532 1445h367zM530 549h431l-215 613zM747 -182c44.667 0 83.334 -16.167 116.001 -48.5s49 -70.833 49 -115.5c0 -46 -16.333 -85.167 -49 -117.5s-71.334 -48.5 -116.001 -48.5c-46 0 -85.333 16.167 -118 48.5
s-49 71.5 -49 117.5c0 44.667 16.5 83.167 49.5 115.5s72.167 48.5 117.5 48.5z" />
    <glyph glyph-name="uni1EA1" unicode="&#x1ea1;" horiz-adv-x="1123" 
d="M992 279c0 -109.333 8.33105 -192.999 24.998 -250.999v-28h-269l-23 112c-36.667 -44 -84.667 -77 -144 -99s-121.333 -33 -186 -33c-34 0 -66 3 -96 9s-58.833 16.167 -86.5 30.5s-51.5 32.166 -71.5 53.499s-36 48.5 -48 81.5s-18 70.167 -18 111.5
s6.33301 78.5 19 111.5s29.334 60.833 50.001 83.5s47.667 43 81 61s67.333 32.667 102 44s75.334 22 122.001 32l169 38c36 8.66699 61.5 19.5 76.5 32.5s22.5 30.167 22.5 51.5c0 46 -16.833 79 -50.5 99s-74.5 30 -122.5 30c-118 0 -185 -52.333 -201 -157l-255 46
c21.333 106 71 184.167 149 234.5s185.667 75.5 323 75.5c288 0 432 -123.667 432 -371v-398zM484.998 175.001c72.667 0 132.002 24.833 178.002 74.5s69 123.167 69 220.5l-244 -69c-44.667 -10.667 -78.834 -24.667 -102.501 -42s-35.5 -42 -35.5 -74
c0 -35.333 12.667 -62.5 38 -81.5s57.666 -28.5 96.999 -28.5zM617 -181.999c44.667 0 83.334 -16.167 116.001 -48.5s49 -70.833 49 -115.5c0 -46 -16.333 -85.167 -49 -117.5s-71.334 -48.5 -116.001 -48.5c-46 0 -85.333 16.167 -118 48.5s-49 71.5 -49 117.5
c0 44.667 16.5 83.167 49.5 115.5s72.167 48.5 117.5 48.5z" />
    <glyph glyph-name="uni1EA2" unicode="&#x1ea2;" horiz-adv-x="1491" 
d="M728 1836c-31.333 0 -59.998 -12.667 -85.998 -38l-67 96c45.333 38.667 101.666 58 168.999 58c61.333 0 109.333 -16 144 -48s52 -74.667 52 -128c0 -78.667 -42 -131 -126 -157v-83h-128v135c74 12.667 111 45 111 97c0 20 -5.83301 36.333 -17.5 49
s-28.834 19 -51.501 19zM1154 0l-105 298h-607l-105 -298h-307l532 1445h367l532 -1445h-307zM530.002 549h431l-215 613z" />
    <glyph glyph-name="uni1EA3" unicode="&#x1ea3;" horiz-adv-x="1123" 
d="M547 1410c-31.333 0 -59.999 -13.001 -85.999 -39.001l-67 97c46 38 102.333 57 169 57c61.333 0 109.333 -16 144 -48s52 -74.333 52 -127c0 -78.667 -42 -131 -126 -157v-84h-128v135c74 14 111 46.333 111 97c0 20.667 -5.83301 37.334 -17.5 50.001
s-28.834 19 -51.501 19zM992.001 278.999c0 -109.333 8.33105 -192.999 24.998 -250.999v-28h-269l-23 112c-36.667 -44 -84.667 -77 -144 -99s-121.333 -33 -186 -33c-34 0 -66 3 -96 9s-58.833 16.167 -86.5 30.5s-51.5 32.166 -71.5 53.499s-36 48.5 -48 81.5
s-18 70.167 -18 111.5s6.33301 78.5 19 111.5s29.334 60.833 50.001 83.5s47.667 43 81 61s67.333 32.667 102 44s75.334 22 122.001 32l169 38c36 8.66699 61.5 19.5 76.5 32.5s22.5 30.167 22.5 51.5c0 46 -16.833 79 -50.5 99s-74.5 30 -122.5 30
c-118 0 -185 -52.333 -201 -157l-255 46c21.333 106 71 184.167 149 234.5s185.667 75.5 323 75.5c288 0 432 -123.667 432 -371v-398zM484.999 175c72.667 0 132.002 24.833 178.002 74.5s69 123.167 69 220.5l-244 -69c-44.667 -10.667 -78.834 -24.667 -102.501 -42
s-35.5 -42 -35.5 -74c0 -35.333 12.667 -62.5 38 -81.5s57.666 -28.5 96.999 -28.5z" />
    <glyph glyph-name="uni1EA4" unicode="&#x1ea4;" horiz-adv-x="1491" 
d="M1060 2237l-227 -267h-177l262 368zM745 1746l-136 -166h-177l227 299h173l227 -299h-177zM1154 0l-105 298h-607l-105 -298h-307l532 1445h367l532 -1445h-307zM530 549h431l-215 613z" />
    <glyph glyph-name="uni1EA5" unicode="&#x1ea5;" horiz-adv-x="1123" 
d="M879 1914l-227 -268h-177l262 368zM564 1372l-136 -166h-177l227 299h173l227 -299h-177zM992 279c0 -109.333 8.33105 -192.999 24.998 -250.999v-28h-269l-23 112c-36.667 -44 -84.667 -77 -144 -99s-121.333 -33 -186 -33c-34 0 -66 3 -96 9
s-58.833 16.167 -86.5 30.5s-51.5 32.166 -71.5 53.499s-36 48.5 -48 81.5s-18 70.167 -18 111.5s6.33301 78.5 19 111.5s29.334 60.833 50.001 83.5s47.667 43 81 61s67.333 32.667 102 44s75.334 22 122.001 32l169 38c36 8.66699 61.5 19.5 76.5 32.5
s22.5 30.167 22.5 51.5c0 46 -16.833 79 -50.5 99s-74.5 30 -122.5 30c-118 0 -185 -52.333 -201 -157l-255 46c21.333 106 71 184.167 149 234.5s185.667 75.5 323 75.5c288 0 432 -123.667 432 -371v-398zM484.998 175.001c72.667 0 132.002 24.833 178.002 74.5
s69 123.167 69 220.5l-244 -69c-44.667 -10.667 -78.834 -24.667 -102.501 -42s-35.5 -42 -35.5 -74c0 -35.333 12.667 -62.5 38 -81.5s57.666 -28.5 96.999 -28.5z" />
    <glyph glyph-name="uni1EA6" unicode="&#x1ea6;" horiz-adv-x="1491" 
d="M834 1970h-178l-226 267l141 101zM659 1879h173l227 -299h-177l-137 166l-136 -166h-177zM1154 0l-105 298h-607l-105 -298h-307l532 1445h367l532 -1445h-307zM530 549h431l-215 613z" />
    <glyph glyph-name="uni1EA7" unicode="&#x1ea7;" horiz-adv-x="1123" 
d="M653 1646h-178l-226 268l141 100zM478 1505h173l227 -299h-177l-137 166l-136 -166h-177zM992 279c0 -109.333 8.33105 -192.999 24.998 -250.999v-28h-269l-23 112c-36.667 -44 -84.667 -77 -144 -99s-121.333 -33 -186 -33c-34 0 -66 3 -96 9
s-58.833 16.167 -86.5 30.5s-51.5 32.166 -71.5 53.499s-36 48.5 -48 81.5s-18 70.167 -18 111.5s6.33301 78.5 19 111.5s29.334 60.833 50.001 83.5s47.667 43 81 61s67.333 32.667 102 44s75.334 22 122.001 32l169 38c36 8.66699 61.5 19.5 76.5 32.5
s22.5 30.167 22.5 51.5c0 46 -16.833 79 -50.5 99s-74.5 30 -122.5 30c-118 0 -185 -52.333 -201 -157l-255 46c21.333 106 71 184.167 149 234.5s185.667 75.5 323 75.5c288 0 432 -123.667 432 -371v-398zM484.998 175.001c72.667 0 132.002 24.833 178.002 74.5
s69 123.167 69 220.5l-244 -69c-44.667 -10.667 -78.834 -24.667 -102.501 -42s-35.5 -42 -35.5 -74c0 -35.333 12.667 -62.5 38 -81.5s57.666 -28.5 96.999 -28.5z" />
    <glyph glyph-name="uni1EA8" unicode="&#x1ea8;" horiz-adv-x="1491" 
d="M727 2226c-31.333 0 -59.998 -12.667 -85.998 -38l-67 96c45.333 38.667 101.666 58 168.999 58c61.333 0 109.333 -16 144 -48s52 -74.667 52 -128c0 -78.667 -42 -131 -126 -157v-83h-128v135c74 12.667 111 45 111 97c0 20 -5.83301 36.333 -17.5 49
s-28.834 19 -51.501 19zM745.002 1746l-136 -166h-177l227 299h173l227 -299h-177zM1154 0l-105 298h-607l-105 -298h-307l532 1445h367l532 -1445h-307zM530.002 549h431l-215 613z" />
    <glyph glyph-name="uni1EA9" unicode="&#x1ea9;" horiz-adv-x="1123" 
d="M546 1887c-31.333 0 -59.999 -13.001 -85.999 -39.001l-67 97c46 38 102.333 57 169 57c61.333 0 109.333 -16 144 -48s52 -74.333 52 -127c0 -78.667 -42 -131 -126 -157v-84h-128v135c74 14 111 46.333 111 97c0 20.667 -5.83301 37.334 -17.5 50.001
s-28.834 19 -51.501 19zM564.001 1372l-136 -166h-177l227 299h173l227 -299h-177zM992.001 278.999c0 -109.333 8.33105 -192.999 24.998 -250.999v-28h-269l-23 112c-36.667 -44 -84.667 -77 -144 -99s-121.333 -33 -186 -33c-34 0 -66 3 -96 9s-58.833 16.167 -86.5 30.5
s-51.5 32.166 -71.5 53.499s-36 48.5 -48 81.5s-18 70.167 -18 111.5s6.33301 78.5 19 111.5s29.334 60.833 50.001 83.5s47.667 43 81 61s67.333 32.667 102 44s75.334 22 122.001 32l169 38c36 8.66699 61.5 19.5 76.5 32.5s22.5 30.167 22.5 51.5
c0 46 -16.833 79 -50.5 99s-74.5 30 -122.5 30c-118 0 -185 -52.333 -201 -157l-255 46c21.333 106 71 184.167 149 234.5s185.667 75.5 323 75.5c288 0 432 -123.667 432 -371v-398zM484.999 175c72.667 0 132.002 24.833 178.002 74.5s69 123.167 69 220.5l-244 -69
c-44.667 -10.667 -78.834 -24.667 -102.501 -42s-35.5 -42 -35.5 -74c0 -35.333 12.667 -62.5 38 -81.5s57.666 -28.5 96.999 -28.5z" />
    <glyph glyph-name="uni1EAA" unicode="&#x1eaa;" horiz-adv-x="1491" 
d="M629 2130c-27.333 0 -48.168 -12.667 -62.501 -38s-21.5 -58.333 -21.5 -99h-151c0 78.667 20.667 142.834 62 192.5c41.333 49.667 97.333 74.5 168 74.5c68.667 0 124.667 -24.333 168 -73l22.5 -26c11 -12.667 19.167 -21.5 24.5 -26.5s13.166 -10.167 23.499 -15.5
s20.833 -8 31.5 -8c52 0 78 45 78 135h153c0 -78 -20.167 -141.833 -60.5 -191.5s-97.166 -74.5 -170.499 -74.5c-42 0 -75.667 7.16699 -101 21.5s-48.333 33.833 -69 58.5c-2 2 -6 6.83301 -12 14.5l-12 15.5c-2 2.66699 -5.66699 6.83398 -11 12.5
c-5.33301 5.66699 -9.66602 9.5 -12.999 11.5l-13 8c-5.33301 3.33301 -10.833 5.5 -16.5 6.5s-11.5 1.5 -17.5 1.5zM658.998 1879h173l227 -299h-177l-137 166l-136 -166h-177zM1154 0l-105 298h-607l-105 -298h-307l532 1445h367l532 -1445h-307zM529.998 549h431
l-215 613z" />
    <glyph glyph-name="uni1EAB" unicode="&#x1eab;" horiz-adv-x="1123" 
d="M464 1780c-22.667 0 -40 -11.667 -52 -35s-18 -54.333 -18 -93h-137c0 77.333 18.167 140.333 54.5 189s85.5 73 147.5 73c74.667 0 133 -34.333 175 -103c16 -25.333 36 -38 60 -38c44.667 0 67 42.667 67 128h138c0 -76.667 -17.833 -139.5 -53.5 -188.5
s-85.167 -73.5 -148.5 -73.5c-74 0 -132.667 34 -176 102c-16.667 26 -35.667 39 -57 39zM564 1372l-136 -166h-177l227 299h173l227 -299h-177zM992 279c0 -109.333 8.33105 -192.999 24.998 -250.999v-28h-269l-23 112c-36.667 -44 -84.667 -77 -144 -99
s-121.333 -33 -186 -33c-34 0 -66 3 -96 9s-58.833 16.167 -86.5 30.5s-51.5 32.166 -71.5 53.499s-36 48.5 -48 81.5s-18 70.167 -18 111.5s6.33301 78.5 19 111.5s29.334 60.833 50.001 83.5s47.667 43 81 61s67.333 32.667 102 44s75.334 22 122.001 32l169 38
c36 8.66699 61.5 19.5 76.5 32.5s22.5 30.167 22.5 51.5c0 46 -16.833 79 -50.5 99s-74.5 30 -122.5 30c-118 0 -185 -52.333 -201 -157l-255 46c21.333 106 71 184.167 149 234.5s185.667 75.5 323 75.5c288 0 432 -123.667 432 -371v-398zM484.998 175.001
c72.667 0 132.002 24.833 178.002 74.5s69 123.167 69 220.5l-244 -69c-44.667 -10.667 -78.834 -24.667 -102.501 -42s-35.5 -42 -35.5 -74c0 -35.333 12.667 -62.5 38 -81.5s57.666 -28.5 96.999 -28.5z" />
    <glyph glyph-name="uni1EAC" unicode="&#x1eac;" horiz-adv-x="1491" 
d="M745 1746l-136 -166h-177l227 299h173l227 -299h-177zM1461 0h-307l-105 298h-607l-105 -298h-307l532 1445h367zM530 549h431l-215 613zM747 -182c44.667 0 83.334 -16.167 116.001 -48.5s49 -70.833 49 -115.5c0 -46 -16.333 -85.167 -49 -117.5
s-71.334 -48.5 -116.001 -48.5c-46 0 -85.333 16.167 -118 48.5s-49 71.5 -49 117.5c0 44.667 16.5 83.167 49.5 115.5s72.167 48.5 117.5 48.5z" />
    <glyph glyph-name="uni1EAD" unicode="&#x1ead;" horiz-adv-x="1123" 
d="M564 1372l-136 -166h-177l227 299h173l227 -299h-177zM992 279c0 -109.333 8.33105 -192.999 24.998 -250.999v-28h-269l-23 112c-36.667 -44 -84.667 -77 -144 -99s-121.333 -33 -186 -33c-34 0 -66 3 -96 9s-58.833 16.167 -86.5 30.5s-51.5 32.166 -71.5 53.499
s-36 48.5 -48 81.5s-18 70.167 -18 111.5s6.33301 78.5 19 111.5s29.334 60.833 50.001 83.5s47.667 43 81 61s67.333 32.667 102 44s75.334 22 122.001 32l169 38c36 8.66699 61.5 19.5 76.5 32.5s22.5 30.167 22.5 51.5c0 46 -16.833 79 -50.5 99s-74.5 30 -122.5 30
c-118 0 -185 -52.333 -201 -157l-255 46c21.333 106 71 184.167 149 234.5s185.667 75.5 323 75.5c288 0 432 -123.667 432 -371v-398zM484.998 175.001c72.667 0 132.002 24.833 178.002 74.5s69 123.167 69 220.5l-244 -69c-44.667 -10.667 -78.834 -24.667 -102.501 -42
s-35.5 -42 -35.5 -74c0 -35.333 12.667 -62.5 38 -81.5s57.666 -28.5 96.999 -28.5zM617 -181.999c44.667 0 83.334 -16.167 116.001 -48.5s49 -70.833 49 -115.5c0 -46 -16.333 -85.167 -49 -117.5s-71.334 -48.5 -116.001 -48.5c-46 0 -85.333 16.167 -118 48.5
s-49 71.5 -49 117.5c0 44.667 16.5 83.167 49.5 115.5s72.167 48.5 117.5 48.5z" />
    <glyph glyph-name="uni1EAE" unicode="&#x1eae;" horiz-adv-x="1491" 
d="M1062 2213l-227 -267h-177l262 368zM745 1580c-242.667 0 -364 98.333 -364 295h166c0 -54 17.5 -94.333 52.5 -121s83.5 -40 145.5 -40c63.333 0 112.5 13.167 147.5 39.5s52.5 66.833 52.5 121.5h166c0 -196.667 -122 -295 -366 -295zM1154 0l-105 298h-607l-105 -298
h-307l532 1445h367l532 -1445h-307zM530 549h431l-215 613z" />
    <glyph glyph-name="uni1EAF" unicode="&#x1eaf;" horiz-adv-x="1123" 
d="M880 1914l-227 -268h-177l262 368zM565 1154c-110.667 0 -199.001 30.1689 -265.001 90.502s-99 147.166 -99 260.499h180c0 -64.667 16 -116.834 48 -156.501s77.333 -59.5 136 -59.5c59.333 0 105 19.667 137 59s48 91.666 48 156.999h181
c0 -113.333 -33.167 -200.166 -99.5 -260.499s-155.166 -90.5 -266.499 -90.5zM991.999 279.002c0 -109.333 8.33105 -192.999 24.998 -250.999v-28h-269l-23 112c-36.667 -44 -84.667 -77 -144 -99s-121.333 -33 -186 -33c-34 0 -66 3 -96 9s-58.833 16.167 -86.5 30.5
s-51.5 32.166 -71.5 53.499s-36 48.5 -48 81.5s-18 70.167 -18 111.5s6.33301 78.5 19 111.5s29.334 60.833 50.001 83.5s47.667 43 81 61s67.333 32.667 102 44s75.334 22 122.001 32l169 38c36 8.66699 61.5 19.5 76.5 32.5s22.5 30.167 22.5 51.5
c0 46 -16.833 79 -50.5 99s-74.5 30 -122.5 30c-118 0 -185 -52.333 -201 -157l-255 46c21.333 106 71 184.167 149 234.5s185.667 75.5 323 75.5c288 0 432 -123.667 432 -371v-398zM484.997 175.003c72.667 0 132.002 24.833 178.002 74.5s69 123.167 69 220.5l-244 -69
c-44.667 -10.667 -78.834 -24.667 -102.501 -42s-35.5 -42 -35.5 -74c0 -35.333 12.667 -62.5 38 -81.5s57.666 -28.5 96.999 -28.5z" />
    <glyph glyph-name="uni1EB0" unicode="&#x1eb0;" horiz-adv-x="1491" 
d="M836 1946h-178l-226 267l141 101zM745 1580c-242.667 0 -364 98.333 -364 295h166c0 -54 17.5 -94.333 52.5 -121s83.5 -40 145.5 -40c63.333 0 112.5 13.167 147.5 39.5s52.5 66.833 52.5 121.5h166c0 -196.667 -122 -295 -366 -295zM1154 0l-105 298h-607l-105 -298
h-307l532 1445h367l532 -1445h-307zM530 549h431l-215 613z" />
    <glyph glyph-name="uni1EB1" unicode="&#x1eb1;" horiz-adv-x="1123" 
d="M654 1646h-178l-226 268l141 100zM565 1154c-110.667 0 -199.001 30.1689 -265.001 90.502s-99 147.166 -99 260.499h180c0 -64.667 16 -116.834 48 -156.501s77.333 -59.5 136 -59.5c59.333 0 105 19.667 137 59s48 91.666 48 156.999h181
c0 -113.333 -33.167 -200.166 -99.5 -260.499s-155.166 -90.5 -266.499 -90.5zM991.999 279.002c0 -109.333 8.33105 -192.999 24.998 -250.999v-28h-269l-23 112c-36.667 -44 -84.667 -77 -144 -99s-121.333 -33 -186 -33c-34 0 -66 3 -96 9s-58.833 16.167 -86.5 30.5
s-51.5 32.166 -71.5 53.499s-36 48.5 -48 81.5s-18 70.167 -18 111.5s6.33301 78.5 19 111.5s29.334 60.833 50.001 83.5s47.667 43 81 61s67.333 32.667 102 44s75.334 22 122.001 32l169 38c36 8.66699 61.5 19.5 76.5 32.5s22.5 30.167 22.5 51.5
c0 46 -16.833 79 -50.5 99s-74.5 30 -122.5 30c-118 0 -185 -52.333 -201 -157l-255 46c21.333 106 71 184.167 149 234.5s185.667 75.5 323 75.5c288 0 432 -123.667 432 -371v-398zM484.997 175.003c72.667 0 132.002 24.833 178.002 74.5s69 123.167 69 220.5l-244 -69
c-44.667 -10.667 -78.834 -24.667 -102.501 -42s-35.5 -42 -35.5 -74c0 -35.333 12.667 -62.5 38 -81.5s57.666 -28.5 96.999 -28.5z" />
    <glyph glyph-name="uni1EB2" unicode="&#x1eb2;" horiz-adv-x="1491" 
d="M729 2202c-31.333 0 -59.998 -12.667 -85.998 -38l-67 96c45.333 38.667 101.666 58 168.999 58c61.333 0 109.333 -16 144 -48s52 -74.667 52 -128c0 -78.667 -42 -131 -126 -157v-83h-128v135c74 12.667 111 45 111 97c0 20 -5.83301 36.333 -17.5 49
s-28.834 19 -51.501 19zM745.002 1580c-242.667 0 -364 98.333 -364 295h166c0 -54 17.5 -94.333 52.5 -121s83.5 -40 145.5 -40c63.333 0 112.5 13.167 147.5 39.5s52.5 66.833 52.5 121.5h166c0 -196.667 -122 -295 -366 -295zM1154 0l-105 298h-607l-105 -298h-307
l532 1445h367l532 -1445h-307zM530.002 549h431l-215 613z" />
    <glyph glyph-name="uni1EB3" unicode="&#x1eb3;" horiz-adv-x="1123" 
d="M547 1887c-31.333 0 -59.999 -13.001 -85.999 -39.001l-67 97c46 38 102.333 57 169 57c61.333 0 109.333 -16 144 -48s52 -74.333 52 -127c0 -78.667 -42 -131 -126 -157v-84h-128v135c74 14 111 46.333 111 97c0 20.667 -5.83301 37.334 -17.5 50.001
s-28.834 19 -51.501 19zM565.001 1154c-110.667 0 -199.001 30.1689 -265.001 90.502s-99 147.166 -99 260.499h180c0 -64.667 16 -116.834 48 -156.501s77.333 -59.5 136 -59.5c59.333 0 105 19.667 137 59s48 91.666 48 156.999h181
c0 -113.333 -33.167 -200.166 -99.5 -260.499s-155.166 -90.5 -266.499 -90.5zM992 279.001c0 -109.333 8.33105 -192.999 24.998 -250.999v-28h-269l-23 112c-36.667 -44 -84.667 -77 -144 -99s-121.333 -33 -186 -33c-34 0 -66 3 -96 9s-58.833 16.167 -86.5 30.5
s-51.5 32.166 -71.5 53.499s-36 48.5 -48 81.5s-18 70.167 -18 111.5s6.33301 78.5 19 111.5s29.334 60.833 50.001 83.5s47.667 43 81 61s67.333 32.667 102 44s75.334 22 122.001 32l169 38c36 8.66699 61.5 19.5 76.5 32.5s22.5 30.167 22.5 51.5
c0 46 -16.833 79 -50.5 99s-74.5 30 -122.5 30c-118 0 -185 -52.333 -201 -157l-255 46c21.333 106 71 184.167 149 234.5s185.667 75.5 323 75.5c288 0 432 -123.667 432 -371v-398zM484.998 175.002c72.667 0 132.002 24.833 178.002 74.5s69 123.167 69 220.5l-244 -69
c-44.667 -10.667 -78.834 -24.667 -102.501 -42s-35.5 -42 -35.5 -74c0 -35.333 12.667 -62.5 38 -81.5s57.666 -28.5 96.999 -28.5z" />
    <glyph glyph-name="uni1EB4" unicode="&#x1eb4;" horiz-adv-x="1491" 
d="M631 2106c-27.333 0 -48.168 -12.668 -62.501 -38.001s-21.5 -58.333 -21.5 -99h-151c0 78.667 20.667 142.834 62 192.501s97.333 74.5 168 74.5c68.667 0 124.667 -24.333 168 -73l22.5 -26c11 -12.667 19.167 -21.5 24.5 -26.5s13.166 -10.167 23.499 -15.5
s20.833 -8 31.5 -8c52 0 78 45 78 135h153c0 -78 -20.167 -141.833 -60.5 -191.5s-97.166 -74.5 -170.499 -74.5c-42 0 -75.667 7.16699 -101 21.5s-48.333 33.833 -69 58.5c-2 2 -6 6.83301 -12 14.5l-12 15.5c-2 2.66699 -5.66699 6.83398 -11 12.5
c-5.33301 5.66699 -9.66602 9.5 -12.999 11.5l-13 8c-5.33301 3.33301 -10.833 5.5 -16.5 6.5s-11.5 1.5 -17.5 1.5zM744.998 1580c-242.667 0 -364 98.333 -364 295h166c0 -54 17.5 -94.333 52.5 -121s83.5 -40 145.5 -40c63.333 0 112.5 13.167 147.5 39.5
s52.5 66.833 52.5 121.5h166c0 -196.667 -122 -295 -366 -295zM1154 -0.000976562l-105 298h-607l-105 -298h-307l532 1445h367l532 -1445h-307zM529.998 548.999h431l-215 613z" />
    <glyph glyph-name="uni1EB5" unicode="&#x1eb5;" horiz-adv-x="1123" 
d="M465 1780c-22.667 0 -40 -11.667 -52 -35s-18 -54.333 -18 -93h-137c0 77.333 18.167 140.333 54.5 189s85.5 73 147.5 73c74.667 0 133 -34.333 175 -103c16 -25.333 36 -38 60 -38c44.667 0 67 42.667 67 128h138c0 -76.667 -17.833 -139.5 -53.5 -188.5
s-85.167 -73.5 -148.5 -73.5c-74 0 -132.667 34 -176 102c-16.667 26 -35.667 39 -57 39zM565 1154c-110.667 0 -199.001 30.1689 -265.001 90.502s-99 147.166 -99 260.499h180c0 -64.667 16 -116.834 48 -156.501s77.333 -59.5 136 -59.5c59.333 0 105 19.667 137 59
s48 91.666 48 156.999h181c0 -113.333 -33.167 -200.166 -99.5 -260.499s-155.166 -90.5 -266.499 -90.5zM991.999 279.002c0 -109.333 8.33105 -192.999 24.998 -250.999v-28h-269l-23 112c-36.667 -44 -84.667 -77 -144 -99s-121.333 -33 -186 -33c-34 0 -66 3 -96 9
s-58.833 16.167 -86.5 30.5s-51.5 32.166 -71.5 53.499s-36 48.5 -48 81.5s-18 70.167 -18 111.5s6.33301 78.5 19 111.5s29.334 60.833 50.001 83.5s47.667 43 81 61s67.333 32.667 102 44s75.334 22 122.001 32l169 38c36 8.66699 61.5 19.5 76.5 32.5
s22.5 30.167 22.5 51.5c0 46 -16.833 79 -50.5 99s-74.5 30 -122.5 30c-118 0 -185 -52.333 -201 -157l-255 46c21.333 106 71 184.167 149 234.5s185.667 75.5 323 75.5c288 0 432 -123.667 432 -371v-398zM484.997 175.003c72.667 0 132.002 24.833 178.002 74.5
s69 123.167 69 220.5l-244 -69c-44.667 -10.667 -78.834 -24.667 -102.501 -42s-35.5 -42 -35.5 -74c0 -35.333 12.667 -62.5 38 -81.5s57.666 -28.5 96.999 -28.5z" />
    <glyph glyph-name="uni1EB6" unicode="&#x1eb6;" horiz-adv-x="1491" 
d="M745 1580c-242.667 0 -364 98.333 -364 295h166c0 -54 17.5 -94.333 52.5 -121s83.5 -40 145.5 -40c63.333 0 112.5 13.167 147.5 39.5s52.5 66.833 52.5 121.5h166c0 -196.667 -122 -295 -366 -295zM1461 0h-307l-105 298h-607l-105 -298h-307l532 1445h367zM530 549
h431l-215 613zM747 -182c44.667 0 83.334 -16.167 116.001 -48.5s49 -70.833 49 -115.5c0 -46 -16.333 -85.167 -49 -117.5s-71.334 -48.5 -116.001 -48.5c-46 0 -85.333 16.167 -118 48.5s-49 71.5 -49 117.5c0 44.667 16.5 83.167 49.5 115.5s72.167 48.5 117.5 48.5z" />
    <glyph glyph-name="uni1EB7" unicode="&#x1eb7;" horiz-adv-x="1123" 
d="M565 1154c-110.667 0 -199.001 30.1689 -265.001 90.502s-99 147.166 -99 260.499h180c0 -64.667 16 -116.834 48 -156.501s77.333 -59.5 136 -59.5c59.333 0 105 19.667 137 59s48 91.666 48 156.999h181c0 -113.333 -33.167 -200.166 -99.5 -260.499
s-155.166 -90.5 -266.499 -90.5zM991.999 279.002c0 -109.333 8.33105 -192.999 24.998 -250.999v-28h-269l-23 112c-36.667 -44 -84.667 -77 -144 -99s-121.333 -33 -186 -33c-34 0 -66 3 -96 9s-58.833 16.167 -86.5 30.5s-51.5 32.166 -71.5 53.499s-36 48.5 -48 81.5
s-18 70.167 -18 111.5s6.33301 78.5 19 111.5s29.334 60.833 50.001 83.5s47.667 43 81 61s67.333 32.667 102 44s75.334 22 122.001 32l169 38c36 8.66699 61.5 19.5 76.5 32.5s22.5 30.167 22.5 51.5c0 46 -16.833 79 -50.5 99s-74.5 30 -122.5 30
c-118 0 -185 -52.333 -201 -157l-255 46c21.333 106 71 184.167 149 234.5s185.667 75.5 323 75.5c288 0 432 -123.667 432 -371v-398zM484.997 175.003c72.667 0 132.002 24.833 178.002 74.5s69 123.167 69 220.5l-244 -69c-44.667 -10.667 -78.834 -24.667 -102.501 -42
s-35.5 -42 -35.5 -74c0 -35.333 12.667 -62.5 38 -81.5s57.666 -28.5 96.999 -28.5zM616.999 -181.997c44.667 0 83.334 -16.167 116.001 -48.5s49 -70.833 49 -115.5c0 -46 -16.333 -85.167 -49 -117.5s-71.334 -48.5 -116.001 -48.5c-46 0 -85.333 16.167 -118 48.5
s-49 71.5 -49 117.5c0 44.667 16.5 83.167 49.5 115.5s72.167 48.5 117.5 48.5z" />
    <glyph glyph-name="uni1EB8" unicode="&#x1eb8;" horiz-adv-x="1147" 
d="M1025 1181h-536v-328h475v-261h-475v-327h536v-265h-838v1445h838v-264zM614 -182c44.667 0 83.334 -16.167 116.001 -48.5s49 -70.833 49 -115.5c0 -46 -16.333 -85.167 -49 -117.5s-71.334 -48.5 -116.001 -48.5c-46 0 -85.333 16.167 -118 48.5s-49 71.5 -49 117.5
c0 44.667 16.5 83.167 49.5 115.5s72.167 48.5 117.5 48.5z" />
    <glyph glyph-name="uni1EB9" unicode="&#x1eb9;" horiz-adv-x="1186" 
d="M1116 529l-2.99902 -69h-762c6 -82 33.333 -144.667 82 -188s109 -65 181 -65c52 0 97.167 11.833 135.5 35.5s67.166 58.167 86.499 103.5l264 -39c-34 -103.333 -94 -183.666 -180 -240.999s-187.333 -86 -304 -86c-168 0 -301.5 47.167 -400.5 141.5
s-148.5 225.166 -148.5 392.499c0 166 49.667 296.833 149 392.5s229.666 143.5 390.999 143.5c153.333 0 276.333 -43.667 369 -131s139.334 -217.333 140.001 -390zM609.001 846c-140 0 -223.333 -66 -250 -198h472c-7.33301 64 -31 113 -71 147s-90.333 51 -151 51z
M629.001 -183c44.667 0 83.334 -16.167 116.001 -48.5s49 -70.833 49 -115.5c0 -46 -16.333 -85.167 -49 -117.5s-71.334 -48.5 -116.001 -48.5c-46 0 -85.333 16.167 -118 48.5s-49 71.5 -49 117.5c0 44.667 16.5 83.167 49.5 115.5s72.167 48.5 117.5 48.5z" />
    <glyph glyph-name="uni1EBA" unicode="&#x1eba;" horiz-adv-x="1147" 
d="M595 1836c-31.333 0 -59.998 -12.667 -85.998 -38l-67 96c45.333 38.667 101.666 58 168.999 58c61.333 0 109.333 -16 144 -48s52 -74.667 52 -128c0 -78.667 -42 -131 -126 -157v-83h-128v135c74 12.667 111 45 111 97c0 20 -5.83301 36.333 -17.5 49
s-28.834 19 -51.501 19zM1025 1181h-536v-328h475v-261h-475v-327h536v-265h-838v1445h838v-264z" />
    <glyph glyph-name="uni1EBB" unicode="&#x1ebb;" horiz-adv-x="1186" 
d="M598 1413c-31.333 0 -59.999 -13.001 -85.999 -39.001l-67 97c46 38 102.333 57 169 57c61.333 0 109.333 -16 144 -48s52 -74.333 52 -127c0 -78.667 -42 -131 -126 -157v-84h-128v135c74 14 111 46.333 111 97c0 20.667 -5.83301 37.334 -17.5 50.001
s-28.834 19 -51.501 19zM1116 528.999l-2.99902 -69h-762c6 -82 33.333 -144.667 82 -188s109 -65 181 -65c52 0 97.167 11.833 135.5 35.5s67.166 58.167 86.499 103.5l264 -39c-34 -103.333 -94 -183.666 -180 -240.999s-187.333 -86 -304 -86
c-168 0 -301.5 47.167 -400.5 141.5s-148.5 225.166 -148.5 392.499c0 166 49.667 296.833 149 392.5s229.666 143.5 390.999 143.5c153.333 0 276.333 -43.667 369 -131s139.334 -217.333 140.001 -390zM609.002 845.999c-140 0 -223.333 -66 -250 -198h472
c-7.33301 64 -31 113 -71 147s-90.333 51 -151 51z" />
    <glyph glyph-name="uni1EBC" unicode="&#x1ebc;" horiz-adv-x="1147" 
d="M497 1740c-27.333 0 -48.168 -12.6689 -62.501 -38.002s-21.5 -58.333 -21.5 -99h-151c0 78.667 20.667 142.834 62 192.501s97.333 74.5 168 74.5c68.667 0 124.667 -24.333 168 -73l22.5 -26c11 -12.667 19.167 -21.5 24.5 -26.5s13.166 -10.167 23.499 -15.5
s20.833 -8 31.5 -8c52 0 78 45 78 135h153c0 -78 -20.167 -141.833 -60.5 -191.5s-97.166 -74.5 -170.499 -74.5c-42 0 -75.667 7.16699 -101 21.5s-48.333 33.833 -69 58.5c-2 2 -6 6.83301 -12 14.5l-12 15.5c-2 2.66699 -5.66699 6.83398 -11 12.501
s-9.66602 9.5 -12.999 11.5l-13 8c-5.33301 3.33301 -10.833 5.5 -16.5 6.5s-11.5 1.5 -17.5 1.5zM1025 1181h-536v-328h475v-261h-475v-327h536v-265h-838v1445h838v-264z" />
    <glyph glyph-name="uni1EBD" unicode="&#x1ebd;" horiz-adv-x="1186" 
d="M516 1306c-22.667 0 -40 -11.667 -52 -35s-18 -54.333 -18 -93h-137c0 77.333 18.167 140.333 54.5 189s85.5 73 147.5 73c74.667 0 133 -34.333 175 -103c16 -25.333 36 -38 60 -38c44.667 0 67 42.667 67 128h138c0 -76.667 -17.833 -139.5 -53.5 -188.5
s-85.167 -73.5 -148.5 -73.5c-74 0 -132.667 34 -176 102c-16.667 26 -35.667 39 -57 39zM1116 529l-2.99902 -69h-762c6 -82 33.333 -144.667 82 -188s109 -65 181 -65c52 0 97.167 11.833 135.5 35.5s67.166 58.167 86.499 103.5l264 -39
c-34 -103.333 -94 -183.666 -180 -240.999s-187.333 -86 -304 -86c-168 0 -301.5 47.167 -400.5 141.5s-148.5 225.166 -148.5 392.499c0 166 49.667 296.833 149 392.5s229.666 143.5 390.999 143.5c153.333 0 276.333 -43.667 369 -131s139.334 -217.333 140.001 -390z
M609.001 846c-140 0 -223.333 -66 -250 -198h472c-7.33301 64 -31 113 -71 147s-90.333 51 -151 51z" />
    <glyph glyph-name="uni1EBE" unicode="&#x1ebe;" horiz-adv-x="1147" 
d="M927 2237l-227 -267h-177l262 368zM612 1746l-136 -166h-177l227 299h173l227 -299h-177zM1025 1181h-536v-328h475v-261h-475v-327h536v-265h-838v1445h838v-264z" />
    </font>
</defs>
</svg>
